M48
; DRILL file {KiCad 7.0.1} date Tue Nov 14 13:06:53 2023
; FORMAT={-:-/ absolute / inch / decimal}
; #@! TF.CreationDate,2023-11-14T13:06:53+01:00
; #@! TF.GenerationSoftware,Kicad,Pcbnew,7.0.1
; #@! TF.FileFunction,MixedPlating,1,2
FMAT,2
INCH
; #@! TA.AperFunction,Plated,PTH,ViaDrill
T1C0.0157
; #@! TA.AperFunction,Plated,PTH,ComponentDrill
T2C0.0472
; #@! TA.AperFunction,Plated,PTH,ComponentDrill
T3C0.0591
; #@! TA.AperFunction,Plated,PTH,ComponentDrill
T4C0.0630
; #@! TA.AperFunction,Plated,PTH,ComponentDrill
T5C0.1024
%
G90
G05
T1
X8.1762Y-2.8494
X8.26Y-2.92
X8.3917Y-2.8002
X8.45Y-3.34
X8.4911Y-2.7943
X8.4921Y-2.5581
X8.503Y-3.1555
X8.56Y-2.6831
X8.5699Y-2.5394
X8.622Y-2.6791
X8.6629Y-2.8263
X8.69Y-2.46
X8.7008Y-2.6289
X8.75Y-2.96
X8.81Y-2.56
X8.8287Y-3.2589
X8.88Y-2.96
X8.935Y-2.4281
X8.9421Y-2.7571
X8.95Y-2.93
X9.0059Y-3.1486
X9.0384Y-2.4961
X9.0423Y-3.0915
X9.07Y-2.85
X9.0728Y-2.9872
X9.08Y-2.89
X9.1093Y-2.9557
X9.1214Y-2.9931
X9.1781Y-3.0059
X9.187Y-2.8346
X9.2283Y-2.7835
X9.26Y-2.7
X9.26Y-2.85
X9.2657Y-3.2589
X9.2726Y-2.9232
X9.38Y-3.13
X9.3868Y-2.314
X9.4262Y-2.4646
X9.4488Y-3.497
X9.48Y-2.68
X9.48Y-2.98
X9.4852Y-2.6132
X9.5217Y-2.2087
X9.5335Y-2.4656
X9.58Y-2.98
X9.65Y-3.05
X9.7205Y-2.2116
X9.7726Y-2.5679
X9.7874Y-2.314
X9.7904Y-3.0207
X9.8396Y-2.0492
X9.843Y-3.1216
X9.86Y-3.174
X9.8819Y-2.872
X9.8947Y-2.5581
X9.9685Y-2.1348
X9.9734Y-2.5758
X9.9774Y-3.2333
X9.98Y-2.43
X10.14Y-3.55
X10.2067Y-2.1379
T2
X8.1699Y-3.2795
T4
X8.1699Y-3.1378
X8.1699Y-3.4213
T5
X8.8886Y-3.4461
X9.2886Y-3.4461
X10.1053Y-2.9774
X10.1053Y-3.3774
X10.1073Y-2.0358
X10.1073Y-2.3358
X10.1073Y-2.6358
T3
G00X8.2844Y-3.1378
M15
G01X8.3041Y-3.1378
M16
G05
G00X8.2844Y-3.4213
M15
G01X8.3041Y-3.4213
M16
G05
T0
M30
