%TF.GenerationSoftware,KiCad,Pcbnew,7.0.1*%
%TF.CreationDate,2023-11-12T20:21:58+01:00*%
%TF.ProjectId,Driver_detector,44726976-6572-45f6-9465-746563746f72,rev?*%
%TF.SameCoordinates,Original*%
%TF.FileFunction,Legend,Top*%
%TF.FilePolarity,Positive*%
%FSLAX46Y46*%
G04 Gerber Fmt 4.6, Leading zero omitted, Abs format (unit mm)*
G04 Created by KiCad (PCBNEW 7.0.1) date 2023-11-12 20:21:58*
%MOMM*%
%LPD*%
G01*
G04 APERTURE LIST*
%ADD10C,0.150000*%
%ADD11C,0.300000*%
%ADD12C,0.100000*%
%ADD13C,0.200000*%
%ADD14C,0.254000*%
%ADD15C,0.120000*%
%ADD16C,0.127000*%
%ADD17C,0.250000*%
G04 APERTURE END LIST*
D10*
X203136476Y-83904000D02*
X203279333Y-83951619D01*
X203279333Y-83951619D02*
X203517428Y-83951619D01*
X203517428Y-83951619D02*
X203612666Y-83904000D01*
X203612666Y-83904000D02*
X203660285Y-83856380D01*
X203660285Y-83856380D02*
X203707904Y-83761142D01*
X203707904Y-83761142D02*
X203707904Y-83665904D01*
X203707904Y-83665904D02*
X203660285Y-83570666D01*
X203660285Y-83570666D02*
X203612666Y-83523047D01*
X203612666Y-83523047D02*
X203517428Y-83475428D01*
X203517428Y-83475428D02*
X203326952Y-83427809D01*
X203326952Y-83427809D02*
X203231714Y-83380190D01*
X203231714Y-83380190D02*
X203184095Y-83332571D01*
X203184095Y-83332571D02*
X203136476Y-83237333D01*
X203136476Y-83237333D02*
X203136476Y-83142095D01*
X203136476Y-83142095D02*
X203184095Y-83046857D01*
X203184095Y-83046857D02*
X203231714Y-82999238D01*
X203231714Y-82999238D02*
X203326952Y-82951619D01*
X203326952Y-82951619D02*
X203565047Y-82951619D01*
X203565047Y-82951619D02*
X203707904Y-82999238D01*
X204136476Y-83951619D02*
X204136476Y-82951619D01*
X204136476Y-82951619D02*
X204469809Y-83665904D01*
X204469809Y-83665904D02*
X204803142Y-82951619D01*
X204803142Y-82951619D02*
X204803142Y-83951619D01*
X205231714Y-83665904D02*
X205707904Y-83665904D01*
X205136476Y-83951619D02*
X205469809Y-82951619D01*
X205469809Y-82951619D02*
X205803142Y-83951619D01*
D11*
X254732142Y-79580714D02*
X254946428Y-79652142D01*
X254946428Y-79652142D02*
X255017857Y-79723571D01*
X255017857Y-79723571D02*
X255089285Y-79866428D01*
X255089285Y-79866428D02*
X255089285Y-80080714D01*
X255089285Y-80080714D02*
X255017857Y-80223571D01*
X255017857Y-80223571D02*
X254946428Y-80295000D01*
X254946428Y-80295000D02*
X254803571Y-80366428D01*
X254803571Y-80366428D02*
X254232142Y-80366428D01*
X254232142Y-80366428D02*
X254232142Y-78866428D01*
X254232142Y-78866428D02*
X254732142Y-78866428D01*
X254732142Y-78866428D02*
X254875000Y-78937857D01*
X254875000Y-78937857D02*
X254946428Y-79009285D01*
X254946428Y-79009285D02*
X255017857Y-79152142D01*
X255017857Y-79152142D02*
X255017857Y-79295000D01*
X255017857Y-79295000D02*
X254946428Y-79437857D01*
X254946428Y-79437857D02*
X254875000Y-79509285D01*
X254875000Y-79509285D02*
X254732142Y-79580714D01*
X254732142Y-79580714D02*
X254232142Y-79580714D01*
X255660714Y-79937857D02*
X256375000Y-79937857D01*
X255517857Y-80366428D02*
X256017857Y-78866428D01*
X256017857Y-78866428D02*
X256517857Y-80366428D01*
X256803571Y-78866428D02*
X257660714Y-78866428D01*
X257232142Y-80366428D02*
X257232142Y-78866428D01*
X258160713Y-79795000D02*
X259303571Y-79795000D01*
X258732142Y-80366428D02*
X258732142Y-79223571D01*
D12*
X257259523Y-48170190D02*
X257183333Y-48132095D01*
X257183333Y-48132095D02*
X257069047Y-48132095D01*
X257069047Y-48132095D02*
X256954761Y-48170190D01*
X256954761Y-48170190D02*
X256878571Y-48246380D01*
X256878571Y-48246380D02*
X256840476Y-48322571D01*
X256840476Y-48322571D02*
X256802380Y-48474952D01*
X256802380Y-48474952D02*
X256802380Y-48589238D01*
X256802380Y-48589238D02*
X256840476Y-48741619D01*
X256840476Y-48741619D02*
X256878571Y-48817809D01*
X256878571Y-48817809D02*
X256954761Y-48894000D01*
X256954761Y-48894000D02*
X257069047Y-48932095D01*
X257069047Y-48932095D02*
X257145238Y-48932095D01*
X257145238Y-48932095D02*
X257259523Y-48894000D01*
X257259523Y-48894000D02*
X257297619Y-48855904D01*
X257297619Y-48855904D02*
X257297619Y-48589238D01*
X257297619Y-48589238D02*
X257145238Y-48589238D01*
X257640476Y-48932095D02*
X257640476Y-48132095D01*
X257640476Y-48132095D02*
X258097619Y-48932095D01*
X258097619Y-48932095D02*
X258097619Y-48132095D01*
X258478571Y-48932095D02*
X258478571Y-48132095D01*
X258478571Y-48132095D02*
X258669047Y-48132095D01*
X258669047Y-48132095D02*
X258783333Y-48170190D01*
X258783333Y-48170190D02*
X258859523Y-48246380D01*
X258859523Y-48246380D02*
X258897618Y-48322571D01*
X258897618Y-48322571D02*
X258935714Y-48474952D01*
X258935714Y-48474952D02*
X258935714Y-48589238D01*
X258935714Y-48589238D02*
X258897618Y-48741619D01*
X258897618Y-48741619D02*
X258859523Y-48817809D01*
X258859523Y-48817809D02*
X258783333Y-48894000D01*
X258783333Y-48894000D02*
X258669047Y-48932095D01*
X258669047Y-48932095D02*
X258478571Y-48932095D01*
D11*
X255367857Y-89362857D02*
X255225000Y-89291428D01*
X255225000Y-89291428D02*
X255010714Y-89291428D01*
X255010714Y-89291428D02*
X254796428Y-89362857D01*
X254796428Y-89362857D02*
X254653571Y-89505714D01*
X254653571Y-89505714D02*
X254582142Y-89648571D01*
X254582142Y-89648571D02*
X254510714Y-89934285D01*
X254510714Y-89934285D02*
X254510714Y-90148571D01*
X254510714Y-90148571D02*
X254582142Y-90434285D01*
X254582142Y-90434285D02*
X254653571Y-90577142D01*
X254653571Y-90577142D02*
X254796428Y-90720000D01*
X254796428Y-90720000D02*
X255010714Y-90791428D01*
X255010714Y-90791428D02*
X255153571Y-90791428D01*
X255153571Y-90791428D02*
X255367857Y-90720000D01*
X255367857Y-90720000D02*
X255439285Y-90648571D01*
X255439285Y-90648571D02*
X255439285Y-90148571D01*
X255439285Y-90148571D02*
X255153571Y-90148571D01*
X256082142Y-90791428D02*
X256082142Y-89291428D01*
X256082142Y-89291428D02*
X256939285Y-90791428D01*
X256939285Y-90791428D02*
X256939285Y-89291428D01*
X257653571Y-90791428D02*
X257653571Y-89291428D01*
X257653571Y-89291428D02*
X258010714Y-89291428D01*
X258010714Y-89291428D02*
X258225000Y-89362857D01*
X258225000Y-89362857D02*
X258367857Y-89505714D01*
X258367857Y-89505714D02*
X258439286Y-89648571D01*
X258439286Y-89648571D02*
X258510714Y-89934285D01*
X258510714Y-89934285D02*
X258510714Y-90148571D01*
X258510714Y-90148571D02*
X258439286Y-90434285D01*
X258439286Y-90434285D02*
X258367857Y-90577142D01*
X258367857Y-90577142D02*
X258225000Y-90720000D01*
X258225000Y-90720000D02*
X258010714Y-90791428D01*
X258010714Y-90791428D02*
X257653571Y-90791428D01*
D12*
X257362857Y-69606095D02*
X257515238Y-69606095D01*
X257515238Y-69606095D02*
X257591428Y-69644190D01*
X257591428Y-69644190D02*
X257667619Y-69720380D01*
X257667619Y-69720380D02*
X257705714Y-69872761D01*
X257705714Y-69872761D02*
X257705714Y-70139428D01*
X257705714Y-70139428D02*
X257667619Y-70291809D01*
X257667619Y-70291809D02*
X257591428Y-70368000D01*
X257591428Y-70368000D02*
X257515238Y-70406095D01*
X257515238Y-70406095D02*
X257362857Y-70406095D01*
X257362857Y-70406095D02*
X257286666Y-70368000D01*
X257286666Y-70368000D02*
X257210476Y-70291809D01*
X257210476Y-70291809D02*
X257172380Y-70139428D01*
X257172380Y-70139428D02*
X257172380Y-69872761D01*
X257172380Y-69872761D02*
X257210476Y-69720380D01*
X257210476Y-69720380D02*
X257286666Y-69644190D01*
X257286666Y-69644190D02*
X257362857Y-69606095D01*
X258048571Y-69606095D02*
X258048571Y-70253714D01*
X258048571Y-70253714D02*
X258086666Y-70329904D01*
X258086666Y-70329904D02*
X258124761Y-70368000D01*
X258124761Y-70368000D02*
X258200952Y-70406095D01*
X258200952Y-70406095D02*
X258353333Y-70406095D01*
X258353333Y-70406095D02*
X258429523Y-70368000D01*
X258429523Y-70368000D02*
X258467618Y-70329904D01*
X258467618Y-70329904D02*
X258505714Y-70253714D01*
X258505714Y-70253714D02*
X258505714Y-69606095D01*
X258772380Y-69606095D02*
X259229523Y-69606095D01*
X259000951Y-70406095D02*
X259000951Y-69606095D01*
X257172380Y-71664000D02*
X257286666Y-71702095D01*
X257286666Y-71702095D02*
X257477142Y-71702095D01*
X257477142Y-71702095D02*
X257553333Y-71664000D01*
X257553333Y-71664000D02*
X257591428Y-71625904D01*
X257591428Y-71625904D02*
X257629523Y-71549714D01*
X257629523Y-71549714D02*
X257629523Y-71473523D01*
X257629523Y-71473523D02*
X257591428Y-71397333D01*
X257591428Y-71397333D02*
X257553333Y-71359238D01*
X257553333Y-71359238D02*
X257477142Y-71321142D01*
X257477142Y-71321142D02*
X257324761Y-71283047D01*
X257324761Y-71283047D02*
X257248571Y-71244952D01*
X257248571Y-71244952D02*
X257210476Y-71206857D01*
X257210476Y-71206857D02*
X257172380Y-71130666D01*
X257172380Y-71130666D02*
X257172380Y-71054476D01*
X257172380Y-71054476D02*
X257210476Y-70978285D01*
X257210476Y-70978285D02*
X257248571Y-70940190D01*
X257248571Y-70940190D02*
X257324761Y-70902095D01*
X257324761Y-70902095D02*
X257515238Y-70902095D01*
X257515238Y-70902095D02*
X257629523Y-70940190D01*
X258277143Y-71664000D02*
X258200952Y-71702095D01*
X258200952Y-71702095D02*
X258048571Y-71702095D01*
X258048571Y-71702095D02*
X257972381Y-71664000D01*
X257972381Y-71664000D02*
X257934285Y-71587809D01*
X257934285Y-71587809D02*
X257934285Y-71283047D01*
X257934285Y-71283047D02*
X257972381Y-71206857D01*
X257972381Y-71206857D02*
X258048571Y-71168761D01*
X258048571Y-71168761D02*
X258200952Y-71168761D01*
X258200952Y-71168761D02*
X258277143Y-71206857D01*
X258277143Y-71206857D02*
X258315238Y-71283047D01*
X258315238Y-71283047D02*
X258315238Y-71359238D01*
X258315238Y-71359238D02*
X257934285Y-71435428D01*
X259000952Y-71702095D02*
X259000952Y-71283047D01*
X259000952Y-71283047D02*
X258962857Y-71206857D01*
X258962857Y-71206857D02*
X258886666Y-71168761D01*
X258886666Y-71168761D02*
X258734285Y-71168761D01*
X258734285Y-71168761D02*
X258658095Y-71206857D01*
X259000952Y-71664000D02*
X258924761Y-71702095D01*
X258924761Y-71702095D02*
X258734285Y-71702095D01*
X258734285Y-71702095D02*
X258658095Y-71664000D01*
X258658095Y-71664000D02*
X258619999Y-71587809D01*
X258619999Y-71587809D02*
X258619999Y-71511619D01*
X258619999Y-71511619D02*
X258658095Y-71435428D01*
X258658095Y-71435428D02*
X258734285Y-71397333D01*
X258734285Y-71397333D02*
X258924761Y-71397333D01*
X258924761Y-71397333D02*
X259000952Y-71359238D01*
X259267619Y-71168761D02*
X259572381Y-71168761D01*
X259381905Y-70902095D02*
X259381905Y-71587809D01*
X259381905Y-71587809D02*
X259420000Y-71664000D01*
X259420000Y-71664000D02*
X259496190Y-71702095D01*
X259496190Y-71702095D02*
X259572381Y-71702095D01*
D13*
X230386904Y-87025238D02*
X230291666Y-86977619D01*
X230291666Y-86977619D02*
X230148809Y-86977619D01*
X230148809Y-86977619D02*
X230005952Y-87025238D01*
X230005952Y-87025238D02*
X229910714Y-87120476D01*
X229910714Y-87120476D02*
X229863095Y-87215714D01*
X229863095Y-87215714D02*
X229815476Y-87406190D01*
X229815476Y-87406190D02*
X229815476Y-87549047D01*
X229815476Y-87549047D02*
X229863095Y-87739523D01*
X229863095Y-87739523D02*
X229910714Y-87834761D01*
X229910714Y-87834761D02*
X230005952Y-87930000D01*
X230005952Y-87930000D02*
X230148809Y-87977619D01*
X230148809Y-87977619D02*
X230244047Y-87977619D01*
X230244047Y-87977619D02*
X230386904Y-87930000D01*
X230386904Y-87930000D02*
X230434523Y-87882380D01*
X230434523Y-87882380D02*
X230434523Y-87549047D01*
X230434523Y-87549047D02*
X230244047Y-87549047D01*
X230863095Y-87977619D02*
X230863095Y-86977619D01*
X230863095Y-86977619D02*
X231434523Y-87977619D01*
X231434523Y-87977619D02*
X231434523Y-86977619D01*
X231910714Y-87977619D02*
X231910714Y-86977619D01*
X231910714Y-86977619D02*
X232148809Y-86977619D01*
X232148809Y-86977619D02*
X232291666Y-87025238D01*
X232291666Y-87025238D02*
X232386904Y-87120476D01*
X232386904Y-87120476D02*
X232434523Y-87215714D01*
X232434523Y-87215714D02*
X232482142Y-87406190D01*
X232482142Y-87406190D02*
X232482142Y-87549047D01*
X232482142Y-87549047D02*
X232434523Y-87739523D01*
X232434523Y-87739523D02*
X232386904Y-87834761D01*
X232386904Y-87834761D02*
X232291666Y-87930000D01*
X232291666Y-87930000D02*
X232148809Y-87977619D01*
X232148809Y-87977619D02*
X231910714Y-87977619D01*
D11*
X220592857Y-85166428D02*
X221092857Y-86666428D01*
X221092857Y-86666428D02*
X221592857Y-85166428D01*
X222092856Y-86095000D02*
X223235714Y-86095000D01*
X222664285Y-86666428D02*
X222664285Y-85523571D01*
D10*
%TO.C,C5*%
X215983333Y-78967380D02*
X215935714Y-79015000D01*
X215935714Y-79015000D02*
X215792857Y-79062619D01*
X215792857Y-79062619D02*
X215697619Y-79062619D01*
X215697619Y-79062619D02*
X215554762Y-79015000D01*
X215554762Y-79015000D02*
X215459524Y-78919761D01*
X215459524Y-78919761D02*
X215411905Y-78824523D01*
X215411905Y-78824523D02*
X215364286Y-78634047D01*
X215364286Y-78634047D02*
X215364286Y-78491190D01*
X215364286Y-78491190D02*
X215411905Y-78300714D01*
X215411905Y-78300714D02*
X215459524Y-78205476D01*
X215459524Y-78205476D02*
X215554762Y-78110238D01*
X215554762Y-78110238D02*
X215697619Y-78062619D01*
X215697619Y-78062619D02*
X215792857Y-78062619D01*
X215792857Y-78062619D02*
X215935714Y-78110238D01*
X215935714Y-78110238D02*
X215983333Y-78157857D01*
X216888095Y-78062619D02*
X216411905Y-78062619D01*
X216411905Y-78062619D02*
X216364286Y-78538809D01*
X216364286Y-78538809D02*
X216411905Y-78491190D01*
X216411905Y-78491190D02*
X216507143Y-78443571D01*
X216507143Y-78443571D02*
X216745238Y-78443571D01*
X216745238Y-78443571D02*
X216840476Y-78491190D01*
X216840476Y-78491190D02*
X216888095Y-78538809D01*
X216888095Y-78538809D02*
X216935714Y-78634047D01*
X216935714Y-78634047D02*
X216935714Y-78872142D01*
X216935714Y-78872142D02*
X216888095Y-78967380D01*
X216888095Y-78967380D02*
X216840476Y-79015000D01*
X216840476Y-79015000D02*
X216745238Y-79062619D01*
X216745238Y-79062619D02*
X216507143Y-79062619D01*
X216507143Y-79062619D02*
X216411905Y-79015000D01*
X216411905Y-79015000D02*
X216364286Y-78967380D01*
%TO.C,SDA_SENS1*%
X201800000Y-64205000D02*
X201942857Y-64252619D01*
X201942857Y-64252619D02*
X202180952Y-64252619D01*
X202180952Y-64252619D02*
X202276190Y-64205000D01*
X202276190Y-64205000D02*
X202323809Y-64157380D01*
X202323809Y-64157380D02*
X202371428Y-64062142D01*
X202371428Y-64062142D02*
X202371428Y-63966904D01*
X202371428Y-63966904D02*
X202323809Y-63871666D01*
X202323809Y-63871666D02*
X202276190Y-63824047D01*
X202276190Y-63824047D02*
X202180952Y-63776428D01*
X202180952Y-63776428D02*
X201990476Y-63728809D01*
X201990476Y-63728809D02*
X201895238Y-63681190D01*
X201895238Y-63681190D02*
X201847619Y-63633571D01*
X201847619Y-63633571D02*
X201800000Y-63538333D01*
X201800000Y-63538333D02*
X201800000Y-63443095D01*
X201800000Y-63443095D02*
X201847619Y-63347857D01*
X201847619Y-63347857D02*
X201895238Y-63300238D01*
X201895238Y-63300238D02*
X201990476Y-63252619D01*
X201990476Y-63252619D02*
X202228571Y-63252619D01*
X202228571Y-63252619D02*
X202371428Y-63300238D01*
X202800000Y-64252619D02*
X202800000Y-63252619D01*
X202800000Y-63252619D02*
X203038095Y-63252619D01*
X203038095Y-63252619D02*
X203180952Y-63300238D01*
X203180952Y-63300238D02*
X203276190Y-63395476D01*
X203276190Y-63395476D02*
X203323809Y-63490714D01*
X203323809Y-63490714D02*
X203371428Y-63681190D01*
X203371428Y-63681190D02*
X203371428Y-63824047D01*
X203371428Y-63824047D02*
X203323809Y-64014523D01*
X203323809Y-64014523D02*
X203276190Y-64109761D01*
X203276190Y-64109761D02*
X203180952Y-64205000D01*
X203180952Y-64205000D02*
X203038095Y-64252619D01*
X203038095Y-64252619D02*
X202800000Y-64252619D01*
X203752381Y-63966904D02*
X204228571Y-63966904D01*
X203657143Y-64252619D02*
X203990476Y-63252619D01*
X203990476Y-63252619D02*
X204323809Y-64252619D01*
X204419048Y-64347857D02*
X205180952Y-64347857D01*
X205371429Y-64205000D02*
X205514286Y-64252619D01*
X205514286Y-64252619D02*
X205752381Y-64252619D01*
X205752381Y-64252619D02*
X205847619Y-64205000D01*
X205847619Y-64205000D02*
X205895238Y-64157380D01*
X205895238Y-64157380D02*
X205942857Y-64062142D01*
X205942857Y-64062142D02*
X205942857Y-63966904D01*
X205942857Y-63966904D02*
X205895238Y-63871666D01*
X205895238Y-63871666D02*
X205847619Y-63824047D01*
X205847619Y-63824047D02*
X205752381Y-63776428D01*
X205752381Y-63776428D02*
X205561905Y-63728809D01*
X205561905Y-63728809D02*
X205466667Y-63681190D01*
X205466667Y-63681190D02*
X205419048Y-63633571D01*
X205419048Y-63633571D02*
X205371429Y-63538333D01*
X205371429Y-63538333D02*
X205371429Y-63443095D01*
X205371429Y-63443095D02*
X205419048Y-63347857D01*
X205419048Y-63347857D02*
X205466667Y-63300238D01*
X205466667Y-63300238D02*
X205561905Y-63252619D01*
X205561905Y-63252619D02*
X205800000Y-63252619D01*
X205800000Y-63252619D02*
X205942857Y-63300238D01*
X206371429Y-63728809D02*
X206704762Y-63728809D01*
X206847619Y-64252619D02*
X206371429Y-64252619D01*
X206371429Y-64252619D02*
X206371429Y-63252619D01*
X206371429Y-63252619D02*
X206847619Y-63252619D01*
X207276191Y-64252619D02*
X207276191Y-63252619D01*
X207276191Y-63252619D02*
X207847619Y-64252619D01*
X207847619Y-64252619D02*
X207847619Y-63252619D01*
X208276191Y-64205000D02*
X208419048Y-64252619D01*
X208419048Y-64252619D02*
X208657143Y-64252619D01*
X208657143Y-64252619D02*
X208752381Y-64205000D01*
X208752381Y-64205000D02*
X208800000Y-64157380D01*
X208800000Y-64157380D02*
X208847619Y-64062142D01*
X208847619Y-64062142D02*
X208847619Y-63966904D01*
X208847619Y-63966904D02*
X208800000Y-63871666D01*
X208800000Y-63871666D02*
X208752381Y-63824047D01*
X208752381Y-63824047D02*
X208657143Y-63776428D01*
X208657143Y-63776428D02*
X208466667Y-63728809D01*
X208466667Y-63728809D02*
X208371429Y-63681190D01*
X208371429Y-63681190D02*
X208323810Y-63633571D01*
X208323810Y-63633571D02*
X208276191Y-63538333D01*
X208276191Y-63538333D02*
X208276191Y-63443095D01*
X208276191Y-63443095D02*
X208323810Y-63347857D01*
X208323810Y-63347857D02*
X208371429Y-63300238D01*
X208371429Y-63300238D02*
X208466667Y-63252619D01*
X208466667Y-63252619D02*
X208704762Y-63252619D01*
X208704762Y-63252619D02*
X208847619Y-63300238D01*
X209800000Y-64252619D02*
X209228572Y-64252619D01*
X209514286Y-64252619D02*
X209514286Y-63252619D01*
X209514286Y-63252619D02*
X209419048Y-63395476D01*
X209419048Y-63395476D02*
X209323810Y-63490714D01*
X209323810Y-63490714D02*
X209228572Y-63538333D01*
%TO.C,R1*%
X231808333Y-61262619D02*
X231475000Y-60786428D01*
X231236905Y-61262619D02*
X231236905Y-60262619D01*
X231236905Y-60262619D02*
X231617857Y-60262619D01*
X231617857Y-60262619D02*
X231713095Y-60310238D01*
X231713095Y-60310238D02*
X231760714Y-60357857D01*
X231760714Y-60357857D02*
X231808333Y-60453095D01*
X231808333Y-60453095D02*
X231808333Y-60595952D01*
X231808333Y-60595952D02*
X231760714Y-60691190D01*
X231760714Y-60691190D02*
X231713095Y-60738809D01*
X231713095Y-60738809D02*
X231617857Y-60786428D01*
X231617857Y-60786428D02*
X231236905Y-60786428D01*
X232760714Y-61262619D02*
X232189286Y-61262619D01*
X232475000Y-61262619D02*
X232475000Y-60262619D01*
X232475000Y-60262619D02*
X232379762Y-60405476D01*
X232379762Y-60405476D02*
X232284524Y-60500714D01*
X232284524Y-60500714D02*
X232189286Y-60548333D01*
%TO.C,SDA_MCU1*%
X212083333Y-73667000D02*
X212226190Y-73714619D01*
X212226190Y-73714619D02*
X212464285Y-73714619D01*
X212464285Y-73714619D02*
X212559523Y-73667000D01*
X212559523Y-73667000D02*
X212607142Y-73619380D01*
X212607142Y-73619380D02*
X212654761Y-73524142D01*
X212654761Y-73524142D02*
X212654761Y-73428904D01*
X212654761Y-73428904D02*
X212607142Y-73333666D01*
X212607142Y-73333666D02*
X212559523Y-73286047D01*
X212559523Y-73286047D02*
X212464285Y-73238428D01*
X212464285Y-73238428D02*
X212273809Y-73190809D01*
X212273809Y-73190809D02*
X212178571Y-73143190D01*
X212178571Y-73143190D02*
X212130952Y-73095571D01*
X212130952Y-73095571D02*
X212083333Y-73000333D01*
X212083333Y-73000333D02*
X212083333Y-72905095D01*
X212083333Y-72905095D02*
X212130952Y-72809857D01*
X212130952Y-72809857D02*
X212178571Y-72762238D01*
X212178571Y-72762238D02*
X212273809Y-72714619D01*
X212273809Y-72714619D02*
X212511904Y-72714619D01*
X212511904Y-72714619D02*
X212654761Y-72762238D01*
X213083333Y-73714619D02*
X213083333Y-72714619D01*
X213083333Y-72714619D02*
X213321428Y-72714619D01*
X213321428Y-72714619D02*
X213464285Y-72762238D01*
X213464285Y-72762238D02*
X213559523Y-72857476D01*
X213559523Y-72857476D02*
X213607142Y-72952714D01*
X213607142Y-72952714D02*
X213654761Y-73143190D01*
X213654761Y-73143190D02*
X213654761Y-73286047D01*
X213654761Y-73286047D02*
X213607142Y-73476523D01*
X213607142Y-73476523D02*
X213559523Y-73571761D01*
X213559523Y-73571761D02*
X213464285Y-73667000D01*
X213464285Y-73667000D02*
X213321428Y-73714619D01*
X213321428Y-73714619D02*
X213083333Y-73714619D01*
X214035714Y-73428904D02*
X214511904Y-73428904D01*
X213940476Y-73714619D02*
X214273809Y-72714619D01*
X214273809Y-72714619D02*
X214607142Y-73714619D01*
X214702381Y-73809857D02*
X215464285Y-73809857D01*
X215702381Y-73714619D02*
X215702381Y-72714619D01*
X215702381Y-72714619D02*
X216035714Y-73428904D01*
X216035714Y-73428904D02*
X216369047Y-72714619D01*
X216369047Y-72714619D02*
X216369047Y-73714619D01*
X217416666Y-73619380D02*
X217369047Y-73667000D01*
X217369047Y-73667000D02*
X217226190Y-73714619D01*
X217226190Y-73714619D02*
X217130952Y-73714619D01*
X217130952Y-73714619D02*
X216988095Y-73667000D01*
X216988095Y-73667000D02*
X216892857Y-73571761D01*
X216892857Y-73571761D02*
X216845238Y-73476523D01*
X216845238Y-73476523D02*
X216797619Y-73286047D01*
X216797619Y-73286047D02*
X216797619Y-73143190D01*
X216797619Y-73143190D02*
X216845238Y-72952714D01*
X216845238Y-72952714D02*
X216892857Y-72857476D01*
X216892857Y-72857476D02*
X216988095Y-72762238D01*
X216988095Y-72762238D02*
X217130952Y-72714619D01*
X217130952Y-72714619D02*
X217226190Y-72714619D01*
X217226190Y-72714619D02*
X217369047Y-72762238D01*
X217369047Y-72762238D02*
X217416666Y-72809857D01*
X217845238Y-72714619D02*
X217845238Y-73524142D01*
X217845238Y-73524142D02*
X217892857Y-73619380D01*
X217892857Y-73619380D02*
X217940476Y-73667000D01*
X217940476Y-73667000D02*
X218035714Y-73714619D01*
X218035714Y-73714619D02*
X218226190Y-73714619D01*
X218226190Y-73714619D02*
X218321428Y-73667000D01*
X218321428Y-73667000D02*
X218369047Y-73619380D01*
X218369047Y-73619380D02*
X218416666Y-73524142D01*
X218416666Y-73524142D02*
X218416666Y-72714619D01*
X219416666Y-73714619D02*
X218845238Y-73714619D01*
X219130952Y-73714619D02*
X219130952Y-72714619D01*
X219130952Y-72714619D02*
X219035714Y-72857476D01*
X219035714Y-72857476D02*
X218940476Y-72952714D01*
X218940476Y-72952714D02*
X218845238Y-73000333D01*
%TO.C,U1*%
X232769595Y-69185619D02*
X232769595Y-69995142D01*
X232769595Y-69995142D02*
X232817214Y-70090380D01*
X232817214Y-70090380D02*
X232864833Y-70138000D01*
X232864833Y-70138000D02*
X232960071Y-70185619D01*
X232960071Y-70185619D02*
X233150547Y-70185619D01*
X233150547Y-70185619D02*
X233245785Y-70138000D01*
X233245785Y-70138000D02*
X233293404Y-70090380D01*
X233293404Y-70090380D02*
X233341023Y-69995142D01*
X233341023Y-69995142D02*
X233341023Y-69185619D01*
X234341023Y-70185619D02*
X233769595Y-70185619D01*
X234055309Y-70185619D02*
X234055309Y-69185619D01*
X234055309Y-69185619D02*
X233960071Y-69328476D01*
X233960071Y-69328476D02*
X233864833Y-69423714D01*
X233864833Y-69423714D02*
X233769595Y-69471333D01*
%TO.C,JP1*%
X233936666Y-55452619D02*
X233936666Y-56166904D01*
X233936666Y-56166904D02*
X233889047Y-56309761D01*
X233889047Y-56309761D02*
X233793809Y-56405000D01*
X233793809Y-56405000D02*
X233650952Y-56452619D01*
X233650952Y-56452619D02*
X233555714Y-56452619D01*
X234412857Y-56452619D02*
X234412857Y-55452619D01*
X234412857Y-55452619D02*
X234793809Y-55452619D01*
X234793809Y-55452619D02*
X234889047Y-55500238D01*
X234889047Y-55500238D02*
X234936666Y-55547857D01*
X234936666Y-55547857D02*
X234984285Y-55643095D01*
X234984285Y-55643095D02*
X234984285Y-55785952D01*
X234984285Y-55785952D02*
X234936666Y-55881190D01*
X234936666Y-55881190D02*
X234889047Y-55928809D01*
X234889047Y-55928809D02*
X234793809Y-55976428D01*
X234793809Y-55976428D02*
X234412857Y-55976428D01*
X235936666Y-56452619D02*
X235365238Y-56452619D01*
X235650952Y-56452619D02*
X235650952Y-55452619D01*
X235650952Y-55452619D02*
X235555714Y-55595476D01*
X235555714Y-55595476D02*
X235460476Y-55690714D01*
X235460476Y-55690714D02*
X235365238Y-55738333D01*
%TO.C,L3*%
X233762619Y-64216666D02*
X233762619Y-64692856D01*
X233762619Y-64692856D02*
X232762619Y-64692856D01*
X232762619Y-63978570D02*
X232762619Y-63359523D01*
X232762619Y-63359523D02*
X233143571Y-63692856D01*
X233143571Y-63692856D02*
X233143571Y-63549999D01*
X233143571Y-63549999D02*
X233191190Y-63454761D01*
X233191190Y-63454761D02*
X233238809Y-63407142D01*
X233238809Y-63407142D02*
X233334047Y-63359523D01*
X233334047Y-63359523D02*
X233572142Y-63359523D01*
X233572142Y-63359523D02*
X233667380Y-63407142D01*
X233667380Y-63407142D02*
X233715000Y-63454761D01*
X233715000Y-63454761D02*
X233762619Y-63549999D01*
X233762619Y-63549999D02*
X233762619Y-63835713D01*
X233762619Y-63835713D02*
X233715000Y-63930951D01*
X233715000Y-63930951D02*
X233667380Y-63978570D01*
%TO.C,1V8TPS1*%
X226747618Y-58062619D02*
X226176190Y-58062619D01*
X226461904Y-58062619D02*
X226461904Y-57062619D01*
X226461904Y-57062619D02*
X226366666Y-57205476D01*
X226366666Y-57205476D02*
X226271428Y-57300714D01*
X226271428Y-57300714D02*
X226176190Y-57348333D01*
X227033333Y-57062619D02*
X227366666Y-58062619D01*
X227366666Y-58062619D02*
X227699999Y-57062619D01*
X228176190Y-57491190D02*
X228080952Y-57443571D01*
X228080952Y-57443571D02*
X228033333Y-57395952D01*
X228033333Y-57395952D02*
X227985714Y-57300714D01*
X227985714Y-57300714D02*
X227985714Y-57253095D01*
X227985714Y-57253095D02*
X228033333Y-57157857D01*
X228033333Y-57157857D02*
X228080952Y-57110238D01*
X228080952Y-57110238D02*
X228176190Y-57062619D01*
X228176190Y-57062619D02*
X228366666Y-57062619D01*
X228366666Y-57062619D02*
X228461904Y-57110238D01*
X228461904Y-57110238D02*
X228509523Y-57157857D01*
X228509523Y-57157857D02*
X228557142Y-57253095D01*
X228557142Y-57253095D02*
X228557142Y-57300714D01*
X228557142Y-57300714D02*
X228509523Y-57395952D01*
X228509523Y-57395952D02*
X228461904Y-57443571D01*
X228461904Y-57443571D02*
X228366666Y-57491190D01*
X228366666Y-57491190D02*
X228176190Y-57491190D01*
X228176190Y-57491190D02*
X228080952Y-57538809D01*
X228080952Y-57538809D02*
X228033333Y-57586428D01*
X228033333Y-57586428D02*
X227985714Y-57681666D01*
X227985714Y-57681666D02*
X227985714Y-57872142D01*
X227985714Y-57872142D02*
X228033333Y-57967380D01*
X228033333Y-57967380D02*
X228080952Y-58015000D01*
X228080952Y-58015000D02*
X228176190Y-58062619D01*
X228176190Y-58062619D02*
X228366666Y-58062619D01*
X228366666Y-58062619D02*
X228461904Y-58015000D01*
X228461904Y-58015000D02*
X228509523Y-57967380D01*
X228509523Y-57967380D02*
X228557142Y-57872142D01*
X228557142Y-57872142D02*
X228557142Y-57681666D01*
X228557142Y-57681666D02*
X228509523Y-57586428D01*
X228509523Y-57586428D02*
X228461904Y-57538809D01*
X228461904Y-57538809D02*
X228366666Y-57491190D01*
X228842857Y-57062619D02*
X229414285Y-57062619D01*
X229128571Y-58062619D02*
X229128571Y-57062619D01*
X229747619Y-58062619D02*
X229747619Y-57062619D01*
X229747619Y-57062619D02*
X230128571Y-57062619D01*
X230128571Y-57062619D02*
X230223809Y-57110238D01*
X230223809Y-57110238D02*
X230271428Y-57157857D01*
X230271428Y-57157857D02*
X230319047Y-57253095D01*
X230319047Y-57253095D02*
X230319047Y-57395952D01*
X230319047Y-57395952D02*
X230271428Y-57491190D01*
X230271428Y-57491190D02*
X230223809Y-57538809D01*
X230223809Y-57538809D02*
X230128571Y-57586428D01*
X230128571Y-57586428D02*
X229747619Y-57586428D01*
X230700000Y-58015000D02*
X230842857Y-58062619D01*
X230842857Y-58062619D02*
X231080952Y-58062619D01*
X231080952Y-58062619D02*
X231176190Y-58015000D01*
X231176190Y-58015000D02*
X231223809Y-57967380D01*
X231223809Y-57967380D02*
X231271428Y-57872142D01*
X231271428Y-57872142D02*
X231271428Y-57776904D01*
X231271428Y-57776904D02*
X231223809Y-57681666D01*
X231223809Y-57681666D02*
X231176190Y-57634047D01*
X231176190Y-57634047D02*
X231080952Y-57586428D01*
X231080952Y-57586428D02*
X230890476Y-57538809D01*
X230890476Y-57538809D02*
X230795238Y-57491190D01*
X230795238Y-57491190D02*
X230747619Y-57443571D01*
X230747619Y-57443571D02*
X230700000Y-57348333D01*
X230700000Y-57348333D02*
X230700000Y-57253095D01*
X230700000Y-57253095D02*
X230747619Y-57157857D01*
X230747619Y-57157857D02*
X230795238Y-57110238D01*
X230795238Y-57110238D02*
X230890476Y-57062619D01*
X230890476Y-57062619D02*
X231128571Y-57062619D01*
X231128571Y-57062619D02*
X231271428Y-57110238D01*
X232223809Y-58062619D02*
X231652381Y-58062619D01*
X231938095Y-58062619D02*
X231938095Y-57062619D01*
X231938095Y-57062619D02*
X231842857Y-57205476D01*
X231842857Y-57205476D02*
X231747619Y-57300714D01*
X231747619Y-57300714D02*
X231652381Y-57348333D01*
%TO.C,C10*%
X222442380Y-66792857D02*
X222490000Y-66840476D01*
X222490000Y-66840476D02*
X222537619Y-66983333D01*
X222537619Y-66983333D02*
X222537619Y-67078571D01*
X222537619Y-67078571D02*
X222490000Y-67221428D01*
X222490000Y-67221428D02*
X222394761Y-67316666D01*
X222394761Y-67316666D02*
X222299523Y-67364285D01*
X222299523Y-67364285D02*
X222109047Y-67411904D01*
X222109047Y-67411904D02*
X221966190Y-67411904D01*
X221966190Y-67411904D02*
X221775714Y-67364285D01*
X221775714Y-67364285D02*
X221680476Y-67316666D01*
X221680476Y-67316666D02*
X221585238Y-67221428D01*
X221585238Y-67221428D02*
X221537619Y-67078571D01*
X221537619Y-67078571D02*
X221537619Y-66983333D01*
X221537619Y-66983333D02*
X221585238Y-66840476D01*
X221585238Y-66840476D02*
X221632857Y-66792857D01*
X222537619Y-65840476D02*
X222537619Y-66411904D01*
X222537619Y-66126190D02*
X221537619Y-66126190D01*
X221537619Y-66126190D02*
X221680476Y-66221428D01*
X221680476Y-66221428D02*
X221775714Y-66316666D01*
X221775714Y-66316666D02*
X221823333Y-66411904D01*
X221537619Y-65221428D02*
X221537619Y-65126190D01*
X221537619Y-65126190D02*
X221585238Y-65030952D01*
X221585238Y-65030952D02*
X221632857Y-64983333D01*
X221632857Y-64983333D02*
X221728095Y-64935714D01*
X221728095Y-64935714D02*
X221918571Y-64888095D01*
X221918571Y-64888095D02*
X222156666Y-64888095D01*
X222156666Y-64888095D02*
X222347142Y-64935714D01*
X222347142Y-64935714D02*
X222442380Y-64983333D01*
X222442380Y-64983333D02*
X222490000Y-65030952D01*
X222490000Y-65030952D02*
X222537619Y-65126190D01*
X222537619Y-65126190D02*
X222537619Y-65221428D01*
X222537619Y-65221428D02*
X222490000Y-65316666D01*
X222490000Y-65316666D02*
X222442380Y-65364285D01*
X222442380Y-65364285D02*
X222347142Y-65411904D01*
X222347142Y-65411904D02*
X222156666Y-65459523D01*
X222156666Y-65459523D02*
X221918571Y-65459523D01*
X221918571Y-65459523D02*
X221728095Y-65411904D01*
X221728095Y-65411904D02*
X221632857Y-65364285D01*
X221632857Y-65364285D02*
X221585238Y-65316666D01*
X221585238Y-65316666D02*
X221537619Y-65221428D01*
%TO.C,SCL_SENS1*%
X210153809Y-51675000D02*
X210296666Y-51722619D01*
X210296666Y-51722619D02*
X210534761Y-51722619D01*
X210534761Y-51722619D02*
X210629999Y-51675000D01*
X210629999Y-51675000D02*
X210677618Y-51627380D01*
X210677618Y-51627380D02*
X210725237Y-51532142D01*
X210725237Y-51532142D02*
X210725237Y-51436904D01*
X210725237Y-51436904D02*
X210677618Y-51341666D01*
X210677618Y-51341666D02*
X210629999Y-51294047D01*
X210629999Y-51294047D02*
X210534761Y-51246428D01*
X210534761Y-51246428D02*
X210344285Y-51198809D01*
X210344285Y-51198809D02*
X210249047Y-51151190D01*
X210249047Y-51151190D02*
X210201428Y-51103571D01*
X210201428Y-51103571D02*
X210153809Y-51008333D01*
X210153809Y-51008333D02*
X210153809Y-50913095D01*
X210153809Y-50913095D02*
X210201428Y-50817857D01*
X210201428Y-50817857D02*
X210249047Y-50770238D01*
X210249047Y-50770238D02*
X210344285Y-50722619D01*
X210344285Y-50722619D02*
X210582380Y-50722619D01*
X210582380Y-50722619D02*
X210725237Y-50770238D01*
X211725237Y-51627380D02*
X211677618Y-51675000D01*
X211677618Y-51675000D02*
X211534761Y-51722619D01*
X211534761Y-51722619D02*
X211439523Y-51722619D01*
X211439523Y-51722619D02*
X211296666Y-51675000D01*
X211296666Y-51675000D02*
X211201428Y-51579761D01*
X211201428Y-51579761D02*
X211153809Y-51484523D01*
X211153809Y-51484523D02*
X211106190Y-51294047D01*
X211106190Y-51294047D02*
X211106190Y-51151190D01*
X211106190Y-51151190D02*
X211153809Y-50960714D01*
X211153809Y-50960714D02*
X211201428Y-50865476D01*
X211201428Y-50865476D02*
X211296666Y-50770238D01*
X211296666Y-50770238D02*
X211439523Y-50722619D01*
X211439523Y-50722619D02*
X211534761Y-50722619D01*
X211534761Y-50722619D02*
X211677618Y-50770238D01*
X211677618Y-50770238D02*
X211725237Y-50817857D01*
X212629999Y-51722619D02*
X212153809Y-51722619D01*
X212153809Y-51722619D02*
X212153809Y-50722619D01*
X212725238Y-51817857D02*
X213487142Y-51817857D01*
X213677619Y-51675000D02*
X213820476Y-51722619D01*
X213820476Y-51722619D02*
X214058571Y-51722619D01*
X214058571Y-51722619D02*
X214153809Y-51675000D01*
X214153809Y-51675000D02*
X214201428Y-51627380D01*
X214201428Y-51627380D02*
X214249047Y-51532142D01*
X214249047Y-51532142D02*
X214249047Y-51436904D01*
X214249047Y-51436904D02*
X214201428Y-51341666D01*
X214201428Y-51341666D02*
X214153809Y-51294047D01*
X214153809Y-51294047D02*
X214058571Y-51246428D01*
X214058571Y-51246428D02*
X213868095Y-51198809D01*
X213868095Y-51198809D02*
X213772857Y-51151190D01*
X213772857Y-51151190D02*
X213725238Y-51103571D01*
X213725238Y-51103571D02*
X213677619Y-51008333D01*
X213677619Y-51008333D02*
X213677619Y-50913095D01*
X213677619Y-50913095D02*
X213725238Y-50817857D01*
X213725238Y-50817857D02*
X213772857Y-50770238D01*
X213772857Y-50770238D02*
X213868095Y-50722619D01*
X213868095Y-50722619D02*
X214106190Y-50722619D01*
X214106190Y-50722619D02*
X214249047Y-50770238D01*
X214677619Y-51198809D02*
X215010952Y-51198809D01*
X215153809Y-51722619D02*
X214677619Y-51722619D01*
X214677619Y-51722619D02*
X214677619Y-50722619D01*
X214677619Y-50722619D02*
X215153809Y-50722619D01*
X215582381Y-51722619D02*
X215582381Y-50722619D01*
X215582381Y-50722619D02*
X216153809Y-51722619D01*
X216153809Y-51722619D02*
X216153809Y-50722619D01*
X216582381Y-51675000D02*
X216725238Y-51722619D01*
X216725238Y-51722619D02*
X216963333Y-51722619D01*
X216963333Y-51722619D02*
X217058571Y-51675000D01*
X217058571Y-51675000D02*
X217106190Y-51627380D01*
X217106190Y-51627380D02*
X217153809Y-51532142D01*
X217153809Y-51532142D02*
X217153809Y-51436904D01*
X217153809Y-51436904D02*
X217106190Y-51341666D01*
X217106190Y-51341666D02*
X217058571Y-51294047D01*
X217058571Y-51294047D02*
X216963333Y-51246428D01*
X216963333Y-51246428D02*
X216772857Y-51198809D01*
X216772857Y-51198809D02*
X216677619Y-51151190D01*
X216677619Y-51151190D02*
X216630000Y-51103571D01*
X216630000Y-51103571D02*
X216582381Y-51008333D01*
X216582381Y-51008333D02*
X216582381Y-50913095D01*
X216582381Y-50913095D02*
X216630000Y-50817857D01*
X216630000Y-50817857D02*
X216677619Y-50770238D01*
X216677619Y-50770238D02*
X216772857Y-50722619D01*
X216772857Y-50722619D02*
X217010952Y-50722619D01*
X217010952Y-50722619D02*
X217153809Y-50770238D01*
X218106190Y-51722619D02*
X217534762Y-51722619D01*
X217820476Y-51722619D02*
X217820476Y-50722619D01*
X217820476Y-50722619D02*
X217725238Y-50865476D01*
X217725238Y-50865476D02*
X217630000Y-50960714D01*
X217630000Y-50960714D02*
X217534762Y-51008333D01*
%TO.C,TP_GND2*%
X201858333Y-47464619D02*
X202429761Y-47464619D01*
X202144047Y-48464619D02*
X202144047Y-47464619D01*
X202763095Y-48464619D02*
X202763095Y-47464619D01*
X202763095Y-47464619D02*
X203144047Y-47464619D01*
X203144047Y-47464619D02*
X203239285Y-47512238D01*
X203239285Y-47512238D02*
X203286904Y-47559857D01*
X203286904Y-47559857D02*
X203334523Y-47655095D01*
X203334523Y-47655095D02*
X203334523Y-47797952D01*
X203334523Y-47797952D02*
X203286904Y-47893190D01*
X203286904Y-47893190D02*
X203239285Y-47940809D01*
X203239285Y-47940809D02*
X203144047Y-47988428D01*
X203144047Y-47988428D02*
X202763095Y-47988428D01*
X203525000Y-48559857D02*
X204286904Y-48559857D01*
X205048809Y-47512238D02*
X204953571Y-47464619D01*
X204953571Y-47464619D02*
X204810714Y-47464619D01*
X204810714Y-47464619D02*
X204667857Y-47512238D01*
X204667857Y-47512238D02*
X204572619Y-47607476D01*
X204572619Y-47607476D02*
X204525000Y-47702714D01*
X204525000Y-47702714D02*
X204477381Y-47893190D01*
X204477381Y-47893190D02*
X204477381Y-48036047D01*
X204477381Y-48036047D02*
X204525000Y-48226523D01*
X204525000Y-48226523D02*
X204572619Y-48321761D01*
X204572619Y-48321761D02*
X204667857Y-48417000D01*
X204667857Y-48417000D02*
X204810714Y-48464619D01*
X204810714Y-48464619D02*
X204905952Y-48464619D01*
X204905952Y-48464619D02*
X205048809Y-48417000D01*
X205048809Y-48417000D02*
X205096428Y-48369380D01*
X205096428Y-48369380D02*
X205096428Y-48036047D01*
X205096428Y-48036047D02*
X204905952Y-48036047D01*
X205525000Y-48464619D02*
X205525000Y-47464619D01*
X205525000Y-47464619D02*
X206096428Y-48464619D01*
X206096428Y-48464619D02*
X206096428Y-47464619D01*
X206572619Y-48464619D02*
X206572619Y-47464619D01*
X206572619Y-47464619D02*
X206810714Y-47464619D01*
X206810714Y-47464619D02*
X206953571Y-47512238D01*
X206953571Y-47512238D02*
X207048809Y-47607476D01*
X207048809Y-47607476D02*
X207096428Y-47702714D01*
X207096428Y-47702714D02*
X207144047Y-47893190D01*
X207144047Y-47893190D02*
X207144047Y-48036047D01*
X207144047Y-48036047D02*
X207096428Y-48226523D01*
X207096428Y-48226523D02*
X207048809Y-48321761D01*
X207048809Y-48321761D02*
X206953571Y-48417000D01*
X206953571Y-48417000D02*
X206810714Y-48464619D01*
X206810714Y-48464619D02*
X206572619Y-48464619D01*
X207525000Y-47559857D02*
X207572619Y-47512238D01*
X207572619Y-47512238D02*
X207667857Y-47464619D01*
X207667857Y-47464619D02*
X207905952Y-47464619D01*
X207905952Y-47464619D02*
X208001190Y-47512238D01*
X208001190Y-47512238D02*
X208048809Y-47559857D01*
X208048809Y-47559857D02*
X208096428Y-47655095D01*
X208096428Y-47655095D02*
X208096428Y-47750333D01*
X208096428Y-47750333D02*
X208048809Y-47893190D01*
X208048809Y-47893190D02*
X207477381Y-48464619D01*
X207477381Y-48464619D02*
X208096428Y-48464619D01*
D12*
%TO.C,BZ1*%
X229969047Y-89508809D02*
X230111904Y-89556428D01*
X230111904Y-89556428D02*
X230159523Y-89604047D01*
X230159523Y-89604047D02*
X230207142Y-89699285D01*
X230207142Y-89699285D02*
X230207142Y-89842142D01*
X230207142Y-89842142D02*
X230159523Y-89937380D01*
X230159523Y-89937380D02*
X230111904Y-89985000D01*
X230111904Y-89985000D02*
X230016666Y-90032619D01*
X230016666Y-90032619D02*
X229635714Y-90032619D01*
X229635714Y-90032619D02*
X229635714Y-89032619D01*
X229635714Y-89032619D02*
X229969047Y-89032619D01*
X229969047Y-89032619D02*
X230064285Y-89080238D01*
X230064285Y-89080238D02*
X230111904Y-89127857D01*
X230111904Y-89127857D02*
X230159523Y-89223095D01*
X230159523Y-89223095D02*
X230159523Y-89318333D01*
X230159523Y-89318333D02*
X230111904Y-89413571D01*
X230111904Y-89413571D02*
X230064285Y-89461190D01*
X230064285Y-89461190D02*
X229969047Y-89508809D01*
X229969047Y-89508809D02*
X229635714Y-89508809D01*
X230540476Y-89032619D02*
X231207142Y-89032619D01*
X231207142Y-89032619D02*
X230540476Y-90032619D01*
X230540476Y-90032619D02*
X231207142Y-90032619D01*
X232111904Y-90032619D02*
X231540476Y-90032619D01*
X231826190Y-90032619D02*
X231826190Y-89032619D01*
X231826190Y-89032619D02*
X231730952Y-89175476D01*
X231730952Y-89175476D02*
X231635714Y-89270714D01*
X231635714Y-89270714D02*
X231540476Y-89318333D01*
D10*
%TO.C,V_LS_IC1*%
X249177619Y-57930095D02*
X249444286Y-58730095D01*
X249444286Y-58730095D02*
X249710952Y-57930095D01*
X249787143Y-58806285D02*
X250396666Y-58806285D01*
X250968095Y-58730095D02*
X250587143Y-58730095D01*
X250587143Y-58730095D02*
X250587143Y-57930095D01*
X251196666Y-58692000D02*
X251310952Y-58730095D01*
X251310952Y-58730095D02*
X251501428Y-58730095D01*
X251501428Y-58730095D02*
X251577619Y-58692000D01*
X251577619Y-58692000D02*
X251615714Y-58653904D01*
X251615714Y-58653904D02*
X251653809Y-58577714D01*
X251653809Y-58577714D02*
X251653809Y-58501523D01*
X251653809Y-58501523D02*
X251615714Y-58425333D01*
X251615714Y-58425333D02*
X251577619Y-58387238D01*
X251577619Y-58387238D02*
X251501428Y-58349142D01*
X251501428Y-58349142D02*
X251349047Y-58311047D01*
X251349047Y-58311047D02*
X251272857Y-58272952D01*
X251272857Y-58272952D02*
X251234762Y-58234857D01*
X251234762Y-58234857D02*
X251196666Y-58158666D01*
X251196666Y-58158666D02*
X251196666Y-58082476D01*
X251196666Y-58082476D02*
X251234762Y-58006285D01*
X251234762Y-58006285D02*
X251272857Y-57968190D01*
X251272857Y-57968190D02*
X251349047Y-57930095D01*
X251349047Y-57930095D02*
X251539524Y-57930095D01*
X251539524Y-57930095D02*
X251653809Y-57968190D01*
X251806191Y-58806285D02*
X252415714Y-58806285D01*
X252606191Y-58730095D02*
X252606191Y-57930095D01*
X253444286Y-58653904D02*
X253406190Y-58692000D01*
X253406190Y-58692000D02*
X253291905Y-58730095D01*
X253291905Y-58730095D02*
X253215714Y-58730095D01*
X253215714Y-58730095D02*
X253101428Y-58692000D01*
X253101428Y-58692000D02*
X253025238Y-58615809D01*
X253025238Y-58615809D02*
X252987143Y-58539619D01*
X252987143Y-58539619D02*
X252949047Y-58387238D01*
X252949047Y-58387238D02*
X252949047Y-58272952D01*
X252949047Y-58272952D02*
X252987143Y-58120571D01*
X252987143Y-58120571D02*
X253025238Y-58044380D01*
X253025238Y-58044380D02*
X253101428Y-57968190D01*
X253101428Y-57968190D02*
X253215714Y-57930095D01*
X253215714Y-57930095D02*
X253291905Y-57930095D01*
X253291905Y-57930095D02*
X253406190Y-57968190D01*
X253406190Y-57968190D02*
X253444286Y-58006285D01*
X254206190Y-58730095D02*
X253749047Y-58730095D01*
X253977619Y-58730095D02*
X253977619Y-57930095D01*
X253977619Y-57930095D02*
X253901428Y-58044380D01*
X253901428Y-58044380D02*
X253825238Y-58120571D01*
X253825238Y-58120571D02*
X253749047Y-58158666D01*
%TO.C,C3*%
X222758333Y-83467380D02*
X222710714Y-83515000D01*
X222710714Y-83515000D02*
X222567857Y-83562619D01*
X222567857Y-83562619D02*
X222472619Y-83562619D01*
X222472619Y-83562619D02*
X222329762Y-83515000D01*
X222329762Y-83515000D02*
X222234524Y-83419761D01*
X222234524Y-83419761D02*
X222186905Y-83324523D01*
X222186905Y-83324523D02*
X222139286Y-83134047D01*
X222139286Y-83134047D02*
X222139286Y-82991190D01*
X222139286Y-82991190D02*
X222186905Y-82800714D01*
X222186905Y-82800714D02*
X222234524Y-82705476D01*
X222234524Y-82705476D02*
X222329762Y-82610238D01*
X222329762Y-82610238D02*
X222472619Y-82562619D01*
X222472619Y-82562619D02*
X222567857Y-82562619D01*
X222567857Y-82562619D02*
X222710714Y-82610238D01*
X222710714Y-82610238D02*
X222758333Y-82657857D01*
X223091667Y-82562619D02*
X223710714Y-82562619D01*
X223710714Y-82562619D02*
X223377381Y-82943571D01*
X223377381Y-82943571D02*
X223520238Y-82943571D01*
X223520238Y-82943571D02*
X223615476Y-82991190D01*
X223615476Y-82991190D02*
X223663095Y-83038809D01*
X223663095Y-83038809D02*
X223710714Y-83134047D01*
X223710714Y-83134047D02*
X223710714Y-83372142D01*
X223710714Y-83372142D02*
X223663095Y-83467380D01*
X223663095Y-83467380D02*
X223615476Y-83515000D01*
X223615476Y-83515000D02*
X223520238Y-83562619D01*
X223520238Y-83562619D02*
X223234524Y-83562619D01*
X223234524Y-83562619D02*
X223139286Y-83515000D01*
X223139286Y-83515000D02*
X223091667Y-83467380D01*
%TO.C,C18*%
X250487142Y-69937380D02*
X250439523Y-69985000D01*
X250439523Y-69985000D02*
X250296666Y-70032619D01*
X250296666Y-70032619D02*
X250201428Y-70032619D01*
X250201428Y-70032619D02*
X250058571Y-69985000D01*
X250058571Y-69985000D02*
X249963333Y-69889761D01*
X249963333Y-69889761D02*
X249915714Y-69794523D01*
X249915714Y-69794523D02*
X249868095Y-69604047D01*
X249868095Y-69604047D02*
X249868095Y-69461190D01*
X249868095Y-69461190D02*
X249915714Y-69270714D01*
X249915714Y-69270714D02*
X249963333Y-69175476D01*
X249963333Y-69175476D02*
X250058571Y-69080238D01*
X250058571Y-69080238D02*
X250201428Y-69032619D01*
X250201428Y-69032619D02*
X250296666Y-69032619D01*
X250296666Y-69032619D02*
X250439523Y-69080238D01*
X250439523Y-69080238D02*
X250487142Y-69127857D01*
X251439523Y-70032619D02*
X250868095Y-70032619D01*
X251153809Y-70032619D02*
X251153809Y-69032619D01*
X251153809Y-69032619D02*
X251058571Y-69175476D01*
X251058571Y-69175476D02*
X250963333Y-69270714D01*
X250963333Y-69270714D02*
X250868095Y-69318333D01*
X252010952Y-69461190D02*
X251915714Y-69413571D01*
X251915714Y-69413571D02*
X251868095Y-69365952D01*
X251868095Y-69365952D02*
X251820476Y-69270714D01*
X251820476Y-69270714D02*
X251820476Y-69223095D01*
X251820476Y-69223095D02*
X251868095Y-69127857D01*
X251868095Y-69127857D02*
X251915714Y-69080238D01*
X251915714Y-69080238D02*
X252010952Y-69032619D01*
X252010952Y-69032619D02*
X252201428Y-69032619D01*
X252201428Y-69032619D02*
X252296666Y-69080238D01*
X252296666Y-69080238D02*
X252344285Y-69127857D01*
X252344285Y-69127857D02*
X252391904Y-69223095D01*
X252391904Y-69223095D02*
X252391904Y-69270714D01*
X252391904Y-69270714D02*
X252344285Y-69365952D01*
X252344285Y-69365952D02*
X252296666Y-69413571D01*
X252296666Y-69413571D02*
X252201428Y-69461190D01*
X252201428Y-69461190D02*
X252010952Y-69461190D01*
X252010952Y-69461190D02*
X251915714Y-69508809D01*
X251915714Y-69508809D02*
X251868095Y-69556428D01*
X251868095Y-69556428D02*
X251820476Y-69651666D01*
X251820476Y-69651666D02*
X251820476Y-69842142D01*
X251820476Y-69842142D02*
X251868095Y-69937380D01*
X251868095Y-69937380D02*
X251915714Y-69985000D01*
X251915714Y-69985000D02*
X252010952Y-70032619D01*
X252010952Y-70032619D02*
X252201428Y-70032619D01*
X252201428Y-70032619D02*
X252296666Y-69985000D01*
X252296666Y-69985000D02*
X252344285Y-69937380D01*
X252344285Y-69937380D02*
X252391904Y-69842142D01*
X252391904Y-69842142D02*
X252391904Y-69651666D01*
X252391904Y-69651666D02*
X252344285Y-69556428D01*
X252344285Y-69556428D02*
X252296666Y-69508809D01*
X252296666Y-69508809D02*
X252201428Y-69461190D01*
%TO.C,C12*%
X228817380Y-63892857D02*
X228865000Y-63940476D01*
X228865000Y-63940476D02*
X228912619Y-64083333D01*
X228912619Y-64083333D02*
X228912619Y-64178571D01*
X228912619Y-64178571D02*
X228865000Y-64321428D01*
X228865000Y-64321428D02*
X228769761Y-64416666D01*
X228769761Y-64416666D02*
X228674523Y-64464285D01*
X228674523Y-64464285D02*
X228484047Y-64511904D01*
X228484047Y-64511904D02*
X228341190Y-64511904D01*
X228341190Y-64511904D02*
X228150714Y-64464285D01*
X228150714Y-64464285D02*
X228055476Y-64416666D01*
X228055476Y-64416666D02*
X227960238Y-64321428D01*
X227960238Y-64321428D02*
X227912619Y-64178571D01*
X227912619Y-64178571D02*
X227912619Y-64083333D01*
X227912619Y-64083333D02*
X227960238Y-63940476D01*
X227960238Y-63940476D02*
X228007857Y-63892857D01*
X228912619Y-62940476D02*
X228912619Y-63511904D01*
X228912619Y-63226190D02*
X227912619Y-63226190D01*
X227912619Y-63226190D02*
X228055476Y-63321428D01*
X228055476Y-63321428D02*
X228150714Y-63416666D01*
X228150714Y-63416666D02*
X228198333Y-63511904D01*
X228007857Y-62559523D02*
X227960238Y-62511904D01*
X227960238Y-62511904D02*
X227912619Y-62416666D01*
X227912619Y-62416666D02*
X227912619Y-62178571D01*
X227912619Y-62178571D02*
X227960238Y-62083333D01*
X227960238Y-62083333D02*
X228007857Y-62035714D01*
X228007857Y-62035714D02*
X228103095Y-61988095D01*
X228103095Y-61988095D02*
X228198333Y-61988095D01*
X228198333Y-61988095D02*
X228341190Y-62035714D01*
X228341190Y-62035714D02*
X228912619Y-62607142D01*
X228912619Y-62607142D02*
X228912619Y-61988095D01*
D12*
%TO.C,Battery-1*%
X252663809Y-81641667D02*
X252711428Y-81498810D01*
X252711428Y-81498810D02*
X252759047Y-81451191D01*
X252759047Y-81451191D02*
X252854285Y-81403572D01*
X252854285Y-81403572D02*
X252997142Y-81403572D01*
X252997142Y-81403572D02*
X253092380Y-81451191D01*
X253092380Y-81451191D02*
X253140000Y-81498810D01*
X253140000Y-81498810D02*
X253187619Y-81594048D01*
X253187619Y-81594048D02*
X253187619Y-81975000D01*
X253187619Y-81975000D02*
X252187619Y-81975000D01*
X252187619Y-81975000D02*
X252187619Y-81641667D01*
X252187619Y-81641667D02*
X252235238Y-81546429D01*
X252235238Y-81546429D02*
X252282857Y-81498810D01*
X252282857Y-81498810D02*
X252378095Y-81451191D01*
X252378095Y-81451191D02*
X252473333Y-81451191D01*
X252473333Y-81451191D02*
X252568571Y-81498810D01*
X252568571Y-81498810D02*
X252616190Y-81546429D01*
X252616190Y-81546429D02*
X252663809Y-81641667D01*
X252663809Y-81641667D02*
X252663809Y-81975000D01*
X253187619Y-80546429D02*
X252663809Y-80546429D01*
X252663809Y-80546429D02*
X252568571Y-80594048D01*
X252568571Y-80594048D02*
X252520952Y-80689286D01*
X252520952Y-80689286D02*
X252520952Y-80879762D01*
X252520952Y-80879762D02*
X252568571Y-80975000D01*
X253140000Y-80546429D02*
X253187619Y-80641667D01*
X253187619Y-80641667D02*
X253187619Y-80879762D01*
X253187619Y-80879762D02*
X253140000Y-80975000D01*
X253140000Y-80975000D02*
X253044761Y-81022619D01*
X253044761Y-81022619D02*
X252949523Y-81022619D01*
X252949523Y-81022619D02*
X252854285Y-80975000D01*
X252854285Y-80975000D02*
X252806666Y-80879762D01*
X252806666Y-80879762D02*
X252806666Y-80641667D01*
X252806666Y-80641667D02*
X252759047Y-80546429D01*
X252520952Y-80213095D02*
X252520952Y-79832143D01*
X252187619Y-80070238D02*
X253044761Y-80070238D01*
X253044761Y-80070238D02*
X253140000Y-80022619D01*
X253140000Y-80022619D02*
X253187619Y-79927381D01*
X253187619Y-79927381D02*
X253187619Y-79832143D01*
X252520952Y-79641666D02*
X252520952Y-79260714D01*
X252187619Y-79498809D02*
X253044761Y-79498809D01*
X253044761Y-79498809D02*
X253140000Y-79451190D01*
X253140000Y-79451190D02*
X253187619Y-79355952D01*
X253187619Y-79355952D02*
X253187619Y-79260714D01*
X253140000Y-78546428D02*
X253187619Y-78641666D01*
X253187619Y-78641666D02*
X253187619Y-78832142D01*
X253187619Y-78832142D02*
X253140000Y-78927380D01*
X253140000Y-78927380D02*
X253044761Y-78974999D01*
X253044761Y-78974999D02*
X252663809Y-78974999D01*
X252663809Y-78974999D02*
X252568571Y-78927380D01*
X252568571Y-78927380D02*
X252520952Y-78832142D01*
X252520952Y-78832142D02*
X252520952Y-78641666D01*
X252520952Y-78641666D02*
X252568571Y-78546428D01*
X252568571Y-78546428D02*
X252663809Y-78498809D01*
X252663809Y-78498809D02*
X252759047Y-78498809D01*
X252759047Y-78498809D02*
X252854285Y-78974999D01*
X253187619Y-78070237D02*
X252520952Y-78070237D01*
X252711428Y-78070237D02*
X252616190Y-78022618D01*
X252616190Y-78022618D02*
X252568571Y-77974999D01*
X252568571Y-77974999D02*
X252520952Y-77879761D01*
X252520952Y-77879761D02*
X252520952Y-77784523D01*
X252520952Y-77546427D02*
X253187619Y-77308332D01*
X252520952Y-77070237D02*
X253187619Y-77308332D01*
X253187619Y-77308332D02*
X253425714Y-77403570D01*
X253425714Y-77403570D02*
X253473333Y-77451189D01*
X253473333Y-77451189D02*
X253520952Y-77546427D01*
X252806666Y-76689284D02*
X252806666Y-75927380D01*
X253187619Y-74927380D02*
X253187619Y-75498808D01*
X253187619Y-75213094D02*
X252187619Y-75213094D01*
X252187619Y-75213094D02*
X252330476Y-75308332D01*
X252330476Y-75308332D02*
X252425714Y-75403570D01*
X252425714Y-75403570D02*
X252473333Y-75498808D01*
D10*
%TO.C,R8*%
X248308333Y-64762619D02*
X247975000Y-64286428D01*
X247736905Y-64762619D02*
X247736905Y-63762619D01*
X247736905Y-63762619D02*
X248117857Y-63762619D01*
X248117857Y-63762619D02*
X248213095Y-63810238D01*
X248213095Y-63810238D02*
X248260714Y-63857857D01*
X248260714Y-63857857D02*
X248308333Y-63953095D01*
X248308333Y-63953095D02*
X248308333Y-64095952D01*
X248308333Y-64095952D02*
X248260714Y-64191190D01*
X248260714Y-64191190D02*
X248213095Y-64238809D01*
X248213095Y-64238809D02*
X248117857Y-64286428D01*
X248117857Y-64286428D02*
X247736905Y-64286428D01*
X248879762Y-64191190D02*
X248784524Y-64143571D01*
X248784524Y-64143571D02*
X248736905Y-64095952D01*
X248736905Y-64095952D02*
X248689286Y-64000714D01*
X248689286Y-64000714D02*
X248689286Y-63953095D01*
X248689286Y-63953095D02*
X248736905Y-63857857D01*
X248736905Y-63857857D02*
X248784524Y-63810238D01*
X248784524Y-63810238D02*
X248879762Y-63762619D01*
X248879762Y-63762619D02*
X249070238Y-63762619D01*
X249070238Y-63762619D02*
X249165476Y-63810238D01*
X249165476Y-63810238D02*
X249213095Y-63857857D01*
X249213095Y-63857857D02*
X249260714Y-63953095D01*
X249260714Y-63953095D02*
X249260714Y-64000714D01*
X249260714Y-64000714D02*
X249213095Y-64095952D01*
X249213095Y-64095952D02*
X249165476Y-64143571D01*
X249165476Y-64143571D02*
X249070238Y-64191190D01*
X249070238Y-64191190D02*
X248879762Y-64191190D01*
X248879762Y-64191190D02*
X248784524Y-64238809D01*
X248784524Y-64238809D02*
X248736905Y-64286428D01*
X248736905Y-64286428D02*
X248689286Y-64381666D01*
X248689286Y-64381666D02*
X248689286Y-64572142D01*
X248689286Y-64572142D02*
X248736905Y-64667380D01*
X248736905Y-64667380D02*
X248784524Y-64715000D01*
X248784524Y-64715000D02*
X248879762Y-64762619D01*
X248879762Y-64762619D02*
X249070238Y-64762619D01*
X249070238Y-64762619D02*
X249165476Y-64715000D01*
X249165476Y-64715000D02*
X249213095Y-64667380D01*
X249213095Y-64667380D02*
X249260714Y-64572142D01*
X249260714Y-64572142D02*
X249260714Y-64381666D01*
X249260714Y-64381666D02*
X249213095Y-64286428D01*
X249213095Y-64286428D02*
X249165476Y-64238809D01*
X249165476Y-64238809D02*
X249070238Y-64191190D01*
D14*
%TO.C,IC4*%
X245535237Y-70862526D02*
X245535237Y-69592526D01*
X246865714Y-70741573D02*
X246805238Y-70802050D01*
X246805238Y-70802050D02*
X246623809Y-70862526D01*
X246623809Y-70862526D02*
X246502857Y-70862526D01*
X246502857Y-70862526D02*
X246321428Y-70802050D01*
X246321428Y-70802050D02*
X246200476Y-70681097D01*
X246200476Y-70681097D02*
X246139999Y-70560145D01*
X246139999Y-70560145D02*
X246079523Y-70318240D01*
X246079523Y-70318240D02*
X246079523Y-70136811D01*
X246079523Y-70136811D02*
X246139999Y-69894907D01*
X246139999Y-69894907D02*
X246200476Y-69773954D01*
X246200476Y-69773954D02*
X246321428Y-69653002D01*
X246321428Y-69653002D02*
X246502857Y-69592526D01*
X246502857Y-69592526D02*
X246623809Y-69592526D01*
X246623809Y-69592526D02*
X246805238Y-69653002D01*
X246805238Y-69653002D02*
X246865714Y-69713478D01*
X247954285Y-70015859D02*
X247954285Y-70862526D01*
X247651904Y-69532050D02*
X247349523Y-70439192D01*
X247349523Y-70439192D02*
X248135714Y-70439192D01*
D10*
%TO.C,C9*%
X231292380Y-63716666D02*
X231340000Y-63764285D01*
X231340000Y-63764285D02*
X231387619Y-63907142D01*
X231387619Y-63907142D02*
X231387619Y-64002380D01*
X231387619Y-64002380D02*
X231340000Y-64145237D01*
X231340000Y-64145237D02*
X231244761Y-64240475D01*
X231244761Y-64240475D02*
X231149523Y-64288094D01*
X231149523Y-64288094D02*
X230959047Y-64335713D01*
X230959047Y-64335713D02*
X230816190Y-64335713D01*
X230816190Y-64335713D02*
X230625714Y-64288094D01*
X230625714Y-64288094D02*
X230530476Y-64240475D01*
X230530476Y-64240475D02*
X230435238Y-64145237D01*
X230435238Y-64145237D02*
X230387619Y-64002380D01*
X230387619Y-64002380D02*
X230387619Y-63907142D01*
X230387619Y-63907142D02*
X230435238Y-63764285D01*
X230435238Y-63764285D02*
X230482857Y-63716666D01*
X231387619Y-63240475D02*
X231387619Y-63049999D01*
X231387619Y-63049999D02*
X231340000Y-62954761D01*
X231340000Y-62954761D02*
X231292380Y-62907142D01*
X231292380Y-62907142D02*
X231149523Y-62811904D01*
X231149523Y-62811904D02*
X230959047Y-62764285D01*
X230959047Y-62764285D02*
X230578095Y-62764285D01*
X230578095Y-62764285D02*
X230482857Y-62811904D01*
X230482857Y-62811904D02*
X230435238Y-62859523D01*
X230435238Y-62859523D02*
X230387619Y-62954761D01*
X230387619Y-62954761D02*
X230387619Y-63145237D01*
X230387619Y-63145237D02*
X230435238Y-63240475D01*
X230435238Y-63240475D02*
X230482857Y-63288094D01*
X230482857Y-63288094D02*
X230578095Y-63335713D01*
X230578095Y-63335713D02*
X230816190Y-63335713D01*
X230816190Y-63335713D02*
X230911428Y-63288094D01*
X230911428Y-63288094D02*
X230959047Y-63240475D01*
X230959047Y-63240475D02*
X231006666Y-63145237D01*
X231006666Y-63145237D02*
X231006666Y-62954761D01*
X231006666Y-62954761D02*
X230959047Y-62859523D01*
X230959047Y-62859523D02*
X230911428Y-62811904D01*
X230911428Y-62811904D02*
X230816190Y-62764285D01*
%TO.C,SCL_MCU1*%
X205157143Y-55665000D02*
X205300000Y-55712619D01*
X205300000Y-55712619D02*
X205538095Y-55712619D01*
X205538095Y-55712619D02*
X205633333Y-55665000D01*
X205633333Y-55665000D02*
X205680952Y-55617380D01*
X205680952Y-55617380D02*
X205728571Y-55522142D01*
X205728571Y-55522142D02*
X205728571Y-55426904D01*
X205728571Y-55426904D02*
X205680952Y-55331666D01*
X205680952Y-55331666D02*
X205633333Y-55284047D01*
X205633333Y-55284047D02*
X205538095Y-55236428D01*
X205538095Y-55236428D02*
X205347619Y-55188809D01*
X205347619Y-55188809D02*
X205252381Y-55141190D01*
X205252381Y-55141190D02*
X205204762Y-55093571D01*
X205204762Y-55093571D02*
X205157143Y-54998333D01*
X205157143Y-54998333D02*
X205157143Y-54903095D01*
X205157143Y-54903095D02*
X205204762Y-54807857D01*
X205204762Y-54807857D02*
X205252381Y-54760238D01*
X205252381Y-54760238D02*
X205347619Y-54712619D01*
X205347619Y-54712619D02*
X205585714Y-54712619D01*
X205585714Y-54712619D02*
X205728571Y-54760238D01*
X206728571Y-55617380D02*
X206680952Y-55665000D01*
X206680952Y-55665000D02*
X206538095Y-55712619D01*
X206538095Y-55712619D02*
X206442857Y-55712619D01*
X206442857Y-55712619D02*
X206300000Y-55665000D01*
X206300000Y-55665000D02*
X206204762Y-55569761D01*
X206204762Y-55569761D02*
X206157143Y-55474523D01*
X206157143Y-55474523D02*
X206109524Y-55284047D01*
X206109524Y-55284047D02*
X206109524Y-55141190D01*
X206109524Y-55141190D02*
X206157143Y-54950714D01*
X206157143Y-54950714D02*
X206204762Y-54855476D01*
X206204762Y-54855476D02*
X206300000Y-54760238D01*
X206300000Y-54760238D02*
X206442857Y-54712619D01*
X206442857Y-54712619D02*
X206538095Y-54712619D01*
X206538095Y-54712619D02*
X206680952Y-54760238D01*
X206680952Y-54760238D02*
X206728571Y-54807857D01*
X207633333Y-55712619D02*
X207157143Y-55712619D01*
X207157143Y-55712619D02*
X207157143Y-54712619D01*
X207728572Y-55807857D02*
X208490476Y-55807857D01*
X208728572Y-55712619D02*
X208728572Y-54712619D01*
X208728572Y-54712619D02*
X209061905Y-55426904D01*
X209061905Y-55426904D02*
X209395238Y-54712619D01*
X209395238Y-54712619D02*
X209395238Y-55712619D01*
X210442857Y-55617380D02*
X210395238Y-55665000D01*
X210395238Y-55665000D02*
X210252381Y-55712619D01*
X210252381Y-55712619D02*
X210157143Y-55712619D01*
X210157143Y-55712619D02*
X210014286Y-55665000D01*
X210014286Y-55665000D02*
X209919048Y-55569761D01*
X209919048Y-55569761D02*
X209871429Y-55474523D01*
X209871429Y-55474523D02*
X209823810Y-55284047D01*
X209823810Y-55284047D02*
X209823810Y-55141190D01*
X209823810Y-55141190D02*
X209871429Y-54950714D01*
X209871429Y-54950714D02*
X209919048Y-54855476D01*
X209919048Y-54855476D02*
X210014286Y-54760238D01*
X210014286Y-54760238D02*
X210157143Y-54712619D01*
X210157143Y-54712619D02*
X210252381Y-54712619D01*
X210252381Y-54712619D02*
X210395238Y-54760238D01*
X210395238Y-54760238D02*
X210442857Y-54807857D01*
X210871429Y-54712619D02*
X210871429Y-55522142D01*
X210871429Y-55522142D02*
X210919048Y-55617380D01*
X210919048Y-55617380D02*
X210966667Y-55665000D01*
X210966667Y-55665000D02*
X211061905Y-55712619D01*
X211061905Y-55712619D02*
X211252381Y-55712619D01*
X211252381Y-55712619D02*
X211347619Y-55665000D01*
X211347619Y-55665000D02*
X211395238Y-55617380D01*
X211395238Y-55617380D02*
X211442857Y-55522142D01*
X211442857Y-55522142D02*
X211442857Y-54712619D01*
X212442857Y-55712619D02*
X211871429Y-55712619D01*
X212157143Y-55712619D02*
X212157143Y-54712619D01*
X212157143Y-54712619D02*
X212061905Y-54855476D01*
X212061905Y-54855476D02*
X211966667Y-54950714D01*
X211966667Y-54950714D02*
X211871429Y-54998333D01*
%TO.C,INT1*%
X227419048Y-84412619D02*
X227419048Y-83412619D01*
X227895238Y-84412619D02*
X227895238Y-83412619D01*
X227895238Y-83412619D02*
X228466666Y-84412619D01*
X228466666Y-84412619D02*
X228466666Y-83412619D01*
X228800000Y-83412619D02*
X229371428Y-83412619D01*
X229085714Y-84412619D02*
X229085714Y-83412619D01*
X230228571Y-84412619D02*
X229657143Y-84412619D01*
X229942857Y-84412619D02*
X229942857Y-83412619D01*
X229942857Y-83412619D02*
X229847619Y-83555476D01*
X229847619Y-83555476D02*
X229752381Y-83650714D01*
X229752381Y-83650714D02*
X229657143Y-83698333D01*
%TO.C,L2*%
X216133333Y-83462619D02*
X215657143Y-83462619D01*
X215657143Y-83462619D02*
X215657143Y-82462619D01*
X216419048Y-82557857D02*
X216466667Y-82510238D01*
X216466667Y-82510238D02*
X216561905Y-82462619D01*
X216561905Y-82462619D02*
X216800000Y-82462619D01*
X216800000Y-82462619D02*
X216895238Y-82510238D01*
X216895238Y-82510238D02*
X216942857Y-82557857D01*
X216942857Y-82557857D02*
X216990476Y-82653095D01*
X216990476Y-82653095D02*
X216990476Y-82748333D01*
X216990476Y-82748333D02*
X216942857Y-82891190D01*
X216942857Y-82891190D02*
X216371429Y-83462619D01*
X216371429Y-83462619D02*
X216990476Y-83462619D01*
%TO.C,R6*%
X208170833Y-60587619D02*
X207837500Y-60111428D01*
X207599405Y-60587619D02*
X207599405Y-59587619D01*
X207599405Y-59587619D02*
X207980357Y-59587619D01*
X207980357Y-59587619D02*
X208075595Y-59635238D01*
X208075595Y-59635238D02*
X208123214Y-59682857D01*
X208123214Y-59682857D02*
X208170833Y-59778095D01*
X208170833Y-59778095D02*
X208170833Y-59920952D01*
X208170833Y-59920952D02*
X208123214Y-60016190D01*
X208123214Y-60016190D02*
X208075595Y-60063809D01*
X208075595Y-60063809D02*
X207980357Y-60111428D01*
X207980357Y-60111428D02*
X207599405Y-60111428D01*
X209027976Y-59587619D02*
X208837500Y-59587619D01*
X208837500Y-59587619D02*
X208742262Y-59635238D01*
X208742262Y-59635238D02*
X208694643Y-59682857D01*
X208694643Y-59682857D02*
X208599405Y-59825714D01*
X208599405Y-59825714D02*
X208551786Y-60016190D01*
X208551786Y-60016190D02*
X208551786Y-60397142D01*
X208551786Y-60397142D02*
X208599405Y-60492380D01*
X208599405Y-60492380D02*
X208647024Y-60540000D01*
X208647024Y-60540000D02*
X208742262Y-60587619D01*
X208742262Y-60587619D02*
X208932738Y-60587619D01*
X208932738Y-60587619D02*
X209027976Y-60540000D01*
X209027976Y-60540000D02*
X209075595Y-60492380D01*
X209075595Y-60492380D02*
X209123214Y-60397142D01*
X209123214Y-60397142D02*
X209123214Y-60159047D01*
X209123214Y-60159047D02*
X209075595Y-60063809D01*
X209075595Y-60063809D02*
X209027976Y-60016190D01*
X209027976Y-60016190D02*
X208932738Y-59968571D01*
X208932738Y-59968571D02*
X208742262Y-59968571D01*
X208742262Y-59968571D02*
X208647024Y-60016190D01*
X208647024Y-60016190D02*
X208599405Y-60063809D01*
X208599405Y-60063809D02*
X208551786Y-60159047D01*
D14*
%TO.C,Y1*%
X219895238Y-59907764D02*
X219895238Y-60512526D01*
X219471905Y-59242526D02*
X219895238Y-59907764D01*
X219895238Y-59907764D02*
X220318572Y-59242526D01*
X221407143Y-60512526D02*
X220681428Y-60512526D01*
X221044285Y-60512526D02*
X221044285Y-59242526D01*
X221044285Y-59242526D02*
X220923333Y-59423954D01*
X220923333Y-59423954D02*
X220802381Y-59544907D01*
X220802381Y-59544907D02*
X220681428Y-59605383D01*
D10*
%TO.C,R4*%
X205233333Y-68962619D02*
X204900000Y-68486428D01*
X204661905Y-68962619D02*
X204661905Y-67962619D01*
X204661905Y-67962619D02*
X205042857Y-67962619D01*
X205042857Y-67962619D02*
X205138095Y-68010238D01*
X205138095Y-68010238D02*
X205185714Y-68057857D01*
X205185714Y-68057857D02*
X205233333Y-68153095D01*
X205233333Y-68153095D02*
X205233333Y-68295952D01*
X205233333Y-68295952D02*
X205185714Y-68391190D01*
X205185714Y-68391190D02*
X205138095Y-68438809D01*
X205138095Y-68438809D02*
X205042857Y-68486428D01*
X205042857Y-68486428D02*
X204661905Y-68486428D01*
X206090476Y-68295952D02*
X206090476Y-68962619D01*
X205852381Y-67915000D02*
X205614286Y-68629285D01*
X205614286Y-68629285D02*
X206233333Y-68629285D01*
%TO.C,Q2*%
X212317261Y-64757857D02*
X212222023Y-64710238D01*
X212222023Y-64710238D02*
X212126785Y-64615000D01*
X212126785Y-64615000D02*
X211983928Y-64472142D01*
X211983928Y-64472142D02*
X211888690Y-64424523D01*
X211888690Y-64424523D02*
X211793452Y-64424523D01*
X211841071Y-64662619D02*
X211745833Y-64615000D01*
X211745833Y-64615000D02*
X211650595Y-64519761D01*
X211650595Y-64519761D02*
X211602976Y-64329285D01*
X211602976Y-64329285D02*
X211602976Y-63995952D01*
X211602976Y-63995952D02*
X211650595Y-63805476D01*
X211650595Y-63805476D02*
X211745833Y-63710238D01*
X211745833Y-63710238D02*
X211841071Y-63662619D01*
X211841071Y-63662619D02*
X212031547Y-63662619D01*
X212031547Y-63662619D02*
X212126785Y-63710238D01*
X212126785Y-63710238D02*
X212222023Y-63805476D01*
X212222023Y-63805476D02*
X212269642Y-63995952D01*
X212269642Y-63995952D02*
X212269642Y-64329285D01*
X212269642Y-64329285D02*
X212222023Y-64519761D01*
X212222023Y-64519761D02*
X212126785Y-64615000D01*
X212126785Y-64615000D02*
X212031547Y-64662619D01*
X212031547Y-64662619D02*
X211841071Y-64662619D01*
X212650595Y-63757857D02*
X212698214Y-63710238D01*
X212698214Y-63710238D02*
X212793452Y-63662619D01*
X212793452Y-63662619D02*
X213031547Y-63662619D01*
X213031547Y-63662619D02*
X213126785Y-63710238D01*
X213126785Y-63710238D02*
X213174404Y-63757857D01*
X213174404Y-63757857D02*
X213222023Y-63853095D01*
X213222023Y-63853095D02*
X213222023Y-63948333D01*
X213222023Y-63948333D02*
X213174404Y-64091190D01*
X213174404Y-64091190D02*
X212602976Y-64662619D01*
X212602976Y-64662619D02*
X213222023Y-64662619D01*
D14*
%TO.C,IC3*%
X245680237Y-58887526D02*
X245680237Y-57617526D01*
X247010714Y-58766573D02*
X246950238Y-58827050D01*
X246950238Y-58827050D02*
X246768809Y-58887526D01*
X246768809Y-58887526D02*
X246647857Y-58887526D01*
X246647857Y-58887526D02*
X246466428Y-58827050D01*
X246466428Y-58827050D02*
X246345476Y-58706097D01*
X246345476Y-58706097D02*
X246284999Y-58585145D01*
X246284999Y-58585145D02*
X246224523Y-58343240D01*
X246224523Y-58343240D02*
X246224523Y-58161811D01*
X246224523Y-58161811D02*
X246284999Y-57919907D01*
X246284999Y-57919907D02*
X246345476Y-57798954D01*
X246345476Y-57798954D02*
X246466428Y-57678002D01*
X246466428Y-57678002D02*
X246647857Y-57617526D01*
X246647857Y-57617526D02*
X246768809Y-57617526D01*
X246768809Y-57617526D02*
X246950238Y-57678002D01*
X246950238Y-57678002D02*
X247010714Y-57738478D01*
X247434047Y-57617526D02*
X248220238Y-57617526D01*
X248220238Y-57617526D02*
X247796904Y-58101335D01*
X247796904Y-58101335D02*
X247978333Y-58101335D01*
X247978333Y-58101335D02*
X248099285Y-58161811D01*
X248099285Y-58161811D02*
X248159761Y-58222288D01*
X248159761Y-58222288D02*
X248220238Y-58343240D01*
X248220238Y-58343240D02*
X248220238Y-58645621D01*
X248220238Y-58645621D02*
X248159761Y-58766573D01*
X248159761Y-58766573D02*
X248099285Y-58827050D01*
X248099285Y-58827050D02*
X247978333Y-58887526D01*
X247978333Y-58887526D02*
X247615476Y-58887526D01*
X247615476Y-58887526D02*
X247494523Y-58827050D01*
X247494523Y-58827050D02*
X247434047Y-58766573D01*
D10*
%TO.C,KeyVolt1*%
X231773809Y-51289619D02*
X231773809Y-50289619D01*
X232345237Y-51289619D02*
X231916666Y-50718190D01*
X232345237Y-50289619D02*
X231773809Y-50861047D01*
X233154761Y-51242000D02*
X233059523Y-51289619D01*
X233059523Y-51289619D02*
X232869047Y-51289619D01*
X232869047Y-51289619D02*
X232773809Y-51242000D01*
X232773809Y-51242000D02*
X232726190Y-51146761D01*
X232726190Y-51146761D02*
X232726190Y-50765809D01*
X232726190Y-50765809D02*
X232773809Y-50670571D01*
X232773809Y-50670571D02*
X232869047Y-50622952D01*
X232869047Y-50622952D02*
X233059523Y-50622952D01*
X233059523Y-50622952D02*
X233154761Y-50670571D01*
X233154761Y-50670571D02*
X233202380Y-50765809D01*
X233202380Y-50765809D02*
X233202380Y-50861047D01*
X233202380Y-50861047D02*
X232726190Y-50956285D01*
X233535714Y-50622952D02*
X233773809Y-51289619D01*
X234011904Y-50622952D02*
X233773809Y-51289619D01*
X233773809Y-51289619D02*
X233678571Y-51527714D01*
X233678571Y-51527714D02*
X233630952Y-51575333D01*
X233630952Y-51575333D02*
X233535714Y-51622952D01*
X234250000Y-50289619D02*
X234583333Y-51289619D01*
X234583333Y-51289619D02*
X234916666Y-50289619D01*
X235392857Y-51289619D02*
X235297619Y-51242000D01*
X235297619Y-51242000D02*
X235250000Y-51194380D01*
X235250000Y-51194380D02*
X235202381Y-51099142D01*
X235202381Y-51099142D02*
X235202381Y-50813428D01*
X235202381Y-50813428D02*
X235250000Y-50718190D01*
X235250000Y-50718190D02*
X235297619Y-50670571D01*
X235297619Y-50670571D02*
X235392857Y-50622952D01*
X235392857Y-50622952D02*
X235535714Y-50622952D01*
X235535714Y-50622952D02*
X235630952Y-50670571D01*
X235630952Y-50670571D02*
X235678571Y-50718190D01*
X235678571Y-50718190D02*
X235726190Y-50813428D01*
X235726190Y-50813428D02*
X235726190Y-51099142D01*
X235726190Y-51099142D02*
X235678571Y-51194380D01*
X235678571Y-51194380D02*
X235630952Y-51242000D01*
X235630952Y-51242000D02*
X235535714Y-51289619D01*
X235535714Y-51289619D02*
X235392857Y-51289619D01*
X236297619Y-51289619D02*
X236202381Y-51242000D01*
X236202381Y-51242000D02*
X236154762Y-51146761D01*
X236154762Y-51146761D02*
X236154762Y-50289619D01*
X236535715Y-50622952D02*
X236916667Y-50622952D01*
X236678572Y-50289619D02*
X236678572Y-51146761D01*
X236678572Y-51146761D02*
X236726191Y-51242000D01*
X236726191Y-51242000D02*
X236821429Y-51289619D01*
X236821429Y-51289619D02*
X236916667Y-51289619D01*
X237773810Y-51289619D02*
X237202382Y-51289619D01*
X237488096Y-51289619D02*
X237488096Y-50289619D01*
X237488096Y-50289619D02*
X237392858Y-50432476D01*
X237392858Y-50432476D02*
X237297620Y-50527714D01*
X237297620Y-50527714D02*
X237202382Y-50575333D01*
D12*
%TO.C,SW1*%
X259665000Y-64433332D02*
X259712619Y-64290475D01*
X259712619Y-64290475D02*
X259712619Y-64052380D01*
X259712619Y-64052380D02*
X259665000Y-63957142D01*
X259665000Y-63957142D02*
X259617380Y-63909523D01*
X259617380Y-63909523D02*
X259522142Y-63861904D01*
X259522142Y-63861904D02*
X259426904Y-63861904D01*
X259426904Y-63861904D02*
X259331666Y-63909523D01*
X259331666Y-63909523D02*
X259284047Y-63957142D01*
X259284047Y-63957142D02*
X259236428Y-64052380D01*
X259236428Y-64052380D02*
X259188809Y-64242856D01*
X259188809Y-64242856D02*
X259141190Y-64338094D01*
X259141190Y-64338094D02*
X259093571Y-64385713D01*
X259093571Y-64385713D02*
X258998333Y-64433332D01*
X258998333Y-64433332D02*
X258903095Y-64433332D01*
X258903095Y-64433332D02*
X258807857Y-64385713D01*
X258807857Y-64385713D02*
X258760238Y-64338094D01*
X258760238Y-64338094D02*
X258712619Y-64242856D01*
X258712619Y-64242856D02*
X258712619Y-64004761D01*
X258712619Y-64004761D02*
X258760238Y-63861904D01*
X258712619Y-63528570D02*
X259712619Y-63290475D01*
X259712619Y-63290475D02*
X258998333Y-63099999D01*
X258998333Y-63099999D02*
X259712619Y-62909523D01*
X259712619Y-62909523D02*
X258712619Y-62671428D01*
X259712619Y-61766666D02*
X259712619Y-62338094D01*
X259712619Y-62052380D02*
X258712619Y-62052380D01*
X258712619Y-62052380D02*
X258855476Y-62147618D01*
X258855476Y-62147618D02*
X258950714Y-62242856D01*
X258950714Y-62242856D02*
X258998333Y-62338094D01*
D10*
%TO.C,R5*%
X215508333Y-59737619D02*
X215175000Y-59261428D01*
X214936905Y-59737619D02*
X214936905Y-58737619D01*
X214936905Y-58737619D02*
X215317857Y-58737619D01*
X215317857Y-58737619D02*
X215413095Y-58785238D01*
X215413095Y-58785238D02*
X215460714Y-58832857D01*
X215460714Y-58832857D02*
X215508333Y-58928095D01*
X215508333Y-58928095D02*
X215508333Y-59070952D01*
X215508333Y-59070952D02*
X215460714Y-59166190D01*
X215460714Y-59166190D02*
X215413095Y-59213809D01*
X215413095Y-59213809D02*
X215317857Y-59261428D01*
X215317857Y-59261428D02*
X214936905Y-59261428D01*
X216413095Y-58737619D02*
X215936905Y-58737619D01*
X215936905Y-58737619D02*
X215889286Y-59213809D01*
X215889286Y-59213809D02*
X215936905Y-59166190D01*
X215936905Y-59166190D02*
X216032143Y-59118571D01*
X216032143Y-59118571D02*
X216270238Y-59118571D01*
X216270238Y-59118571D02*
X216365476Y-59166190D01*
X216365476Y-59166190D02*
X216413095Y-59213809D01*
X216413095Y-59213809D02*
X216460714Y-59309047D01*
X216460714Y-59309047D02*
X216460714Y-59547142D01*
X216460714Y-59547142D02*
X216413095Y-59642380D01*
X216413095Y-59642380D02*
X216365476Y-59690000D01*
X216365476Y-59690000D02*
X216270238Y-59737619D01*
X216270238Y-59737619D02*
X216032143Y-59737619D01*
X216032143Y-59737619D02*
X215936905Y-59690000D01*
X215936905Y-59690000D02*
X215889286Y-59642380D01*
%TO.C,C11*%
X226592380Y-63942857D02*
X226640000Y-63990476D01*
X226640000Y-63990476D02*
X226687619Y-64133333D01*
X226687619Y-64133333D02*
X226687619Y-64228571D01*
X226687619Y-64228571D02*
X226640000Y-64371428D01*
X226640000Y-64371428D02*
X226544761Y-64466666D01*
X226544761Y-64466666D02*
X226449523Y-64514285D01*
X226449523Y-64514285D02*
X226259047Y-64561904D01*
X226259047Y-64561904D02*
X226116190Y-64561904D01*
X226116190Y-64561904D02*
X225925714Y-64514285D01*
X225925714Y-64514285D02*
X225830476Y-64466666D01*
X225830476Y-64466666D02*
X225735238Y-64371428D01*
X225735238Y-64371428D02*
X225687619Y-64228571D01*
X225687619Y-64228571D02*
X225687619Y-64133333D01*
X225687619Y-64133333D02*
X225735238Y-63990476D01*
X225735238Y-63990476D02*
X225782857Y-63942857D01*
X226687619Y-62990476D02*
X226687619Y-63561904D01*
X226687619Y-63276190D02*
X225687619Y-63276190D01*
X225687619Y-63276190D02*
X225830476Y-63371428D01*
X225830476Y-63371428D02*
X225925714Y-63466666D01*
X225925714Y-63466666D02*
X225973333Y-63561904D01*
X226687619Y-62038095D02*
X226687619Y-62609523D01*
X226687619Y-62323809D02*
X225687619Y-62323809D01*
X225687619Y-62323809D02*
X225830476Y-62419047D01*
X225830476Y-62419047D02*
X225925714Y-62514285D01*
X225925714Y-62514285D02*
X225973333Y-62609523D01*
D14*
%TO.C,IC5*%
X247310237Y-73437526D02*
X247310237Y-72167526D01*
X248640714Y-73316573D02*
X248580238Y-73377050D01*
X248580238Y-73377050D02*
X248398809Y-73437526D01*
X248398809Y-73437526D02*
X248277857Y-73437526D01*
X248277857Y-73437526D02*
X248096428Y-73377050D01*
X248096428Y-73377050D02*
X247975476Y-73256097D01*
X247975476Y-73256097D02*
X247914999Y-73135145D01*
X247914999Y-73135145D02*
X247854523Y-72893240D01*
X247854523Y-72893240D02*
X247854523Y-72711811D01*
X247854523Y-72711811D02*
X247914999Y-72469907D01*
X247914999Y-72469907D02*
X247975476Y-72348954D01*
X247975476Y-72348954D02*
X248096428Y-72228002D01*
X248096428Y-72228002D02*
X248277857Y-72167526D01*
X248277857Y-72167526D02*
X248398809Y-72167526D01*
X248398809Y-72167526D02*
X248580238Y-72228002D01*
X248580238Y-72228002D02*
X248640714Y-72288478D01*
X249789761Y-72167526D02*
X249184999Y-72167526D01*
X249184999Y-72167526D02*
X249124523Y-72772288D01*
X249124523Y-72772288D02*
X249184999Y-72711811D01*
X249184999Y-72711811D02*
X249305952Y-72651335D01*
X249305952Y-72651335D02*
X249608333Y-72651335D01*
X249608333Y-72651335D02*
X249729285Y-72711811D01*
X249729285Y-72711811D02*
X249789761Y-72772288D01*
X249789761Y-72772288D02*
X249850238Y-72893240D01*
X249850238Y-72893240D02*
X249850238Y-73195621D01*
X249850238Y-73195621D02*
X249789761Y-73316573D01*
X249789761Y-73316573D02*
X249729285Y-73377050D01*
X249729285Y-73377050D02*
X249608333Y-73437526D01*
X249608333Y-73437526D02*
X249305952Y-73437526D01*
X249305952Y-73437526D02*
X249184999Y-73377050D01*
X249184999Y-73377050D02*
X249124523Y-73316573D01*
D10*
%TO.C,NReset1*%
X240965476Y-49787619D02*
X240965476Y-48787619D01*
X240965476Y-48787619D02*
X241536904Y-49787619D01*
X241536904Y-49787619D02*
X241536904Y-48787619D01*
X242584523Y-49787619D02*
X242251190Y-49311428D01*
X242013095Y-49787619D02*
X242013095Y-48787619D01*
X242013095Y-48787619D02*
X242394047Y-48787619D01*
X242394047Y-48787619D02*
X242489285Y-48835238D01*
X242489285Y-48835238D02*
X242536904Y-48882857D01*
X242536904Y-48882857D02*
X242584523Y-48978095D01*
X242584523Y-48978095D02*
X242584523Y-49120952D01*
X242584523Y-49120952D02*
X242536904Y-49216190D01*
X242536904Y-49216190D02*
X242489285Y-49263809D01*
X242489285Y-49263809D02*
X242394047Y-49311428D01*
X242394047Y-49311428D02*
X242013095Y-49311428D01*
X243394047Y-49740000D02*
X243298809Y-49787619D01*
X243298809Y-49787619D02*
X243108333Y-49787619D01*
X243108333Y-49787619D02*
X243013095Y-49740000D01*
X243013095Y-49740000D02*
X242965476Y-49644761D01*
X242965476Y-49644761D02*
X242965476Y-49263809D01*
X242965476Y-49263809D02*
X243013095Y-49168571D01*
X243013095Y-49168571D02*
X243108333Y-49120952D01*
X243108333Y-49120952D02*
X243298809Y-49120952D01*
X243298809Y-49120952D02*
X243394047Y-49168571D01*
X243394047Y-49168571D02*
X243441666Y-49263809D01*
X243441666Y-49263809D02*
X243441666Y-49359047D01*
X243441666Y-49359047D02*
X242965476Y-49454285D01*
X243822619Y-49740000D02*
X243917857Y-49787619D01*
X243917857Y-49787619D02*
X244108333Y-49787619D01*
X244108333Y-49787619D02*
X244203571Y-49740000D01*
X244203571Y-49740000D02*
X244251190Y-49644761D01*
X244251190Y-49644761D02*
X244251190Y-49597142D01*
X244251190Y-49597142D02*
X244203571Y-49501904D01*
X244203571Y-49501904D02*
X244108333Y-49454285D01*
X244108333Y-49454285D02*
X243965476Y-49454285D01*
X243965476Y-49454285D02*
X243870238Y-49406666D01*
X243870238Y-49406666D02*
X243822619Y-49311428D01*
X243822619Y-49311428D02*
X243822619Y-49263809D01*
X243822619Y-49263809D02*
X243870238Y-49168571D01*
X243870238Y-49168571D02*
X243965476Y-49120952D01*
X243965476Y-49120952D02*
X244108333Y-49120952D01*
X244108333Y-49120952D02*
X244203571Y-49168571D01*
X245060714Y-49740000D02*
X244965476Y-49787619D01*
X244965476Y-49787619D02*
X244775000Y-49787619D01*
X244775000Y-49787619D02*
X244679762Y-49740000D01*
X244679762Y-49740000D02*
X244632143Y-49644761D01*
X244632143Y-49644761D02*
X244632143Y-49263809D01*
X244632143Y-49263809D02*
X244679762Y-49168571D01*
X244679762Y-49168571D02*
X244775000Y-49120952D01*
X244775000Y-49120952D02*
X244965476Y-49120952D01*
X244965476Y-49120952D02*
X245060714Y-49168571D01*
X245060714Y-49168571D02*
X245108333Y-49263809D01*
X245108333Y-49263809D02*
X245108333Y-49359047D01*
X245108333Y-49359047D02*
X244632143Y-49454285D01*
X245394048Y-49120952D02*
X245775000Y-49120952D01*
X245536905Y-48787619D02*
X245536905Y-49644761D01*
X245536905Y-49644761D02*
X245584524Y-49740000D01*
X245584524Y-49740000D02*
X245679762Y-49787619D01*
X245679762Y-49787619D02*
X245775000Y-49787619D01*
X246632143Y-49787619D02*
X246060715Y-49787619D01*
X246346429Y-49787619D02*
X246346429Y-48787619D01*
X246346429Y-48787619D02*
X246251191Y-48930476D01*
X246251191Y-48930476D02*
X246155953Y-49025714D01*
X246155953Y-49025714D02*
X246060715Y-49073333D01*
%TO.C,C1*%
X240717380Y-72041666D02*
X240765000Y-72089285D01*
X240765000Y-72089285D02*
X240812619Y-72232142D01*
X240812619Y-72232142D02*
X240812619Y-72327380D01*
X240812619Y-72327380D02*
X240765000Y-72470237D01*
X240765000Y-72470237D02*
X240669761Y-72565475D01*
X240669761Y-72565475D02*
X240574523Y-72613094D01*
X240574523Y-72613094D02*
X240384047Y-72660713D01*
X240384047Y-72660713D02*
X240241190Y-72660713D01*
X240241190Y-72660713D02*
X240050714Y-72613094D01*
X240050714Y-72613094D02*
X239955476Y-72565475D01*
X239955476Y-72565475D02*
X239860238Y-72470237D01*
X239860238Y-72470237D02*
X239812619Y-72327380D01*
X239812619Y-72327380D02*
X239812619Y-72232142D01*
X239812619Y-72232142D02*
X239860238Y-72089285D01*
X239860238Y-72089285D02*
X239907857Y-72041666D01*
X240812619Y-71089285D02*
X240812619Y-71660713D01*
X240812619Y-71374999D02*
X239812619Y-71374999D01*
X239812619Y-71374999D02*
X239955476Y-71470237D01*
X239955476Y-71470237D02*
X240050714Y-71565475D01*
X240050714Y-71565475D02*
X240098333Y-71660713D01*
%TO.C,L1*%
X216108333Y-81362619D02*
X215632143Y-81362619D01*
X215632143Y-81362619D02*
X215632143Y-80362619D01*
X216965476Y-81362619D02*
X216394048Y-81362619D01*
X216679762Y-81362619D02*
X216679762Y-80362619D01*
X216679762Y-80362619D02*
X216584524Y-80505476D01*
X216584524Y-80505476D02*
X216489286Y-80600714D01*
X216489286Y-80600714D02*
X216394048Y-80648333D01*
%TO.C,EN1*%
X248060714Y-90363809D02*
X248394047Y-90363809D01*
X248536904Y-90887619D02*
X248060714Y-90887619D01*
X248060714Y-90887619D02*
X248060714Y-89887619D01*
X248060714Y-89887619D02*
X248536904Y-89887619D01*
X248965476Y-90887619D02*
X248965476Y-89887619D01*
X248965476Y-89887619D02*
X249536904Y-90887619D01*
X249536904Y-90887619D02*
X249536904Y-89887619D01*
X250536904Y-90887619D02*
X249965476Y-90887619D01*
X250251190Y-90887619D02*
X250251190Y-89887619D01*
X250251190Y-89887619D02*
X250155952Y-90030476D01*
X250155952Y-90030476D02*
X250060714Y-90125714D01*
X250060714Y-90125714D02*
X249965476Y-90173333D01*
%TO.C,V_Buzzer1*%
X214384523Y-89837619D02*
X214717856Y-90837619D01*
X214717856Y-90837619D02*
X215051189Y-89837619D01*
X215146428Y-90932857D02*
X215908332Y-90932857D01*
X216479761Y-90313809D02*
X216622618Y-90361428D01*
X216622618Y-90361428D02*
X216670237Y-90409047D01*
X216670237Y-90409047D02*
X216717856Y-90504285D01*
X216717856Y-90504285D02*
X216717856Y-90647142D01*
X216717856Y-90647142D02*
X216670237Y-90742380D01*
X216670237Y-90742380D02*
X216622618Y-90790000D01*
X216622618Y-90790000D02*
X216527380Y-90837619D01*
X216527380Y-90837619D02*
X216146428Y-90837619D01*
X216146428Y-90837619D02*
X216146428Y-89837619D01*
X216146428Y-89837619D02*
X216479761Y-89837619D01*
X216479761Y-89837619D02*
X216574999Y-89885238D01*
X216574999Y-89885238D02*
X216622618Y-89932857D01*
X216622618Y-89932857D02*
X216670237Y-90028095D01*
X216670237Y-90028095D02*
X216670237Y-90123333D01*
X216670237Y-90123333D02*
X216622618Y-90218571D01*
X216622618Y-90218571D02*
X216574999Y-90266190D01*
X216574999Y-90266190D02*
X216479761Y-90313809D01*
X216479761Y-90313809D02*
X216146428Y-90313809D01*
X217574999Y-90170952D02*
X217574999Y-90837619D01*
X217146428Y-90170952D02*
X217146428Y-90694761D01*
X217146428Y-90694761D02*
X217194047Y-90790000D01*
X217194047Y-90790000D02*
X217289285Y-90837619D01*
X217289285Y-90837619D02*
X217432142Y-90837619D01*
X217432142Y-90837619D02*
X217527380Y-90790000D01*
X217527380Y-90790000D02*
X217574999Y-90742380D01*
X217955952Y-90170952D02*
X218479761Y-90170952D01*
X218479761Y-90170952D02*
X217955952Y-90837619D01*
X217955952Y-90837619D02*
X218479761Y-90837619D01*
X218765476Y-90170952D02*
X219289285Y-90170952D01*
X219289285Y-90170952D02*
X218765476Y-90837619D01*
X218765476Y-90837619D02*
X219289285Y-90837619D01*
X220051190Y-90790000D02*
X219955952Y-90837619D01*
X219955952Y-90837619D02*
X219765476Y-90837619D01*
X219765476Y-90837619D02*
X219670238Y-90790000D01*
X219670238Y-90790000D02*
X219622619Y-90694761D01*
X219622619Y-90694761D02*
X219622619Y-90313809D01*
X219622619Y-90313809D02*
X219670238Y-90218571D01*
X219670238Y-90218571D02*
X219765476Y-90170952D01*
X219765476Y-90170952D02*
X219955952Y-90170952D01*
X219955952Y-90170952D02*
X220051190Y-90218571D01*
X220051190Y-90218571D02*
X220098809Y-90313809D01*
X220098809Y-90313809D02*
X220098809Y-90409047D01*
X220098809Y-90409047D02*
X219622619Y-90504285D01*
X220527381Y-90837619D02*
X220527381Y-90170952D01*
X220527381Y-90361428D02*
X220575000Y-90266190D01*
X220575000Y-90266190D02*
X220622619Y-90218571D01*
X220622619Y-90218571D02*
X220717857Y-90170952D01*
X220717857Y-90170952D02*
X220813095Y-90170952D01*
X221670238Y-90837619D02*
X221098810Y-90837619D01*
X221384524Y-90837619D02*
X221384524Y-89837619D01*
X221384524Y-89837619D02*
X221289286Y-89980476D01*
X221289286Y-89980476D02*
X221194048Y-90075714D01*
X221194048Y-90075714D02*
X221098810Y-90123333D01*
%TO.C,C2*%
X225458333Y-83492380D02*
X225410714Y-83540000D01*
X225410714Y-83540000D02*
X225267857Y-83587619D01*
X225267857Y-83587619D02*
X225172619Y-83587619D01*
X225172619Y-83587619D02*
X225029762Y-83540000D01*
X225029762Y-83540000D02*
X224934524Y-83444761D01*
X224934524Y-83444761D02*
X224886905Y-83349523D01*
X224886905Y-83349523D02*
X224839286Y-83159047D01*
X224839286Y-83159047D02*
X224839286Y-83016190D01*
X224839286Y-83016190D02*
X224886905Y-82825714D01*
X224886905Y-82825714D02*
X224934524Y-82730476D01*
X224934524Y-82730476D02*
X225029762Y-82635238D01*
X225029762Y-82635238D02*
X225172619Y-82587619D01*
X225172619Y-82587619D02*
X225267857Y-82587619D01*
X225267857Y-82587619D02*
X225410714Y-82635238D01*
X225410714Y-82635238D02*
X225458333Y-82682857D01*
X225839286Y-82682857D02*
X225886905Y-82635238D01*
X225886905Y-82635238D02*
X225982143Y-82587619D01*
X225982143Y-82587619D02*
X226220238Y-82587619D01*
X226220238Y-82587619D02*
X226315476Y-82635238D01*
X226315476Y-82635238D02*
X226363095Y-82682857D01*
X226363095Y-82682857D02*
X226410714Y-82778095D01*
X226410714Y-82778095D02*
X226410714Y-82873333D01*
X226410714Y-82873333D02*
X226363095Y-83016190D01*
X226363095Y-83016190D02*
X225791667Y-83587619D01*
X225791667Y-83587619D02*
X226410714Y-83587619D01*
%TO.C,R3*%
X216908333Y-71187619D02*
X216575000Y-70711428D01*
X216336905Y-71187619D02*
X216336905Y-70187619D01*
X216336905Y-70187619D02*
X216717857Y-70187619D01*
X216717857Y-70187619D02*
X216813095Y-70235238D01*
X216813095Y-70235238D02*
X216860714Y-70282857D01*
X216860714Y-70282857D02*
X216908333Y-70378095D01*
X216908333Y-70378095D02*
X216908333Y-70520952D01*
X216908333Y-70520952D02*
X216860714Y-70616190D01*
X216860714Y-70616190D02*
X216813095Y-70663809D01*
X216813095Y-70663809D02*
X216717857Y-70711428D01*
X216717857Y-70711428D02*
X216336905Y-70711428D01*
X217241667Y-70187619D02*
X217860714Y-70187619D01*
X217860714Y-70187619D02*
X217527381Y-70568571D01*
X217527381Y-70568571D02*
X217670238Y-70568571D01*
X217670238Y-70568571D02*
X217765476Y-70616190D01*
X217765476Y-70616190D02*
X217813095Y-70663809D01*
X217813095Y-70663809D02*
X217860714Y-70759047D01*
X217860714Y-70759047D02*
X217860714Y-70997142D01*
X217860714Y-70997142D02*
X217813095Y-71092380D01*
X217813095Y-71092380D02*
X217765476Y-71140000D01*
X217765476Y-71140000D02*
X217670238Y-71187619D01*
X217670238Y-71187619D02*
X217384524Y-71187619D01*
X217384524Y-71187619D02*
X217289286Y-71140000D01*
X217289286Y-71140000D02*
X217241667Y-71092380D01*
D14*
%TO.C,IC2*%
X218560237Y-75747526D02*
X218560237Y-74477526D01*
X219890714Y-75626573D02*
X219830238Y-75687050D01*
X219830238Y-75687050D02*
X219648809Y-75747526D01*
X219648809Y-75747526D02*
X219527857Y-75747526D01*
X219527857Y-75747526D02*
X219346428Y-75687050D01*
X219346428Y-75687050D02*
X219225476Y-75566097D01*
X219225476Y-75566097D02*
X219164999Y-75445145D01*
X219164999Y-75445145D02*
X219104523Y-75203240D01*
X219104523Y-75203240D02*
X219104523Y-75021811D01*
X219104523Y-75021811D02*
X219164999Y-74779907D01*
X219164999Y-74779907D02*
X219225476Y-74658954D01*
X219225476Y-74658954D02*
X219346428Y-74538002D01*
X219346428Y-74538002D02*
X219527857Y-74477526D01*
X219527857Y-74477526D02*
X219648809Y-74477526D01*
X219648809Y-74477526D02*
X219830238Y-74538002D01*
X219830238Y-74538002D02*
X219890714Y-74598478D01*
X220374523Y-74598478D02*
X220434999Y-74538002D01*
X220434999Y-74538002D02*
X220555952Y-74477526D01*
X220555952Y-74477526D02*
X220858333Y-74477526D01*
X220858333Y-74477526D02*
X220979285Y-74538002D01*
X220979285Y-74538002D02*
X221039761Y-74598478D01*
X221039761Y-74598478D02*
X221100238Y-74719430D01*
X221100238Y-74719430D02*
X221100238Y-74840383D01*
X221100238Y-74840383D02*
X221039761Y-75021811D01*
X221039761Y-75021811D02*
X220314047Y-75747526D01*
X220314047Y-75747526D02*
X221100238Y-75747526D01*
D10*
%TO.C,1.8V1*%
X203691666Y-71714619D02*
X203120238Y-71714619D01*
X203405952Y-71714619D02*
X203405952Y-70714619D01*
X203405952Y-70714619D02*
X203310714Y-70857476D01*
X203310714Y-70857476D02*
X203215476Y-70952714D01*
X203215476Y-70952714D02*
X203120238Y-71000333D01*
X204120238Y-71619380D02*
X204167857Y-71667000D01*
X204167857Y-71667000D02*
X204120238Y-71714619D01*
X204120238Y-71714619D02*
X204072619Y-71667000D01*
X204072619Y-71667000D02*
X204120238Y-71619380D01*
X204120238Y-71619380D02*
X204120238Y-71714619D01*
X204739285Y-71143190D02*
X204644047Y-71095571D01*
X204644047Y-71095571D02*
X204596428Y-71047952D01*
X204596428Y-71047952D02*
X204548809Y-70952714D01*
X204548809Y-70952714D02*
X204548809Y-70905095D01*
X204548809Y-70905095D02*
X204596428Y-70809857D01*
X204596428Y-70809857D02*
X204644047Y-70762238D01*
X204644047Y-70762238D02*
X204739285Y-70714619D01*
X204739285Y-70714619D02*
X204929761Y-70714619D01*
X204929761Y-70714619D02*
X205024999Y-70762238D01*
X205024999Y-70762238D02*
X205072618Y-70809857D01*
X205072618Y-70809857D02*
X205120237Y-70905095D01*
X205120237Y-70905095D02*
X205120237Y-70952714D01*
X205120237Y-70952714D02*
X205072618Y-71047952D01*
X205072618Y-71047952D02*
X205024999Y-71095571D01*
X205024999Y-71095571D02*
X204929761Y-71143190D01*
X204929761Y-71143190D02*
X204739285Y-71143190D01*
X204739285Y-71143190D02*
X204644047Y-71190809D01*
X204644047Y-71190809D02*
X204596428Y-71238428D01*
X204596428Y-71238428D02*
X204548809Y-71333666D01*
X204548809Y-71333666D02*
X204548809Y-71524142D01*
X204548809Y-71524142D02*
X204596428Y-71619380D01*
X204596428Y-71619380D02*
X204644047Y-71667000D01*
X204644047Y-71667000D02*
X204739285Y-71714619D01*
X204739285Y-71714619D02*
X204929761Y-71714619D01*
X204929761Y-71714619D02*
X205024999Y-71667000D01*
X205024999Y-71667000D02*
X205072618Y-71619380D01*
X205072618Y-71619380D02*
X205120237Y-71524142D01*
X205120237Y-71524142D02*
X205120237Y-71333666D01*
X205120237Y-71333666D02*
X205072618Y-71238428D01*
X205072618Y-71238428D02*
X205024999Y-71190809D01*
X205024999Y-71190809D02*
X204929761Y-71143190D01*
X205405952Y-70714619D02*
X205739285Y-71714619D01*
X205739285Y-71714619D02*
X206072618Y-70714619D01*
X206929761Y-71714619D02*
X206358333Y-71714619D01*
X206644047Y-71714619D02*
X206644047Y-70714619D01*
X206644047Y-70714619D02*
X206548809Y-70857476D01*
X206548809Y-70857476D02*
X206453571Y-70952714D01*
X206453571Y-70952714D02*
X206358333Y-71000333D01*
%TO.C,C15*%
X243707142Y-54792380D02*
X243659523Y-54840000D01*
X243659523Y-54840000D02*
X243516666Y-54887619D01*
X243516666Y-54887619D02*
X243421428Y-54887619D01*
X243421428Y-54887619D02*
X243278571Y-54840000D01*
X243278571Y-54840000D02*
X243183333Y-54744761D01*
X243183333Y-54744761D02*
X243135714Y-54649523D01*
X243135714Y-54649523D02*
X243088095Y-54459047D01*
X243088095Y-54459047D02*
X243088095Y-54316190D01*
X243088095Y-54316190D02*
X243135714Y-54125714D01*
X243135714Y-54125714D02*
X243183333Y-54030476D01*
X243183333Y-54030476D02*
X243278571Y-53935238D01*
X243278571Y-53935238D02*
X243421428Y-53887619D01*
X243421428Y-53887619D02*
X243516666Y-53887619D01*
X243516666Y-53887619D02*
X243659523Y-53935238D01*
X243659523Y-53935238D02*
X243707142Y-53982857D01*
X244659523Y-54887619D02*
X244088095Y-54887619D01*
X244373809Y-54887619D02*
X244373809Y-53887619D01*
X244373809Y-53887619D02*
X244278571Y-54030476D01*
X244278571Y-54030476D02*
X244183333Y-54125714D01*
X244183333Y-54125714D02*
X244088095Y-54173333D01*
X245564285Y-53887619D02*
X245088095Y-53887619D01*
X245088095Y-53887619D02*
X245040476Y-54363809D01*
X245040476Y-54363809D02*
X245088095Y-54316190D01*
X245088095Y-54316190D02*
X245183333Y-54268571D01*
X245183333Y-54268571D02*
X245421428Y-54268571D01*
X245421428Y-54268571D02*
X245516666Y-54316190D01*
X245516666Y-54316190D02*
X245564285Y-54363809D01*
X245564285Y-54363809D02*
X245611904Y-54459047D01*
X245611904Y-54459047D02*
X245611904Y-54697142D01*
X245611904Y-54697142D02*
X245564285Y-54792380D01*
X245564285Y-54792380D02*
X245516666Y-54840000D01*
X245516666Y-54840000D02*
X245421428Y-54887619D01*
X245421428Y-54887619D02*
X245183333Y-54887619D01*
X245183333Y-54887619D02*
X245088095Y-54840000D01*
X245088095Y-54840000D02*
X245040476Y-54792380D01*
%TO.C,3V3_TPS1*%
X245987619Y-53632619D02*
X246606666Y-53632619D01*
X246606666Y-53632619D02*
X246273333Y-54013571D01*
X246273333Y-54013571D02*
X246416190Y-54013571D01*
X246416190Y-54013571D02*
X246511428Y-54061190D01*
X246511428Y-54061190D02*
X246559047Y-54108809D01*
X246559047Y-54108809D02*
X246606666Y-54204047D01*
X246606666Y-54204047D02*
X246606666Y-54442142D01*
X246606666Y-54442142D02*
X246559047Y-54537380D01*
X246559047Y-54537380D02*
X246511428Y-54585000D01*
X246511428Y-54585000D02*
X246416190Y-54632619D01*
X246416190Y-54632619D02*
X246130476Y-54632619D01*
X246130476Y-54632619D02*
X246035238Y-54585000D01*
X246035238Y-54585000D02*
X245987619Y-54537380D01*
X246892381Y-53632619D02*
X247225714Y-54632619D01*
X247225714Y-54632619D02*
X247559047Y-53632619D01*
X247797143Y-53632619D02*
X248416190Y-53632619D01*
X248416190Y-53632619D02*
X248082857Y-54013571D01*
X248082857Y-54013571D02*
X248225714Y-54013571D01*
X248225714Y-54013571D02*
X248320952Y-54061190D01*
X248320952Y-54061190D02*
X248368571Y-54108809D01*
X248368571Y-54108809D02*
X248416190Y-54204047D01*
X248416190Y-54204047D02*
X248416190Y-54442142D01*
X248416190Y-54442142D02*
X248368571Y-54537380D01*
X248368571Y-54537380D02*
X248320952Y-54585000D01*
X248320952Y-54585000D02*
X248225714Y-54632619D01*
X248225714Y-54632619D02*
X247940000Y-54632619D01*
X247940000Y-54632619D02*
X247844762Y-54585000D01*
X247844762Y-54585000D02*
X247797143Y-54537380D01*
X248606667Y-54727857D02*
X249368571Y-54727857D01*
X249463810Y-53632619D02*
X250035238Y-53632619D01*
X249749524Y-54632619D02*
X249749524Y-53632619D01*
X250368572Y-54632619D02*
X250368572Y-53632619D01*
X250368572Y-53632619D02*
X250749524Y-53632619D01*
X250749524Y-53632619D02*
X250844762Y-53680238D01*
X250844762Y-53680238D02*
X250892381Y-53727857D01*
X250892381Y-53727857D02*
X250940000Y-53823095D01*
X250940000Y-53823095D02*
X250940000Y-53965952D01*
X250940000Y-53965952D02*
X250892381Y-54061190D01*
X250892381Y-54061190D02*
X250844762Y-54108809D01*
X250844762Y-54108809D02*
X250749524Y-54156428D01*
X250749524Y-54156428D02*
X250368572Y-54156428D01*
X251320953Y-54585000D02*
X251463810Y-54632619D01*
X251463810Y-54632619D02*
X251701905Y-54632619D01*
X251701905Y-54632619D02*
X251797143Y-54585000D01*
X251797143Y-54585000D02*
X251844762Y-54537380D01*
X251844762Y-54537380D02*
X251892381Y-54442142D01*
X251892381Y-54442142D02*
X251892381Y-54346904D01*
X251892381Y-54346904D02*
X251844762Y-54251666D01*
X251844762Y-54251666D02*
X251797143Y-54204047D01*
X251797143Y-54204047D02*
X251701905Y-54156428D01*
X251701905Y-54156428D02*
X251511429Y-54108809D01*
X251511429Y-54108809D02*
X251416191Y-54061190D01*
X251416191Y-54061190D02*
X251368572Y-54013571D01*
X251368572Y-54013571D02*
X251320953Y-53918333D01*
X251320953Y-53918333D02*
X251320953Y-53823095D01*
X251320953Y-53823095D02*
X251368572Y-53727857D01*
X251368572Y-53727857D02*
X251416191Y-53680238D01*
X251416191Y-53680238D02*
X251511429Y-53632619D01*
X251511429Y-53632619D02*
X251749524Y-53632619D01*
X251749524Y-53632619D02*
X251892381Y-53680238D01*
X252844762Y-54632619D02*
X252273334Y-54632619D01*
X252559048Y-54632619D02*
X252559048Y-53632619D01*
X252559048Y-53632619D02*
X252463810Y-53775476D01*
X252463810Y-53775476D02*
X252368572Y-53870714D01*
X252368572Y-53870714D02*
X252273334Y-53918333D01*
%TO.C,TP_GND1*%
X246593333Y-47162619D02*
X247164761Y-47162619D01*
X246879047Y-48162619D02*
X246879047Y-47162619D01*
X247498095Y-48162619D02*
X247498095Y-47162619D01*
X247498095Y-47162619D02*
X247879047Y-47162619D01*
X247879047Y-47162619D02*
X247974285Y-47210238D01*
X247974285Y-47210238D02*
X248021904Y-47257857D01*
X248021904Y-47257857D02*
X248069523Y-47353095D01*
X248069523Y-47353095D02*
X248069523Y-47495952D01*
X248069523Y-47495952D02*
X248021904Y-47591190D01*
X248021904Y-47591190D02*
X247974285Y-47638809D01*
X247974285Y-47638809D02*
X247879047Y-47686428D01*
X247879047Y-47686428D02*
X247498095Y-47686428D01*
X248260000Y-48257857D02*
X249021904Y-48257857D01*
X249783809Y-47210238D02*
X249688571Y-47162619D01*
X249688571Y-47162619D02*
X249545714Y-47162619D01*
X249545714Y-47162619D02*
X249402857Y-47210238D01*
X249402857Y-47210238D02*
X249307619Y-47305476D01*
X249307619Y-47305476D02*
X249260000Y-47400714D01*
X249260000Y-47400714D02*
X249212381Y-47591190D01*
X249212381Y-47591190D02*
X249212381Y-47734047D01*
X249212381Y-47734047D02*
X249260000Y-47924523D01*
X249260000Y-47924523D02*
X249307619Y-48019761D01*
X249307619Y-48019761D02*
X249402857Y-48115000D01*
X249402857Y-48115000D02*
X249545714Y-48162619D01*
X249545714Y-48162619D02*
X249640952Y-48162619D01*
X249640952Y-48162619D02*
X249783809Y-48115000D01*
X249783809Y-48115000D02*
X249831428Y-48067380D01*
X249831428Y-48067380D02*
X249831428Y-47734047D01*
X249831428Y-47734047D02*
X249640952Y-47734047D01*
X250260000Y-48162619D02*
X250260000Y-47162619D01*
X250260000Y-47162619D02*
X250831428Y-48162619D01*
X250831428Y-48162619D02*
X250831428Y-47162619D01*
X251307619Y-48162619D02*
X251307619Y-47162619D01*
X251307619Y-47162619D02*
X251545714Y-47162619D01*
X251545714Y-47162619D02*
X251688571Y-47210238D01*
X251688571Y-47210238D02*
X251783809Y-47305476D01*
X251783809Y-47305476D02*
X251831428Y-47400714D01*
X251831428Y-47400714D02*
X251879047Y-47591190D01*
X251879047Y-47591190D02*
X251879047Y-47734047D01*
X251879047Y-47734047D02*
X251831428Y-47924523D01*
X251831428Y-47924523D02*
X251783809Y-48019761D01*
X251783809Y-48019761D02*
X251688571Y-48115000D01*
X251688571Y-48115000D02*
X251545714Y-48162619D01*
X251545714Y-48162619D02*
X251307619Y-48162619D01*
X252831428Y-48162619D02*
X252260000Y-48162619D01*
X252545714Y-48162619D02*
X252545714Y-47162619D01*
X252545714Y-47162619D02*
X252450476Y-47305476D01*
X252450476Y-47305476D02*
X252355238Y-47400714D01*
X252355238Y-47400714D02*
X252260000Y-47448333D01*
%TO.C,R2*%
X232808333Y-82287619D02*
X232475000Y-81811428D01*
X232236905Y-82287619D02*
X232236905Y-81287619D01*
X232236905Y-81287619D02*
X232617857Y-81287619D01*
X232617857Y-81287619D02*
X232713095Y-81335238D01*
X232713095Y-81335238D02*
X232760714Y-81382857D01*
X232760714Y-81382857D02*
X232808333Y-81478095D01*
X232808333Y-81478095D02*
X232808333Y-81620952D01*
X232808333Y-81620952D02*
X232760714Y-81716190D01*
X232760714Y-81716190D02*
X232713095Y-81763809D01*
X232713095Y-81763809D02*
X232617857Y-81811428D01*
X232617857Y-81811428D02*
X232236905Y-81811428D01*
X233189286Y-81382857D02*
X233236905Y-81335238D01*
X233236905Y-81335238D02*
X233332143Y-81287619D01*
X233332143Y-81287619D02*
X233570238Y-81287619D01*
X233570238Y-81287619D02*
X233665476Y-81335238D01*
X233665476Y-81335238D02*
X233713095Y-81382857D01*
X233713095Y-81382857D02*
X233760714Y-81478095D01*
X233760714Y-81478095D02*
X233760714Y-81573333D01*
X233760714Y-81573333D02*
X233713095Y-81716190D01*
X233713095Y-81716190D02*
X233141667Y-82287619D01*
X233141667Y-82287619D02*
X233760714Y-82287619D01*
%TO.C,P_R_S1*%
X248998809Y-84262619D02*
X248998809Y-83262619D01*
X248998809Y-83262619D02*
X249379761Y-83262619D01*
X249379761Y-83262619D02*
X249474999Y-83310238D01*
X249474999Y-83310238D02*
X249522618Y-83357857D01*
X249522618Y-83357857D02*
X249570237Y-83453095D01*
X249570237Y-83453095D02*
X249570237Y-83595952D01*
X249570237Y-83595952D02*
X249522618Y-83691190D01*
X249522618Y-83691190D02*
X249474999Y-83738809D01*
X249474999Y-83738809D02*
X249379761Y-83786428D01*
X249379761Y-83786428D02*
X248998809Y-83786428D01*
X249760714Y-84357857D02*
X250522618Y-84357857D01*
X251332142Y-84262619D02*
X250998809Y-83786428D01*
X250760714Y-84262619D02*
X250760714Y-83262619D01*
X250760714Y-83262619D02*
X251141666Y-83262619D01*
X251141666Y-83262619D02*
X251236904Y-83310238D01*
X251236904Y-83310238D02*
X251284523Y-83357857D01*
X251284523Y-83357857D02*
X251332142Y-83453095D01*
X251332142Y-83453095D02*
X251332142Y-83595952D01*
X251332142Y-83595952D02*
X251284523Y-83691190D01*
X251284523Y-83691190D02*
X251236904Y-83738809D01*
X251236904Y-83738809D02*
X251141666Y-83786428D01*
X251141666Y-83786428D02*
X250760714Y-83786428D01*
X251522619Y-84357857D02*
X252284523Y-84357857D01*
X252475000Y-84215000D02*
X252617857Y-84262619D01*
X252617857Y-84262619D02*
X252855952Y-84262619D01*
X252855952Y-84262619D02*
X252951190Y-84215000D01*
X252951190Y-84215000D02*
X252998809Y-84167380D01*
X252998809Y-84167380D02*
X253046428Y-84072142D01*
X253046428Y-84072142D02*
X253046428Y-83976904D01*
X253046428Y-83976904D02*
X252998809Y-83881666D01*
X252998809Y-83881666D02*
X252951190Y-83834047D01*
X252951190Y-83834047D02*
X252855952Y-83786428D01*
X252855952Y-83786428D02*
X252665476Y-83738809D01*
X252665476Y-83738809D02*
X252570238Y-83691190D01*
X252570238Y-83691190D02*
X252522619Y-83643571D01*
X252522619Y-83643571D02*
X252475000Y-83548333D01*
X252475000Y-83548333D02*
X252475000Y-83453095D01*
X252475000Y-83453095D02*
X252522619Y-83357857D01*
X252522619Y-83357857D02*
X252570238Y-83310238D01*
X252570238Y-83310238D02*
X252665476Y-83262619D01*
X252665476Y-83262619D02*
X252903571Y-83262619D01*
X252903571Y-83262619D02*
X253046428Y-83310238D01*
X253998809Y-84262619D02*
X253427381Y-84262619D01*
X253713095Y-84262619D02*
X253713095Y-83262619D01*
X253713095Y-83262619D02*
X253617857Y-83405476D01*
X253617857Y-83405476D02*
X253522619Y-83500714D01*
X253522619Y-83500714D02*
X253427381Y-83548333D01*
%TO.C,C8*%
X220408333Y-68617380D02*
X220360714Y-68665000D01*
X220360714Y-68665000D02*
X220217857Y-68712619D01*
X220217857Y-68712619D02*
X220122619Y-68712619D01*
X220122619Y-68712619D02*
X219979762Y-68665000D01*
X219979762Y-68665000D02*
X219884524Y-68569761D01*
X219884524Y-68569761D02*
X219836905Y-68474523D01*
X219836905Y-68474523D02*
X219789286Y-68284047D01*
X219789286Y-68284047D02*
X219789286Y-68141190D01*
X219789286Y-68141190D02*
X219836905Y-67950714D01*
X219836905Y-67950714D02*
X219884524Y-67855476D01*
X219884524Y-67855476D02*
X219979762Y-67760238D01*
X219979762Y-67760238D02*
X220122619Y-67712619D01*
X220122619Y-67712619D02*
X220217857Y-67712619D01*
X220217857Y-67712619D02*
X220360714Y-67760238D01*
X220360714Y-67760238D02*
X220408333Y-67807857D01*
X220979762Y-68141190D02*
X220884524Y-68093571D01*
X220884524Y-68093571D02*
X220836905Y-68045952D01*
X220836905Y-68045952D02*
X220789286Y-67950714D01*
X220789286Y-67950714D02*
X220789286Y-67903095D01*
X220789286Y-67903095D02*
X220836905Y-67807857D01*
X220836905Y-67807857D02*
X220884524Y-67760238D01*
X220884524Y-67760238D02*
X220979762Y-67712619D01*
X220979762Y-67712619D02*
X221170238Y-67712619D01*
X221170238Y-67712619D02*
X221265476Y-67760238D01*
X221265476Y-67760238D02*
X221313095Y-67807857D01*
X221313095Y-67807857D02*
X221360714Y-67903095D01*
X221360714Y-67903095D02*
X221360714Y-67950714D01*
X221360714Y-67950714D02*
X221313095Y-68045952D01*
X221313095Y-68045952D02*
X221265476Y-68093571D01*
X221265476Y-68093571D02*
X221170238Y-68141190D01*
X221170238Y-68141190D02*
X220979762Y-68141190D01*
X220979762Y-68141190D02*
X220884524Y-68188809D01*
X220884524Y-68188809D02*
X220836905Y-68236428D01*
X220836905Y-68236428D02*
X220789286Y-68331666D01*
X220789286Y-68331666D02*
X220789286Y-68522142D01*
X220789286Y-68522142D02*
X220836905Y-68617380D01*
X220836905Y-68617380D02*
X220884524Y-68665000D01*
X220884524Y-68665000D02*
X220979762Y-68712619D01*
X220979762Y-68712619D02*
X221170238Y-68712619D01*
X221170238Y-68712619D02*
X221265476Y-68665000D01*
X221265476Y-68665000D02*
X221313095Y-68617380D01*
X221313095Y-68617380D02*
X221360714Y-68522142D01*
X221360714Y-68522142D02*
X221360714Y-68331666D01*
X221360714Y-68331666D02*
X221313095Y-68236428D01*
X221313095Y-68236428D02*
X221265476Y-68188809D01*
X221265476Y-68188809D02*
X221170238Y-68141190D01*
%TO.C,C17*%
X240732142Y-62792380D02*
X240684523Y-62840000D01*
X240684523Y-62840000D02*
X240541666Y-62887619D01*
X240541666Y-62887619D02*
X240446428Y-62887619D01*
X240446428Y-62887619D02*
X240303571Y-62840000D01*
X240303571Y-62840000D02*
X240208333Y-62744761D01*
X240208333Y-62744761D02*
X240160714Y-62649523D01*
X240160714Y-62649523D02*
X240113095Y-62459047D01*
X240113095Y-62459047D02*
X240113095Y-62316190D01*
X240113095Y-62316190D02*
X240160714Y-62125714D01*
X240160714Y-62125714D02*
X240208333Y-62030476D01*
X240208333Y-62030476D02*
X240303571Y-61935238D01*
X240303571Y-61935238D02*
X240446428Y-61887619D01*
X240446428Y-61887619D02*
X240541666Y-61887619D01*
X240541666Y-61887619D02*
X240684523Y-61935238D01*
X240684523Y-61935238D02*
X240732142Y-61982857D01*
X241684523Y-62887619D02*
X241113095Y-62887619D01*
X241398809Y-62887619D02*
X241398809Y-61887619D01*
X241398809Y-61887619D02*
X241303571Y-62030476D01*
X241303571Y-62030476D02*
X241208333Y-62125714D01*
X241208333Y-62125714D02*
X241113095Y-62173333D01*
X242017857Y-61887619D02*
X242684523Y-61887619D01*
X242684523Y-61887619D02*
X242255952Y-62887619D01*
%TO.C,L5*%
X241717333Y-57334619D02*
X241241143Y-57334619D01*
X241241143Y-57334619D02*
X241241143Y-56334619D01*
X242526857Y-56334619D02*
X242050667Y-56334619D01*
X242050667Y-56334619D02*
X242003048Y-56810809D01*
X242003048Y-56810809D02*
X242050667Y-56763190D01*
X242050667Y-56763190D02*
X242145905Y-56715571D01*
X242145905Y-56715571D02*
X242384000Y-56715571D01*
X242384000Y-56715571D02*
X242479238Y-56763190D01*
X242479238Y-56763190D02*
X242526857Y-56810809D01*
X242526857Y-56810809D02*
X242574476Y-56906047D01*
X242574476Y-56906047D02*
X242574476Y-57144142D01*
X242574476Y-57144142D02*
X242526857Y-57239380D01*
X242526857Y-57239380D02*
X242479238Y-57287000D01*
X242479238Y-57287000D02*
X242384000Y-57334619D01*
X242384000Y-57334619D02*
X242145905Y-57334619D01*
X242145905Y-57334619D02*
X242050667Y-57287000D01*
X242050667Y-57287000D02*
X242003048Y-57239380D01*
%TO.C,C16*%
X253107142Y-63247380D02*
X253059523Y-63295000D01*
X253059523Y-63295000D02*
X252916666Y-63342619D01*
X252916666Y-63342619D02*
X252821428Y-63342619D01*
X252821428Y-63342619D02*
X252678571Y-63295000D01*
X252678571Y-63295000D02*
X252583333Y-63199761D01*
X252583333Y-63199761D02*
X252535714Y-63104523D01*
X252535714Y-63104523D02*
X252488095Y-62914047D01*
X252488095Y-62914047D02*
X252488095Y-62771190D01*
X252488095Y-62771190D02*
X252535714Y-62580714D01*
X252535714Y-62580714D02*
X252583333Y-62485476D01*
X252583333Y-62485476D02*
X252678571Y-62390238D01*
X252678571Y-62390238D02*
X252821428Y-62342619D01*
X252821428Y-62342619D02*
X252916666Y-62342619D01*
X252916666Y-62342619D02*
X253059523Y-62390238D01*
X253059523Y-62390238D02*
X253107142Y-62437857D01*
X254059523Y-63342619D02*
X253488095Y-63342619D01*
X253773809Y-63342619D02*
X253773809Y-62342619D01*
X253773809Y-62342619D02*
X253678571Y-62485476D01*
X253678571Y-62485476D02*
X253583333Y-62580714D01*
X253583333Y-62580714D02*
X253488095Y-62628333D01*
X254916666Y-62342619D02*
X254726190Y-62342619D01*
X254726190Y-62342619D02*
X254630952Y-62390238D01*
X254630952Y-62390238D02*
X254583333Y-62437857D01*
X254583333Y-62437857D02*
X254488095Y-62580714D01*
X254488095Y-62580714D02*
X254440476Y-62771190D01*
X254440476Y-62771190D02*
X254440476Y-63152142D01*
X254440476Y-63152142D02*
X254488095Y-63247380D01*
X254488095Y-63247380D02*
X254535714Y-63295000D01*
X254535714Y-63295000D02*
X254630952Y-63342619D01*
X254630952Y-63342619D02*
X254821428Y-63342619D01*
X254821428Y-63342619D02*
X254916666Y-63295000D01*
X254916666Y-63295000D02*
X254964285Y-63247380D01*
X254964285Y-63247380D02*
X255011904Y-63152142D01*
X255011904Y-63152142D02*
X255011904Y-62914047D01*
X255011904Y-62914047D02*
X254964285Y-62818809D01*
X254964285Y-62818809D02*
X254916666Y-62771190D01*
X254916666Y-62771190D02*
X254821428Y-62723571D01*
X254821428Y-62723571D02*
X254630952Y-62723571D01*
X254630952Y-62723571D02*
X254535714Y-62771190D01*
X254535714Y-62771190D02*
X254488095Y-62818809D01*
X254488095Y-62818809D02*
X254440476Y-62914047D01*
%TO.C,Q1*%
X211154761Y-71207857D02*
X211059523Y-71160238D01*
X211059523Y-71160238D02*
X210964285Y-71065000D01*
X210964285Y-71065000D02*
X210821428Y-70922142D01*
X210821428Y-70922142D02*
X210726190Y-70874523D01*
X210726190Y-70874523D02*
X210630952Y-70874523D01*
X210678571Y-71112619D02*
X210583333Y-71065000D01*
X210583333Y-71065000D02*
X210488095Y-70969761D01*
X210488095Y-70969761D02*
X210440476Y-70779285D01*
X210440476Y-70779285D02*
X210440476Y-70445952D01*
X210440476Y-70445952D02*
X210488095Y-70255476D01*
X210488095Y-70255476D02*
X210583333Y-70160238D01*
X210583333Y-70160238D02*
X210678571Y-70112619D01*
X210678571Y-70112619D02*
X210869047Y-70112619D01*
X210869047Y-70112619D02*
X210964285Y-70160238D01*
X210964285Y-70160238D02*
X211059523Y-70255476D01*
X211059523Y-70255476D02*
X211107142Y-70445952D01*
X211107142Y-70445952D02*
X211107142Y-70779285D01*
X211107142Y-70779285D02*
X211059523Y-70969761D01*
X211059523Y-70969761D02*
X210964285Y-71065000D01*
X210964285Y-71065000D02*
X210869047Y-71112619D01*
X210869047Y-71112619D02*
X210678571Y-71112619D01*
X212059523Y-71112619D02*
X211488095Y-71112619D01*
X211773809Y-71112619D02*
X211773809Y-70112619D01*
X211773809Y-70112619D02*
X211678571Y-70255476D01*
X211678571Y-70255476D02*
X211583333Y-70350714D01*
X211583333Y-70350714D02*
X211488095Y-70398333D01*
%TO.C,C4*%
X235308333Y-79492380D02*
X235260714Y-79540000D01*
X235260714Y-79540000D02*
X235117857Y-79587619D01*
X235117857Y-79587619D02*
X235022619Y-79587619D01*
X235022619Y-79587619D02*
X234879762Y-79540000D01*
X234879762Y-79540000D02*
X234784524Y-79444761D01*
X234784524Y-79444761D02*
X234736905Y-79349523D01*
X234736905Y-79349523D02*
X234689286Y-79159047D01*
X234689286Y-79159047D02*
X234689286Y-79016190D01*
X234689286Y-79016190D02*
X234736905Y-78825714D01*
X234736905Y-78825714D02*
X234784524Y-78730476D01*
X234784524Y-78730476D02*
X234879762Y-78635238D01*
X234879762Y-78635238D02*
X235022619Y-78587619D01*
X235022619Y-78587619D02*
X235117857Y-78587619D01*
X235117857Y-78587619D02*
X235260714Y-78635238D01*
X235260714Y-78635238D02*
X235308333Y-78682857D01*
X236165476Y-78920952D02*
X236165476Y-79587619D01*
X235927381Y-78540000D02*
X235689286Y-79254285D01*
X235689286Y-79254285D02*
X236308333Y-79254285D01*
%TO.C,L6*%
X237858333Y-62987619D02*
X237382143Y-62987619D01*
X237382143Y-62987619D02*
X237382143Y-61987619D01*
X238620238Y-61987619D02*
X238429762Y-61987619D01*
X238429762Y-61987619D02*
X238334524Y-62035238D01*
X238334524Y-62035238D02*
X238286905Y-62082857D01*
X238286905Y-62082857D02*
X238191667Y-62225714D01*
X238191667Y-62225714D02*
X238144048Y-62416190D01*
X238144048Y-62416190D02*
X238144048Y-62797142D01*
X238144048Y-62797142D02*
X238191667Y-62892380D01*
X238191667Y-62892380D02*
X238239286Y-62940000D01*
X238239286Y-62940000D02*
X238334524Y-62987619D01*
X238334524Y-62987619D02*
X238525000Y-62987619D01*
X238525000Y-62987619D02*
X238620238Y-62940000D01*
X238620238Y-62940000D02*
X238667857Y-62892380D01*
X238667857Y-62892380D02*
X238715476Y-62797142D01*
X238715476Y-62797142D02*
X238715476Y-62559047D01*
X238715476Y-62559047D02*
X238667857Y-62463809D01*
X238667857Y-62463809D02*
X238620238Y-62416190D01*
X238620238Y-62416190D02*
X238525000Y-62368571D01*
X238525000Y-62368571D02*
X238334524Y-62368571D01*
X238334524Y-62368571D02*
X238239286Y-62416190D01*
X238239286Y-62416190D02*
X238191667Y-62463809D01*
X238191667Y-62463809D02*
X238144048Y-62559047D01*
D14*
%TO.C,Debug_in1*%
X240609046Y-89537526D02*
X240609046Y-88267526D01*
X240609046Y-88267526D02*
X240911427Y-88267526D01*
X240911427Y-88267526D02*
X241092856Y-88328002D01*
X241092856Y-88328002D02*
X241213808Y-88448954D01*
X241213808Y-88448954D02*
X241274285Y-88569907D01*
X241274285Y-88569907D02*
X241334761Y-88811811D01*
X241334761Y-88811811D02*
X241334761Y-88993240D01*
X241334761Y-88993240D02*
X241274285Y-89235145D01*
X241274285Y-89235145D02*
X241213808Y-89356097D01*
X241213808Y-89356097D02*
X241092856Y-89477050D01*
X241092856Y-89477050D02*
X240911427Y-89537526D01*
X240911427Y-89537526D02*
X240609046Y-89537526D01*
X242362856Y-89477050D02*
X242241904Y-89537526D01*
X242241904Y-89537526D02*
X241999999Y-89537526D01*
X241999999Y-89537526D02*
X241879046Y-89477050D01*
X241879046Y-89477050D02*
X241818570Y-89356097D01*
X241818570Y-89356097D02*
X241818570Y-88872288D01*
X241818570Y-88872288D02*
X241879046Y-88751335D01*
X241879046Y-88751335D02*
X241999999Y-88690859D01*
X241999999Y-88690859D02*
X242241904Y-88690859D01*
X242241904Y-88690859D02*
X242362856Y-88751335D01*
X242362856Y-88751335D02*
X242423332Y-88872288D01*
X242423332Y-88872288D02*
X242423332Y-88993240D01*
X242423332Y-88993240D02*
X241818570Y-89114192D01*
X242967617Y-89537526D02*
X242967617Y-88267526D01*
X242967617Y-88751335D02*
X243088570Y-88690859D01*
X243088570Y-88690859D02*
X243330475Y-88690859D01*
X243330475Y-88690859D02*
X243451427Y-88751335D01*
X243451427Y-88751335D02*
X243511903Y-88811811D01*
X243511903Y-88811811D02*
X243572379Y-88932764D01*
X243572379Y-88932764D02*
X243572379Y-89295621D01*
X243572379Y-89295621D02*
X243511903Y-89416573D01*
X243511903Y-89416573D02*
X243451427Y-89477050D01*
X243451427Y-89477050D02*
X243330475Y-89537526D01*
X243330475Y-89537526D02*
X243088570Y-89537526D01*
X243088570Y-89537526D02*
X242967617Y-89477050D01*
X244660951Y-88690859D02*
X244660951Y-89537526D01*
X244116665Y-88690859D02*
X244116665Y-89356097D01*
X244116665Y-89356097D02*
X244177142Y-89477050D01*
X244177142Y-89477050D02*
X244298094Y-89537526D01*
X244298094Y-89537526D02*
X244479523Y-89537526D01*
X244479523Y-89537526D02*
X244600475Y-89477050D01*
X244600475Y-89477050D02*
X244660951Y-89416573D01*
X245809999Y-88690859D02*
X245809999Y-89718954D01*
X245809999Y-89718954D02*
X245749523Y-89839907D01*
X245749523Y-89839907D02*
X245689047Y-89900383D01*
X245689047Y-89900383D02*
X245568094Y-89960859D01*
X245568094Y-89960859D02*
X245386666Y-89960859D01*
X245386666Y-89960859D02*
X245265713Y-89900383D01*
X245809999Y-89477050D02*
X245689047Y-89537526D01*
X245689047Y-89537526D02*
X245447142Y-89537526D01*
X245447142Y-89537526D02*
X245326190Y-89477050D01*
X245326190Y-89477050D02*
X245265713Y-89416573D01*
X245265713Y-89416573D02*
X245205237Y-89295621D01*
X245205237Y-89295621D02*
X245205237Y-88932764D01*
X245205237Y-88932764D02*
X245265713Y-88811811D01*
X245265713Y-88811811D02*
X245326190Y-88751335D01*
X245326190Y-88751335D02*
X245447142Y-88690859D01*
X245447142Y-88690859D02*
X245689047Y-88690859D01*
X245689047Y-88690859D02*
X245809999Y-88751335D01*
X246112381Y-89658478D02*
X247080000Y-89658478D01*
X247382380Y-89537526D02*
X247382380Y-88690859D01*
X247382380Y-88267526D02*
X247321904Y-88328002D01*
X247321904Y-88328002D02*
X247382380Y-88388478D01*
X247382380Y-88388478D02*
X247442857Y-88328002D01*
X247442857Y-88328002D02*
X247382380Y-88267526D01*
X247382380Y-88267526D02*
X247382380Y-88388478D01*
X247987142Y-88690859D02*
X247987142Y-89537526D01*
X247987142Y-88811811D02*
X248047619Y-88751335D01*
X248047619Y-88751335D02*
X248168571Y-88690859D01*
X248168571Y-88690859D02*
X248350000Y-88690859D01*
X248350000Y-88690859D02*
X248470952Y-88751335D01*
X248470952Y-88751335D02*
X248531428Y-88872288D01*
X248531428Y-88872288D02*
X248531428Y-89537526D01*
X249801429Y-89537526D02*
X249075714Y-89537526D01*
X249438571Y-89537526D02*
X249438571Y-88267526D01*
X249438571Y-88267526D02*
X249317619Y-88448954D01*
X249317619Y-88448954D02*
X249196667Y-88569907D01*
X249196667Y-88569907D02*
X249075714Y-88630383D01*
D15*
%TO.C,C5*%
X219486252Y-79285000D02*
X218963748Y-79285000D01*
X219486252Y-77815000D02*
X218963748Y-77815000D01*
%TO.C,SDA_SENS1*%
X206830000Y-65740000D02*
G75*
G03*
X206830000Y-65740000I-950000J0D01*
G01*
%TO.C,R1*%
X235002064Y-61685000D02*
X234547936Y-61685000D01*
X235002064Y-60215000D02*
X234547936Y-60215000D01*
%TO.C,SDA_MCU1*%
X216700000Y-74900000D02*
G75*
G03*
X216700000Y-74900000I-950000J0D01*
G01*
D16*
%TO.C,U1*%
X231146500Y-71148000D02*
X234646500Y-71148000D01*
X234646500Y-74648000D02*
X231146500Y-74648000D01*
D13*
X230796500Y-71598000D02*
G75*
G03*
X230796500Y-71598000I-100000J0D01*
G01*
D15*
%TO.C,JP1*%
X236841000Y-57856000D02*
X236841000Y-58456000D01*
X236291000Y-56656000D02*
X235691000Y-56656000D01*
X236191000Y-59156000D02*
X233391000Y-59156000D01*
X235991000Y-56956000D02*
X236291000Y-56656000D01*
X235991000Y-56956000D02*
X235691000Y-56656000D01*
X233391000Y-57156000D02*
X236191000Y-57156000D01*
X232741000Y-58456000D02*
X232741000Y-57856000D01*
X236141000Y-59156000D02*
G75*
G03*
X236841000Y-58456000I1J699999D01*
G01*
X236841000Y-57856000D02*
G75*
G03*
X236141000Y-57156000I-699999J1D01*
G01*
X232741000Y-58456000D02*
G75*
G03*
X233441000Y-59156000I700000J0D01*
G01*
X233441000Y-57156000D02*
G75*
G03*
X232741000Y-57856000I0J-700000D01*
G01*
%TO.C,L3*%
X232462000Y-67072252D02*
X232462000Y-66549748D01*
X233882000Y-67072252D02*
X233882000Y-66549748D01*
%TO.C,1V8TPS1*%
X229850000Y-59650000D02*
G75*
G03*
X229850000Y-59650000I-950000J0D01*
G01*
%TO.C,C10*%
X223039000Y-67063252D02*
X223039000Y-66540748D01*
X224509000Y-67063252D02*
X224509000Y-66540748D01*
%TO.C,SCL_SENS1*%
X215100000Y-53325000D02*
G75*
G03*
X215100000Y-53325000I-950000J0D01*
G01*
%TO.C,TP_GND2*%
X205975000Y-49650000D02*
G75*
G03*
X205975000Y-49650000I-950000J0D01*
G01*
%TO.C,V_LS_IC1*%
X252150000Y-56350000D02*
G75*
G03*
X252150000Y-56350000I-950000J0D01*
G01*
%TO.C,C3*%
X223660000Y-80138748D02*
X223660000Y-80661252D01*
X222190000Y-80138748D02*
X222190000Y-80661252D01*
%TO.C,C18*%
X249938748Y-66940000D02*
X250461252Y-66940000D01*
X249938748Y-68410000D02*
X250461252Y-68410000D01*
%TO.C,C12*%
X229081000Y-66562248D02*
X229081000Y-67084752D01*
X227611000Y-66562248D02*
X227611000Y-67084752D01*
%TO.C,R8*%
X245372936Y-63465000D02*
X245827064Y-63465000D01*
X245372936Y-64935000D02*
X245827064Y-64935000D01*
D13*
%TO.C,IC4*%
X241788000Y-65801000D02*
X243188000Y-65801000D01*
D15*
%TO.C,C9*%
X230151000Y-67084752D02*
X230151000Y-66562248D01*
X231621000Y-67084752D02*
X231621000Y-66562248D01*
%TO.C,SCL_MCU1*%
X210225000Y-57275000D02*
G75*
G03*
X210225000Y-57275000I-950000J0D01*
G01*
%TO.C,INT1*%
X229450000Y-81825000D02*
G75*
G03*
X229450000Y-81825000I-950000J0D01*
G01*
%TO.C,L2*%
X219013748Y-82290000D02*
X219536252Y-82290000D01*
X219013748Y-83710000D02*
X219536252Y-83710000D01*
%TO.C,R6*%
X208110436Y-61040000D02*
X208564564Y-61040000D01*
X208110436Y-62510000D02*
X208564564Y-62510000D01*
D13*
%TO.C,Y1*%
X223850000Y-58550000D02*
X223850000Y-58550000D01*
X223650000Y-58550000D02*
X223650000Y-58550000D01*
X223650000Y-58550000D02*
G75*
G03*
X223850000Y-58550000I100000J0D01*
G01*
X223850000Y-58550000D02*
G75*
G03*
X223650000Y-58550000I-100000J0D01*
G01*
D15*
%TO.C,R4*%
X208135436Y-67515000D02*
X208589564Y-67515000D01*
X208135436Y-68985000D02*
X208589564Y-68985000D01*
%TO.C,Q2*%
X212412500Y-63360000D02*
X214087500Y-63360000D01*
X212412500Y-63360000D02*
X211762500Y-63360000D01*
X212412500Y-60240000D02*
X213062500Y-60240000D01*
X212412500Y-60240000D02*
X211762500Y-60240000D01*
D13*
%TO.C,IC3*%
X243820000Y-59450000D02*
X245220000Y-59450000D01*
D15*
%TO.C,KeyVolt1*%
X235700000Y-52475000D02*
G75*
G03*
X235700000Y-52475000I-950000J0D01*
G01*
%TO.C,R5*%
X214927500Y-62052064D02*
X214927500Y-61597936D01*
X216397500Y-62052064D02*
X216397500Y-61597936D01*
%TO.C,C11*%
X226795000Y-66519248D02*
X226795000Y-67041752D01*
X225325000Y-66519248D02*
X225325000Y-67041752D01*
D17*
%TO.C,IC5*%
X247650000Y-74125000D02*
G75*
G03*
X247650000Y-74125000I-125000J0D01*
G01*
D15*
%TO.C,NReset1*%
X244775000Y-51300000D02*
G75*
G03*
X244775000Y-51300000I-950000J0D01*
G01*
%TO.C,C1*%
X237736252Y-73210000D02*
X237213748Y-73210000D01*
X237736252Y-71740000D02*
X237213748Y-71740000D01*
%TO.C,L1*%
X219536252Y-81485000D02*
X219013748Y-81485000D01*
X219536252Y-80065000D02*
X219013748Y-80065000D01*
%TO.C,EN1*%
X252625000Y-89325000D02*
G75*
G03*
X252625000Y-89325000I-950000J0D01*
G01*
%TO.C,V_Buzzer1*%
X220200000Y-88475000D02*
G75*
G03*
X220200000Y-88475000I-950000J0D01*
G01*
%TO.C,C2*%
X224890000Y-80686252D02*
X224890000Y-80163748D01*
X226360000Y-80686252D02*
X226360000Y-80163748D01*
%TO.C,R3*%
X214952500Y-68427064D02*
X214952500Y-67972936D01*
X216422500Y-68427064D02*
X216422500Y-67972936D01*
D13*
%TO.C,IC2*%
X223614000Y-78051000D02*
G75*
G03*
X223614000Y-78051000I-100000J0D01*
G01*
D15*
%TO.C,1.8V1*%
X205975000Y-72900000D02*
G75*
G03*
X205975000Y-72900000I-950000J0D01*
G01*
%TO.C,C15*%
X243740000Y-57311252D02*
X243740000Y-56788748D01*
X245210000Y-57311252D02*
X245210000Y-56788748D01*
%TO.C,3V3_TPS1*%
X248000000Y-52150000D02*
G75*
G03*
X248000000Y-52150000I-950000J0D01*
G01*
%TO.C,TP_GND1*%
X250725000Y-49575000D02*
G75*
G03*
X250725000Y-49575000I-950000J0D01*
G01*
%TO.C,R2*%
X230115000Y-81402064D02*
X230115000Y-80947936D01*
X231585000Y-81402064D02*
X231585000Y-80947936D01*
%TO.C,P_R_S1*%
X250875000Y-85775000D02*
G75*
G03*
X250875000Y-85775000I-950000J0D01*
G01*
%TO.C,C8*%
X222211252Y-70735000D02*
X221688748Y-70735000D01*
X222211252Y-69265000D02*
X221688748Y-69265000D01*
%TO.C,C17*%
X241113748Y-63515000D02*
X241636252Y-63515000D01*
X241113748Y-64985000D02*
X241636252Y-64985000D01*
%TO.C,L5*%
X242735000Y-59263748D02*
X242735000Y-59786252D01*
X241315000Y-59263748D02*
X241315000Y-59786252D01*
%TO.C,C16*%
X251985000Y-62188748D02*
X251985000Y-62711252D01*
X250515000Y-62188748D02*
X250515000Y-62711252D01*
%TO.C,Q1*%
X212450000Y-69785000D02*
X214125000Y-69785000D01*
X212450000Y-69785000D02*
X211800000Y-69785000D01*
X212450000Y-66665000D02*
X213100000Y-66665000D01*
X212450000Y-66665000D02*
X211800000Y-66665000D01*
%TO.C,C4*%
X231988748Y-77190000D02*
X232511252Y-77190000D01*
X231988748Y-78660000D02*
X232511252Y-78660000D01*
%TO.C,L6*%
X238785000Y-64838748D02*
X238785000Y-65361252D01*
X237365000Y-64838748D02*
X237365000Y-65361252D01*
D13*
%TO.C,Debug_in1*%
X241748000Y-87036000D02*
X241748000Y-87036000D01*
X241748000Y-87036000D02*
X241748000Y-87036000D01*
X241848000Y-87036000D02*
X241848000Y-87036000D01*
X241848000Y-87036000D02*
G75*
G03*
X241748000Y-87036000I-50000J0D01*
G01*
X241748000Y-87036000D02*
G75*
G03*
X241848000Y-87036000I50000J0D01*
G01*
X241748000Y-87036000D02*
G75*
G03*
X241848000Y-87036000I50000J0D01*
G01*
%TD*%
M02*
