%TF.GenerationSoftware,KiCad,Pcbnew,7.0.1*%
%TF.CreationDate,2023-11-12T20:21:58+01:00*%
%TF.ProjectId,Driver_detector,44726976-6572-45f6-9465-746563746f72,rev?*%
%TF.SameCoordinates,Original*%
%TF.FileFunction,Copper,L1,Top*%
%TF.FilePolarity,Positive*%
%FSLAX46Y46*%
G04 Gerber Fmt 4.6, Leading zero omitted, Abs format (unit mm)*
G04 Created by KiCad (PCBNEW 7.0.1) date 2023-11-12 20:21:58*
%MOMM*%
%LPD*%
G01*
G04 APERTURE LIST*
G04 Aperture macros list*
%AMRoundRect*
0 Rectangle with rounded corners*
0 $1 Rounding radius*
0 $2 $3 $4 $5 $6 $7 $8 $9 X,Y pos of 4 corners*
0 Add a 4 corners polygon primitive as box body*
4,1,4,$2,$3,$4,$5,$6,$7,$8,$9,$2,$3,0*
0 Add four circle primitives for the rounded corners*
1,1,$1+$1,$2,$3*
1,1,$1+$1,$4,$5*
1,1,$1+$1,$6,$7*
1,1,$1+$1,$8,$9*
0 Add four rect primitives between the rounded corners*
20,1,$1+$1,$2,$3,$4,$5,0*
20,1,$1+$1,$4,$5,$6,$7,0*
20,1,$1+$1,$6,$7,$8,$9,0*
20,1,$1+$1,$8,$9,$2,$3,0*%
%AMFreePoly0*
4,1,19,0.550000,-0.750000,0.000000,-0.750000,0.000000,-0.744911,-0.071157,-0.744911,-0.207708,-0.704816,-0.327430,-0.627875,-0.420627,-0.520320,-0.479746,-0.390866,-0.500000,-0.250000,-0.500000,0.250000,-0.479746,0.390866,-0.420627,0.520320,-0.327430,0.627875,-0.207708,0.704816,-0.071157,0.744911,0.000000,0.744911,0.000000,0.750000,0.550000,0.750000,0.550000,-0.750000,0.550000,-0.750000,
$1*%
%AMFreePoly1*
4,1,19,0.000000,0.744911,0.071157,0.744911,0.207708,0.704816,0.327430,0.627875,0.420627,0.520320,0.479746,0.390866,0.500000,0.250000,0.500000,-0.250000,0.479746,-0.390866,0.420627,-0.520320,0.327430,-0.627875,0.207708,-0.704816,0.071157,-0.744911,0.000000,-0.744911,0.000000,-0.750000,-0.550000,-0.750000,-0.550000,0.750000,0.000000,0.750000,0.000000,0.744911,0.000000,0.744911,
$1*%
G04 Aperture macros list end*
%ADD10C,0.300000*%
%TA.AperFunction,NonConductor*%
%ADD11C,0.300000*%
%TD*%
%TA.AperFunction,NonConductor*%
%ADD12C,0.200000*%
%TD*%
%TA.AperFunction,SMDPad,CuDef*%
%ADD13RoundRect,0.250000X0.337500X0.475000X-0.337500X0.475000X-0.337500X-0.475000X0.337500X-0.475000X0*%
%TD*%
%TA.AperFunction,SMDPad,CuDef*%
%ADD14C,1.500000*%
%TD*%
%TA.AperFunction,SMDPad,CuDef*%
%ADD15RoundRect,0.250000X0.350000X0.450000X-0.350000X0.450000X-0.350000X-0.450000X0.350000X-0.450000X0*%
%TD*%
%TA.AperFunction,SMDPad,CuDef*%
%ADD16R,0.450000X0.400000*%
%TD*%
%TA.AperFunction,SMDPad,CuDef*%
%ADD17FreePoly0,180.000000*%
%TD*%
%TA.AperFunction,SMDPad,CuDef*%
%ADD18R,1.000000X1.500000*%
%TD*%
%TA.AperFunction,SMDPad,CuDef*%
%ADD19FreePoly1,180.000000*%
%TD*%
%TA.AperFunction,SMDPad,CuDef*%
%ADD20RoundRect,0.250000X0.450000X-0.325000X0.450000X0.325000X-0.450000X0.325000X-0.450000X-0.325000X0*%
%TD*%
%TA.AperFunction,SMDPad,CuDef*%
%ADD21RoundRect,0.250000X0.475000X-0.337500X0.475000X0.337500X-0.475000X0.337500X-0.475000X-0.337500X0*%
%TD*%
%TA.AperFunction,ComponentPad*%
%ADD22C,5.000000*%
%TD*%
%TA.AperFunction,SMDPad,CuDef*%
%ADD23RoundRect,0.250000X-0.475000X0.337500X-0.475000X-0.337500X0.475000X-0.337500X0.475000X0.337500X0*%
%TD*%
%TA.AperFunction,SMDPad,CuDef*%
%ADD24RoundRect,0.250000X-0.337500X-0.475000X0.337500X-0.475000X0.337500X0.475000X-0.337500X0.475000X0*%
%TD*%
%TA.AperFunction,SMDPad,CuDef*%
%ADD25RoundRect,0.250000X-0.350000X-0.450000X0.350000X-0.450000X0.350000X0.450000X-0.350000X0.450000X0*%
%TD*%
%TA.AperFunction,SMDPad,CuDef*%
%ADD26R,1.400000X0.450000*%
%TD*%
%TA.AperFunction,SMDPad,CuDef*%
%ADD27R,1.450000X1.750000*%
%TD*%
%TA.AperFunction,SMDPad,CuDef*%
%ADD28RoundRect,0.250000X-0.325000X-0.450000X0.325000X-0.450000X0.325000X0.450000X-0.325000X0.450000X0*%
%TD*%
%TA.AperFunction,SMDPad,CuDef*%
%ADD29R,0.900000X0.800000*%
%TD*%
%TA.AperFunction,SMDPad,CuDef*%
%ADD30RoundRect,0.150000X0.587500X0.150000X-0.587500X0.150000X-0.587500X-0.150000X0.587500X-0.150000X0*%
%TD*%
%TA.AperFunction,SMDPad,CuDef*%
%ADD31RoundRect,0.250000X0.450000X-0.350000X0.450000X0.350000X-0.450000X0.350000X-0.450000X-0.350000X0*%
%TD*%
%TA.AperFunction,SMDPad,CuDef*%
%ADD32R,1.050000X0.250000*%
%TD*%
%TA.AperFunction,SMDPad,CuDef*%
%ADD33RoundRect,0.250000X0.325000X0.450000X-0.325000X0.450000X-0.325000X-0.450000X0.325000X-0.450000X0*%
%TD*%
%TA.AperFunction,SMDPad,CuDef*%
%ADD34R,0.200000X0.850000*%
%TD*%
%TA.AperFunction,SMDPad,CuDef*%
%ADD35R,0.850000X0.200000*%
%TD*%
%TA.AperFunction,SMDPad,CuDef*%
%ADD36R,4.700000X4.700000*%
%TD*%
%TA.AperFunction,ComponentPad*%
%ADD37R,1.900000X1.900000*%
%TD*%
%TA.AperFunction,ComponentPad*%
%ADD38C,2.200000*%
%TD*%
%TA.AperFunction,ComponentPad*%
%ADD39O,2.500000X2.000000*%
%TD*%
%TA.AperFunction,SMDPad,CuDef*%
%ADD40RoundRect,0.250000X-0.450000X0.325000X-0.450000X-0.325000X0.450000X-0.325000X0.450000X0.325000X0*%
%TD*%
%TA.AperFunction,SMDPad,CuDef*%
%ADD41R,0.740000X2.790000*%
%TD*%
%TA.AperFunction,ViaPad*%
%ADD42C,0.800000*%
%TD*%
%TA.AperFunction,Conductor*%
%ADD43C,0.254000*%
%TD*%
%TA.AperFunction,Conductor*%
%ADD44C,0.250000*%
%TD*%
%TA.AperFunction,Conductor*%
%ADD45C,0.100000*%
%TD*%
G04 APERTURE END LIST*
D10*
D11*
X224663166Y-106390118D02*
X223948880Y-106389813D01*
X223948880Y-106389813D02*
X223877148Y-107104069D01*
X223877148Y-107104069D02*
X223948607Y-107032671D01*
X223948607Y-107032671D02*
X224091494Y-106961303D01*
X224091494Y-106961303D02*
X224448637Y-106961455D01*
X224448637Y-106961455D02*
X224591464Y-107032944D01*
X224591464Y-107032944D02*
X224662862Y-107104403D01*
X224662862Y-107104403D02*
X224734229Y-107247291D01*
X224734229Y-107247291D02*
X224734077Y-107604434D01*
X224734077Y-107604434D02*
X224662588Y-107747261D01*
X224662588Y-107747261D02*
X224591129Y-107818659D01*
X224591129Y-107818659D02*
X224448241Y-107890026D01*
X224448241Y-107890026D02*
X224091098Y-107889874D01*
X224091098Y-107889874D02*
X223948272Y-107818385D01*
X223948272Y-107818385D02*
X223876874Y-107746926D01*
X225591463Y-107033371D02*
X225448636Y-106961881D01*
X225448636Y-106961881D02*
X225377238Y-106890422D01*
X225377238Y-106890422D02*
X225305871Y-106747535D01*
X225305871Y-106747535D02*
X225305901Y-106676106D01*
X225305901Y-106676106D02*
X225377390Y-106533279D01*
X225377390Y-106533279D02*
X225448849Y-106461881D01*
X225448849Y-106461881D02*
X225591737Y-106390513D01*
X225591737Y-106390513D02*
X225877451Y-106390635D01*
X225877451Y-106390635D02*
X226020278Y-106462125D01*
X226020278Y-106462125D02*
X226091676Y-106533584D01*
X226091676Y-106533584D02*
X226163044Y-106676471D01*
X226163044Y-106676471D02*
X226163013Y-106747900D01*
X226163013Y-106747900D02*
X226091524Y-106890726D01*
X226091524Y-106890726D02*
X226020065Y-106962125D01*
X226020065Y-106962125D02*
X225877177Y-107033492D01*
X225877177Y-107033492D02*
X225591463Y-107033371D01*
X225591463Y-107033371D02*
X225448576Y-107104738D01*
X225448576Y-107104738D02*
X225377117Y-107176136D01*
X225377117Y-107176136D02*
X225305627Y-107318963D01*
X225305627Y-107318963D02*
X225305505Y-107604677D01*
X225305505Y-107604677D02*
X225376873Y-107747565D01*
X225376873Y-107747565D02*
X225448271Y-107819024D01*
X225448271Y-107819024D02*
X225591098Y-107890513D01*
X225591098Y-107890513D02*
X225876812Y-107890635D01*
X225876812Y-107890635D02*
X226019700Y-107819267D01*
X226019700Y-107819267D02*
X226091159Y-107747869D01*
X226091159Y-107747869D02*
X226162648Y-107605043D01*
X226162648Y-107605043D02*
X226162770Y-107319328D01*
X226162770Y-107319328D02*
X226091402Y-107176441D01*
X226091402Y-107176441D02*
X226020004Y-107104982D01*
X226020004Y-107104982D02*
X225877177Y-107033492D01*
X226876842Y-107819633D02*
X226876812Y-107891061D01*
X226876812Y-107891061D02*
X226805322Y-108033888D01*
X226805322Y-108033888D02*
X226733863Y-108105286D01*
X228163165Y-106391609D02*
X227877451Y-106391487D01*
X227877451Y-106391487D02*
X227734563Y-106462855D01*
X227734563Y-106462855D02*
X227663104Y-106534253D01*
X227663104Y-106534253D02*
X227520156Y-106748478D01*
X227520156Y-106748478D02*
X227448606Y-107034162D01*
X227448606Y-107034162D02*
X227448362Y-107605590D01*
X227448362Y-107605590D02*
X227519730Y-107748478D01*
X227519730Y-107748478D02*
X227591128Y-107819937D01*
X227591128Y-107819937D02*
X227733955Y-107891426D01*
X227733955Y-107891426D02*
X228019669Y-107891548D01*
X228019669Y-107891548D02*
X228162557Y-107820180D01*
X228162557Y-107820180D02*
X228234016Y-107748782D01*
X228234016Y-107748782D02*
X228305505Y-107605956D01*
X228305505Y-107605956D02*
X228305657Y-107248813D01*
X228305657Y-107248813D02*
X228234289Y-107105925D01*
X228234289Y-107105925D02*
X228162891Y-107034466D01*
X228162891Y-107034466D02*
X228020065Y-106962977D01*
X228020065Y-106962977D02*
X227734350Y-106962855D01*
X227734350Y-106962855D02*
X227591463Y-107034223D01*
X227591463Y-107034223D02*
X227520004Y-107105621D01*
X227520004Y-107105621D02*
X227448514Y-107248448D01*
X228806022Y-106391883D02*
X229806022Y-106392309D01*
X229806022Y-106392309D02*
X229162526Y-107892035D01*
X231091735Y-106392857D02*
X230377450Y-106392553D01*
X230377450Y-106392553D02*
X230305717Y-107106808D01*
X230305717Y-107106808D02*
X230377176Y-107035410D01*
X230377176Y-107035410D02*
X230520064Y-106964042D01*
X230520064Y-106964042D02*
X230877206Y-106964194D01*
X230877206Y-106964194D02*
X231020033Y-107035684D01*
X231020033Y-107035684D02*
X231091431Y-107107143D01*
X231091431Y-107107143D02*
X231162799Y-107250030D01*
X231162799Y-107250030D02*
X231162647Y-107607173D01*
X231162647Y-107607173D02*
X231091157Y-107750000D01*
X231091157Y-107750000D02*
X231019698Y-107821398D01*
X231019698Y-107821398D02*
X230876811Y-107892765D01*
X230876811Y-107892765D02*
X230519668Y-107892613D01*
X230519668Y-107892613D02*
X230376841Y-107821124D01*
X230376841Y-107821124D02*
X230305443Y-107749665D01*
X232091735Y-106393283D02*
X232234592Y-106393344D01*
X232234592Y-106393344D02*
X232377419Y-106464833D01*
X232377419Y-106464833D02*
X232448817Y-106536292D01*
X232448817Y-106536292D02*
X232520185Y-106679180D01*
X232520185Y-106679180D02*
X232591491Y-106964925D01*
X232591491Y-106964925D02*
X232591339Y-107322067D01*
X232591339Y-107322067D02*
X232519789Y-107607751D01*
X232519789Y-107607751D02*
X232448300Y-107750578D01*
X232448300Y-107750578D02*
X232376841Y-107821976D01*
X232376841Y-107821976D02*
X232233953Y-107893344D01*
X232233953Y-107893344D02*
X232091096Y-107893283D01*
X232091096Y-107893283D02*
X231948269Y-107821793D01*
X231948269Y-107821793D02*
X231876871Y-107750334D01*
X231876871Y-107750334D02*
X231805503Y-107607447D01*
X231805503Y-107607447D02*
X231734197Y-107321702D01*
X231734197Y-107321702D02*
X231734349Y-106964559D01*
X231734349Y-106964559D02*
X231805899Y-106678875D01*
X231805899Y-106678875D02*
X231877388Y-106536049D01*
X231877388Y-106536049D02*
X231948847Y-106464651D01*
X231948847Y-106464651D02*
X232091735Y-106393283D01*
X234376809Y-107894257D02*
X234377235Y-106894257D01*
X234377175Y-107037114D02*
X234448634Y-106965716D01*
X234448634Y-106965716D02*
X234591521Y-106894348D01*
X234591521Y-106894348D02*
X234805807Y-106894439D01*
X234805807Y-106894439D02*
X234948634Y-106965929D01*
X234948634Y-106965929D02*
X235020001Y-107108816D01*
X235020001Y-107108816D02*
X235019666Y-107894531D01*
X235020001Y-107108816D02*
X235091491Y-106965990D01*
X235091491Y-106965990D02*
X235234378Y-106894622D01*
X235234378Y-106894622D02*
X235448664Y-106894713D01*
X235448664Y-106894713D02*
X235591491Y-106966203D01*
X235591491Y-106966203D02*
X235662858Y-107109090D01*
X235662858Y-107109090D02*
X235662524Y-107894805D01*
X236376809Y-107895109D02*
X236377235Y-106895109D01*
X236377174Y-107037966D02*
X236448633Y-106966568D01*
X236448633Y-106966568D02*
X236591521Y-106895200D01*
X236591521Y-106895200D02*
X236805807Y-106895292D01*
X236805807Y-106895292D02*
X236948633Y-106966781D01*
X236948633Y-106966781D02*
X237020001Y-107109669D01*
X237020001Y-107109669D02*
X237019666Y-107895383D01*
X237020001Y-107109669D02*
X237091490Y-106966842D01*
X237091490Y-106966842D02*
X237234378Y-106895474D01*
X237234378Y-106895474D02*
X237448664Y-106895565D01*
X237448664Y-106895565D02*
X237591490Y-106967055D01*
X237591490Y-106967055D02*
X237662858Y-107109942D01*
X237662858Y-107109942D02*
X237662523Y-107895657D01*
D12*
X201474787Y-91675000D02*
X201467161Y-109572727D01*
X260149787Y-91700000D02*
X260142161Y-109597727D01*
X201467411Y-108986307D02*
X260142411Y-109011307D01*
X201467411Y-108986307D02*
X260142411Y-109011307D01*
X201467411Y-108986307D02*
X202594165Y-108400366D01*
X201467411Y-108986307D02*
X202593665Y-109573208D01*
X260142411Y-109011307D02*
X259015657Y-109597248D01*
X260142411Y-109011307D02*
X259016157Y-108424406D01*
D10*
D11*
X189743928Y-75264284D02*
X190743928Y-75264284D01*
X189172500Y-75621426D02*
X190243928Y-75978569D01*
X190243928Y-75978569D02*
X190243928Y-75049998D01*
X189743928Y-73835713D02*
X190743928Y-73835713D01*
X189172500Y-74192855D02*
X190243928Y-74549998D01*
X190243928Y-74549998D02*
X190243928Y-73621427D01*
X190672500Y-72978570D02*
X190743928Y-72978570D01*
X190743928Y-72978570D02*
X190886785Y-73049999D01*
X190886785Y-73049999D02*
X190958214Y-73121427D01*
X189386785Y-72407141D02*
X189315357Y-72335713D01*
X189315357Y-72335713D02*
X189243928Y-72192856D01*
X189243928Y-72192856D02*
X189243928Y-71835713D01*
X189243928Y-71835713D02*
X189315357Y-71692856D01*
X189315357Y-71692856D02*
X189386785Y-71621427D01*
X189386785Y-71621427D02*
X189529642Y-71549998D01*
X189529642Y-71549998D02*
X189672500Y-71549998D01*
X189672500Y-71549998D02*
X189886785Y-71621427D01*
X189886785Y-71621427D02*
X190743928Y-72478570D01*
X190743928Y-72478570D02*
X190743928Y-71549998D01*
X189243928Y-70192856D02*
X189243928Y-70907142D01*
X189243928Y-70907142D02*
X189958214Y-70978570D01*
X189958214Y-70978570D02*
X189886785Y-70907142D01*
X189886785Y-70907142D02*
X189815357Y-70764285D01*
X189815357Y-70764285D02*
X189815357Y-70407142D01*
X189815357Y-70407142D02*
X189886785Y-70264285D01*
X189886785Y-70264285D02*
X189958214Y-70192856D01*
X189958214Y-70192856D02*
X190101071Y-70121427D01*
X190101071Y-70121427D02*
X190458214Y-70121427D01*
X190458214Y-70121427D02*
X190601071Y-70192856D01*
X190601071Y-70192856D02*
X190672500Y-70264285D01*
X190672500Y-70264285D02*
X190743928Y-70407142D01*
X190743928Y-70407142D02*
X190743928Y-70764285D01*
X190743928Y-70764285D02*
X190672500Y-70907142D01*
X190672500Y-70907142D02*
X190601071Y-70978570D01*
X189243928Y-69192856D02*
X189243928Y-69049999D01*
X189243928Y-69049999D02*
X189315357Y-68907142D01*
X189315357Y-68907142D02*
X189386785Y-68835714D01*
X189386785Y-68835714D02*
X189529642Y-68764285D01*
X189529642Y-68764285D02*
X189815357Y-68692856D01*
X189815357Y-68692856D02*
X190172500Y-68692856D01*
X190172500Y-68692856D02*
X190458214Y-68764285D01*
X190458214Y-68764285D02*
X190601071Y-68835714D01*
X190601071Y-68835714D02*
X190672500Y-68907142D01*
X190672500Y-68907142D02*
X190743928Y-69049999D01*
X190743928Y-69049999D02*
X190743928Y-69192856D01*
X190743928Y-69192856D02*
X190672500Y-69335714D01*
X190672500Y-69335714D02*
X190601071Y-69407142D01*
X190601071Y-69407142D02*
X190458214Y-69478571D01*
X190458214Y-69478571D02*
X190172500Y-69549999D01*
X190172500Y-69549999D02*
X189815357Y-69549999D01*
X189815357Y-69549999D02*
X189529642Y-69478571D01*
X189529642Y-69478571D02*
X189386785Y-69407142D01*
X189386785Y-69407142D02*
X189315357Y-69335714D01*
X189315357Y-69335714D02*
X189243928Y-69192856D01*
X189243928Y-67764285D02*
X189243928Y-67621428D01*
X189243928Y-67621428D02*
X189315357Y-67478571D01*
X189315357Y-67478571D02*
X189386785Y-67407143D01*
X189386785Y-67407143D02*
X189529642Y-67335714D01*
X189529642Y-67335714D02*
X189815357Y-67264285D01*
X189815357Y-67264285D02*
X190172500Y-67264285D01*
X190172500Y-67264285D02*
X190458214Y-67335714D01*
X190458214Y-67335714D02*
X190601071Y-67407143D01*
X190601071Y-67407143D02*
X190672500Y-67478571D01*
X190672500Y-67478571D02*
X190743928Y-67621428D01*
X190743928Y-67621428D02*
X190743928Y-67764285D01*
X190743928Y-67764285D02*
X190672500Y-67907143D01*
X190672500Y-67907143D02*
X190601071Y-67978571D01*
X190601071Y-67978571D02*
X190458214Y-68050000D01*
X190458214Y-68050000D02*
X190172500Y-68121428D01*
X190172500Y-68121428D02*
X189815357Y-68121428D01*
X189815357Y-68121428D02*
X189529642Y-68050000D01*
X189529642Y-68050000D02*
X189386785Y-67978571D01*
X189386785Y-67978571D02*
X189315357Y-67907143D01*
X189315357Y-67907143D02*
X189243928Y-67764285D01*
X190743928Y-65478572D02*
X189743928Y-65478572D01*
X189886785Y-65478572D02*
X189815357Y-65407143D01*
X189815357Y-65407143D02*
X189743928Y-65264286D01*
X189743928Y-65264286D02*
X189743928Y-65050000D01*
X189743928Y-65050000D02*
X189815357Y-64907143D01*
X189815357Y-64907143D02*
X189958214Y-64835715D01*
X189958214Y-64835715D02*
X190743928Y-64835715D01*
X189958214Y-64835715D02*
X189815357Y-64764286D01*
X189815357Y-64764286D02*
X189743928Y-64621429D01*
X189743928Y-64621429D02*
X189743928Y-64407143D01*
X189743928Y-64407143D02*
X189815357Y-64264286D01*
X189815357Y-64264286D02*
X189958214Y-64192857D01*
X189958214Y-64192857D02*
X190743928Y-64192857D01*
X190743928Y-63478572D02*
X189743928Y-63478572D01*
X189886785Y-63478572D02*
X189815357Y-63407143D01*
X189815357Y-63407143D02*
X189743928Y-63264286D01*
X189743928Y-63264286D02*
X189743928Y-63050000D01*
X189743928Y-63050000D02*
X189815357Y-62907143D01*
X189815357Y-62907143D02*
X189958214Y-62835715D01*
X189958214Y-62835715D02*
X190743928Y-62835715D01*
X189958214Y-62835715D02*
X189815357Y-62764286D01*
X189815357Y-62764286D02*
X189743928Y-62621429D01*
X189743928Y-62621429D02*
X189743928Y-62407143D01*
X189743928Y-62407143D02*
X189815357Y-62264286D01*
X189815357Y-62264286D02*
X189958214Y-62192857D01*
X189958214Y-62192857D02*
X190743928Y-62192857D01*
D12*
X200975000Y-46925000D02*
X191263580Y-46925000D01*
X200975000Y-91175000D02*
X191263580Y-91175000D01*
X191850000Y-46925000D02*
X191850000Y-91175000D01*
X191850000Y-46925000D02*
X191850000Y-91175000D01*
X191850000Y-46925000D02*
X192436421Y-48051504D01*
X191850000Y-46925000D02*
X191263579Y-48051504D01*
X191850000Y-91175000D02*
X191263579Y-90048496D01*
X191850000Y-91175000D02*
X192436421Y-90048496D01*
%TA.AperFunction,EtchedComponent*%
%TO.C,JP1*%
G36*
X235691000Y-58756000D02*
G01*
X235191000Y-58756000D01*
X235191000Y-58356000D01*
X235691000Y-58356000D01*
X235691000Y-58756000D01*
G37*
%TD.AperFunction*%
%TA.AperFunction,EtchedComponent*%
G36*
X235691000Y-57956000D02*
G01*
X235191000Y-57956000D01*
X235191000Y-57556000D01*
X235691000Y-57556000D01*
X235691000Y-57956000D01*
G37*
%TD.AperFunction*%
%TD*%
D13*
%TO.P,C5,1*%
%TO.N,Net-(IC2-DEC4)*%
X220262500Y-78550000D03*
%TO.P,C5,2*%
%TO.N,GND*%
X218187500Y-78550000D03*
%TD*%
D14*
%TO.P,SDA_SENS1,1,1*%
%TO.N,SDA_Sens*%
X205880000Y-65740000D03*
%TD*%
D15*
%TO.P,R1,1*%
%TO.N,Net-(JP1-B)*%
X235775000Y-60950000D03*
%TO.P,R1,2*%
%TO.N,Net-(IC5-IN)*%
X233775000Y-60950000D03*
%TD*%
D14*
%TO.P,SDA_MCU1,1,1*%
%TO.N,SDA_MCU*%
X215750000Y-74900000D03*
%TD*%
D16*
%TO.P,U1,1,INT*%
%TO.N,INT*%
X231471500Y-71698000D03*
%TO.P,U1,2,SCL*%
%TO.N,SCL_Sens*%
X231471500Y-72498000D03*
%TO.P,U1,3,SDA*%
%TO.N,SDA_Sens*%
X231471500Y-73298000D03*
%TO.P,U1,4,PROG*%
%TO.N,Pro_range_sens*%
X231471500Y-74098000D03*
%TO.P,U1,5,VSS*%
%TO.N,GND*%
X234321500Y-74098000D03*
%TO.P,U1,6,VDD*%
%TO.N,+1V8*%
X234321500Y-73298000D03*
%TO.P,U1,7,AVDD*%
X234321500Y-72498000D03*
%TO.P,U1,8,~{RESET}*%
%TO.N,NRESET*%
X234321500Y-71698000D03*
%TD*%
D17*
%TO.P,JP1,1,A*%
%TO.N,VIN*%
X236091000Y-58156000D03*
D18*
%TO.P,JP1,2,B*%
%TO.N,Net-(JP1-B)*%
X234791000Y-58156000D03*
D19*
%TO.P,JP1,3*%
%TO.N,N/C*%
X233491000Y-58156000D03*
%TD*%
D20*
%TO.P,L3,1,1*%
%TO.N,Net-(IC2-ANT)*%
X233172000Y-67836000D03*
%TO.P,L3,2,2*%
%TO.N,Net-(AE1-A)*%
X233172000Y-65786000D03*
%TD*%
D14*
%TO.P,1V8TPS1,1,1*%
%TO.N,+1V8*%
X228900000Y-59650000D03*
%TD*%
D21*
%TO.P,C10,1*%
%TO.N,Net-(IC2-XC2)*%
X223774000Y-67839500D03*
%TO.P,C10,2*%
%TO.N,GND*%
X223774000Y-65764500D03*
%TD*%
D14*
%TO.P,SCL_SENS1,1,1*%
%TO.N,SCL_Sens*%
X214150000Y-53325000D03*
%TD*%
%TO.P,TP_GND2,1,1*%
%TO.N,GND*%
X205025000Y-49650000D03*
%TD*%
D22*
%TO.P,BZ1,1,-*%
%TO.N,Voltage_buzzer*%
X225770000Y-87530000D03*
%TO.P,BZ1,2,+*%
%TO.N,GND*%
X235930000Y-87530000D03*
%TD*%
D14*
%TO.P,V_LS_IC1,1,1*%
%TO.N,Net-(IC5-OUT)*%
X251200000Y-56350000D03*
%TD*%
D23*
%TO.P,C3,1*%
%TO.N,VDD*%
X222925000Y-79362500D03*
%TO.P,C3,2*%
%TO.N,GND*%
X222925000Y-81437500D03*
%TD*%
D24*
%TO.P,C18,1*%
%TO.N,Battery +*%
X249162500Y-67675000D03*
%TO.P,C18,2*%
%TO.N,GND*%
X251237500Y-67675000D03*
%TD*%
D23*
%TO.P,C12,1*%
%TO.N,GND*%
X228346000Y-65786000D03*
%TO.P,C12,2*%
%TO.N,Net-(IC2-DEC3)*%
X228346000Y-67861000D03*
%TD*%
D22*
%TO.P,Battery-1,1,Pin_1*%
%TO.N,GND*%
X256675000Y-85785000D03*
%TO.P,Battery-1,2,Pin_2*%
%TO.N,Battery +*%
X256675000Y-75625000D03*
%TD*%
D25*
%TO.P,R8,1*%
%TO.N,Net-(IC3-VSET)*%
X244600000Y-64200000D03*
%TO.P,R8,2*%
%TO.N,GND*%
X246600000Y-64200000D03*
%TD*%
D26*
%TO.P,IC4,1,VOS*%
%TO.N,+1V8*%
X242488000Y-66376000D03*
%TO.P,IC4,2,SW*%
%TO.N,Net-(IC4-SW)*%
X242488000Y-67026000D03*
%TO.P,IC4,3,MODE*%
%TO.N,GND*%
X242488000Y-67676000D03*
%TO.P,IC4,4,VSET*%
X242488000Y-68326000D03*
%TO.P,IC4,5,EN*%
%TO.N,Battery +*%
X246888000Y-68326000D03*
%TO.P,IC4,6,VIN*%
X246888000Y-67676000D03*
%TO.P,IC4,7,NC*%
%TO.N,unconnected-(IC4-NC-Pad7)*%
X246888000Y-67026000D03*
%TO.P,IC4,8,GND*%
%TO.N,GND*%
X246888000Y-66376000D03*
D27*
%TO.P,IC4,9,EP*%
X244688000Y-67351000D03*
%TD*%
D21*
%TO.P,C9,1*%
%TO.N,Net-(IC2-ANT)*%
X230886000Y-67861000D03*
%TO.P,C9,2*%
%TO.N,GND*%
X230886000Y-65786000D03*
%TD*%
D14*
%TO.P,SCL_MCU1,1,1*%
%TO.N,SCL_MCU*%
X209275000Y-57275000D03*
%TD*%
%TO.P,INT1,1,1*%
%TO.N,INT*%
X228500000Y-81825000D03*
%TD*%
D28*
%TO.P,L2,1,1*%
%TO.N,Net-(L1-Pad2)*%
X218250000Y-83000000D03*
%TO.P,L2,2,2*%
%TO.N,Net-(IC2-DCC)*%
X220300000Y-83000000D03*
%TD*%
D25*
%TO.P,R6,1*%
%TO.N,+3.3V*%
X207337500Y-61775000D03*
%TO.P,R6,2*%
%TO.N,SCL_MCU*%
X209337500Y-61775000D03*
%TD*%
D29*
%TO.P,Y1,1,HOT_1*%
%TO.N,Net-(IC2-XC1)*%
X223750000Y-59300000D03*
%TO.P,Y1,2,GND_1*%
%TO.N,GND*%
X222350000Y-59300000D03*
%TO.P,Y1,3,HOT_2*%
%TO.N,Net-(IC2-XC2)*%
X222350000Y-60400000D03*
%TO.P,Y1,4,GND_2*%
%TO.N,GND*%
X223750000Y-60400000D03*
%TD*%
D25*
%TO.P,R4,1*%
%TO.N,+3.3V*%
X207362500Y-68250000D03*
%TO.P,R4,2*%
%TO.N,SDA_MCU*%
X209362500Y-68250000D03*
%TD*%
D30*
%TO.P,Q2,1,G*%
%TO.N,+1V8*%
X213350000Y-62750000D03*
%TO.P,Q2,2,S*%
%TO.N,SCL_Sens*%
X213350000Y-60850000D03*
%TO.P,Q2,3,D*%
%TO.N,SCL_MCU*%
X211475000Y-61800000D03*
%TD*%
D26*
%TO.P,IC3,1,VOS*%
%TO.N,Net-(IC3-VOS)*%
X244520000Y-60025000D03*
%TO.P,IC3,2,SW*%
%TO.N,Net-(IC3-SW)*%
X244520000Y-60675000D03*
%TO.P,IC3,3,MODE*%
%TO.N,GND*%
X244520000Y-61325000D03*
%TO.P,IC3,4,VSET*%
%TO.N,Net-(IC3-VSET)*%
X244520000Y-61975000D03*
%TO.P,IC3,5,EN*%
%TO.N,Battery +*%
X248920000Y-61975000D03*
%TO.P,IC3,6,VIN*%
X248920000Y-61325000D03*
%TO.P,IC3,7,NC*%
%TO.N,unconnected-(IC3-NC-Pad7)*%
X248920000Y-60675000D03*
%TO.P,IC3,8,GND*%
%TO.N,GND*%
X248920000Y-60025000D03*
D27*
%TO.P,IC3,9,EP*%
X246720000Y-61000000D03*
%TD*%
D14*
%TO.P,KeyVolt1,1,1*%
%TO.N,Net-(JP1-B)*%
X234750000Y-52475000D03*
%TD*%
D22*
%TO.P,SW1,1,A*%
%TO.N,GND*%
X256725000Y-51710000D03*
%TO.P,SW1,2,B*%
%TO.N,Output_seatbelt*%
X256725000Y-66950000D03*
%TO.P,SW1,3,C*%
%TO.N,Net-(IC5-OUT)*%
X256725000Y-59330000D03*
%TD*%
D31*
%TO.P,R5,1*%
%TO.N,+1V8*%
X215662500Y-62825000D03*
%TO.P,R5,2*%
%TO.N,SCL_Sens*%
X215662500Y-60825000D03*
%TD*%
D23*
%TO.P,C11,1*%
%TO.N,GND*%
X226060000Y-65743000D03*
%TO.P,C11,2*%
%TO.N,Net-(IC2-XC1)*%
X226060000Y-67818000D03*
%TD*%
D32*
%TO.P,IC5,1,GND*%
%TO.N,GND*%
X248050000Y-74750000D03*
%TO.P,IC5,2,EN*%
%TO.N,EN*%
X248050000Y-75250000D03*
%TO.P,IC5,3,IN*%
%TO.N,Net-(IC5-IN)*%
X249350000Y-75250000D03*
%TO.P,IC5,4,OUT*%
%TO.N,Net-(IC5-OUT)*%
X249350000Y-74750000D03*
%TD*%
D14*
%TO.P,NReset1,1,1*%
%TO.N,NRESET*%
X243825000Y-51300000D03*
%TD*%
D13*
%TO.P,C1,1*%
%TO.N,GND*%
X238512500Y-72475000D03*
%TO.P,C1,2*%
%TO.N,+1V8*%
X236437500Y-72475000D03*
%TD*%
D33*
%TO.P,L1,1,1*%
%TO.N,Net-(IC2-DEC4)*%
X220300000Y-80775000D03*
%TO.P,L1,2,2*%
%TO.N,Net-(L1-Pad2)*%
X218250000Y-80775000D03*
%TD*%
D14*
%TO.P,EN1,1,1*%
%TO.N,EN*%
X251675000Y-89325000D03*
%TD*%
%TO.P,V_Buzzer1,1,1*%
%TO.N,Voltage_buzzer*%
X219250000Y-88475000D03*
%TD*%
D21*
%TO.P,C2,1*%
%TO.N,GND*%
X225625000Y-81462500D03*
%TO.P,C2,2*%
%TO.N,Net-(IC2-DEC1)*%
X225625000Y-79387500D03*
%TD*%
D31*
%TO.P,R3,1*%
%TO.N,+1V8*%
X215687500Y-69200000D03*
%TO.P,R3,2*%
%TO.N,SDA_Sens*%
X215687500Y-67200000D03*
%TD*%
D34*
%TO.P,IC2,1,DEC1*%
%TO.N,Net-(IC2-DEC1)*%
X224114000Y-77626000D03*
%TO.P,IC2,2,P0.00/XL1*%
%TO.N,unconnected-(IC2-P0.00{slash}XL1-Pad2)*%
X224514000Y-77626000D03*
%TO.P,IC2,3,P0.01/XL2*%
%TO.N,unconnected-(IC2-P0.01{slash}XL2-Pad3)*%
X224914000Y-77626000D03*
%TO.P,IC2,4,P0.02/AIN0*%
%TO.N,unconnected-(IC2-P0.02{slash}AIN0-Pad4)*%
X225314000Y-77626000D03*
%TO.P,IC2,5,P0.03/AIN1*%
%TO.N,unconnected-(IC2-P0.03{slash}AIN1-Pad5)*%
X225714000Y-77626000D03*
%TO.P,IC2,6,P0.04/AIN2*%
%TO.N,unconnected-(IC2-P0.04{slash}AIN2-Pad6)*%
X226114000Y-77626000D03*
%TO.P,IC2,7,P0.05/AIN3*%
%TO.N,unconnected-(IC2-P0.05{slash}AIN3-Pad7)*%
X226514000Y-77626000D03*
%TO.P,IC2,8,P0.06*%
%TO.N,Voltage_buzzer*%
X226914000Y-77626000D03*
%TO.P,IC2,9,P0.07*%
%TO.N,INT*%
X227314000Y-77626000D03*
%TO.P,IC2,10,P0.08*%
%TO.N,Pro_range_sens*%
X227714000Y-77626000D03*
%TO.P,IC2,11,NFC1/P0.09*%
%TO.N,unconnected-(IC2-NFC1{slash}P0.09-Pad11)*%
X228114000Y-77626000D03*
%TO.P,IC2,12,NFC2/P0.10*%
%TO.N,unconnected-(IC2-NFC2{slash}P0.10-Pad12)*%
X228514000Y-77626000D03*
D35*
%TO.P,IC2,13,VDD_1*%
%TO.N,VDD*%
X229264000Y-76876000D03*
%TO.P,IC2,14,P0.11*%
%TO.N,unconnected-(IC2-P0.11-Pad14)*%
X229264000Y-76476000D03*
%TO.P,IC2,15,P0.12*%
%TO.N,unconnected-(IC2-P0.12-Pad15)*%
X229264000Y-76076000D03*
%TO.P,IC2,16,P0.13*%
%TO.N,unconnected-(IC2-P0.13-Pad16)*%
X229264000Y-75676000D03*
%TO.P,IC2,17,P0.14/TRACEDATA[3]*%
%TO.N,EN*%
X229264000Y-75276000D03*
%TO.P,IC2,18,P0.15/TRACEDATA[2]*%
%TO.N,Output_seatbelt*%
X229264000Y-74876000D03*
%TO.P,IC2,19,P0.16/TRACEDATA[1]*%
%TO.N,unconnected-(IC2-P0.16{slash}TRACEDATA[1]-Pad19)*%
X229264000Y-74476000D03*
%TO.P,IC2,20,P0.17*%
%TO.N,unconnected-(IC2-P0.17-Pad20)*%
X229264000Y-74076000D03*
%TO.P,IC2,21,P0.18/TRACEDATA[0]/SWO*%
%TO.N,SWO*%
X229264000Y-73676000D03*
%TO.P,IC2,22,P0.19*%
%TO.N,unconnected-(IC2-P0.19-Pad22)*%
X229264000Y-73276000D03*
%TO.P,IC2,23,P0.20/TRACECLK*%
%TO.N,unconnected-(IC2-P0.20{slash}TRACECLK-Pad23)*%
X229264000Y-72876000D03*
%TO.P,IC2,24,P0.21/NRESET*%
%TO.N,NRESET*%
X229264000Y-72476000D03*
D34*
%TO.P,IC2,25,SWDCLK*%
%TO.N,SWDCLK*%
X228514000Y-71726000D03*
%TO.P,IC2,26,SWDIO*%
%TO.N,SWDIO*%
X228114000Y-71726000D03*
%TO.P,IC2,27,P0.22*%
%TO.N,unconnected-(IC2-P0.22-Pad27)*%
X227714000Y-71726000D03*
%TO.P,IC2,28,P0.23*%
%TO.N,unconnected-(IC2-P0.23-Pad28)*%
X227314000Y-71726000D03*
%TO.P,IC2,29,P0.24*%
%TO.N,unconnected-(IC2-P0.24-Pad29)*%
X226914000Y-71726000D03*
%TO.P,IC2,30,ANT*%
%TO.N,Net-(IC2-ANT)*%
X226514000Y-71726000D03*
%TO.P,IC2,31,VSS_1*%
%TO.N,GND*%
X226114000Y-71726000D03*
%TO.P,IC2,32,DEC2*%
%TO.N,unconnected-(IC2-DEC2-Pad32)*%
X225714000Y-71726000D03*
%TO.P,IC2,33,DEC3*%
%TO.N,Net-(IC2-DEC3)*%
X225314000Y-71726000D03*
%TO.P,IC2,34,XC1*%
%TO.N,Net-(IC2-XC1)*%
X224914000Y-71726000D03*
%TO.P,IC2,35,XC2*%
%TO.N,Net-(IC2-XC2)*%
X224514000Y-71726000D03*
%TO.P,IC2,36,VDD_2*%
%TO.N,VDD*%
X224114000Y-71726000D03*
D35*
%TO.P,IC2,37,P0.25*%
%TO.N,SCL_MCU*%
X223364000Y-72476000D03*
%TO.P,IC2,38,P0.26*%
%TO.N,SDA_MCU*%
X223364000Y-72876000D03*
%TO.P,IC2,39,P0.27*%
%TO.N,unconnected-(IC2-P0.27-Pad39)*%
X223364000Y-73276000D03*
%TO.P,IC2,40,P0.28/AIN4*%
%TO.N,unconnected-(IC2-P0.28{slash}AIN4-Pad40)*%
X223364000Y-73676000D03*
%TO.P,IC2,41,P0.29/AIN5*%
%TO.N,unconnected-(IC2-P0.29{slash}AIN5-Pad41)*%
X223364000Y-74076000D03*
%TO.P,IC2,42,P0.30/AIN6*%
%TO.N,unconnected-(IC2-P0.30{slash}AIN6-Pad42)*%
X223364000Y-74476000D03*
%TO.P,IC2,43,P0.31/AIN7*%
%TO.N,unconnected-(IC2-P0.31{slash}AIN7-Pad43)*%
X223364000Y-74876000D03*
%TO.P,IC2,44,NC*%
%TO.N,unconnected-(IC2-NC-Pad44)*%
X223364000Y-75276000D03*
%TO.P,IC2,45,VSS_2*%
%TO.N,GND*%
X223364000Y-75676000D03*
%TO.P,IC2,46,DEC4*%
%TO.N,Net-(IC2-DEC4)*%
X223364000Y-76076000D03*
%TO.P,IC2,47,DCC*%
%TO.N,Net-(IC2-DCC)*%
X223364000Y-76476000D03*
%TO.P,IC2,48,VDD_3*%
%TO.N,VDD*%
X223364000Y-76876000D03*
D36*
%TO.P,IC2,49,EP*%
%TO.N,GND*%
X226314000Y-74676000D03*
%TD*%
D37*
%TO.P,AE1,1,A*%
%TO.N,Net-(AE1-A)*%
X207515000Y-83300000D03*
D38*
%TO.P,AE1,2*%
%TO.N,N/C*%
X207515000Y-79700000D03*
%TO.P,AE1,3*%
X207515000Y-86900000D03*
D39*
%TO.P,AE1,4*%
X210675000Y-86900000D03*
%TO.P,AE1,5*%
X210675000Y-79700000D03*
%TD*%
D14*
%TO.P,1.8V1,1,1*%
%TO.N,+1V8*%
X205025000Y-72900000D03*
%TD*%
D21*
%TO.P,C15,1*%
%TO.N,Net-(IC3-VOS)*%
X244475000Y-58087500D03*
%TO.P,C15,2*%
%TO.N,GND*%
X244475000Y-56012500D03*
%TD*%
D14*
%TO.P,3V3_TPS1,1,1*%
%TO.N,Net-(IC3-VOS)*%
X247050000Y-52150000D03*
%TD*%
%TO.P,TP_GND1,1,1*%
%TO.N,GND*%
X249775000Y-49575000D03*
%TD*%
D31*
%TO.P,R2,1*%
%TO.N,+1V8*%
X230850000Y-82175000D03*
%TO.P,R2,2*%
%TO.N,INT*%
X230850000Y-80175000D03*
%TD*%
D14*
%TO.P,P_R_S1,1,1*%
%TO.N,Pro_range_sens*%
X249925000Y-85775000D03*
%TD*%
D13*
%TO.P,C8,1*%
%TO.N,VDD*%
X222987500Y-70000000D03*
%TO.P,C8,2*%
%TO.N,GND*%
X220912500Y-70000000D03*
%TD*%
D24*
%TO.P,C17,1*%
%TO.N,+1V8*%
X240337500Y-64250000D03*
%TO.P,C17,2*%
%TO.N,GND*%
X242412500Y-64250000D03*
%TD*%
D40*
%TO.P,L5,1,1*%
%TO.N,Net-(IC3-VOS)*%
X242025000Y-58500000D03*
%TO.P,L5,2,2*%
%TO.N,Net-(IC3-SW)*%
X242025000Y-60550000D03*
%TD*%
D23*
%TO.P,C16,1*%
%TO.N,Battery +*%
X251250000Y-61412500D03*
%TO.P,C16,2*%
%TO.N,GND*%
X251250000Y-63487500D03*
%TD*%
D30*
%TO.P,Q1,1,G*%
%TO.N,+1V8*%
X213387500Y-69175000D03*
%TO.P,Q1,2,S*%
%TO.N,SDA_Sens*%
X213387500Y-67275000D03*
%TO.P,Q1,3,D*%
%TO.N,SDA_MCU*%
X211512500Y-68225000D03*
%TD*%
D24*
%TO.P,C4,1*%
%TO.N,VDD*%
X231212500Y-77925000D03*
%TO.P,C4,2*%
%TO.N,GND*%
X233287500Y-77925000D03*
%TD*%
D40*
%TO.P,L6,1,1*%
%TO.N,+1V8*%
X238075000Y-64075000D03*
%TO.P,L6,2,2*%
%TO.N,Net-(IC4-SW)*%
X238075000Y-66125000D03*
%TD*%
D41*
%TO.P,Debug_in1,1,1*%
%TO.N,+3V3*%
X241808000Y-84836000D03*
%TO.P,Debug_in1,2,2*%
%TO.N,SWDIO*%
X241808000Y-80766000D03*
%TO.P,Debug_in1,3,3*%
%TO.N,GND*%
X243078000Y-84836000D03*
%TO.P,Debug_in1,4,4*%
%TO.N,SWDCLK*%
X243078000Y-80766000D03*
%TO.P,Debug_in1,5,5*%
%TO.N,GND*%
X244348000Y-84836000D03*
%TO.P,Debug_in1,6,6*%
%TO.N,SWO*%
X244348000Y-80766000D03*
%TO.P,Debug_in1,7,7*%
%TO.N,unconnected-(Debug_in1-Pad7)*%
X245618000Y-84836000D03*
%TO.P,Debug_in1,8,8*%
%TO.N,unconnected-(Debug_in1-Pad8)*%
X245618000Y-80766000D03*
%TO.P,Debug_in1,9,9*%
%TO.N,GND*%
X246888000Y-84836000D03*
%TO.P,Debug_in1,10,10*%
%TO.N,NRESET*%
X246888000Y-80766000D03*
%TD*%
D42*
%TO.N,Net-(AE1-A)*%
X250444000Y-80619000D03*
%TO.N,GND*%
X243332000Y-75692000D03*
X227330000Y-74422000D03*
X217675000Y-64500000D03*
X214600000Y-84025000D03*
X248225000Y-65225000D03*
X240792000Y-68072000D03*
X257556000Y-87122000D03*
X246900000Y-56175000D03*
X227130500Y-70030500D03*
X222250000Y-75184000D03*
X251325000Y-64975000D03*
X208600000Y-73275000D03*
X248600000Y-58775000D03*
X215975000Y-80150000D03*
X226950000Y-61675000D03*
X242150000Y-62625000D03*
X255524000Y-62230000D03*
X235525000Y-74250000D03*
X253200000Y-54225000D03*
X249925000Y-52050000D03*
X225552000Y-75184000D03*
X259249000Y-54303500D03*
X241850000Y-56100000D03*
X219000000Y-68050000D03*
X221575000Y-64275000D03*
X240000000Y-88825000D03*
X233125000Y-76350000D03*
X223520000Y-64262000D03*
X221925000Y-68125000D03*
X235204000Y-68580000D03*
X253425000Y-82125000D03*
X240792000Y-75692000D03*
%TO.N,+1V8*%
X215675000Y-70975000D03*
X207675000Y-72375000D03*
X213150000Y-71125000D03*
X229575000Y-63400000D03*
X215700000Y-64975000D03*
X235204000Y-72390000D03*
X240925000Y-66375000D03*
%TO.N,VDD*%
X229675000Y-78525000D03*
X224250000Y-82775000D03*
X220037397Y-71788103D03*
%TO.N,Output_seatbelt*%
X231682947Y-76025000D03*
%TO.N,SWO*%
X231375000Y-75075000D03*
X237550000Y-78501500D03*
%TO.N,Pro_range_sens*%
X235350000Y-82775000D03*
X228750000Y-79975000D03*
%TO.N,NRESET*%
X233350000Y-72000000D03*
X234400000Y-70700000D03*
X245110000Y-77470000D03*
X238425000Y-58775000D03*
%TO.N,EN*%
X250012500Y-79287500D03*
X230448944Y-75876056D03*
%TO.N,Net-(IC5-IN)*%
X248675000Y-76725000D03*
X239425000Y-62600000D03*
%TO.N,Net-(IC5-OUT)*%
X251000000Y-72950000D03*
X253325000Y-65425000D03*
%TO.N,SDA_Sens*%
X217425000Y-68150000D03*
X230632000Y-73406000D03*
%TO.N,SCL_Sens*%
X230378000Y-72390000D03*
X221000000Y-66775000D03*
%TD*%
D43*
%TO.N,Net-(AE1-A)*%
X235611000Y-65786000D02*
X233172000Y-65786000D01*
X250444000Y-80619000D02*
X235611000Y-65786000D01*
%TO.N,GND*%
X244363000Y-67676000D02*
X244688000Y-67351000D01*
X223364000Y-75676000D02*
X222742000Y-75676000D01*
X222742000Y-75676000D02*
X222250000Y-75184000D01*
D44*
X246888000Y-66376000D02*
X246888000Y-65838000D01*
X246634000Y-65584000D02*
X246634000Y-64516000D01*
X246395000Y-61325000D02*
X246720000Y-61000000D01*
D43*
X226894500Y-70030500D02*
X226114000Y-70811000D01*
D44*
X246888000Y-65838000D02*
X246634000Y-65584000D01*
X248075000Y-74750000D02*
X247075000Y-74750000D01*
D43*
X226114000Y-70811000D02*
X226114000Y-71726000D01*
D44*
X247075000Y-74750000D02*
X246900000Y-74575000D01*
D43*
X227130500Y-70030500D02*
X226894500Y-70030500D01*
D44*
X244520000Y-61325000D02*
X246395000Y-61325000D01*
X226114000Y-71726000D02*
X226114000Y-74476000D01*
D43*
%TO.N,Battery +*%
X248920000Y-61975000D02*
X248920000Y-62618000D01*
X246888000Y-67676000D02*
X248974000Y-67676000D01*
X248920000Y-62618000D02*
X249750000Y-63448000D01*
X249750000Y-64825000D02*
X249174000Y-65401000D01*
D44*
X249174000Y-67476000D02*
X249174000Y-69874000D01*
D43*
X249750000Y-63448000D02*
X249750000Y-64825000D01*
X248920000Y-61325000D02*
X250787500Y-61325000D01*
D44*
X254925000Y-75625000D02*
X256675000Y-75625000D01*
D43*
X250787500Y-61325000D02*
X250875000Y-61412500D01*
X248920000Y-61325000D02*
X248920000Y-61975000D01*
X246888000Y-68326000D02*
X246888000Y-67676000D01*
D44*
X249174000Y-69874000D02*
X254925000Y-75625000D01*
D43*
X249174000Y-65401000D02*
X249174000Y-67476000D01*
X248974000Y-67676000D02*
X249174000Y-67476000D01*
D44*
%TO.N,Voltage_buzzer*%
X225770000Y-87530000D02*
X220195000Y-87530000D01*
X226914000Y-84386000D02*
X226914000Y-87086000D01*
X220195000Y-87530000D02*
X219250000Y-88475000D01*
X226914000Y-87086000D02*
X225695000Y-88305000D01*
D43*
X226914000Y-77626000D02*
X226914000Y-84386000D01*
%TO.N,+1V8*%
X238250000Y-64250000D02*
X240337500Y-64250000D01*
D44*
X230850000Y-82175000D02*
X233125000Y-82175000D01*
D43*
X215675000Y-70975000D02*
X215675000Y-69212500D01*
D44*
X215662500Y-69175000D02*
X215687500Y-69200000D01*
D43*
X241300000Y-66375000D02*
X242487000Y-66375000D01*
D44*
X207150000Y-72900000D02*
X205025000Y-72900000D01*
X215587500Y-62750000D02*
X215662500Y-62825000D01*
X236700000Y-64100000D02*
X238050000Y-64100000D01*
D43*
X238075000Y-64075000D02*
X238250000Y-64250000D01*
D45*
X215700000Y-62862500D02*
X215662500Y-62825000D01*
D44*
X235575000Y-79725000D02*
X235575000Y-76725000D01*
X233125000Y-82175000D02*
X235575000Y-79725000D01*
X236350000Y-72562500D02*
X236437500Y-72475000D01*
X213387500Y-69175000D02*
X213387500Y-70887500D01*
D45*
X215675000Y-69212500D02*
X215687500Y-69200000D01*
D44*
X207675000Y-72375000D02*
X207150000Y-72900000D01*
X213387500Y-69175000D02*
X215662500Y-69175000D01*
D43*
X240337500Y-64250000D02*
X240337500Y-65412500D01*
X234321500Y-72498000D02*
X235096000Y-72498000D01*
X240925000Y-66375000D02*
X241300000Y-66375000D01*
X236000000Y-63400000D02*
X236700000Y-64100000D01*
X235312000Y-72498000D02*
X236344500Y-72498000D01*
D44*
X213350000Y-62750000D02*
X215587500Y-62750000D01*
X213387500Y-70887500D02*
X213150000Y-71125000D01*
X235575000Y-76725000D02*
X236350000Y-75950000D01*
X238050000Y-64100000D02*
X238075000Y-64075000D01*
D43*
X240337500Y-65412500D02*
X241300000Y-66375000D01*
X234321500Y-73298000D02*
X234321500Y-72498000D01*
X242487000Y-66375000D02*
X242488000Y-66376000D01*
D45*
X215700000Y-64975000D02*
X215700000Y-62862500D01*
D44*
X229575000Y-60325000D02*
X228900000Y-59650000D01*
X229575000Y-63400000D02*
X229575000Y-60325000D01*
D43*
X229575000Y-63400000D02*
X236000000Y-63400000D01*
D44*
X236350000Y-75950000D02*
X236350000Y-72562500D01*
D43*
%TO.N,Net-(IC2-DEC1)*%
X224637500Y-79387500D02*
X225625000Y-79387500D01*
X224114000Y-78864000D02*
X224637500Y-79387500D01*
X224114000Y-77626000D02*
X224114000Y-78864000D01*
D44*
%TO.N,VDD*%
X224175000Y-82700000D02*
X224250000Y-82775000D01*
X220037397Y-71788103D02*
X222286897Y-71788103D01*
X222286897Y-71788103D02*
X222987500Y-71087500D01*
D43*
X223364000Y-76876000D02*
X222624000Y-76876000D01*
X222250000Y-78025000D02*
X222925000Y-78700000D01*
D44*
X222987500Y-71087500D02*
X222987500Y-70000000D01*
D43*
X229264000Y-76876000D02*
X231026000Y-76876000D01*
X224114000Y-71726000D02*
X224114000Y-70164000D01*
X230275000Y-77925000D02*
X231212500Y-77925000D01*
X222624000Y-76876000D02*
X222250000Y-77250000D01*
D44*
X222925000Y-79362500D02*
X223062500Y-79362500D01*
D43*
X224114000Y-70164000D02*
X223925000Y-69975000D01*
X222925000Y-78700000D02*
X222925000Y-79362500D01*
D44*
X223062500Y-79362500D02*
X224175000Y-80475000D01*
D43*
X222250000Y-77250000D02*
X222250000Y-78025000D01*
X231212500Y-77062500D02*
X231212500Y-77925000D01*
X231026000Y-76876000D02*
X231212500Y-77062500D01*
X229675000Y-78525000D02*
X230275000Y-77925000D01*
X223925000Y-69975000D02*
X223037500Y-69975000D01*
D44*
X224175000Y-80475000D02*
X224175000Y-82700000D01*
D43*
%TO.N,Net-(IC2-DEC4)*%
X221114000Y-78486000D02*
X220236000Y-78486000D01*
X220236000Y-80500000D02*
X220218000Y-80518000D01*
X222224000Y-76076000D02*
X221325000Y-76975000D01*
X223364000Y-76076000D02*
X222224000Y-76076000D01*
X221325000Y-78275000D02*
X221114000Y-78486000D01*
X220236000Y-78486000D02*
X220236000Y-80500000D01*
X221325000Y-76975000D02*
X221325000Y-78275000D01*
%TO.N,Net-(IC2-ANT)*%
X229075000Y-69250000D02*
X230275000Y-69250000D01*
X228925000Y-69400000D02*
X227667500Y-70657500D01*
X226967500Y-70657500D02*
X226514000Y-71111000D01*
X228925000Y-69400000D02*
X229075000Y-69250000D01*
X226514000Y-71111000D02*
X226514000Y-71726000D01*
X230886000Y-68639000D02*
X230886000Y-67861000D01*
X233147000Y-67861000D02*
X233172000Y-67836000D01*
X230275000Y-69250000D02*
X230886000Y-68639000D01*
X230886000Y-67861000D02*
X233147000Y-67861000D01*
X227667500Y-70657500D02*
X226967500Y-70657500D01*
%TO.N,Net-(IC2-XC2)*%
X222625000Y-66300000D02*
X222625000Y-64150000D01*
X223774000Y-66974000D02*
X223525000Y-66725000D01*
X223050000Y-66725000D02*
X222625000Y-66300000D01*
X224514000Y-71726000D02*
X224514000Y-69289000D01*
D44*
X222625000Y-63675000D02*
X222625000Y-64150000D01*
X222350000Y-60400000D02*
X222350000Y-63400000D01*
D43*
X223525000Y-66725000D02*
X223050000Y-66725000D01*
D44*
X222350000Y-63400000D02*
X222625000Y-63675000D01*
D43*
X223774000Y-67839500D02*
X223774000Y-66974000D01*
X223774000Y-68549000D02*
X223774000Y-67839500D01*
X224514000Y-69289000D02*
X223774000Y-68549000D01*
D44*
%TO.N,Net-(IC2-XC1)*%
X224525000Y-59300000D02*
X224900000Y-59675000D01*
D43*
X225825000Y-66700000D02*
X225200000Y-66700000D01*
X224900000Y-66400000D02*
X224900000Y-62770000D01*
D44*
X223750000Y-59300000D02*
X224525000Y-59300000D01*
D43*
X225200000Y-66700000D02*
X224900000Y-66400000D01*
X226060000Y-68690000D02*
X226060000Y-67818000D01*
X224914000Y-71726000D02*
X224914000Y-69836000D01*
X226060000Y-66935000D02*
X225825000Y-66700000D01*
X226060000Y-67818000D02*
X226060000Y-66935000D01*
X224914000Y-69836000D02*
X226060000Y-68690000D01*
D44*
X224900000Y-59675000D02*
X224900000Y-62770000D01*
D43*
%TO.N,Net-(IC2-DEC3)*%
X226778056Y-69321944D02*
X225314000Y-70786000D01*
X227853056Y-69321944D02*
X226778056Y-69321944D01*
X225314000Y-70786000D02*
X225314000Y-71726000D01*
X228346000Y-68829000D02*
X227853056Y-69321944D01*
X228346000Y-68072000D02*
X228346000Y-68829000D01*
D45*
X228346000Y-67861000D02*
X228346000Y-68072000D01*
D44*
%TO.N,Net-(IC3-VOS)*%
X247825000Y-56725000D02*
X247825000Y-52925000D01*
D43*
X244602000Y-58268500D02*
X242548500Y-58268500D01*
X242548500Y-58268500D02*
X242316000Y-58501000D01*
X244520000Y-58350500D02*
X244602000Y-58268500D01*
D44*
X247825000Y-52925000D02*
X247050000Y-52150000D01*
D43*
X244520000Y-60025000D02*
X244520000Y-58350500D01*
D44*
X244475000Y-58087500D02*
X246462500Y-58087500D01*
X246462500Y-58087500D02*
X247825000Y-56725000D01*
%TO.N,INT*%
X227314000Y-79864000D02*
X227314000Y-77626000D01*
X228500000Y-81200000D02*
X228500000Y-81825000D01*
D43*
X232925000Y-74350000D02*
X232925000Y-74600000D01*
D44*
X228500000Y-81425000D02*
X229750000Y-80175000D01*
D43*
X232925000Y-74600000D02*
X234600000Y-76275000D01*
X232925000Y-74350000D02*
X232925000Y-72750000D01*
D44*
X227775000Y-80325000D02*
X227775000Y-81100000D01*
D43*
X233000000Y-80175000D02*
X230850000Y-80175000D01*
X234600000Y-78575000D02*
X233000000Y-80175000D01*
D44*
X229750000Y-80175000D02*
X230850000Y-80175000D01*
D43*
X234600000Y-76275000D02*
X234600000Y-78575000D01*
X232925000Y-72750000D02*
X231873000Y-71698000D01*
D44*
X228500000Y-81825000D02*
X228500000Y-81425000D01*
D43*
X227314000Y-79864000D02*
X227775000Y-80325000D01*
X231873000Y-71698000D02*
X231471500Y-71698000D01*
D44*
X227775000Y-81100000D02*
X228500000Y-81825000D01*
D45*
%TO.N,Output_seatbelt*%
X230288500Y-74876000D02*
X229264000Y-74876000D01*
X231437500Y-76025000D02*
X230288500Y-74876000D01*
X231682947Y-76025000D02*
X231437500Y-76025000D01*
%TO.N,SWO*%
X231375000Y-75075000D02*
X231288000Y-75075000D01*
X231288000Y-75075000D02*
X229889000Y-73676000D01*
D43*
X239514000Y-83050000D02*
X243625000Y-83050000D01*
X237550000Y-81086000D02*
X239514000Y-83050000D01*
D45*
X229889000Y-73676000D02*
X229264000Y-73676000D01*
D43*
X237550000Y-78501500D02*
X237550000Y-81086000D01*
X243625000Y-83050000D02*
X244348000Y-82327000D01*
X244348000Y-82327000D02*
X244348000Y-80766000D01*
%TO.N,SWDIO*%
X241808000Y-72758000D02*
X241808000Y-80766000D01*
X228114000Y-71726000D02*
X228114000Y-70886000D01*
X230066738Y-70050000D02*
X230666738Y-69450000D01*
X228114000Y-70886000D02*
X228950000Y-70050000D01*
X228950000Y-70050000D02*
X230066738Y-70050000D01*
X230666738Y-69450000D02*
X238500000Y-69450000D01*
X238500000Y-69450000D02*
X241808000Y-72758000D01*
%TO.N,SWDCLK*%
X240030000Y-81534000D02*
X240030000Y-72030000D01*
X240030000Y-72030000D02*
X237950000Y-69950000D01*
X231700000Y-69950000D02*
X231025000Y-70625000D01*
X237950000Y-69950000D02*
X231700000Y-69950000D01*
X229123158Y-70625000D02*
X228541000Y-71207158D01*
X242825000Y-82625000D02*
X241121000Y-82625000D01*
X228541000Y-71207158D02*
X228541000Y-71699000D01*
X243078000Y-82372000D02*
X242825000Y-82625000D01*
X241121000Y-82625000D02*
X240030000Y-81534000D01*
X243078000Y-80766000D02*
X243078000Y-82372000D01*
X231025000Y-70625000D02*
X229123158Y-70625000D01*
D44*
%TO.N,Pro_range_sens*%
X241075000Y-87925000D02*
X243200000Y-87925000D01*
D43*
X228577000Y-79225000D02*
X230050000Y-79225000D01*
D44*
X247800000Y-87925000D02*
X249775000Y-85950000D01*
D43*
X232073000Y-74098000D02*
X231471500Y-74098000D01*
D44*
X236775000Y-82775000D02*
X239150000Y-85150000D01*
X243200000Y-87925000D02*
X247800000Y-87925000D01*
X240075000Y-86075000D02*
X240075000Y-86925000D01*
X239150000Y-85150000D02*
X240075000Y-86075000D01*
D43*
X227714000Y-78362000D02*
X228577000Y-79225000D01*
D44*
X229500000Y-79225000D02*
X228750000Y-79975000D01*
D43*
X232350000Y-74375000D02*
X232073000Y-74098000D01*
X231550000Y-79225000D02*
X232350000Y-78425000D01*
X227714000Y-77626000D02*
X227714000Y-78362000D01*
D44*
X230050000Y-79225000D02*
X229500000Y-79225000D01*
X235350000Y-82775000D02*
X236775000Y-82775000D01*
D43*
X230050000Y-79225000D02*
X231550000Y-79225000D01*
D44*
X240075000Y-86925000D02*
X241075000Y-87925000D01*
D43*
X232350000Y-78425000D02*
X232350000Y-74375000D01*
D44*
%TO.N,NRESET*%
X238425000Y-56525000D02*
X240725000Y-54225000D01*
X241025000Y-54225000D02*
X244025000Y-51225000D01*
D43*
X246888000Y-78538000D02*
X245820000Y-77470000D01*
D44*
X232470000Y-71120000D02*
X233350000Y-72000000D01*
D43*
X229264000Y-72234000D02*
X229264000Y-72476000D01*
D44*
X240725000Y-54225000D02*
X241025000Y-54225000D01*
D43*
X230378000Y-71120000D02*
X229264000Y-72234000D01*
X245820000Y-77470000D02*
X245110000Y-77470000D01*
X233350000Y-72000000D02*
X233652000Y-71698000D01*
D44*
X230378000Y-71120000D02*
X232470000Y-71120000D01*
D43*
X246888000Y-80766000D02*
X246888000Y-78538000D01*
D44*
X238425000Y-58775000D02*
X238425000Y-56525000D01*
D43*
X233652000Y-71698000D02*
X234321500Y-71698000D01*
D44*
X232470000Y-71120000D02*
X232890000Y-70700000D01*
X232890000Y-70700000D02*
X234400000Y-70700000D01*
D43*
%TO.N,Net-(IC2-DCC)*%
X221575000Y-78625000D02*
X221575000Y-82500000D01*
X221075000Y-83000000D02*
X220300000Y-83000000D01*
X221725000Y-77075000D02*
X221725000Y-78475000D01*
X222324000Y-76476000D02*
X221725000Y-77075000D01*
X221575000Y-82500000D02*
X221075000Y-83000000D01*
X221725000Y-78475000D02*
X221575000Y-78625000D01*
X223364000Y-76476000D02*
X222324000Y-76476000D01*
%TO.N,Net-(IC3-SW)*%
X244520000Y-60675000D02*
X242440000Y-60675000D01*
X242440000Y-60675000D02*
X242316000Y-60551000D01*
%TO.N,Net-(IC3-VSET)*%
X244520000Y-61975000D02*
X244520000Y-64120000D01*
X244520000Y-64120000D02*
X244600000Y-64200000D01*
D44*
%TO.N,EN*%
X246700000Y-75625000D02*
X247075000Y-75250000D01*
D45*
X229848888Y-75276000D02*
X229264000Y-75276000D01*
D44*
X250012500Y-79287500D02*
X250812500Y-79287500D01*
X250812500Y-79287500D02*
X251675000Y-80150000D01*
D45*
X230448944Y-75876056D02*
X229848888Y-75276000D01*
D44*
X250012500Y-79287500D02*
X246700000Y-75975000D01*
X251675000Y-80150000D02*
X251675000Y-89325000D01*
X247075000Y-75250000D02*
X248075000Y-75250000D01*
X246700000Y-75975000D02*
X246700000Y-75625000D01*
D43*
%TO.N,Net-(IC4-SW)*%
X242488000Y-67026000D02*
X240025000Y-67026000D01*
X239124000Y-66125000D02*
X240025000Y-67026000D01*
X238075000Y-66125000D02*
X239124000Y-66125000D01*
D44*
%TO.N,Net-(IC5-IN)*%
X248675000Y-76725000D02*
X250575000Y-76725000D01*
X251000000Y-75250000D02*
X249375000Y-75250000D01*
X239400000Y-62625000D02*
X239425000Y-62600000D01*
X251225000Y-75475000D02*
X251000000Y-75250000D01*
X234625000Y-62625000D02*
X239400000Y-62625000D01*
X233775000Y-60950000D02*
X233775000Y-61775000D01*
X251225000Y-76075000D02*
X251225000Y-75475000D01*
X250575000Y-76725000D02*
X251225000Y-76075000D01*
X233775000Y-61775000D02*
X234625000Y-62625000D01*
%TO.N,Net-(IC5-OUT)*%
X251000000Y-74425000D02*
X250675000Y-74750000D01*
X250675000Y-74750000D02*
X249375000Y-74750000D01*
X251200000Y-56350000D02*
X251200000Y-57900000D01*
X251200000Y-57900000D02*
X252700000Y-59400000D01*
X256725000Y-59330000D02*
X256725000Y-62025000D01*
X256725000Y-62025000D02*
X253325000Y-65425000D01*
X251000000Y-72950000D02*
X251000000Y-74425000D01*
X252700000Y-59400000D02*
X256655000Y-59400000D01*
X256655000Y-59400000D02*
X256725000Y-59330000D01*
%TO.N,Net-(JP1-B)*%
X235775000Y-59957000D02*
X235775000Y-60950000D01*
X234791000Y-58156000D02*
X234791000Y-58973000D01*
X234750000Y-52475000D02*
X234750000Y-58115000D01*
X234791000Y-58973000D02*
X235775000Y-59957000D01*
X234750000Y-58115000D02*
X234791000Y-58156000D01*
D43*
%TO.N,Net-(L1-Pad2)*%
X218350000Y-80875000D02*
X218250000Y-80775000D01*
X218350000Y-82350000D02*
X218350000Y-80875000D01*
%TO.N,SCL_MCU*%
X212350000Y-65975000D02*
X216950000Y-65975000D01*
X209337500Y-61775000D02*
X209337500Y-62962500D01*
X209337500Y-62962500D02*
X212350000Y-65975000D01*
D44*
X209275000Y-61712500D02*
X209337500Y-61775000D01*
D43*
X216950000Y-65975000D02*
X218225000Y-67250000D01*
X219838288Y-72475000D02*
X223363000Y-72475000D01*
X218225000Y-70861712D02*
X219838288Y-72475000D01*
D44*
X211475000Y-61800000D02*
X209362500Y-61800000D01*
X209362500Y-61800000D02*
X209337500Y-61775000D01*
D43*
X223363000Y-72475000D02*
X223364000Y-72476000D01*
X218225000Y-67250000D02*
X218225000Y-70861712D01*
D44*
X209275000Y-57275000D02*
X209275000Y-61712500D01*
D43*
%TO.N,SDA_MCU*%
X213276000Y-72876000D02*
X212637500Y-72237500D01*
X223364000Y-72876000D02*
X213276000Y-72876000D01*
D44*
X215300000Y-74900000D02*
X215750000Y-74900000D01*
D43*
X212637500Y-72237500D02*
X211512500Y-71112500D01*
D44*
X211512500Y-68225000D02*
X209387500Y-68225000D01*
D43*
X211512500Y-71112500D02*
X211512500Y-68225000D01*
D44*
X212637500Y-72237500D02*
X215300000Y-74900000D01*
X209387500Y-68225000D02*
X209362500Y-68250000D01*
%TO.N,SDA_Sens*%
X210020000Y-65720000D02*
X211575000Y-67275000D01*
D45*
X230740000Y-73298000D02*
X230632000Y-73406000D01*
D44*
X213462500Y-67200000D02*
X213387500Y-67275000D01*
X215687500Y-67200000D02*
X213462500Y-67200000D01*
D45*
X217425000Y-68150000D02*
X216475000Y-67200000D01*
X216475000Y-67200000D02*
X215687500Y-67200000D01*
D44*
X209200000Y-65720000D02*
X210020000Y-65720000D01*
D45*
X231471500Y-73298000D02*
X230740000Y-73298000D01*
D44*
X205880000Y-65740000D02*
X209180000Y-65740000D01*
X209180000Y-65740000D02*
X209200000Y-65720000D01*
X211575000Y-67275000D02*
X213387500Y-67275000D01*
D45*
%TO.N,SCL_Sens*%
X230486000Y-72498000D02*
X230378000Y-72390000D01*
D43*
X215662500Y-60825000D02*
X216700000Y-60825000D01*
D44*
X215662500Y-60825000D02*
X213375000Y-60825000D01*
X213375000Y-60825000D02*
X213350000Y-60850000D01*
X215662500Y-60825000D02*
X215662500Y-54837500D01*
D43*
X221000000Y-65125000D02*
X221000000Y-66775000D01*
D45*
X231471500Y-72498000D02*
X230486000Y-72498000D01*
D43*
X216700000Y-60825000D02*
X221000000Y-65125000D01*
D44*
X215662500Y-54837500D02*
X214150000Y-53325000D01*
D45*
%TO.N,+3.3V*%
X207337500Y-61775000D02*
X207362500Y-61800000D01*
D43*
X203800000Y-67000000D02*
X205050000Y-68250000D01*
X207362500Y-61800000D02*
X205180000Y-61800000D01*
X205050000Y-68250000D02*
X207362500Y-68250000D01*
X203800000Y-63180000D02*
X203800000Y-67000000D01*
X205180000Y-61800000D02*
X203800000Y-63180000D01*
%TD*%
%TA.AperFunction,Conductor*%
%TO.N,GND*%
G36*
X247789800Y-78873669D02*
G01*
X247842546Y-78904965D01*
X249505370Y-80567789D01*
X249529609Y-80602086D01*
X249541010Y-80642508D01*
X249558326Y-80807257D01*
X249616820Y-80987284D01*
X249711466Y-81151216D01*
X249838129Y-81291889D01*
X249991269Y-81403151D01*
X250164197Y-81480144D01*
X250349352Y-81519500D01*
X250349354Y-81519500D01*
X250538646Y-81519500D01*
X250538648Y-81519500D01*
X250687370Y-81487888D01*
X250723803Y-81480144D01*
X250790955Y-81450245D01*
X250875064Y-81412798D01*
X250935228Y-81402459D01*
X250993035Y-81422082D01*
X251034473Y-81466909D01*
X251049500Y-81526077D01*
X251049500Y-84831663D01*
X251035985Y-84887958D01*
X250998385Y-84931981D01*
X250944898Y-84954136D01*
X250887182Y-84949594D01*
X250837819Y-84919344D01*
X250731880Y-84813405D01*
X250731877Y-84813402D01*
X250552639Y-84687898D01*
X250380324Y-84607546D01*
X250354331Y-84595425D01*
X250142974Y-84538792D01*
X249925000Y-84519722D01*
X249707025Y-84538792D01*
X249495668Y-84595425D01*
X249297361Y-84687898D01*
X249118122Y-84813402D01*
X248963402Y-84968122D01*
X248837898Y-85147361D01*
X248745425Y-85345668D01*
X248688792Y-85557025D01*
X248669722Y-85774999D01*
X248688792Y-85992975D01*
X248703788Y-86048940D01*
X248703788Y-86113127D01*
X248671694Y-86168714D01*
X247577228Y-87263181D01*
X247537000Y-87290061D01*
X247489547Y-87299500D01*
X243279019Y-87299500D01*
X241385452Y-87299500D01*
X241337999Y-87290061D01*
X241297771Y-87263181D01*
X240736819Y-86702228D01*
X240709939Y-86662000D01*
X240700500Y-86614547D01*
X240700500Y-86373164D01*
X240719238Y-86307621D01*
X240769789Y-86261887D01*
X240836875Y-86249783D01*
X240900220Y-86274968D01*
X240940682Y-86329831D01*
X240943908Y-86338482D01*
X240943909Y-86338483D01*
X240994204Y-86473331D01*
X241080454Y-86588546D01*
X241195669Y-86674796D01*
X241330517Y-86725091D01*
X241390127Y-86731500D01*
X242225872Y-86731499D01*
X242285483Y-86725091D01*
X242400386Y-86682234D01*
X242443714Y-86674418D01*
X242487048Y-86682236D01*
X242600624Y-86724597D01*
X242660176Y-86731000D01*
X242828000Y-86731000D01*
X242828000Y-85086000D01*
X243328000Y-85086000D01*
X243328000Y-86731000D01*
X243495824Y-86731000D01*
X243555375Y-86724597D01*
X243669666Y-86681969D01*
X243713000Y-86674151D01*
X243756334Y-86681969D01*
X243870624Y-86724597D01*
X243930176Y-86731000D01*
X244098000Y-86731000D01*
X244098000Y-85086000D01*
X243328000Y-85086000D01*
X242828000Y-85086000D01*
X242828000Y-84710000D01*
X242844613Y-84648000D01*
X242890000Y-84602613D01*
X242952000Y-84586000D01*
X244474000Y-84586000D01*
X244536000Y-84602613D01*
X244581387Y-84648000D01*
X244598000Y-84710000D01*
X244598000Y-86731000D01*
X244765824Y-86731000D01*
X244825375Y-86724597D01*
X244938951Y-86682236D01*
X244982285Y-86674418D01*
X245025614Y-86682235D01*
X245140517Y-86725091D01*
X245200127Y-86731500D01*
X246035872Y-86731499D01*
X246095483Y-86725091D01*
X246210386Y-86682234D01*
X246253714Y-86674418D01*
X246297048Y-86682236D01*
X246410624Y-86724597D01*
X246470176Y-86731000D01*
X246638000Y-86731000D01*
X246638000Y-85086000D01*
X247138000Y-85086000D01*
X247138000Y-86731000D01*
X247305824Y-86731000D01*
X247365375Y-86724597D01*
X247500089Y-86674352D01*
X247615188Y-86588188D01*
X247701352Y-86473089D01*
X247751597Y-86338375D01*
X247758000Y-86278824D01*
X247758000Y-85086000D01*
X247138000Y-85086000D01*
X246638000Y-85086000D01*
X246638000Y-82941000D01*
X247138000Y-82941000D01*
X247138000Y-84586000D01*
X247758000Y-84586000D01*
X247758000Y-83393176D01*
X247751597Y-83333624D01*
X247701352Y-83198910D01*
X247615188Y-83083811D01*
X247500089Y-82997647D01*
X247365375Y-82947402D01*
X247305824Y-82941000D01*
X247138000Y-82941000D01*
X246638000Y-82941000D01*
X246470176Y-82941000D01*
X246410622Y-82947402D01*
X246297047Y-82989763D01*
X246253714Y-82997581D01*
X246210381Y-82989763D01*
X246095485Y-82946909D01*
X246075613Y-82944772D01*
X246035873Y-82940500D01*
X246035869Y-82940500D01*
X245200130Y-82940500D01*
X245140515Y-82946909D01*
X245025618Y-82989763D01*
X244982285Y-82997581D01*
X244938952Y-82989763D01*
X244852944Y-82957684D01*
X244802563Y-82922704D01*
X244775110Y-82867857D01*
X244777301Y-82806562D01*
X244808597Y-82753821D01*
X244819623Y-82742796D01*
X244822100Y-82739601D01*
X244829681Y-82730724D01*
X244859693Y-82698767D01*
X244869392Y-82681122D01*
X244880071Y-82664865D01*
X244888515Y-82653980D01*
X244928312Y-82620480D01*
X244978351Y-82606253D01*
X245029819Y-82613803D01*
X245140517Y-82655091D01*
X245200127Y-82661500D01*
X246035872Y-82661499D01*
X246095483Y-82655091D01*
X246209669Y-82612502D01*
X246252999Y-82604685D01*
X246296332Y-82612503D01*
X246410514Y-82655090D01*
X246410517Y-82655091D01*
X246470127Y-82661500D01*
X247305872Y-82661499D01*
X247365483Y-82655091D01*
X247500331Y-82604796D01*
X247615546Y-82518546D01*
X247701796Y-82403331D01*
X247752091Y-82268483D01*
X247758500Y-82208873D01*
X247758499Y-79323128D01*
X247752091Y-79263517D01*
X247701796Y-79128669D01*
X247655597Y-79066955D01*
X247632127Y-79010293D01*
X247638683Y-78949313D01*
X247673662Y-78898933D01*
X247728507Y-78871480D01*
X247789800Y-78873669D01*
G37*
%TD.AperFunction*%
%TA.AperFunction,Conductor*%
G36*
X240819818Y-72676350D02*
G01*
X240869181Y-72706600D01*
X241144181Y-72981600D01*
X241171061Y-73021828D01*
X241180500Y-73069281D01*
X241180500Y-78876490D01*
X241167384Y-78931994D01*
X241130811Y-78975757D01*
X241080454Y-79013453D01*
X240994204Y-79128668D01*
X240943909Y-79263515D01*
X240943909Y-79263517D01*
X240938701Y-79311963D01*
X240937500Y-79323131D01*
X240937500Y-81254719D01*
X240923985Y-81311014D01*
X240886385Y-81355037D01*
X240832898Y-81377192D01*
X240775182Y-81372650D01*
X240725819Y-81342400D01*
X240693819Y-81310400D01*
X240666939Y-81270172D01*
X240657500Y-81222719D01*
X240657500Y-72794281D01*
X240671015Y-72737986D01*
X240708615Y-72693963D01*
X240762102Y-72671808D01*
X240819818Y-72676350D01*
G37*
%TD.AperFunction*%
%TA.AperFunction,Conductor*%
G36*
X242597818Y-73679350D02*
G01*
X242647181Y-73709600D01*
X245295400Y-76357819D01*
X245325650Y-76407182D01*
X245330192Y-76464898D01*
X245308037Y-76518385D01*
X245264014Y-76555985D01*
X245207719Y-76569500D01*
X245015352Y-76569500D01*
X244830197Y-76608855D01*
X244657269Y-76685848D01*
X244504129Y-76797110D01*
X244377466Y-76937783D01*
X244282820Y-77101715D01*
X244224326Y-77281742D01*
X244204540Y-77470000D01*
X244224326Y-77658257D01*
X244282820Y-77838284D01*
X244377466Y-78002216D01*
X244504129Y-78142889D01*
X244657269Y-78254151D01*
X244830197Y-78331144D01*
X245015352Y-78370500D01*
X245015354Y-78370500D01*
X245204646Y-78370500D01*
X245204648Y-78370500D01*
X245328083Y-78344262D01*
X245389803Y-78331144D01*
X245562730Y-78254151D01*
X245566244Y-78251597D01*
X245619731Y-78229440D01*
X245677449Y-78233982D01*
X245726813Y-78264232D01*
X246121400Y-78658819D01*
X246151650Y-78708182D01*
X246156192Y-78765898D01*
X246134037Y-78819385D01*
X246090014Y-78856985D01*
X246033719Y-78870500D01*
X245200130Y-78870500D01*
X245140515Y-78876909D01*
X245068657Y-78903711D01*
X245045522Y-78912340D01*
X245026333Y-78919497D01*
X244983000Y-78927315D01*
X244939668Y-78919497D01*
X244825483Y-78876909D01*
X244765873Y-78870500D01*
X244765869Y-78870500D01*
X243930130Y-78870500D01*
X243870515Y-78876909D01*
X243798657Y-78903711D01*
X243775522Y-78912340D01*
X243756333Y-78919497D01*
X243713000Y-78927315D01*
X243669668Y-78919497D01*
X243555483Y-78876909D01*
X243495873Y-78870500D01*
X243495869Y-78870500D01*
X242660130Y-78870500D01*
X242585030Y-78878574D01*
X242584981Y-78878125D01*
X242544046Y-78882896D01*
X242488780Y-78861719D01*
X242449624Y-78817338D01*
X242435500Y-78759863D01*
X242435500Y-73797281D01*
X242449015Y-73740986D01*
X242486615Y-73696963D01*
X242540102Y-73674808D01*
X242597818Y-73679350D01*
G37*
%TD.AperFunction*%
%TA.AperFunction,Conductor*%
G36*
X233139818Y-75721350D02*
G01*
X233189181Y-75751600D01*
X233936181Y-76498600D01*
X233963061Y-76538828D01*
X233972500Y-76586281D01*
X233972500Y-76603325D01*
X233958903Y-76659780D01*
X233921093Y-76703855D01*
X233867363Y-76725882D01*
X233809496Y-76721031D01*
X233777696Y-76710493D01*
X233674979Y-76700000D01*
X233537500Y-76700000D01*
X233537500Y-78051000D01*
X233520887Y-78113000D01*
X233475500Y-78158387D01*
X233413500Y-78175000D01*
X233161500Y-78175000D01*
X233099500Y-78158387D01*
X233054113Y-78113000D01*
X233037500Y-78051000D01*
X233037500Y-76700001D01*
X233013819Y-76676320D01*
X232986939Y-76636092D01*
X232977500Y-76588639D01*
X232977500Y-75839281D01*
X232991015Y-75782986D01*
X233028615Y-75738963D01*
X233082102Y-75716808D01*
X233139818Y-75721350D01*
G37*
%TD.AperFunction*%
%TA.AperFunction,Conductor*%
G36*
X235424470Y-73303887D02*
G01*
X235459083Y-73340503D01*
X235507289Y-73418658D01*
X235631342Y-73542711D01*
X235665596Y-73563839D01*
X235708777Y-73608946D01*
X235724500Y-73669378D01*
X235724500Y-75639547D01*
X235715061Y-75687000D01*
X235688183Y-75727225D01*
X235445604Y-75969804D01*
X235371966Y-76043442D01*
X235324451Y-76073075D01*
X235268744Y-76078782D01*
X235216207Y-76059401D01*
X235177554Y-76018882D01*
X235170224Y-76006488D01*
X235161661Y-75989009D01*
X235154253Y-75970297D01*
X235128489Y-75934837D01*
X235122074Y-75925070D01*
X235099763Y-75887344D01*
X235085530Y-75873111D01*
X235072893Y-75858316D01*
X235061063Y-75842033D01*
X235061060Y-75842031D01*
X235061060Y-75842030D01*
X235027287Y-75814090D01*
X235018647Y-75806228D01*
X234153640Y-74941221D01*
X234121545Y-74885629D01*
X234121547Y-74849362D01*
X234121500Y-74849362D01*
X234121500Y-74298000D01*
X234521500Y-74298000D01*
X234521500Y-74798000D01*
X234594324Y-74798000D01*
X234653875Y-74791597D01*
X234788589Y-74741352D01*
X234903688Y-74655188D01*
X234989852Y-74540089D01*
X235040097Y-74405375D01*
X235046500Y-74345824D01*
X235046500Y-74298000D01*
X234521500Y-74298000D01*
X234121500Y-74298000D01*
X234121500Y-74122500D01*
X234138113Y-74060500D01*
X234183500Y-74015113D01*
X234245500Y-73998500D01*
X234594363Y-73998499D01*
X234594372Y-73998499D01*
X234653983Y-73992091D01*
X234788831Y-73941796D01*
X234814297Y-73922731D01*
X234849447Y-73904346D01*
X234888606Y-73898000D01*
X235046500Y-73898000D01*
X235046500Y-73850176D01*
X235040097Y-73790622D01*
X235021980Y-73742049D01*
X235014161Y-73698714D01*
X235021978Y-73655385D01*
X235040591Y-73605483D01*
X235047000Y-73545873D01*
X235046999Y-73414499D01*
X235063612Y-73352501D01*
X235108999Y-73307113D01*
X235170999Y-73290500D01*
X235298642Y-73290500D01*
X235298646Y-73290500D01*
X235327767Y-73284309D01*
X235378145Y-73284065D01*
X235424470Y-73303887D01*
G37*
%TD.AperFunction*%
%TA.AperFunction,Conductor*%
G36*
X216939669Y-61972296D02*
G01*
X216990636Y-62003055D01*
X220336181Y-65348600D01*
X220363061Y-65388828D01*
X220372500Y-65436281D01*
X220372500Y-66078534D01*
X220364264Y-66122972D01*
X220340651Y-66161503D01*
X220323465Y-66180592D01*
X220267464Y-66242786D01*
X220172820Y-66406715D01*
X220114326Y-66586742D01*
X220096022Y-66760902D01*
X220094540Y-66775000D01*
X220101439Y-66840638D01*
X220114326Y-66963257D01*
X220172820Y-67143284D01*
X220267466Y-67307216D01*
X220394129Y-67447889D01*
X220547269Y-67559151D01*
X220720197Y-67636144D01*
X220905352Y-67675500D01*
X220905354Y-67675500D01*
X221094646Y-67675500D01*
X221094648Y-67675500D01*
X221218083Y-67649262D01*
X221279803Y-67636144D01*
X221452730Y-67559151D01*
X221534021Y-67500090D01*
X221605870Y-67447889D01*
X221626480Y-67425000D01*
X221732533Y-67307216D01*
X221827179Y-67143284D01*
X221885674Y-66963256D01*
X221905460Y-66775000D01*
X221905459Y-66774998D01*
X221906822Y-66762039D01*
X221908529Y-66762218D01*
X221914504Y-66720240D01*
X221950272Y-66671549D01*
X222004803Y-66645539D01*
X222065152Y-66648385D01*
X222116993Y-66679412D01*
X222139471Y-66701890D01*
X222152107Y-66716685D01*
X222163937Y-66732967D01*
X222188308Y-66753128D01*
X222197705Y-66760902D01*
X222206346Y-66768765D01*
X222547624Y-67110043D01*
X222564640Y-67131282D01*
X222571054Y-67141389D01*
X222569103Y-67142626D01*
X222593306Y-67183685D01*
X222590819Y-67253178D01*
X222559000Y-67349200D01*
X222548500Y-67451990D01*
X222548500Y-68227008D01*
X222559000Y-68329796D01*
X222614186Y-68496334D01*
X222670908Y-68588296D01*
X222689231Y-68647534D01*
X222676581Y-68708237D01*
X222636122Y-68755225D01*
X222577971Y-68776750D01*
X222497203Y-68785000D01*
X222330665Y-68840186D01*
X222181342Y-68932288D01*
X222057286Y-69056344D01*
X222055242Y-69059659D01*
X222010135Y-69102837D01*
X221949704Y-69118558D01*
X221889274Y-69102835D01*
X221844168Y-69059656D01*
X221842316Y-69056654D01*
X221718345Y-68932683D01*
X221569122Y-68840642D01*
X221402696Y-68785493D01*
X221299979Y-68775000D01*
X221162500Y-68775000D01*
X221162500Y-70126000D01*
X221145887Y-70188000D01*
X221100500Y-70233387D01*
X221038500Y-70250000D01*
X219825001Y-70250000D01*
X219825001Y-70524979D01*
X219835493Y-70627695D01*
X219879436Y-70760305D01*
X219882162Y-70828840D01*
X219848041Y-70888340D01*
X219787512Y-70920599D01*
X219757593Y-70926958D01*
X219584669Y-71003949D01*
X219479207Y-71080572D01*
X219425719Y-71102726D01*
X219368004Y-71098184D01*
X219318641Y-71067934D01*
X218888819Y-70638112D01*
X218861939Y-70597884D01*
X218852500Y-70550431D01*
X218852500Y-69750000D01*
X219825000Y-69750000D01*
X220662500Y-69750000D01*
X220662500Y-68775001D01*
X220525021Y-68775001D01*
X220422304Y-68785493D01*
X220255877Y-68840642D01*
X220106654Y-68932683D01*
X219982683Y-69056654D01*
X219890642Y-69205877D01*
X219835493Y-69372303D01*
X219825000Y-69475021D01*
X219825000Y-69750000D01*
X218852500Y-69750000D01*
X218852500Y-67332966D01*
X218854770Y-67312403D01*
X218854528Y-67304705D01*
X218852561Y-67242095D01*
X218852500Y-67238200D01*
X218852500Y-67210525D01*
X218851993Y-67206513D01*
X218851076Y-67194861D01*
X218850473Y-67175677D01*
X218849700Y-67151057D01*
X218844082Y-67131723D01*
X218840139Y-67112682D01*
X218837616Y-67092707D01*
X218821480Y-67051953D01*
X218817697Y-67040904D01*
X218816012Y-67035103D01*
X218805468Y-66998809D01*
X218795222Y-66981485D01*
X218786661Y-66964009D01*
X218779253Y-66945297D01*
X218767225Y-66928742D01*
X218753485Y-66909832D01*
X218747074Y-66900070D01*
X218724763Y-66862344D01*
X218710530Y-66848111D01*
X218697893Y-66833316D01*
X218686063Y-66817033D01*
X218686060Y-66817031D01*
X218686060Y-66817030D01*
X218652287Y-66789090D01*
X218643647Y-66781228D01*
X217452375Y-65589956D01*
X217439439Y-65573809D01*
X217388153Y-65525648D01*
X217385354Y-65522935D01*
X217365795Y-65503375D01*
X217362606Y-65500902D01*
X217353716Y-65493310D01*
X217353386Y-65493000D01*
X217321767Y-65463307D01*
X217310746Y-65457248D01*
X217304120Y-65453605D01*
X217287858Y-65442922D01*
X217271963Y-65430592D01*
X217231736Y-65413184D01*
X217221248Y-65408046D01*
X217182831Y-65386926D01*
X217163337Y-65381921D01*
X217144933Y-65375620D01*
X217126458Y-65367625D01*
X217083171Y-65360769D01*
X217071736Y-65358401D01*
X217029274Y-65347500D01*
X217029272Y-65347500D01*
X217009142Y-65347500D01*
X216989743Y-65345973D01*
X216969868Y-65342825D01*
X216969867Y-65342825D01*
X216965012Y-65343284D01*
X216926230Y-65346950D01*
X216914561Y-65347500D01*
X216696480Y-65347500D01*
X216640185Y-65333985D01*
X216596161Y-65296385D01*
X216574006Y-65242897D01*
X216578548Y-65185185D01*
X216585674Y-65163256D01*
X216605460Y-64975000D01*
X216585674Y-64786744D01*
X216538269Y-64640848D01*
X216527179Y-64606715D01*
X216432533Y-64442783D01*
X216305871Y-64302112D01*
X216301614Y-64299019D01*
X216264015Y-64254995D01*
X216250500Y-64198701D01*
X216250500Y-64009443D01*
X216261123Y-63959228D01*
X216291171Y-63917616D01*
X216335494Y-63891737D01*
X216431834Y-63859814D01*
X216581156Y-63767712D01*
X216705212Y-63643656D01*
X216797314Y-63494334D01*
X216852499Y-63327797D01*
X216863000Y-63225009D01*
X216862999Y-62424992D01*
X216861645Y-62411742D01*
X216852499Y-62322203D01*
X216843838Y-62296066D01*
X216797314Y-62155666D01*
X216797313Y-62155664D01*
X216792755Y-62141909D01*
X216792933Y-62141849D01*
X216779241Y-62099146D01*
X216789578Y-62040521D01*
X216826046Y-61993469D01*
X216880239Y-61968834D01*
X216939669Y-61972296D01*
G37*
%TD.AperFunction*%
%TA.AperFunction,Conductor*%
G36*
X235347172Y-66422939D02*
G01*
X235387400Y-66449819D01*
X237548400Y-68610819D01*
X237578650Y-68660182D01*
X237583192Y-68717898D01*
X237561037Y-68771385D01*
X237517014Y-68808985D01*
X237460719Y-68822500D01*
X234317940Y-68822500D01*
X234255161Y-68805434D01*
X234209663Y-68758932D01*
X234193969Y-68695796D01*
X234212401Y-68633404D01*
X234275769Y-68530666D01*
X234306814Y-68480334D01*
X234361999Y-68313797D01*
X234372500Y-68211009D01*
X234372499Y-67460992D01*
X234371579Y-67451990D01*
X234361999Y-67358203D01*
X234350820Y-67324466D01*
X234306814Y-67191666D01*
X234219480Y-67050074D01*
X234214711Y-67042342D01*
X234090655Y-66918286D01*
X234087816Y-66916535D01*
X234044637Y-66871426D01*
X234028917Y-66810993D01*
X234044643Y-66750562D01*
X234087824Y-66705458D01*
X234090656Y-66703712D01*
X234214712Y-66579656D01*
X234280865Y-66472403D01*
X234325973Y-66429223D01*
X234386405Y-66413500D01*
X235299719Y-66413500D01*
X235347172Y-66422939D01*
G37*
%TD.AperFunction*%
%TA.AperFunction,Conductor*%
G36*
X223938000Y-60217112D02*
G01*
X223983387Y-60262499D01*
X224000000Y-60324499D01*
X224000000Y-61300000D01*
X224150500Y-61300000D01*
X224212500Y-61316613D01*
X224257887Y-61362000D01*
X224274500Y-61424000D01*
X224274500Y-62667273D01*
X224272500Y-62683104D01*
X224272500Y-64553000D01*
X224255887Y-64615000D01*
X224210500Y-64660387D01*
X224148500Y-64677000D01*
X224024000Y-64677000D01*
X224024000Y-65514500D01*
X224148500Y-65514500D01*
X224210500Y-65531113D01*
X224255887Y-65576500D01*
X224272500Y-65638500D01*
X224272500Y-65890500D01*
X224255887Y-65952500D01*
X224210500Y-65997887D01*
X224148500Y-66014500D01*
X223648000Y-66014500D01*
X223586000Y-65997887D01*
X223540613Y-65952500D01*
X223524000Y-65890500D01*
X223524000Y-64677001D01*
X223376500Y-64677001D01*
X223314500Y-64660388D01*
X223269113Y-64615001D01*
X223252500Y-64553001D01*
X223252500Y-64110524D01*
X223251478Y-64102435D01*
X223250500Y-64086892D01*
X223250500Y-63757744D01*
X223252764Y-63737236D01*
X223252379Y-63724992D01*
X223250561Y-63667113D01*
X223250500Y-63663219D01*
X223250500Y-63635654D01*
X223250500Y-63635650D01*
X223249997Y-63631670D01*
X223249081Y-63620028D01*
X223247710Y-63576373D01*
X223242118Y-63557126D01*
X223238174Y-63538085D01*
X223235664Y-63518208D01*
X223219579Y-63477583D01*
X223215808Y-63466568D01*
X223203618Y-63424610D01*
X223193414Y-63407355D01*
X223184861Y-63389895D01*
X223180238Y-63378219D01*
X223177486Y-63371268D01*
X223151808Y-63335925D01*
X223145401Y-63326171D01*
X223123170Y-63288580D01*
X223109005Y-63274415D01*
X223096374Y-63259627D01*
X223084594Y-63243413D01*
X223084591Y-63243411D01*
X223084591Y-63243410D01*
X223050941Y-63215573D01*
X223042300Y-63207710D01*
X223011819Y-63177229D01*
X222984939Y-63137001D01*
X222975500Y-63089548D01*
X222975500Y-61391209D01*
X222989624Y-61333734D01*
X223028780Y-61289353D01*
X223084047Y-61268176D01*
X223142834Y-61275027D01*
X223192624Y-61293597D01*
X223252176Y-61300000D01*
X223500000Y-61300000D01*
X223500000Y-60324499D01*
X223516613Y-60262499D01*
X223562000Y-60217112D01*
X223624000Y-60200499D01*
X223876000Y-60200499D01*
X223938000Y-60217112D01*
G37*
%TD.AperFunction*%
%TA.AperFunction,Conductor*%
G36*
X260021553Y-46949945D02*
G01*
X260083531Y-46966575D01*
X260128896Y-47011960D01*
X260145500Y-47073945D01*
X260145500Y-91061500D01*
X260128887Y-91123500D01*
X260083500Y-91168887D01*
X260021500Y-91185500D01*
X226118500Y-91185500D01*
X201598946Y-91175052D01*
X201536969Y-91158423D01*
X201491604Y-91113038D01*
X201475000Y-91051053D01*
X201475000Y-86900000D01*
X205909551Y-86900000D01*
X205929317Y-87151149D01*
X205988126Y-87396110D01*
X206033149Y-87504805D01*
X206084534Y-87628859D01*
X206216164Y-87843659D01*
X206379776Y-88035224D01*
X206571341Y-88198836D01*
X206786141Y-88330466D01*
X207018889Y-88426873D01*
X207263852Y-88485683D01*
X207515000Y-88505449D01*
X207766148Y-88485683D01*
X208011111Y-88426873D01*
X208243859Y-88330466D01*
X208458659Y-88198836D01*
X208650224Y-88035224D01*
X208813836Y-87843659D01*
X208922196Y-87666831D01*
X208968793Y-87622628D01*
X209031254Y-87607667D01*
X209092821Y-87625961D01*
X209136977Y-87672604D01*
X209160803Y-87716630D01*
X209164526Y-87723509D01*
X209317262Y-87919744D01*
X209500215Y-88088164D01*
X209708393Y-88224173D01*
X209936119Y-88324063D01*
X210177179Y-88385108D01*
X210251480Y-88391264D01*
X210362927Y-88400500D01*
X210362933Y-88400500D01*
X210987067Y-88400500D01*
X210987073Y-88400500D01*
X211088387Y-88392104D01*
X211172821Y-88385108D01*
X211413881Y-88324063D01*
X211641607Y-88224173D01*
X211849785Y-88088164D01*
X212032738Y-87919744D01*
X212185474Y-87723509D01*
X212303828Y-87504810D01*
X212384571Y-87269614D01*
X212425500Y-87024335D01*
X212425500Y-86775665D01*
X212384571Y-86530386D01*
X212303828Y-86295190D01*
X212185474Y-86076491D01*
X212185471Y-86076487D01*
X212185470Y-86076485D01*
X212032740Y-85880259D01*
X212032738Y-85880256D01*
X211849785Y-85711836D01*
X211641607Y-85575827D01*
X211641604Y-85575825D01*
X211516523Y-85520960D01*
X211413881Y-85475937D01*
X211172821Y-85414892D01*
X211172819Y-85414891D01*
X211172816Y-85414891D01*
X210987073Y-85399500D01*
X210987067Y-85399500D01*
X210362933Y-85399500D01*
X210362927Y-85399500D01*
X210177183Y-85414891D01*
X210177179Y-85414891D01*
X210177179Y-85414892D01*
X209936119Y-85475937D01*
X209936116Y-85475938D01*
X209936117Y-85475938D01*
X209708395Y-85575825D01*
X209580142Y-85659617D01*
X209500215Y-85711836D01*
X209396438Y-85807370D01*
X209317259Y-85880259D01*
X209164527Y-86076488D01*
X209136977Y-86127396D01*
X209092821Y-86174038D01*
X209031254Y-86192332D01*
X208968793Y-86177371D01*
X208922196Y-86133167D01*
X208850286Y-86015822D01*
X208813836Y-85956341D01*
X208650224Y-85764776D01*
X208458659Y-85601164D01*
X208243859Y-85469534D01*
X208111939Y-85414891D01*
X208011110Y-85373126D01*
X207766149Y-85314317D01*
X207515000Y-85294551D01*
X207263850Y-85314317D01*
X207018889Y-85373126D01*
X206786139Y-85469535D01*
X206571342Y-85601163D01*
X206379776Y-85764776D01*
X206216163Y-85956342D01*
X206107374Y-86133869D01*
X206084534Y-86171141D01*
X206080412Y-86181093D01*
X205988126Y-86403889D01*
X205929317Y-86648850D01*
X205909551Y-86900000D01*
X201475000Y-86900000D01*
X201475000Y-84297869D01*
X206064500Y-84297869D01*
X206070909Y-84357483D01*
X206121204Y-84492331D01*
X206207454Y-84607546D01*
X206322669Y-84693796D01*
X206457517Y-84744091D01*
X206517127Y-84750500D01*
X208512872Y-84750499D01*
X208572483Y-84744091D01*
X208707331Y-84693796D01*
X208822546Y-84607546D01*
X208908796Y-84492331D01*
X208959091Y-84357483D01*
X208965500Y-84297873D01*
X208965499Y-82302128D01*
X208959091Y-82242517D01*
X208908796Y-82107669D01*
X208822546Y-81992454D01*
X208707331Y-81906204D01*
X208572483Y-81855909D01*
X208512873Y-81849500D01*
X208512869Y-81849500D01*
X206517130Y-81849500D01*
X206457515Y-81855909D01*
X206322669Y-81906204D01*
X206207454Y-81992454D01*
X206121204Y-82107668D01*
X206070909Y-82242516D01*
X206064500Y-82302130D01*
X206064500Y-84297869D01*
X201475000Y-84297869D01*
X201475000Y-79700000D01*
X205909551Y-79700000D01*
X205917738Y-79804019D01*
X205929317Y-79951149D01*
X205988126Y-80196110D01*
X206020800Y-80274991D01*
X206084534Y-80428859D01*
X206216164Y-80643659D01*
X206379776Y-80835224D01*
X206571341Y-80998836D01*
X206786141Y-81130466D01*
X207018889Y-81226873D01*
X207263852Y-81285683D01*
X207515000Y-81305449D01*
X207766148Y-81285683D01*
X208011111Y-81226873D01*
X208243859Y-81130466D01*
X208458659Y-80998836D01*
X208650224Y-80835224D01*
X208813836Y-80643659D01*
X208922196Y-80466831D01*
X208968793Y-80422628D01*
X209031254Y-80407667D01*
X209092821Y-80425961D01*
X209136977Y-80472604D01*
X209164526Y-80523509D01*
X209317262Y-80719744D01*
X209500215Y-80888164D01*
X209708393Y-81024173D01*
X209708395Y-81024174D01*
X209730833Y-81034016D01*
X209936119Y-81124063D01*
X210177179Y-81185108D01*
X210251480Y-81191264D01*
X210362927Y-81200500D01*
X210362933Y-81200500D01*
X210987067Y-81200500D01*
X210987073Y-81200500D01*
X211088387Y-81192104D01*
X211172821Y-81185108D01*
X211413881Y-81124063D01*
X211641607Y-81024173D01*
X211849785Y-80888164D01*
X212032738Y-80719744D01*
X212185474Y-80523509D01*
X212303828Y-80304810D01*
X212384571Y-80069614D01*
X212425500Y-79824335D01*
X212425500Y-79575665D01*
X212384571Y-79330386D01*
X212303828Y-79095190D01*
X212185474Y-78876491D01*
X212185471Y-78876487D01*
X212185470Y-78876485D01*
X212049172Y-78701371D01*
X212032738Y-78680256D01*
X211849785Y-78511836D01*
X211641607Y-78375827D01*
X211641604Y-78375825D01*
X211498928Y-78313242D01*
X211468739Y-78300000D01*
X217100000Y-78300000D01*
X217937500Y-78300000D01*
X217937500Y-77325001D01*
X217800021Y-77325001D01*
X217697304Y-77335493D01*
X217530877Y-77390642D01*
X217381654Y-77482683D01*
X217257683Y-77606654D01*
X217165642Y-77755877D01*
X217110493Y-77922303D01*
X217100000Y-78025021D01*
X217100000Y-78300000D01*
X211468739Y-78300000D01*
X211413881Y-78275937D01*
X211172821Y-78214892D01*
X211172819Y-78214891D01*
X211172816Y-78214891D01*
X210987073Y-78199500D01*
X210987067Y-78199500D01*
X210362933Y-78199500D01*
X210362927Y-78199500D01*
X210177183Y-78214891D01*
X210177179Y-78214891D01*
X210177179Y-78214892D01*
X209936119Y-78275937D01*
X209936116Y-78275938D01*
X209936117Y-78275938D01*
X209708395Y-78375825D01*
X209631052Y-78426356D01*
X209500215Y-78511836D01*
X209321886Y-78676000D01*
X209317259Y-78680259D01*
X209164527Y-78876488D01*
X209136977Y-78927396D01*
X209092821Y-78974038D01*
X209031254Y-78992332D01*
X208968793Y-78977371D01*
X208922196Y-78933167D01*
X208860803Y-78832984D01*
X208813836Y-78756341D01*
X208650224Y-78564776D01*
X208458659Y-78401164D01*
X208243859Y-78269534D01*
X208111939Y-78214891D01*
X208011110Y-78173126D01*
X207766149Y-78114317D01*
X207515000Y-78094551D01*
X207263850Y-78114317D01*
X207018889Y-78173126D01*
X206786139Y-78269535D01*
X206571342Y-78401163D01*
X206379776Y-78564776D01*
X206216163Y-78756342D01*
X206101059Y-78944174D01*
X206084534Y-78971141D01*
X206075756Y-78992332D01*
X205988126Y-79203889D01*
X205929317Y-79448850D01*
X205912077Y-79667906D01*
X205909551Y-79700000D01*
X201475000Y-79700000D01*
X201475000Y-72900000D01*
X203769722Y-72900000D01*
X203788792Y-73117974D01*
X203845425Y-73329331D01*
X203885537Y-73415350D01*
X203937898Y-73527639D01*
X204063402Y-73706877D01*
X204218123Y-73861598D01*
X204397361Y-73987102D01*
X204595670Y-74079575D01*
X204807023Y-74136207D01*
X205025000Y-74155277D01*
X205242977Y-74136207D01*
X205454330Y-74079575D01*
X205652639Y-73987102D01*
X205831877Y-73861598D01*
X205986598Y-73706877D01*
X206076576Y-73578375D01*
X206120892Y-73539511D01*
X206178149Y-73525500D01*
X207067256Y-73525500D01*
X207087762Y-73527764D01*
X207090665Y-73527672D01*
X207090667Y-73527673D01*
X207157872Y-73525561D01*
X207161768Y-73525500D01*
X207189349Y-73525500D01*
X207189350Y-73525500D01*
X207193319Y-73524998D01*
X207204965Y-73524080D01*
X207248627Y-73522709D01*
X207267859Y-73517120D01*
X207286918Y-73513174D01*
X207293196Y-73512381D01*
X207306792Y-73510664D01*
X207347407Y-73494582D01*
X207358444Y-73490803D01*
X207400390Y-73478618D01*
X207417629Y-73468422D01*
X207435102Y-73459862D01*
X207453732Y-73452486D01*
X207489064Y-73426814D01*
X207498830Y-73420400D01*
X207536418Y-73398171D01*
X207536417Y-73398171D01*
X207536420Y-73398170D01*
X207550585Y-73384004D01*
X207565373Y-73371373D01*
X207581587Y-73359594D01*
X207609438Y-73325926D01*
X207617286Y-73317302D01*
X207622778Y-73311810D01*
X207663003Y-73284937D01*
X207710451Y-73275500D01*
X207769648Y-73275500D01*
X207893083Y-73249262D01*
X207954803Y-73236144D01*
X208127730Y-73159151D01*
X208170431Y-73128127D01*
X208280870Y-73047889D01*
X208315059Y-73009919D01*
X208407533Y-72907216D01*
X208502179Y-72743284D01*
X208560674Y-72563256D01*
X208580460Y-72375000D01*
X208560674Y-72186744D01*
X208502179Y-72006716D01*
X208502179Y-72006715D01*
X208407533Y-71842783D01*
X208280870Y-71702110D01*
X208127730Y-71590848D01*
X207954802Y-71513855D01*
X207769648Y-71474500D01*
X207769646Y-71474500D01*
X207580354Y-71474500D01*
X207580352Y-71474500D01*
X207395197Y-71513855D01*
X207222269Y-71590848D01*
X207069129Y-71702110D01*
X206942466Y-71842783D01*
X206847820Y-72006715D01*
X206788652Y-72188818D01*
X206762871Y-72233472D01*
X206721156Y-72263780D01*
X206670721Y-72274500D01*
X206178149Y-72274500D01*
X206120892Y-72260489D01*
X206076574Y-72221623D01*
X206059602Y-72197385D01*
X205986598Y-72093123D01*
X205831877Y-71938402D01*
X205652639Y-71812898D01*
X205537378Y-71759151D01*
X205454331Y-71720425D01*
X205242974Y-71663792D01*
X205025000Y-71644722D01*
X204807025Y-71663792D01*
X204595668Y-71720425D01*
X204397361Y-71812898D01*
X204218122Y-71938402D01*
X204063402Y-72093122D01*
X203937898Y-72272361D01*
X203845425Y-72470668D01*
X203788792Y-72682025D01*
X203769722Y-72900000D01*
X201475000Y-72900000D01*
X201475000Y-63160133D01*
X203167825Y-63160133D01*
X203168378Y-63165979D01*
X203171950Y-63203770D01*
X203172500Y-63215439D01*
X203172500Y-66917034D01*
X203170229Y-66937601D01*
X203172439Y-67007919D01*
X203172500Y-67011813D01*
X203172500Y-67039476D01*
X203173006Y-67043484D01*
X203173921Y-67055118D01*
X203175298Y-67098943D01*
X203180916Y-67118278D01*
X203184861Y-67137328D01*
X203187383Y-67157293D01*
X203203519Y-67198049D01*
X203207302Y-67209098D01*
X203219530Y-67251187D01*
X203219531Y-67251189D01*
X203219532Y-67251191D01*
X203229779Y-67268517D01*
X203238338Y-67285989D01*
X203245747Y-67304705D01*
X203271511Y-67340165D01*
X203277925Y-67349929D01*
X203282984Y-67358483D01*
X203300237Y-67387656D01*
X203314475Y-67401894D01*
X203327108Y-67416686D01*
X203333148Y-67425000D01*
X203338937Y-67432967D01*
X203356975Y-67447889D01*
X203372705Y-67460902D01*
X203381346Y-67468765D01*
X204547624Y-68635043D01*
X204560562Y-68651192D01*
X204611845Y-68699350D01*
X204614644Y-68702063D01*
X204634204Y-68721623D01*
X204637385Y-68724090D01*
X204646282Y-68731688D01*
X204678230Y-68761691D01*
X204678232Y-68761692D01*
X204678233Y-68761693D01*
X204695878Y-68771393D01*
X204712135Y-68782072D01*
X204728038Y-68794408D01*
X204768262Y-68811814D01*
X204778743Y-68816948D01*
X204817166Y-68838072D01*
X204830074Y-68841386D01*
X204836660Y-68843077D01*
X204855069Y-68849380D01*
X204867214Y-68854635D01*
X204873542Y-68857374D01*
X204916851Y-68864233D01*
X204928258Y-68866595D01*
X204970728Y-68877500D01*
X204990859Y-68877500D01*
X205010256Y-68879026D01*
X205030133Y-68882175D01*
X205070208Y-68878386D01*
X205073770Y-68878050D01*
X205085439Y-68877500D01*
X206191146Y-68877500D01*
X206241361Y-68888123D01*
X206282973Y-68918171D01*
X206308851Y-68962495D01*
X206315838Y-68983578D01*
X206327686Y-69019334D01*
X206419788Y-69168657D01*
X206543842Y-69292711D01*
X206600395Y-69327593D01*
X206693166Y-69384814D01*
X206804516Y-69421712D01*
X206859702Y-69439999D01*
X206870202Y-69441071D01*
X206962491Y-69450500D01*
X207762508Y-69450499D01*
X207865297Y-69439999D01*
X208031834Y-69384814D01*
X208181156Y-69292712D01*
X208274820Y-69199047D01*
X208330406Y-69166955D01*
X208394594Y-69166955D01*
X208450179Y-69199047D01*
X208543843Y-69292711D01*
X208543845Y-69292713D01*
X208618505Y-69338763D01*
X208693166Y-69384814D01*
X208804516Y-69421712D01*
X208859702Y-69439999D01*
X208870202Y-69441071D01*
X208962491Y-69450500D01*
X209762508Y-69450499D01*
X209865297Y-69439999D01*
X210031834Y-69384814D01*
X210181156Y-69292712D01*
X210305212Y-69168656D01*
X210397314Y-69019334D01*
X210404516Y-68997597D01*
X210432874Y-68950620D01*
X210478729Y-68920480D01*
X210533101Y-68913080D01*
X210585339Y-68929868D01*
X210664602Y-68976744D01*
X210664604Y-68976744D01*
X210664605Y-68976745D01*
X210795595Y-69014802D01*
X210842024Y-69040011D01*
X210873745Y-69082259D01*
X210885000Y-69133878D01*
X210885000Y-71029534D01*
X210882729Y-71050101D01*
X210884939Y-71120419D01*
X210885000Y-71124313D01*
X210885000Y-71151976D01*
X210885506Y-71155984D01*
X210886421Y-71167618D01*
X210887798Y-71211443D01*
X210893416Y-71230778D01*
X210897361Y-71249828D01*
X210899883Y-71269793D01*
X210916019Y-71310549D01*
X210919802Y-71321598D01*
X210932030Y-71363687D01*
X210932031Y-71363689D01*
X210932032Y-71363691D01*
X210942279Y-71381017D01*
X210950838Y-71398489D01*
X210958247Y-71417205D01*
X210984011Y-71452665D01*
X210990425Y-71462429D01*
X211012737Y-71500156D01*
X211026975Y-71514394D01*
X211039608Y-71529186D01*
X211051436Y-71545466D01*
X211085205Y-71573402D01*
X211093846Y-71581265D01*
X212773624Y-73261043D01*
X212786562Y-73277192D01*
X212837845Y-73325350D01*
X212840643Y-73328062D01*
X212860204Y-73347623D01*
X212863385Y-73350090D01*
X212872283Y-73357689D01*
X212884275Y-73368951D01*
X212887069Y-73371659D01*
X214470413Y-74955003D01*
X214495114Y-74990280D01*
X214506260Y-75031877D01*
X214513792Y-75117974D01*
X214570425Y-75329331D01*
X214597084Y-75386500D01*
X214662898Y-75527639D01*
X214788402Y-75706877D01*
X214943123Y-75861598D01*
X215122361Y-75987102D01*
X215320670Y-76079575D01*
X215532023Y-76136207D01*
X215677341Y-76148920D01*
X215749999Y-76155277D01*
X215749999Y-76155276D01*
X215750000Y-76155277D01*
X215967977Y-76136207D01*
X216179330Y-76079575D01*
X216377639Y-75987102D01*
X216556877Y-75861598D01*
X216711598Y-75706877D01*
X216837102Y-75527639D01*
X216929575Y-75329330D01*
X216986207Y-75117977D01*
X217005277Y-74900000D01*
X216986207Y-74682023D01*
X216929575Y-74470670D01*
X216837102Y-74272362D01*
X216711598Y-74093123D01*
X216556877Y-73938402D01*
X216377639Y-73812898D01*
X216225703Y-73742049D01*
X216221056Y-73739882D01*
X216170660Y-73696840D01*
X216149631Y-73633990D01*
X216163976Y-73569285D01*
X216209596Y-73521211D01*
X216273461Y-73503500D01*
X222314500Y-73503500D01*
X222376500Y-73520113D01*
X222421887Y-73565500D01*
X222438500Y-73627499D01*
X222438500Y-73823871D01*
X222442679Y-73862746D01*
X222442679Y-73889249D01*
X222438500Y-73928127D01*
X222438500Y-74223871D01*
X222442679Y-74262746D01*
X222442679Y-74289249D01*
X222438500Y-74328127D01*
X222438500Y-74623871D01*
X222442679Y-74662746D01*
X222442679Y-74689249D01*
X222438500Y-74728127D01*
X222438500Y-75023871D01*
X222442679Y-75062746D01*
X222442679Y-75089249D01*
X222439591Y-75117974D01*
X222438500Y-75128127D01*
X222438500Y-75274590D01*
X222438501Y-75324499D01*
X222421888Y-75386500D01*
X222376501Y-75431887D01*
X222314501Y-75448500D01*
X222306966Y-75448500D01*
X222286398Y-75446229D01*
X222216081Y-75448439D01*
X222212187Y-75448500D01*
X222184524Y-75448500D01*
X222180515Y-75449006D01*
X222168883Y-75449921D01*
X222125056Y-75451298D01*
X222105717Y-75456917D01*
X222086667Y-75460862D01*
X222066707Y-75463383D01*
X222025951Y-75479519D01*
X222014905Y-75483301D01*
X221972806Y-75495532D01*
X221955480Y-75505779D01*
X221938012Y-75514336D01*
X221919295Y-75521746D01*
X221883825Y-75547516D01*
X221874067Y-75553927D01*
X221836344Y-75576237D01*
X221836342Y-75576238D01*
X221836343Y-75576238D01*
X221822107Y-75590473D01*
X221807319Y-75603103D01*
X221791033Y-75614936D01*
X221763091Y-75648711D01*
X221755230Y-75657349D01*
X220939954Y-76472625D01*
X220923806Y-76485563D01*
X220875646Y-76536847D01*
X220872940Y-76539640D01*
X220853374Y-76559207D01*
X220850899Y-76562398D01*
X220843317Y-76571275D01*
X220813306Y-76603234D01*
X220803606Y-76620877D01*
X220792928Y-76637133D01*
X220780592Y-76653036D01*
X220763185Y-76693262D01*
X220758047Y-76703750D01*
X220736927Y-76742166D01*
X220731919Y-76761670D01*
X220725619Y-76780069D01*
X220717625Y-76798542D01*
X220710769Y-76841831D01*
X220708401Y-76853267D01*
X220697500Y-76895728D01*
X220697500Y-76915859D01*
X220695973Y-76935256D01*
X220692825Y-76955133D01*
X220694600Y-76973906D01*
X220696950Y-76998770D01*
X220697500Y-77010439D01*
X220697500Y-77200500D01*
X220680887Y-77262500D01*
X220635500Y-77307887D01*
X220573500Y-77324500D01*
X219874991Y-77324500D01*
X219772203Y-77335000D01*
X219605665Y-77390186D01*
X219456342Y-77482288D01*
X219332286Y-77606344D01*
X219330242Y-77609659D01*
X219285135Y-77652837D01*
X219224704Y-77668558D01*
X219164274Y-77652835D01*
X219119168Y-77609656D01*
X219117316Y-77606654D01*
X218993345Y-77482683D01*
X218844122Y-77390642D01*
X218677696Y-77335493D01*
X218574979Y-77325000D01*
X218437500Y-77325000D01*
X218437500Y-78676000D01*
X218420887Y-78738000D01*
X218375500Y-78783387D01*
X218313500Y-78800000D01*
X217100001Y-78800000D01*
X217100001Y-79074979D01*
X217110493Y-79177695D01*
X217165642Y-79344122D01*
X217257683Y-79493345D01*
X217388803Y-79624465D01*
X217420897Y-79680052D01*
X217420897Y-79744239D01*
X217388804Y-79799827D01*
X217332287Y-79856344D01*
X217240186Y-80005665D01*
X217185000Y-80172202D01*
X217174500Y-80274990D01*
X217174500Y-81275008D01*
X217185000Y-81377796D01*
X217240186Y-81544334D01*
X217332288Y-81693657D01*
X217438450Y-81799819D01*
X217470544Y-81855406D01*
X217470544Y-81919594D01*
X217438450Y-81975181D01*
X217332288Y-82081342D01*
X217240186Y-82230665D01*
X217185000Y-82397202D01*
X217174500Y-82499990D01*
X217174500Y-83500008D01*
X217185000Y-83602796D01*
X217240186Y-83769334D01*
X217332288Y-83918657D01*
X217456342Y-84042711D01*
X217456344Y-84042712D01*
X217605666Y-84134814D01*
X217717017Y-84171712D01*
X217772202Y-84189999D01*
X217782702Y-84191071D01*
X217874991Y-84200500D01*
X218625008Y-84200499D01*
X218727797Y-84189999D01*
X218894334Y-84134814D01*
X219043656Y-84042712D01*
X219167712Y-83918656D01*
X219169460Y-83915821D01*
X219214568Y-83872640D01*
X219275000Y-83856917D01*
X219335432Y-83872640D01*
X219380539Y-83915821D01*
X219382288Y-83918657D01*
X219506342Y-84042711D01*
X219506344Y-84042712D01*
X219655666Y-84134814D01*
X219767017Y-84171712D01*
X219822202Y-84189999D01*
X219832702Y-84191071D01*
X219924991Y-84200500D01*
X220675008Y-84200499D01*
X220777797Y-84189999D01*
X220944334Y-84134814D01*
X221093656Y-84042712D01*
X221217712Y-83918656D01*
X221309814Y-83769334D01*
X221364999Y-83602797D01*
X221364999Y-83602792D01*
X221368975Y-83590795D01*
X221386574Y-83556624D01*
X221413785Y-83529489D01*
X221415181Y-83528474D01*
X221424915Y-83522081D01*
X221462656Y-83499763D01*
X221476892Y-83485526D01*
X221491679Y-83472896D01*
X221507967Y-83461063D01*
X221535904Y-83427290D01*
X221543756Y-83418661D01*
X221960044Y-83002373D01*
X221976190Y-82989439D01*
X221978159Y-82987341D01*
X221978162Y-82987340D01*
X222024383Y-82938118D01*
X222027001Y-82935416D01*
X222046623Y-82915796D01*
X222049100Y-82912601D01*
X222056681Y-82903724D01*
X222086693Y-82871767D01*
X222096392Y-82854122D01*
X222107071Y-82837864D01*
X222119408Y-82821962D01*
X222136815Y-82781734D01*
X222141951Y-82771251D01*
X222163072Y-82732834D01*
X222168077Y-82713340D01*
X222174383Y-82694923D01*
X222180351Y-82681132D01*
X222182374Y-82676458D01*
X222189231Y-82633155D01*
X222191597Y-82621733D01*
X222194588Y-82610082D01*
X222221887Y-82558688D01*
X222269627Y-82525406D01*
X222327293Y-82517570D01*
X222400021Y-82525000D01*
X222675000Y-82525000D01*
X222675000Y-81311500D01*
X222691613Y-81249500D01*
X222737000Y-81204113D01*
X222799000Y-81187500D01*
X223051000Y-81187500D01*
X223113000Y-81204113D01*
X223158387Y-81249500D01*
X223175000Y-81311500D01*
X223175000Y-82524999D01*
X223233100Y-82524999D01*
X223298810Y-82543841D01*
X223344550Y-82594641D01*
X223356420Y-82661958D01*
X223344540Y-82775000D01*
X223347458Y-82802764D01*
X223364326Y-82963257D01*
X223422820Y-83143284D01*
X223517466Y-83307216D01*
X223644129Y-83447889D01*
X223797269Y-83559151D01*
X223970197Y-83636144D01*
X224155352Y-83675500D01*
X224155354Y-83675500D01*
X224344646Y-83675500D01*
X224344648Y-83675500D01*
X224468084Y-83649262D01*
X224529803Y-83636144D01*
X224702730Y-83559151D01*
X224743563Y-83529484D01*
X224855870Y-83447889D01*
X224861598Y-83441528D01*
X224982533Y-83307216D01*
X225077179Y-83143284D01*
X225135674Y-82963256D01*
X225155460Y-82775000D01*
X225146206Y-82686957D01*
X225158077Y-82619641D01*
X225203817Y-82568841D01*
X225269528Y-82549999D01*
X225374999Y-82549999D01*
X225375000Y-82550000D01*
X225375000Y-81336500D01*
X225391613Y-81274500D01*
X225437000Y-81229113D01*
X225499000Y-81212500D01*
X225751000Y-81212500D01*
X225813000Y-81229113D01*
X225858387Y-81274500D01*
X225875000Y-81336500D01*
X225875000Y-82549999D01*
X226156295Y-82549999D01*
X226156295Y-82551151D01*
X226217073Y-82562020D01*
X226267721Y-82607757D01*
X226286500Y-82673365D01*
X226286500Y-84430106D01*
X226267402Y-84496223D01*
X226215992Y-84541975D01*
X226148105Y-84553268D01*
X225944759Y-84529500D01*
X225595241Y-84529500D01*
X225347273Y-84558483D01*
X225248084Y-84570077D01*
X224907985Y-84650682D01*
X224579545Y-84770223D01*
X224267206Y-84927086D01*
X223975196Y-85119145D01*
X223975188Y-85119151D01*
X223975189Y-85119151D01*
X223707442Y-85343817D01*
X223707438Y-85343820D01*
X223707437Y-85343822D01*
X223467589Y-85598045D01*
X223258869Y-85878404D01*
X223084112Y-86181093D01*
X223084111Y-86181096D01*
X222945674Y-86502029D01*
X222851657Y-86816067D01*
X222826294Y-86862033D01*
X222784181Y-86893385D01*
X222732868Y-86904500D01*
X220277744Y-86904500D01*
X220257237Y-86902235D01*
X220187127Y-86904439D01*
X220183232Y-86904500D01*
X220155650Y-86904500D01*
X220151665Y-86905003D01*
X220140033Y-86905918D01*
X220096369Y-86907290D01*
X220077129Y-86912880D01*
X220058081Y-86916825D01*
X220038209Y-86919335D01*
X219997599Y-86935413D01*
X219986554Y-86939194D01*
X219944610Y-86951381D01*
X219927365Y-86961579D01*
X219909904Y-86970133D01*
X219891267Y-86977512D01*
X219855931Y-87003185D01*
X219846174Y-87009595D01*
X219808580Y-87031829D01*
X219794413Y-87045996D01*
X219779624Y-87058626D01*
X219763413Y-87070404D01*
X219735572Y-87104058D01*
X219727711Y-87112697D01*
X219623997Y-87216411D01*
X219568409Y-87248505D01*
X219504223Y-87248505D01*
X219467977Y-87238793D01*
X219467976Y-87238792D01*
X219467973Y-87238792D01*
X219249999Y-87219722D01*
X219032025Y-87238792D01*
X218820668Y-87295425D01*
X218622361Y-87387898D01*
X218443122Y-87513402D01*
X218288402Y-87668122D01*
X218162898Y-87847361D01*
X218070425Y-88045668D01*
X218013792Y-88257025D01*
X217994722Y-88475000D01*
X218013792Y-88692974D01*
X218068104Y-88895670D01*
X218070425Y-88904330D01*
X218162898Y-89102639D01*
X218288402Y-89281877D01*
X218443123Y-89436598D01*
X218622361Y-89562102D01*
X218820670Y-89654575D01*
X219032023Y-89711207D01*
X219250000Y-89730277D01*
X219467977Y-89711207D01*
X219679330Y-89654575D01*
X219877639Y-89562102D01*
X220056877Y-89436598D01*
X220211598Y-89281877D01*
X220337102Y-89102639D01*
X220429575Y-88904330D01*
X220486207Y-88692977D01*
X220505277Y-88475000D01*
X220503249Y-88451817D01*
X220489119Y-88290307D01*
X220501837Y-88223849D01*
X220547550Y-88173962D01*
X220612647Y-88155500D01*
X222732868Y-88155500D01*
X222784181Y-88166615D01*
X222826294Y-88197967D01*
X222851657Y-88243932D01*
X222945674Y-88557971D01*
X223043605Y-88785000D01*
X223084112Y-88878906D01*
X223258710Y-89181320D01*
X223258870Y-89181596D01*
X223467588Y-89461953D01*
X223707442Y-89716183D01*
X223975189Y-89940849D01*
X223975193Y-89940852D01*
X223975196Y-89940854D01*
X224267206Y-90132913D01*
X224579545Y-90289776D01*
X224729272Y-90344271D01*
X224907989Y-90409319D01*
X225248086Y-90489923D01*
X225595241Y-90530500D01*
X225944754Y-90530500D01*
X225944759Y-90530500D01*
X226291914Y-90489923D01*
X226632011Y-90409319D01*
X226960451Y-90289777D01*
X226960450Y-90289777D01*
X226960454Y-90289776D01*
X227272793Y-90132913D01*
X227546885Y-89952639D01*
X227564811Y-89940849D01*
X227707960Y-89820733D01*
X233992818Y-89820733D01*
X234135489Y-89940448D01*
X234427464Y-90132482D01*
X234739744Y-90289316D01*
X235068128Y-90408837D01*
X235408171Y-90489429D01*
X235755274Y-90530000D01*
X236104726Y-90530000D01*
X236451828Y-90489429D01*
X236791871Y-90408837D01*
X237120255Y-90289316D01*
X237432535Y-90132482D01*
X237724515Y-89940445D01*
X237867180Y-89820734D01*
X237867181Y-89820733D01*
X235930000Y-87883553D01*
X233992818Y-89820733D01*
X227707960Y-89820733D01*
X227832558Y-89716183D01*
X228072412Y-89461953D01*
X228281130Y-89181596D01*
X228455889Y-88878904D01*
X228594326Y-88557971D01*
X228694569Y-88223136D01*
X228755262Y-87878927D01*
X228775585Y-87530000D01*
X232924915Y-87530000D01*
X232945235Y-87878869D01*
X233005916Y-88223014D01*
X233106146Y-88557799D01*
X233244560Y-88878681D01*
X233419288Y-89181320D01*
X233627971Y-89461630D01*
X233636147Y-89470297D01*
X233636148Y-89470298D01*
X235576446Y-87530001D01*
X236283553Y-87530001D01*
X238223850Y-89470298D01*
X238223851Y-89470298D01*
X238232026Y-89461632D01*
X238440711Y-89181320D01*
X238615439Y-88878681D01*
X238753853Y-88557799D01*
X238854083Y-88223014D01*
X238914764Y-87878869D01*
X238935084Y-87530000D01*
X238914764Y-87181130D01*
X238854083Y-86836985D01*
X238753853Y-86502200D01*
X238615439Y-86181318D01*
X238440711Y-85878679D01*
X238232027Y-85598369D01*
X238223850Y-85589701D01*
X238223850Y-85589700D01*
X236283553Y-87530000D01*
X236283553Y-87530001D01*
X235576446Y-87530001D01*
X235576447Y-87530000D01*
X233636148Y-85589701D01*
X233636146Y-85589701D01*
X233627974Y-85598365D01*
X233419288Y-85878679D01*
X233244560Y-86181318D01*
X233106146Y-86502200D01*
X233005916Y-86836985D01*
X232945235Y-87181130D01*
X232924915Y-87530000D01*
X228775585Y-87530000D01*
X228755262Y-87181073D01*
X228699648Y-86865667D01*
X228694570Y-86836869D01*
X228694569Y-86836864D01*
X228594326Y-86502029D01*
X228455889Y-86181096D01*
X228281130Y-85878404D01*
X228072412Y-85598047D01*
X227832558Y-85343817D01*
X227707958Y-85239265D01*
X227707957Y-85239264D01*
X233992817Y-85239264D01*
X235930000Y-87176447D01*
X235930001Y-87176447D01*
X237867180Y-85239265D01*
X237724510Y-85119551D01*
X237432535Y-84927517D01*
X237120255Y-84770683D01*
X236791871Y-84651162D01*
X236451828Y-84570570D01*
X236104726Y-84530000D01*
X235755274Y-84530000D01*
X235408171Y-84570570D01*
X235068128Y-84651162D01*
X234739744Y-84770683D01*
X234427464Y-84927517D01*
X234135484Y-85119554D01*
X233992817Y-85239264D01*
X227707957Y-85239264D01*
X227583794Y-85135079D01*
X227551118Y-85092495D01*
X227539500Y-85040090D01*
X227539500Y-84488727D01*
X227541500Y-84472896D01*
X227541500Y-82918632D01*
X227559491Y-82854304D01*
X227608243Y-82808643D01*
X227673610Y-82794897D01*
X227736621Y-82817056D01*
X227872361Y-82912102D01*
X228070670Y-83004575D01*
X228282023Y-83061207D01*
X228500000Y-83080277D01*
X228717977Y-83061207D01*
X228929330Y-83004575D01*
X229127639Y-82912102D01*
X229306877Y-82786598D01*
X229457041Y-82636433D01*
X229510886Y-82604822D01*
X229573315Y-82603459D01*
X229628492Y-82632694D01*
X229662425Y-82685113D01*
X229715186Y-82844334D01*
X229807288Y-82993657D01*
X229931342Y-83117711D01*
X229931344Y-83117712D01*
X230080666Y-83209814D01*
X230192016Y-83246712D01*
X230247202Y-83264999D01*
X230257703Y-83266071D01*
X230349991Y-83275500D01*
X231350008Y-83275499D01*
X231452797Y-83264999D01*
X231619334Y-83209814D01*
X231768656Y-83117712D01*
X231892712Y-82993656D01*
X231975518Y-82859404D01*
X232020626Y-82816223D01*
X232081058Y-82800500D01*
X233042256Y-82800500D01*
X233062762Y-82802764D01*
X233065665Y-82802672D01*
X233065667Y-82802673D01*
X233132872Y-82800561D01*
X233136768Y-82800500D01*
X233164349Y-82800500D01*
X233164350Y-82800500D01*
X233168319Y-82799998D01*
X233179965Y-82799080D01*
X233223627Y-82797709D01*
X233242859Y-82792120D01*
X233261918Y-82788174D01*
X233268196Y-82787381D01*
X233281792Y-82785664D01*
X233322407Y-82769582D01*
X233333444Y-82765803D01*
X233375390Y-82753618D01*
X233392629Y-82743422D01*
X233410102Y-82734862D01*
X233415224Y-82732834D01*
X233428732Y-82727486D01*
X233464064Y-82701814D01*
X233473830Y-82695400D01*
X233491225Y-82685113D01*
X233511420Y-82673170D01*
X233525585Y-82659004D01*
X233540373Y-82646373D01*
X233556587Y-82634594D01*
X233584438Y-82600926D01*
X233592279Y-82592309D01*
X235958789Y-80225800D01*
X235974885Y-80212906D01*
X235976873Y-80210787D01*
X235976877Y-80210786D01*
X236022948Y-80161723D01*
X236025566Y-80159023D01*
X236045120Y-80139471D01*
X236047581Y-80136298D01*
X236055156Y-80127427D01*
X236085062Y-80095582D01*
X236094717Y-80078018D01*
X236105394Y-80061764D01*
X236117673Y-80045936D01*
X236135018Y-80005852D01*
X236140160Y-79995356D01*
X236141341Y-79993208D01*
X236161197Y-79957092D01*
X236166179Y-79937684D01*
X236172481Y-79919280D01*
X236180437Y-79900896D01*
X236187269Y-79857752D01*
X236189633Y-79846338D01*
X236200500Y-79804019D01*
X236200500Y-79783984D01*
X236202027Y-79764585D01*
X236202186Y-79763578D01*
X236205160Y-79744804D01*
X236201050Y-79701325D01*
X236200500Y-79689656D01*
X236200500Y-77035452D01*
X236209939Y-76987999D01*
X236236819Y-76947771D01*
X236342759Y-76841831D01*
X236733786Y-76450802D01*
X236749887Y-76437904D01*
X236751874Y-76435787D01*
X236751877Y-76435786D01*
X236797932Y-76386741D01*
X236800613Y-76383976D01*
X236820120Y-76364470D01*
X236822581Y-76361295D01*
X236830152Y-76352431D01*
X236860062Y-76320582D01*
X236869713Y-76303026D01*
X236880393Y-76286767D01*
X236892674Y-76270936D01*
X236910018Y-76230851D01*
X236915160Y-76220356D01*
X236922082Y-76207765D01*
X236936197Y-76182092D01*
X236941178Y-76162688D01*
X236947480Y-76144283D01*
X236955438Y-76125895D01*
X236962270Y-76082748D01*
X236964639Y-76071316D01*
X236975500Y-76029020D01*
X236975500Y-76008984D01*
X236977027Y-75989585D01*
X236978529Y-75980102D01*
X236980160Y-75969804D01*
X236976050Y-75926325D01*
X236975500Y-75914656D01*
X236975500Y-73763733D01*
X236986123Y-73713518D01*
X237016170Y-73671906D01*
X237060494Y-73646027D01*
X237094334Y-73634814D01*
X237243656Y-73542712D01*
X237367712Y-73418656D01*
X237369752Y-73415347D01*
X237414856Y-73372166D01*
X237475289Y-73356440D01*
X237535723Y-73372161D01*
X237580831Y-73415343D01*
X237582682Y-73418344D01*
X237706654Y-73542316D01*
X237855877Y-73634357D01*
X238022303Y-73689506D01*
X238125021Y-73700000D01*
X238262500Y-73700000D01*
X238262500Y-72349000D01*
X238279113Y-72287000D01*
X238324500Y-72241613D01*
X238386500Y-72225000D01*
X238638500Y-72225000D01*
X238700500Y-72241613D01*
X238745887Y-72287000D01*
X238762500Y-72349000D01*
X238762500Y-73699999D01*
X238899979Y-73699999D01*
X239002695Y-73689506D01*
X239169122Y-73634357D01*
X239213404Y-73607045D01*
X239275796Y-73588613D01*
X239338932Y-73604307D01*
X239385434Y-73649805D01*
X239402500Y-73712584D01*
X239402500Y-81451034D01*
X239400229Y-81471601D01*
X239402439Y-81541919D01*
X239402500Y-81545813D01*
X239402500Y-81573476D01*
X239403006Y-81577484D01*
X239403921Y-81589118D01*
X239405298Y-81632943D01*
X239410916Y-81652278D01*
X239414861Y-81671328D01*
X239417383Y-81691293D01*
X239433519Y-81732049D01*
X239437302Y-81743099D01*
X239442933Y-81762481D01*
X239444153Y-81827158D01*
X239412633Y-81883648D01*
X239356953Y-81916578D01*
X239292265Y-81916984D01*
X239236176Y-81884757D01*
X238213819Y-80862400D01*
X238186939Y-80822172D01*
X238177500Y-80774719D01*
X238177500Y-79197966D01*
X238185736Y-79153528D01*
X238209348Y-79114996D01*
X238282533Y-79033716D01*
X238377179Y-78869784D01*
X238435674Y-78689756D01*
X238455460Y-78501500D01*
X238435674Y-78313244D01*
X238377179Y-78133216D01*
X238377179Y-78133215D01*
X238282533Y-77969283D01*
X238155870Y-77828610D01*
X238002730Y-77717348D01*
X237829802Y-77640355D01*
X237644648Y-77601000D01*
X237644646Y-77601000D01*
X237455354Y-77601000D01*
X237455352Y-77601000D01*
X237270197Y-77640355D01*
X237097269Y-77717348D01*
X236944129Y-77828610D01*
X236817466Y-77969283D01*
X236722820Y-78133215D01*
X236664326Y-78313242D01*
X236644540Y-78501500D01*
X236664326Y-78689757D01*
X236722820Y-78869784D01*
X236817464Y-79033713D01*
X236817467Y-79033716D01*
X236890651Y-79114996D01*
X236914264Y-79153528D01*
X236922500Y-79197966D01*
X236922500Y-81003034D01*
X236920229Y-81023601D01*
X236922439Y-81093919D01*
X236922500Y-81097813D01*
X236922500Y-81125476D01*
X236923006Y-81129484D01*
X236923921Y-81141118D01*
X236925298Y-81184943D01*
X236930916Y-81204278D01*
X236934861Y-81223328D01*
X236937383Y-81243293D01*
X236953519Y-81284049D01*
X236957302Y-81295098D01*
X236969530Y-81337187D01*
X236969531Y-81337189D01*
X236969532Y-81337191D01*
X236979779Y-81354517D01*
X236988338Y-81371989D01*
X236995747Y-81390705D01*
X237021511Y-81426165D01*
X237027925Y-81435929D01*
X237050235Y-81473653D01*
X237050237Y-81473656D01*
X237064475Y-81487894D01*
X237077107Y-81502685D01*
X237088937Y-81518967D01*
X237122705Y-81546902D01*
X237131346Y-81554765D01*
X239011624Y-83435043D01*
X239024562Y-83451192D01*
X239075845Y-83499350D01*
X239078643Y-83502062D01*
X239098204Y-83521623D01*
X239098782Y-83522071D01*
X239101385Y-83524090D01*
X239110282Y-83531688D01*
X239142230Y-83561691D01*
X239142232Y-83561692D01*
X239142233Y-83561693D01*
X239159878Y-83571393D01*
X239176135Y-83582072D01*
X239192038Y-83594408D01*
X239232258Y-83611812D01*
X239242749Y-83616951D01*
X239281166Y-83638072D01*
X239300675Y-83643081D01*
X239319061Y-83649376D01*
X239337541Y-83657373D01*
X239380844Y-83664231D01*
X239392247Y-83666592D01*
X239434728Y-83677500D01*
X239454865Y-83677500D01*
X239474262Y-83679026D01*
X239494133Y-83682174D01*
X239537761Y-83678049D01*
X239549429Y-83677500D01*
X240813500Y-83677500D01*
X240875500Y-83694113D01*
X240920887Y-83739500D01*
X240937500Y-83801500D01*
X240937500Y-85930469D01*
X240923688Y-85987342D01*
X240885330Y-86031546D01*
X240830969Y-86053232D01*
X240772718Y-86047571D01*
X240723551Y-86015822D01*
X240694423Y-85965061D01*
X240692116Y-85957119D01*
X240688174Y-85938085D01*
X240685664Y-85918208D01*
X240669579Y-85877583D01*
X240665808Y-85866568D01*
X240653618Y-85824610D01*
X240643414Y-85807355D01*
X240634861Y-85789895D01*
X240632923Y-85785000D01*
X240627486Y-85771268D01*
X240601808Y-85735925D01*
X240595401Y-85726171D01*
X240573169Y-85688579D01*
X240559006Y-85674416D01*
X240546367Y-85659617D01*
X240534595Y-85643413D01*
X240500941Y-85615573D01*
X240492299Y-85607709D01*
X239581912Y-84697321D01*
X239581909Y-84697317D01*
X238416279Y-83531688D01*
X237275801Y-82391210D01*
X237262906Y-82375113D01*
X237211775Y-82327098D01*
X237208978Y-82324387D01*
X237189470Y-82304879D01*
X237186290Y-82302412D01*
X237177424Y-82294839D01*
X237145582Y-82264938D01*
X237128024Y-82255285D01*
X237111764Y-82244604D01*
X237095936Y-82232327D01*
X237055851Y-82214980D01*
X237045361Y-82209841D01*
X237007091Y-82188802D01*
X236987691Y-82183821D01*
X236969284Y-82177519D01*
X236950897Y-82169562D01*
X236907758Y-82162729D01*
X236896324Y-82160361D01*
X236854019Y-82149500D01*
X236833984Y-82149500D01*
X236814586Y-82147973D01*
X236807162Y-82146797D01*
X236794805Y-82144840D01*
X236794804Y-82144840D01*
X236761751Y-82147964D01*
X236751325Y-82148950D01*
X236739656Y-82149500D01*
X236053747Y-82149500D01*
X236003312Y-82138780D01*
X235961598Y-82108473D01*
X235955871Y-82102112D01*
X235802730Y-81990849D01*
X235802729Y-81990848D01*
X235802727Y-81990847D01*
X235629802Y-81913855D01*
X235444648Y-81874500D01*
X235444646Y-81874500D01*
X235255354Y-81874500D01*
X235255352Y-81874500D01*
X235070197Y-81913855D01*
X234897269Y-81990848D01*
X234744129Y-82102110D01*
X234617466Y-82242783D01*
X234522820Y-82406715D01*
X234464326Y-82586742D01*
X234444540Y-82775000D01*
X234464326Y-82963257D01*
X234522820Y-83143284D01*
X234617466Y-83307216D01*
X234744129Y-83447889D01*
X234897269Y-83559151D01*
X235070197Y-83636144D01*
X235255352Y-83675500D01*
X235255354Y-83675500D01*
X235444646Y-83675500D01*
X235444648Y-83675500D01*
X235568084Y-83649262D01*
X235629803Y-83636144D01*
X235802730Y-83559151D01*
X235955871Y-83447888D01*
X235961598Y-83441526D01*
X236003312Y-83411220D01*
X236053747Y-83400500D01*
X236464548Y-83400500D01*
X236512001Y-83409939D01*
X236552229Y-83436819D01*
X238741753Y-85626345D01*
X238741767Y-85626357D01*
X239413181Y-86297771D01*
X239440061Y-86337999D01*
X239449500Y-86385452D01*
X239449500Y-86842256D01*
X239447235Y-86862762D01*
X239449439Y-86932873D01*
X239449500Y-86936768D01*
X239449500Y-86964349D01*
X239450003Y-86968334D01*
X239450918Y-86979967D01*
X239452290Y-87023626D01*
X239457879Y-87042860D01*
X239461825Y-87061916D01*
X239464335Y-87081792D01*
X239480414Y-87122404D01*
X239484197Y-87133451D01*
X239496382Y-87175391D01*
X239506580Y-87192635D01*
X239515136Y-87210100D01*
X239522514Y-87228732D01*
X239522515Y-87228733D01*
X239548180Y-87264059D01*
X239554593Y-87273822D01*
X239576826Y-87311416D01*
X239576829Y-87311419D01*
X239576830Y-87311420D01*
X239590995Y-87325585D01*
X239603627Y-87340375D01*
X239615406Y-87356587D01*
X239649058Y-87384426D01*
X239657699Y-87392289D01*
X240574197Y-88308787D01*
X240587098Y-88324889D01*
X240589212Y-88326874D01*
X240589214Y-88326877D01*
X240628109Y-88363402D01*
X240638240Y-88372916D01*
X240641036Y-88375626D01*
X240660530Y-88395120D01*
X240663704Y-88397582D01*
X240672568Y-88405153D01*
X240704418Y-88435062D01*
X240714914Y-88440832D01*
X240721974Y-88444714D01*
X240738231Y-88455392D01*
X240754064Y-88467674D01*
X240770185Y-88474649D01*
X240794156Y-88485023D01*
X240804643Y-88490160D01*
X240842908Y-88511197D01*
X240862316Y-88516180D01*
X240880710Y-88522478D01*
X240899105Y-88530438D01*
X240942254Y-88537271D01*
X240953680Y-88539638D01*
X240969222Y-88543629D01*
X240995980Y-88550500D01*
X240995981Y-88550500D01*
X241016016Y-88550500D01*
X241035413Y-88552026D01*
X241055196Y-88555160D01*
X241098674Y-88551050D01*
X241110344Y-88550500D01*
X243120981Y-88550500D01*
X243239350Y-88550500D01*
X247717256Y-88550500D01*
X247737762Y-88552764D01*
X247740665Y-88552672D01*
X247740667Y-88552673D01*
X247807872Y-88550561D01*
X247811768Y-88550500D01*
X247839349Y-88550500D01*
X247839350Y-88550500D01*
X247843319Y-88549998D01*
X247854965Y-88549080D01*
X247898627Y-88547709D01*
X247917859Y-88542120D01*
X247936918Y-88538174D01*
X247944091Y-88537268D01*
X247956792Y-88535664D01*
X247997407Y-88519582D01*
X248008444Y-88515803D01*
X248050390Y-88503618D01*
X248067629Y-88493422D01*
X248085102Y-88484862D01*
X248103732Y-88477486D01*
X248139064Y-88451814D01*
X248148830Y-88445400D01*
X248186418Y-88423171D01*
X248186417Y-88423171D01*
X248186420Y-88423170D01*
X248200585Y-88409004D01*
X248215373Y-88396373D01*
X248231587Y-88384594D01*
X248259438Y-88350926D01*
X248267279Y-88342309D01*
X249570719Y-87038869D01*
X249626306Y-87006777D01*
X249690494Y-87006778D01*
X249707023Y-87011207D01*
X249816011Y-87020742D01*
X249924999Y-87030277D01*
X249924999Y-87030276D01*
X249925000Y-87030277D01*
X250142977Y-87011207D01*
X250354330Y-86954575D01*
X250552639Y-86862102D01*
X250731877Y-86736598D01*
X250837818Y-86630656D01*
X250887182Y-86600406D01*
X250944898Y-86595864D01*
X250998385Y-86618019D01*
X251035985Y-86662042D01*
X251049500Y-86718337D01*
X251049500Y-88171851D01*
X251035489Y-88229108D01*
X250996623Y-88273426D01*
X250868122Y-88363402D01*
X250713402Y-88518122D01*
X250587898Y-88697361D01*
X250495425Y-88895668D01*
X250438792Y-89107025D01*
X250419722Y-89325000D01*
X250438792Y-89542974D01*
X250485203Y-89716183D01*
X250495425Y-89754330D01*
X250587898Y-89952639D01*
X250713402Y-90131877D01*
X250868123Y-90286598D01*
X251047361Y-90412102D01*
X251245670Y-90504575D01*
X251457023Y-90561207D01*
X251602341Y-90573920D01*
X251674999Y-90580277D01*
X251674999Y-90580276D01*
X251675000Y-90580277D01*
X251892977Y-90561207D01*
X252104330Y-90504575D01*
X252302639Y-90412102D01*
X252481877Y-90286598D01*
X252636598Y-90131877D01*
X252762102Y-89952639D01*
X252854575Y-89754330D01*
X252911207Y-89542977D01*
X252930277Y-89325000D01*
X252911207Y-89107023D01*
X252854575Y-88895670D01*
X252762102Y-88697362D01*
X252636598Y-88518123D01*
X252481877Y-88363402D01*
X252353375Y-88273423D01*
X252314511Y-88229108D01*
X252300500Y-88171851D01*
X252300500Y-88075733D01*
X254737818Y-88075733D01*
X254880489Y-88195448D01*
X255172464Y-88387482D01*
X255484744Y-88544316D01*
X255813128Y-88663837D01*
X256153171Y-88744429D01*
X256500274Y-88785000D01*
X256849726Y-88785000D01*
X257196828Y-88744429D01*
X257536871Y-88663837D01*
X257865255Y-88544316D01*
X258177535Y-88387482D01*
X258469515Y-88195445D01*
X258612180Y-88075734D01*
X258612181Y-88075733D01*
X256675000Y-86138553D01*
X254737818Y-88075733D01*
X252300500Y-88075733D01*
X252300500Y-85785000D01*
X253669915Y-85785000D01*
X253690235Y-86133869D01*
X253750916Y-86478014D01*
X253851146Y-86812799D01*
X253989560Y-87133681D01*
X254164288Y-87436320D01*
X254372971Y-87716630D01*
X254381147Y-87725297D01*
X254381148Y-87725298D01*
X256321447Y-85785000D01*
X257028553Y-85785000D01*
X258968851Y-87725298D01*
X258977026Y-87716632D01*
X259185711Y-87436320D01*
X259360439Y-87133681D01*
X259498853Y-86812799D01*
X259599083Y-86478014D01*
X259659764Y-86133869D01*
X259680084Y-85785000D01*
X259659764Y-85436130D01*
X259599083Y-85091985D01*
X259498853Y-84757200D01*
X259360439Y-84436318D01*
X259185711Y-84133679D01*
X258977027Y-83853369D01*
X258968850Y-83844701D01*
X258968850Y-83844700D01*
X257028553Y-85785000D01*
X256321447Y-85785000D01*
X254381148Y-83844701D01*
X254381146Y-83844701D01*
X254372974Y-83853365D01*
X254164288Y-84133679D01*
X253989560Y-84436318D01*
X253851146Y-84757200D01*
X253750916Y-85091985D01*
X253690235Y-85436130D01*
X253669915Y-85785000D01*
X252300500Y-85785000D01*
X252300500Y-83494264D01*
X254737817Y-83494264D01*
X256675000Y-85431447D01*
X256675001Y-85431447D01*
X258612180Y-83494265D01*
X258469510Y-83374551D01*
X258177535Y-83182517D01*
X257865255Y-83025683D01*
X257536871Y-82906162D01*
X257196828Y-82825570D01*
X256849726Y-82785000D01*
X256500274Y-82785000D01*
X256153171Y-82825570D01*
X255813128Y-82906162D01*
X255484744Y-83025683D01*
X255172464Y-83182517D01*
X254880484Y-83374554D01*
X254737817Y-83494264D01*
X252300500Y-83494264D01*
X252300500Y-80232740D01*
X252302763Y-80212236D01*
X252302256Y-80196111D01*
X252300561Y-80142144D01*
X252300500Y-80138250D01*
X252300500Y-80110657D01*
X252300500Y-80110650D01*
X252299995Y-80106653D01*
X252299080Y-80095023D01*
X252298546Y-80078029D01*
X252297709Y-80051373D01*
X252292120Y-80032140D01*
X252288174Y-80013082D01*
X252285664Y-79993208D01*
X252269585Y-79952597D01*
X252265804Y-79941552D01*
X252253619Y-79899613D01*
X252253618Y-79899612D01*
X252253618Y-79899610D01*
X252243417Y-79882361D01*
X252234860Y-79864895D01*
X252227486Y-79846268D01*
X252201813Y-79810932D01*
X252195402Y-79801172D01*
X252193609Y-79798141D01*
X252173170Y-79763579D01*
X252159006Y-79749415D01*
X252146369Y-79734620D01*
X252134595Y-79718414D01*
X252134594Y-79718413D01*
X252100935Y-79690568D01*
X252092305Y-79682714D01*
X251313302Y-78903711D01*
X251300406Y-78887613D01*
X251249275Y-78839598D01*
X251246478Y-78836887D01*
X251226970Y-78817379D01*
X251223790Y-78814912D01*
X251214924Y-78807339D01*
X251183082Y-78777438D01*
X251165524Y-78767785D01*
X251149264Y-78757104D01*
X251133436Y-78744827D01*
X251093351Y-78727480D01*
X251082861Y-78722341D01*
X251044591Y-78701302D01*
X251025191Y-78696321D01*
X251006784Y-78690019D01*
X250988397Y-78682062D01*
X250945258Y-78675229D01*
X250933824Y-78672861D01*
X250891519Y-78662000D01*
X250871484Y-78662000D01*
X250852086Y-78660473D01*
X250844662Y-78659297D01*
X250832305Y-78657340D01*
X250832304Y-78657340D01*
X250799251Y-78660464D01*
X250788825Y-78661450D01*
X250777156Y-78662000D01*
X250716247Y-78662000D01*
X250665812Y-78651280D01*
X250624098Y-78620973D01*
X250618371Y-78614612D01*
X250465230Y-78503349D01*
X250465229Y-78503348D01*
X250465227Y-78503347D01*
X250292302Y-78426355D01*
X250107148Y-78387000D01*
X250107146Y-78387000D01*
X250047953Y-78387000D01*
X250000500Y-78377561D01*
X249960272Y-78350681D01*
X249225185Y-77615594D01*
X249196530Y-77570831D01*
X249189248Y-77518183D01*
X249204677Y-77467323D01*
X249239978Y-77427598D01*
X249280871Y-77397888D01*
X249286598Y-77391526D01*
X249328312Y-77361220D01*
X249378747Y-77350500D01*
X250492256Y-77350500D01*
X250512762Y-77352764D01*
X250515665Y-77352672D01*
X250515667Y-77352673D01*
X250582872Y-77350561D01*
X250586768Y-77350500D01*
X250614349Y-77350500D01*
X250614350Y-77350500D01*
X250618319Y-77349998D01*
X250629965Y-77349080D01*
X250673627Y-77347709D01*
X250692859Y-77342120D01*
X250711918Y-77338174D01*
X250718196Y-77337381D01*
X250731792Y-77335664D01*
X250772407Y-77319582D01*
X250783444Y-77315803D01*
X250825390Y-77303618D01*
X250842629Y-77293422D01*
X250860102Y-77284862D01*
X250878732Y-77277486D01*
X250914064Y-77251814D01*
X250923830Y-77245400D01*
X250961418Y-77223171D01*
X250961417Y-77223171D01*
X250961420Y-77223170D01*
X250975585Y-77209004D01*
X250990373Y-77196373D01*
X251006587Y-77184594D01*
X251034438Y-77150926D01*
X251042279Y-77142309D01*
X251608788Y-76575801D01*
X251624885Y-76562906D01*
X251626873Y-76560787D01*
X251626877Y-76560786D01*
X251672948Y-76511723D01*
X251675566Y-76509023D01*
X251695120Y-76489471D01*
X251697581Y-76486298D01*
X251705156Y-76477427D01*
X251735062Y-76445582D01*
X251744712Y-76428027D01*
X251755400Y-76411757D01*
X251767671Y-76395938D01*
X251767673Y-76395936D01*
X251785026Y-76355832D01*
X251790157Y-76345362D01*
X251811197Y-76307092D01*
X251816175Y-76287699D01*
X251822481Y-76269282D01*
X251824018Y-76265728D01*
X251830438Y-76250896D01*
X251837272Y-76207745D01*
X251839635Y-76196331D01*
X251850500Y-76154019D01*
X251850500Y-76133984D01*
X251852027Y-76114585D01*
X251854416Y-76099500D01*
X251855160Y-76094804D01*
X251851050Y-76051325D01*
X251850500Y-76039656D01*
X251850500Y-75557741D01*
X251852763Y-75537237D01*
X251852461Y-75527639D01*
X251850561Y-75467145D01*
X251850500Y-75463251D01*
X251850500Y-75435657D01*
X251850500Y-75435650D01*
X251849995Y-75431653D01*
X251849080Y-75420023D01*
X251848440Y-75399652D01*
X251847709Y-75376373D01*
X251842120Y-75357140D01*
X251838174Y-75338082D01*
X251835664Y-75318206D01*
X251819588Y-75277604D01*
X251815804Y-75266553D01*
X251809881Y-75246168D01*
X251803618Y-75224610D01*
X251793414Y-75207355D01*
X251784861Y-75189895D01*
X251777486Y-75171269D01*
X251777486Y-75171268D01*
X251751808Y-75135925D01*
X251745401Y-75126171D01*
X251740553Y-75117974D01*
X251723170Y-75088580D01*
X251709005Y-75074415D01*
X251696374Y-75059627D01*
X251684594Y-75043413D01*
X251684591Y-75043411D01*
X251684591Y-75043410D01*
X251650947Y-75015578D01*
X251642305Y-75007715D01*
X251549142Y-74914551D01*
X251518498Y-74863949D01*
X251514784Y-74804908D01*
X251538846Y-74750869D01*
X251542673Y-74745936D01*
X251560018Y-74705852D01*
X251565160Y-74695356D01*
X251586197Y-74657092D01*
X251591179Y-74637684D01*
X251597481Y-74619280D01*
X251605437Y-74600896D01*
X251612269Y-74557752D01*
X251614633Y-74546338D01*
X251625500Y-74504019D01*
X251625500Y-74483984D01*
X251627027Y-74464585D01*
X251627068Y-74464321D01*
X251630160Y-74444804D01*
X251626050Y-74401325D01*
X251625500Y-74389656D01*
X251625500Y-73648687D01*
X251633736Y-73604250D01*
X251657349Y-73565716D01*
X251657351Y-73565714D01*
X251723319Y-73492448D01*
X251779213Y-73456839D01*
X251845466Y-73455104D01*
X251903149Y-73487740D01*
X253650489Y-75235080D01*
X253678701Y-75278660D01*
X253686598Y-75329971D01*
X253669414Y-75624999D01*
X253689738Y-75973927D01*
X253750429Y-76318130D01*
X253762311Y-76357819D01*
X253850674Y-76652971D01*
X253981013Y-76955131D01*
X253989112Y-76973906D01*
X254163869Y-77276595D01*
X254268228Y-77416774D01*
X254372588Y-77556953D01*
X254612442Y-77811183D01*
X254880189Y-78035849D01*
X254880193Y-78035852D01*
X254880196Y-78035854D01*
X255172206Y-78227913D01*
X255484545Y-78384776D01*
X255634272Y-78439271D01*
X255812989Y-78504319D01*
X256153086Y-78584923D01*
X256500241Y-78625500D01*
X256849754Y-78625500D01*
X256849759Y-78625500D01*
X257196914Y-78584923D01*
X257537011Y-78504319D01*
X257836229Y-78395413D01*
X257865454Y-78384776D01*
X258177793Y-78227913D01*
X258231408Y-78192650D01*
X258469811Y-78035849D01*
X258737558Y-77811183D01*
X258977412Y-77556953D01*
X259186130Y-77276596D01*
X259360889Y-76973904D01*
X259499326Y-76652971D01*
X259599569Y-76318136D01*
X259660262Y-75973927D01*
X259680585Y-75625000D01*
X259660262Y-75276073D01*
X259599569Y-74931864D01*
X259499326Y-74597029D01*
X259360889Y-74276096D01*
X259186130Y-73973404D01*
X258977412Y-73693047D01*
X258737558Y-73438817D01*
X258469811Y-73214151D01*
X258469807Y-73214148D01*
X258469803Y-73214145D01*
X258177793Y-73022086D01*
X257865454Y-72865223D01*
X257537014Y-72745682D01*
X257537013Y-72745681D01*
X257537011Y-72745681D01*
X257350157Y-72701396D01*
X257196915Y-72665077D01*
X257139054Y-72658314D01*
X256849759Y-72624500D01*
X256500241Y-72624500D01*
X256269252Y-72651499D01*
X256153084Y-72665077D01*
X255812985Y-72745682D01*
X255484545Y-72865223D01*
X255172206Y-73022086D01*
X254880196Y-73214145D01*
X254880188Y-73214151D01*
X254880189Y-73214151D01*
X254612442Y-73438817D01*
X254612438Y-73438820D01*
X254612437Y-73438822D01*
X254372589Y-73693045D01*
X254247046Y-73861678D01*
X254207225Y-73896344D01*
X254156592Y-73911302D01*
X254104326Y-73903840D01*
X254059902Y-73875311D01*
X249835819Y-69651228D01*
X249808939Y-69611000D01*
X249799500Y-69563547D01*
X249799500Y-68916255D01*
X249815223Y-68855823D01*
X249858404Y-68810716D01*
X249922169Y-68771385D01*
X249968656Y-68742712D01*
X250092712Y-68618656D01*
X250094752Y-68615347D01*
X250139856Y-68572166D01*
X250200289Y-68556440D01*
X250260723Y-68572161D01*
X250305831Y-68615343D01*
X250307682Y-68618344D01*
X250431654Y-68742316D01*
X250580877Y-68834357D01*
X250747303Y-68889506D01*
X250850021Y-68900000D01*
X250987500Y-68900000D01*
X250987500Y-67925000D01*
X251487500Y-67925000D01*
X251487500Y-68899999D01*
X251624979Y-68899999D01*
X251727695Y-68889506D01*
X251894122Y-68834357D01*
X252043345Y-68742316D01*
X252167316Y-68618345D01*
X252259357Y-68469122D01*
X252314506Y-68302696D01*
X252325000Y-68199979D01*
X252325000Y-67925000D01*
X251487500Y-67925000D01*
X250987500Y-67925000D01*
X250987500Y-66450001D01*
X250850021Y-66450001D01*
X250747304Y-66460493D01*
X250580877Y-66515642D01*
X250431654Y-66607683D01*
X250307683Y-66731654D01*
X250305830Y-66734659D01*
X250260721Y-66777838D01*
X250200289Y-66793559D01*
X250139857Y-66777834D01*
X250094752Y-66734652D01*
X250092903Y-66731654D01*
X250092712Y-66731344D01*
X250092710Y-66731342D01*
X250092709Y-66731340D01*
X249968657Y-66607288D01*
X249860404Y-66540518D01*
X249817223Y-66495411D01*
X249805408Y-66450000D01*
X251487500Y-66450000D01*
X251487500Y-67425000D01*
X252324999Y-67425000D01*
X252324999Y-67150021D01*
X252314506Y-67047304D01*
X252259357Y-66880877D01*
X252167316Y-66731654D01*
X252043345Y-66607683D01*
X251894122Y-66515642D01*
X251727696Y-66460493D01*
X251624979Y-66450000D01*
X251487500Y-66450000D01*
X249805408Y-66450000D01*
X249801500Y-66434979D01*
X249801500Y-65712281D01*
X249810939Y-65664828D01*
X249837816Y-65624602D01*
X250135048Y-65327369D01*
X250151190Y-65314438D01*
X250153157Y-65312342D01*
X250153162Y-65312340D01*
X250199383Y-65263118D01*
X250202001Y-65260416D01*
X250221623Y-65240796D01*
X250224100Y-65237601D01*
X250231681Y-65228724D01*
X250261693Y-65196767D01*
X250271387Y-65179131D01*
X250282078Y-65162856D01*
X250283959Y-65160432D01*
X250294408Y-65146962D01*
X250311818Y-65106727D01*
X250316944Y-65096262D01*
X250338072Y-65057834D01*
X250343078Y-65038330D01*
X250349376Y-65019937D01*
X250357374Y-65001459D01*
X250364231Y-64958154D01*
X250366600Y-64946721D01*
X250366617Y-64946657D01*
X250375049Y-64913819D01*
X250377500Y-64904273D01*
X250377500Y-64884141D01*
X250379027Y-64864742D01*
X250382175Y-64844867D01*
X250378198Y-64802797D01*
X250378050Y-64801230D01*
X250377500Y-64789561D01*
X250377500Y-64655106D01*
X250391097Y-64598650D01*
X250428907Y-64554576D01*
X250482637Y-64532549D01*
X250540504Y-64537400D01*
X250622304Y-64564506D01*
X250725021Y-64575000D01*
X251000000Y-64575000D01*
X251000000Y-63737500D01*
X251500000Y-63737500D01*
X251500000Y-64574999D01*
X251774979Y-64574999D01*
X251877695Y-64564506D01*
X252044122Y-64509357D01*
X252193345Y-64417316D01*
X252317316Y-64293345D01*
X252409357Y-64144122D01*
X252464506Y-63977696D01*
X252475000Y-63874979D01*
X252475000Y-63737500D01*
X251500000Y-63737500D01*
X251000000Y-63737500D01*
X251000000Y-63361500D01*
X251016613Y-63299500D01*
X251062000Y-63254113D01*
X251124000Y-63237500D01*
X252474999Y-63237500D01*
X252474999Y-63100021D01*
X252464506Y-62997304D01*
X252409357Y-62830877D01*
X252317316Y-62681654D01*
X252193344Y-62557682D01*
X252190343Y-62555831D01*
X252147161Y-62510723D01*
X252131440Y-62450289D01*
X252147166Y-62389856D01*
X252190347Y-62344752D01*
X252193656Y-62342712D01*
X252317712Y-62218656D01*
X252409814Y-62069334D01*
X252464999Y-61902797D01*
X252475500Y-61800009D01*
X252475499Y-61024992D01*
X252473710Y-61007483D01*
X252464999Y-60922203D01*
X252434305Y-60829575D01*
X252409814Y-60755666D01*
X252317712Y-60606344D01*
X252317711Y-60606342D01*
X252193657Y-60482288D01*
X252044334Y-60390186D01*
X251877797Y-60335000D01*
X251775009Y-60324500D01*
X250724991Y-60324500D01*
X250622203Y-60335000D01*
X250455665Y-60390186D01*
X250307504Y-60481571D01*
X250248429Y-60499886D01*
X250187857Y-60487388D01*
X250140856Y-60447188D01*
X250119118Y-60389287D01*
X250116067Y-60360898D01*
X250116068Y-60334393D01*
X250120000Y-60297829D01*
X250120000Y-60250000D01*
X250108379Y-60238379D01*
X250102051Y-60236884D01*
X250058288Y-60200311D01*
X249977546Y-60092454D01*
X249960016Y-60079331D01*
X249885121Y-60023264D01*
X249846640Y-59975511D01*
X249835750Y-59915154D01*
X249855119Y-59856961D01*
X249900007Y-59815168D01*
X249959434Y-59800000D01*
X250120000Y-59800000D01*
X250120000Y-59752176D01*
X250113597Y-59692624D01*
X250063352Y-59557910D01*
X249977188Y-59442811D01*
X249862089Y-59356647D01*
X249727375Y-59306402D01*
X249667824Y-59300000D01*
X249145000Y-59300000D01*
X249145000Y-59825501D01*
X249128387Y-59887501D01*
X249083000Y-59932888D01*
X249021002Y-59949500D01*
X248818998Y-59949500D01*
X248757000Y-59932888D01*
X248711613Y-59887501D01*
X248695000Y-59825501D01*
X248695000Y-59300000D01*
X248172176Y-59300000D01*
X248112624Y-59306402D01*
X247977910Y-59356647D01*
X247862811Y-59442811D01*
X247776646Y-59557912D01*
X247768527Y-59579680D01*
X247731294Y-59631964D01*
X247672908Y-59658627D01*
X247609013Y-59652526D01*
X247552377Y-59631402D01*
X247492824Y-59625000D01*
X246970000Y-59625000D01*
X246970000Y-62375000D01*
X247492824Y-62375000D01*
X247552377Y-62368597D01*
X247608543Y-62347648D01*
X247672439Y-62341546D01*
X247730827Y-62368209D01*
X247768059Y-62420495D01*
X247776202Y-62442328D01*
X247776203Y-62442330D01*
X247776204Y-62442331D01*
X247862454Y-62557546D01*
X247977669Y-62643796D01*
X248112517Y-62694091D01*
X248172127Y-62700500D01*
X248193500Y-62700499D01*
X248241550Y-62710187D01*
X248282094Y-62737740D01*
X248308793Y-62778853D01*
X248323519Y-62816048D01*
X248327302Y-62827098D01*
X248339530Y-62869187D01*
X248339531Y-62869189D01*
X248339532Y-62869191D01*
X248349779Y-62886517D01*
X248358338Y-62903989D01*
X248365747Y-62922705D01*
X248391511Y-62958165D01*
X248397925Y-62967929D01*
X248418411Y-63002569D01*
X248420237Y-63005656D01*
X248434475Y-63019894D01*
X248447107Y-63034685D01*
X248458937Y-63050967D01*
X248476125Y-63065186D01*
X248492705Y-63078902D01*
X248501346Y-63086765D01*
X249086181Y-63671600D01*
X249113061Y-63711828D01*
X249122500Y-63759281D01*
X249122500Y-64513719D01*
X249113061Y-64561172D01*
X249086183Y-64601397D01*
X248848571Y-64839009D01*
X248788954Y-64898626D01*
X248772805Y-64911564D01*
X248724646Y-64962847D01*
X248721940Y-64965640D01*
X248702374Y-64985207D01*
X248699899Y-64988398D01*
X248692317Y-64997275D01*
X248662306Y-65029234D01*
X248652606Y-65046877D01*
X248641928Y-65063133D01*
X248629592Y-65079036D01*
X248612185Y-65119262D01*
X248607047Y-65129750D01*
X248585927Y-65168166D01*
X248580919Y-65187670D01*
X248574619Y-65206069D01*
X248566625Y-65224542D01*
X248559769Y-65267831D01*
X248557401Y-65279267D01*
X248546500Y-65321728D01*
X248546500Y-65341859D01*
X248544973Y-65361256D01*
X248541825Y-65381133D01*
X248543609Y-65400000D01*
X248545950Y-65424770D01*
X248546500Y-65436439D01*
X248546500Y-66420793D01*
X248530777Y-66481225D01*
X248487596Y-66526331D01*
X248466838Y-66539135D01*
X248356342Y-66607288D01*
X248299681Y-66663950D01*
X248250318Y-66694200D01*
X248192602Y-66698742D01*
X248139115Y-66676587D01*
X248101515Y-66632564D01*
X248095812Y-66608812D01*
X248076379Y-66589379D01*
X248070051Y-66587884D01*
X248026288Y-66551311D01*
X247945546Y-66443454D01*
X247921799Y-66425677D01*
X247853121Y-66374264D01*
X247814640Y-66326511D01*
X247803750Y-66266154D01*
X247823119Y-66207961D01*
X247868007Y-66166168D01*
X247927434Y-66151000D01*
X248088000Y-66151000D01*
X248088000Y-66103176D01*
X248081597Y-66043624D01*
X248031352Y-65908910D01*
X247945188Y-65793811D01*
X247830089Y-65707647D01*
X247695375Y-65657402D01*
X247635824Y-65651000D01*
X247113000Y-65651000D01*
X247113000Y-66176501D01*
X247096387Y-66238501D01*
X247051000Y-66283888D01*
X246989002Y-66300500D01*
X246786998Y-66300500D01*
X246725000Y-66283888D01*
X246679613Y-66238501D01*
X246663000Y-66176501D01*
X246663000Y-65651000D01*
X246140176Y-65651000D01*
X246080624Y-65657402D01*
X245945910Y-65707647D01*
X245830811Y-65793811D01*
X245744646Y-65908912D01*
X245736527Y-65930680D01*
X245699294Y-65982964D01*
X245640908Y-66009627D01*
X245577013Y-66003526D01*
X245520377Y-65982402D01*
X245460824Y-65976000D01*
X244938000Y-65976000D01*
X244938000Y-68726000D01*
X245460824Y-68726000D01*
X245520377Y-68719597D01*
X245576543Y-68698648D01*
X245640439Y-68692546D01*
X245698827Y-68719209D01*
X245736059Y-68771495D01*
X245744202Y-68793328D01*
X245744203Y-68793330D01*
X245744204Y-68793331D01*
X245830454Y-68908546D01*
X245945669Y-68994796D01*
X246080517Y-69045091D01*
X246140127Y-69051500D01*
X247635872Y-69051499D01*
X247695483Y-69045091D01*
X247830331Y-68994796D01*
X247945546Y-68908546D01*
X248031796Y-68793331D01*
X248066284Y-68700862D01*
X248101263Y-68650484D01*
X248156108Y-68623031D01*
X248217401Y-68625220D01*
X248270147Y-68656516D01*
X248356342Y-68742711D01*
X248489596Y-68824902D01*
X248532777Y-68870009D01*
X248548500Y-68930441D01*
X248548500Y-69791256D01*
X248546235Y-69811762D01*
X248548439Y-69881873D01*
X248548500Y-69885768D01*
X248548500Y-69913349D01*
X248549003Y-69917334D01*
X248549918Y-69928967D01*
X248551290Y-69972626D01*
X248555798Y-69988140D01*
X248556510Y-69990592D01*
X248556879Y-69991860D01*
X248560825Y-70010916D01*
X248563335Y-70030792D01*
X248579414Y-70071404D01*
X248583197Y-70082451D01*
X248595382Y-70124391D01*
X248605580Y-70141635D01*
X248614136Y-70159100D01*
X248621514Y-70177732D01*
X248621515Y-70177733D01*
X248647180Y-70213059D01*
X248653593Y-70222822D01*
X248675826Y-70260416D01*
X248675829Y-70260419D01*
X248675830Y-70260420D01*
X248689995Y-70274585D01*
X248702627Y-70289375D01*
X248714406Y-70305587D01*
X248748058Y-70333426D01*
X248756699Y-70341289D01*
X250464293Y-72048884D01*
X250492948Y-72093646D01*
X250500230Y-72146293D01*
X250484802Y-72197153D01*
X250449498Y-72236882D01*
X250394130Y-72277109D01*
X250267466Y-72417783D01*
X250172820Y-72581715D01*
X250114326Y-72761742D01*
X250094540Y-72949999D01*
X250114326Y-73138257D01*
X250172820Y-73318284D01*
X250267464Y-73482213D01*
X250267467Y-73482216D01*
X250342651Y-73565716D01*
X250366264Y-73604249D01*
X250374500Y-73648687D01*
X250374500Y-74000500D01*
X250357887Y-74062500D01*
X250312500Y-74107887D01*
X250250500Y-74124500D01*
X248777131Y-74124500D01*
X248740661Y-74128421D01*
X248717517Y-74130909D01*
X248717515Y-74130909D01*
X248710908Y-74131620D01*
X248684399Y-74131620D01*
X248622823Y-74125000D01*
X248175000Y-74125000D01*
X248175000Y-74500500D01*
X248158387Y-74562500D01*
X248113000Y-74607887D01*
X248051000Y-74624500D01*
X248049000Y-74624500D01*
X247987000Y-74607887D01*
X247941613Y-74562500D01*
X247925000Y-74500500D01*
X247925000Y-74125000D01*
X247477176Y-74125000D01*
X247417624Y-74131402D01*
X247282910Y-74181647D01*
X247167811Y-74267811D01*
X247081647Y-74382910D01*
X247031400Y-74517628D01*
X247030174Y-74529037D01*
X247012395Y-74580923D01*
X246973974Y-74620065D01*
X246922426Y-74638803D01*
X246918209Y-74639335D01*
X246877599Y-74655413D01*
X246866554Y-74659194D01*
X246824610Y-74671381D01*
X246807365Y-74681579D01*
X246789904Y-74690133D01*
X246771267Y-74697512D01*
X246735931Y-74723185D01*
X246726174Y-74729595D01*
X246688581Y-74751828D01*
X246680110Y-74760299D01*
X246674410Y-74765998D01*
X246659628Y-74778624D01*
X246650609Y-74785176D01*
X246643411Y-74790407D01*
X246615567Y-74824063D01*
X246607708Y-74832699D01*
X246316211Y-75124197D01*
X246300112Y-75137095D01*
X246252097Y-75188224D01*
X246249392Y-75191016D01*
X246229874Y-75210534D01*
X246227415Y-75213705D01*
X246219842Y-75222572D01*
X246182956Y-75261853D01*
X246152190Y-75295928D01*
X246099162Y-75316679D01*
X246042450Y-75311540D01*
X245994015Y-75281596D01*
X239263419Y-68551000D01*
X241288000Y-68551000D01*
X241288000Y-68598824D01*
X241294402Y-68658375D01*
X241344647Y-68793089D01*
X241430811Y-68908188D01*
X241545910Y-68994352D01*
X241680624Y-69044597D01*
X241740176Y-69051000D01*
X242263000Y-69051000D01*
X242263000Y-68551000D01*
X241288000Y-68551000D01*
X239263419Y-68551000D01*
X238124599Y-67412180D01*
X238094349Y-67362817D01*
X238089807Y-67305101D01*
X238111962Y-67251614D01*
X238155985Y-67214014D01*
X238212280Y-67200499D01*
X238575009Y-67200499D01*
X238630201Y-67194861D01*
X238677797Y-67189999D01*
X238844334Y-67134814D01*
X238978666Y-67051958D01*
X239005993Y-67035103D01*
X239007631Y-67037758D01*
X239041853Y-67017988D01*
X239106054Y-67017976D01*
X239161655Y-67050074D01*
X239522624Y-67411043D01*
X239535562Y-67427192D01*
X239586845Y-67475350D01*
X239589644Y-67478063D01*
X239609204Y-67497623D01*
X239612385Y-67500090D01*
X239621282Y-67507688D01*
X239653230Y-67537691D01*
X239653232Y-67537692D01*
X239653233Y-67537693D01*
X239670878Y-67547393D01*
X239687135Y-67558072D01*
X239703038Y-67570408D01*
X239739489Y-67586181D01*
X239743258Y-67587812D01*
X239753749Y-67592951D01*
X239792166Y-67614072D01*
X239811675Y-67619081D01*
X239830061Y-67625376D01*
X239848541Y-67633373D01*
X239891844Y-67640231D01*
X239903247Y-67642592D01*
X239945728Y-67653500D01*
X239965865Y-67653500D01*
X239985262Y-67655026D01*
X240005133Y-67658174D01*
X240048761Y-67654049D01*
X240060429Y-67653500D01*
X241164000Y-67653500D01*
X241226000Y-67670113D01*
X241271387Y-67715500D01*
X241288000Y-67777500D01*
X241288000Y-67948825D01*
X241292184Y-67987745D01*
X241292184Y-68014252D01*
X241288000Y-68053174D01*
X241288000Y-68101000D01*
X242263000Y-68101000D01*
X242263000Y-67875500D01*
X242279613Y-67813500D01*
X242325000Y-67768113D01*
X242386999Y-67751500D01*
X242487998Y-67751499D01*
X242589000Y-67751499D01*
X242651000Y-67768112D01*
X242696387Y-67813499D01*
X242713000Y-67875499D01*
X242713000Y-69051000D01*
X243235824Y-69051000D01*
X243295375Y-69044597D01*
X243430089Y-68994352D01*
X243545188Y-68908188D01*
X243631352Y-68793088D01*
X243639471Y-68771322D01*
X243676703Y-68719036D01*
X243735090Y-68692372D01*
X243798987Y-68698473D01*
X243855624Y-68719597D01*
X243915176Y-68726000D01*
X244438000Y-68726000D01*
X244438000Y-65976000D01*
X243915176Y-65976000D01*
X243855620Y-65982402D01*
X243799453Y-66003351D01*
X243735557Y-66009452D01*
X243677171Y-65982788D01*
X243639940Y-65930504D01*
X243631796Y-65908669D01*
X243545546Y-65793454D01*
X243430331Y-65707204D01*
X243295483Y-65656909D01*
X243235873Y-65650500D01*
X243235869Y-65650500D01*
X243109826Y-65650500D01*
X243043505Y-65631274D01*
X242997750Y-65579557D01*
X242986750Y-65511387D01*
X243013917Y-65447903D01*
X243057425Y-65418001D01*
X243056787Y-65416966D01*
X243218345Y-65317316D01*
X243342316Y-65193345D01*
X243417297Y-65071781D01*
X243462404Y-65028600D01*
X243522836Y-65012877D01*
X243583268Y-65028600D01*
X243628375Y-65071781D01*
X243657288Y-65118657D01*
X243781342Y-65242711D01*
X243781644Y-65242897D01*
X243930666Y-65334814D01*
X244001847Y-65358401D01*
X244097202Y-65389999D01*
X244107703Y-65391071D01*
X244199991Y-65400500D01*
X245000008Y-65400499D01*
X245102797Y-65389999D01*
X245269334Y-65334814D01*
X245418656Y-65242712D01*
X245512673Y-65148694D01*
X245568259Y-65116602D01*
X245632446Y-65116602D01*
X245688034Y-65148696D01*
X245781654Y-65242316D01*
X245930877Y-65334357D01*
X246097303Y-65389506D01*
X246200021Y-65400000D01*
X246350000Y-65400000D01*
X246350000Y-64450000D01*
X246850000Y-64450000D01*
X246850000Y-65399999D01*
X246999979Y-65399999D01*
X247102695Y-65389506D01*
X247269122Y-65334357D01*
X247418345Y-65242316D01*
X247542316Y-65118345D01*
X247634357Y-64969122D01*
X247689506Y-64802696D01*
X247700000Y-64699979D01*
X247700000Y-64450000D01*
X246850000Y-64450000D01*
X246350000Y-64450000D01*
X246350000Y-63000001D01*
X246200021Y-63000001D01*
X246097304Y-63010493D01*
X245930877Y-63065642D01*
X245781656Y-63157681D01*
X245688034Y-63251304D01*
X245632446Y-63283397D01*
X245568259Y-63283397D01*
X245512672Y-63251303D01*
X245418657Y-63157288D01*
X245304319Y-63086765D01*
X245269334Y-63065186D01*
X245232493Y-63052978D01*
X245188170Y-63027100D01*
X245168602Y-63000000D01*
X246850000Y-63000000D01*
X246850000Y-63950000D01*
X247699999Y-63950000D01*
X247699999Y-63700021D01*
X247689506Y-63597304D01*
X247634357Y-63430877D01*
X247542316Y-63281654D01*
X247418345Y-63157683D01*
X247269122Y-63065642D01*
X247102696Y-63010493D01*
X246999979Y-63000000D01*
X246850000Y-63000000D01*
X245168602Y-63000000D01*
X245158123Y-62985488D01*
X245147500Y-62935273D01*
X245147500Y-62824499D01*
X245164113Y-62762499D01*
X245209500Y-62717112D01*
X245261477Y-62703184D01*
X245261265Y-62701209D01*
X245267869Y-62700499D01*
X245267872Y-62700499D01*
X245327483Y-62694091D01*
X245462331Y-62643796D01*
X245577546Y-62557546D01*
X245663796Y-62442331D01*
X245671940Y-62420495D01*
X245709171Y-62368211D01*
X245767558Y-62341546D01*
X245831456Y-62347648D01*
X245887622Y-62368597D01*
X245947176Y-62375000D01*
X246470000Y-62375000D01*
X246470000Y-59625000D01*
X245947176Y-59625000D01*
X245887620Y-59631402D01*
X245831453Y-59652351D01*
X245767557Y-59658452D01*
X245709171Y-59631788D01*
X245671940Y-59579504D01*
X245663796Y-59557669D01*
X245577546Y-59442454D01*
X245462331Y-59356204D01*
X245395300Y-59331203D01*
X245330698Y-59307108D01*
X245275756Y-59266542D01*
X245250625Y-59203039D01*
X245262929Y-59135861D01*
X245308935Y-59085387D01*
X245418656Y-59017712D01*
X245542712Y-58893656D01*
X245605095Y-58792517D01*
X245617809Y-58771904D01*
X245662916Y-58728723D01*
X245723348Y-58713000D01*
X246379756Y-58713000D01*
X246400262Y-58715264D01*
X246403165Y-58715172D01*
X246403167Y-58715173D01*
X246470372Y-58713061D01*
X246474268Y-58713000D01*
X246501849Y-58713000D01*
X246501850Y-58713000D01*
X246505819Y-58712498D01*
X246517465Y-58711580D01*
X246561127Y-58710209D01*
X246580359Y-58704620D01*
X246599418Y-58700674D01*
X246605696Y-58699881D01*
X246619292Y-58698164D01*
X246659907Y-58682082D01*
X246670944Y-58678303D01*
X246712890Y-58666118D01*
X246730129Y-58655922D01*
X246747602Y-58647362D01*
X246766232Y-58639986D01*
X246801564Y-58614314D01*
X246811330Y-58607900D01*
X246848918Y-58585671D01*
X246848917Y-58585671D01*
X246848920Y-58585670D01*
X246863085Y-58571504D01*
X246877873Y-58558873D01*
X246894087Y-58547094D01*
X246921938Y-58513426D01*
X246929779Y-58504809D01*
X248208788Y-57225801D01*
X248224885Y-57212906D01*
X248226873Y-57210787D01*
X248226877Y-57210786D01*
X248272948Y-57161723D01*
X248275566Y-57159023D01*
X248295120Y-57139471D01*
X248297581Y-57136298D01*
X248305156Y-57127427D01*
X248335062Y-57095582D01*
X248344712Y-57078027D01*
X248355400Y-57061757D01*
X248359071Y-57057025D01*
X248367673Y-57045936D01*
X248385026Y-57005832D01*
X248390157Y-56995362D01*
X248393506Y-56989271D01*
X248411197Y-56957092D01*
X248416175Y-56937699D01*
X248422481Y-56919282D01*
X248426741Y-56909438D01*
X248430438Y-56900896D01*
X248437272Y-56857745D01*
X248439635Y-56846331D01*
X248450500Y-56804019D01*
X248450500Y-56783984D01*
X248452027Y-56764585D01*
X248455160Y-56744804D01*
X248451050Y-56701325D01*
X248450500Y-56689656D01*
X248450500Y-56349999D01*
X249944722Y-56349999D01*
X249963792Y-56567974D01*
X250020425Y-56779331D01*
X250038618Y-56818345D01*
X250112898Y-56977639D01*
X250238402Y-57156877D01*
X250393123Y-57311598D01*
X250521624Y-57401576D01*
X250560489Y-57445892D01*
X250574500Y-57503149D01*
X250574500Y-57817256D01*
X250572235Y-57837762D01*
X250574439Y-57907873D01*
X250574500Y-57911768D01*
X250574500Y-57939349D01*
X250575003Y-57943334D01*
X250575918Y-57954967D01*
X250577290Y-57998626D01*
X250582879Y-58017860D01*
X250586825Y-58036916D01*
X250589335Y-58056792D01*
X250605414Y-58097404D01*
X250609197Y-58108451D01*
X250621382Y-58150391D01*
X250631580Y-58167635D01*
X250640136Y-58185100D01*
X250647514Y-58203732D01*
X250647515Y-58203733D01*
X250673180Y-58239059D01*
X250679593Y-58248822D01*
X250701826Y-58286416D01*
X250701829Y-58286419D01*
X250701830Y-58286420D01*
X250715995Y-58300585D01*
X250728627Y-58315375D01*
X250740406Y-58331587D01*
X250774058Y-58359426D01*
X250782699Y-58367289D01*
X252199196Y-59783787D01*
X252212096Y-59799888D01*
X252214213Y-59801876D01*
X252214214Y-59801877D01*
X252228388Y-59815187D01*
X252263223Y-59847900D01*
X252266020Y-59850611D01*
X252285529Y-59870120D01*
X252288711Y-59872588D01*
X252297571Y-59880155D01*
X252324736Y-59905665D01*
X252329418Y-59910062D01*
X252346970Y-59919711D01*
X252363238Y-59930397D01*
X252379064Y-59942673D01*
X252419146Y-59960017D01*
X252429633Y-59965155D01*
X252467907Y-59986197D01*
X252476410Y-59988379D01*
X252487308Y-59991178D01*
X252505713Y-59997478D01*
X252524104Y-60005437D01*
X252567250Y-60012270D01*
X252578668Y-60014635D01*
X252620981Y-60025500D01*
X252641016Y-60025500D01*
X252660415Y-60027027D01*
X252680196Y-60030160D01*
X252723674Y-60026050D01*
X252735344Y-60025500D01*
X253708824Y-60025500D01*
X253760136Y-60036615D01*
X253802250Y-60067967D01*
X253827614Y-60113935D01*
X253900674Y-60357971D01*
X254019874Y-60634308D01*
X254039112Y-60678906D01*
X254213869Y-60981595D01*
X254266378Y-61052127D01*
X254422588Y-61261953D01*
X254662442Y-61516183D01*
X254930189Y-61740849D01*
X254930193Y-61740852D01*
X254930196Y-61740854D01*
X255222206Y-61932913D01*
X255541003Y-62093019D01*
X255539819Y-62095374D01*
X255579149Y-62122226D01*
X255607033Y-62177157D01*
X255605041Y-62238726D01*
X255573667Y-62291740D01*
X253377228Y-64488181D01*
X253337000Y-64515061D01*
X253289547Y-64524500D01*
X253230352Y-64524500D01*
X253045197Y-64563855D01*
X252872269Y-64640848D01*
X252719129Y-64752110D01*
X252592466Y-64892783D01*
X252497820Y-65056715D01*
X252439326Y-65236742D01*
X252420122Y-65419459D01*
X252419540Y-65425000D01*
X252426861Y-65494656D01*
X252439326Y-65613257D01*
X252497820Y-65793284D01*
X252592466Y-65957216D01*
X252719129Y-66097889D01*
X252872269Y-66209151D01*
X253045197Y-66286144D01*
X253230352Y-66325500D01*
X253230354Y-66325500D01*
X253419646Y-66325500D01*
X253419648Y-66325500D01*
X253617551Y-66283435D01*
X253618104Y-66286038D01*
X253663980Y-66279176D01*
X253725217Y-66304534D01*
X253764644Y-66357811D01*
X253770998Y-66423785D01*
X253739738Y-66601072D01*
X253719414Y-66949999D01*
X253739738Y-67298927D01*
X253800429Y-67643130D01*
X253800431Y-67643136D01*
X253900674Y-67977971D01*
X254017373Y-68248509D01*
X254039112Y-68298906D01*
X254213869Y-68601595D01*
X254303227Y-68721623D01*
X254422588Y-68881953D01*
X254662442Y-69136183D01*
X254930189Y-69360849D01*
X254930193Y-69360852D01*
X254930196Y-69360854D01*
X255222206Y-69552913D01*
X255534545Y-69709776D01*
X255645061Y-69750000D01*
X255862989Y-69829319D01*
X256203086Y-69909923D01*
X256550241Y-69950500D01*
X256899754Y-69950500D01*
X256899759Y-69950500D01*
X257246914Y-69909923D01*
X257587011Y-69829319D01*
X257915451Y-69709777D01*
X257915450Y-69709777D01*
X257915454Y-69709776D01*
X258227793Y-69552913D01*
X258227792Y-69552913D01*
X258519811Y-69360849D01*
X258787558Y-69136183D01*
X259027412Y-68881953D01*
X259236130Y-68601596D01*
X259410889Y-68298904D01*
X259549326Y-67977971D01*
X259649569Y-67643136D01*
X259710262Y-67298927D01*
X259730585Y-66950000D01*
X259710262Y-66601073D01*
X259651207Y-66266154D01*
X259649570Y-66256869D01*
X259649569Y-66256864D01*
X259549326Y-65922029D01*
X259410889Y-65601096D01*
X259236130Y-65298404D01*
X259027412Y-65018047D01*
X258787558Y-64763817D01*
X258519811Y-64539151D01*
X258519807Y-64539148D01*
X258519803Y-64539145D01*
X258227793Y-64347086D01*
X257915454Y-64190223D01*
X257587014Y-64070682D01*
X257587013Y-64070681D01*
X257587011Y-64070681D01*
X257400157Y-64026396D01*
X257246915Y-63990077D01*
X257189054Y-63983314D01*
X256899759Y-63949500D01*
X256550241Y-63949500D01*
X256309011Y-63977696D01*
X256203084Y-63990077D01*
X255896456Y-64062749D01*
X255832988Y-64061086D01*
X255778662Y-64028228D01*
X255747720Y-63972789D01*
X255748274Y-63909301D01*
X255780177Y-63854412D01*
X257108789Y-62525800D01*
X257124885Y-62512906D01*
X257126873Y-62510787D01*
X257126877Y-62510786D01*
X257172948Y-62461723D01*
X257175566Y-62459023D01*
X257195120Y-62439471D01*
X257197581Y-62436298D01*
X257205156Y-62427427D01*
X257235062Y-62395582D01*
X257244717Y-62378018D01*
X257255394Y-62361764D01*
X257267673Y-62345936D01*
X257272357Y-62335110D01*
X257306508Y-62289320D01*
X257357562Y-62263698D01*
X257587011Y-62209319D01*
X257915451Y-62089777D01*
X257915450Y-62089777D01*
X257915454Y-62089776D01*
X258227793Y-61932913D01*
X258519803Y-61740854D01*
X258519811Y-61740849D01*
X258787558Y-61516183D01*
X259027412Y-61261953D01*
X259236130Y-60981596D01*
X259410889Y-60678904D01*
X259549326Y-60357971D01*
X259649569Y-60023136D01*
X259710262Y-59678927D01*
X259730585Y-59330000D01*
X259710262Y-58981073D01*
X259653280Y-58657910D01*
X259649570Y-58636869D01*
X259644603Y-58620277D01*
X259549326Y-58302029D01*
X259410889Y-57981096D01*
X259236130Y-57678404D01*
X259027412Y-57398047D01*
X258787558Y-57143817D01*
X258519811Y-56919151D01*
X258519807Y-56919148D01*
X258519803Y-56919145D01*
X258227793Y-56727086D01*
X257915454Y-56570223D01*
X257587014Y-56450682D01*
X257587013Y-56450681D01*
X257587011Y-56450681D01*
X257340436Y-56392242D01*
X257246915Y-56370077D01*
X257189054Y-56363314D01*
X256899759Y-56329500D01*
X256550241Y-56329500D01*
X256302273Y-56358483D01*
X256203084Y-56370077D01*
X255862985Y-56450682D01*
X255534545Y-56570223D01*
X255222206Y-56727086D01*
X254930196Y-56919145D01*
X254930188Y-56919151D01*
X254930189Y-56919151D01*
X254662442Y-57143817D01*
X254662438Y-57143820D01*
X254662437Y-57143822D01*
X254422589Y-57398045D01*
X254213869Y-57678404D01*
X254039112Y-57981093D01*
X254006459Y-58056792D01*
X253900674Y-58302029D01*
X253867214Y-58413793D01*
X253800429Y-58636868D01*
X253794230Y-58672032D01*
X253771578Y-58724547D01*
X253727765Y-58761310D01*
X253672114Y-58774500D01*
X253010453Y-58774500D01*
X252963000Y-58765061D01*
X252922772Y-58738181D01*
X251861819Y-57677228D01*
X251834939Y-57637000D01*
X251825500Y-57589547D01*
X251825500Y-57503149D01*
X251839511Y-57445892D01*
X251878375Y-57401576D01*
X252006877Y-57311598D01*
X252161598Y-57156877D01*
X252287102Y-56977639D01*
X252379575Y-56779330D01*
X252436207Y-56567977D01*
X252455277Y-56350000D01*
X252455198Y-56349102D01*
X252442510Y-56204064D01*
X252436207Y-56132023D01*
X252379575Y-55920670D01*
X252287102Y-55722362D01*
X252161598Y-55543123D01*
X252006877Y-55388402D01*
X251827639Y-55262898D01*
X251736205Y-55220261D01*
X251629331Y-55170425D01*
X251417974Y-55113792D01*
X251200000Y-55094722D01*
X250982025Y-55113792D01*
X250770668Y-55170425D01*
X250572361Y-55262898D01*
X250393122Y-55388402D01*
X250238402Y-55543122D01*
X250112898Y-55722361D01*
X250020425Y-55920668D01*
X249963792Y-56132025D01*
X249944722Y-56349999D01*
X248450500Y-56349999D01*
X248450500Y-54000733D01*
X254787818Y-54000733D01*
X254930489Y-54120448D01*
X255222464Y-54312482D01*
X255534744Y-54469316D01*
X255863128Y-54588837D01*
X256203171Y-54669429D01*
X256550274Y-54710000D01*
X256899726Y-54710000D01*
X257246828Y-54669429D01*
X257586871Y-54588837D01*
X257915255Y-54469316D01*
X258227535Y-54312482D01*
X258519515Y-54120445D01*
X258662180Y-54000734D01*
X258662181Y-54000733D01*
X256725000Y-52063553D01*
X254787818Y-54000733D01*
X248450500Y-54000733D01*
X248450500Y-53007744D01*
X248452764Y-52987236D01*
X248450561Y-52917113D01*
X248450500Y-52913219D01*
X248450500Y-52885654D01*
X248450500Y-52885650D01*
X248449997Y-52881670D01*
X248449081Y-52870028D01*
X248447710Y-52826373D01*
X248442118Y-52807126D01*
X248438174Y-52788085D01*
X248435664Y-52768208D01*
X248419579Y-52727583D01*
X248415806Y-52716562D01*
X248403618Y-52674610D01*
X248393419Y-52657364D01*
X248384861Y-52639897D01*
X248377486Y-52621268D01*
X248351808Y-52585926D01*
X248345405Y-52576176D01*
X248323171Y-52538580D01*
X248309005Y-52524414D01*
X248296412Y-52509678D01*
X248296025Y-52509146D01*
X248274383Y-52458834D01*
X248276526Y-52404106D01*
X248286207Y-52367976D01*
X248305277Y-52149999D01*
X248286207Y-51932025D01*
X248286207Y-51932023D01*
X248229575Y-51720670D01*
X248224599Y-51710000D01*
X253719915Y-51710000D01*
X253740235Y-52058869D01*
X253800916Y-52403014D01*
X253901146Y-52737799D01*
X254039560Y-53058681D01*
X254214288Y-53361320D01*
X254422971Y-53641630D01*
X254431147Y-53650297D01*
X254431149Y-53650298D01*
X256371447Y-51710001D01*
X256371447Y-51710000D01*
X257078553Y-51710000D01*
X259018851Y-53650298D01*
X259027026Y-53641632D01*
X259235711Y-53361320D01*
X259410439Y-53058681D01*
X259548853Y-52737799D01*
X259649083Y-52403014D01*
X259709764Y-52058869D01*
X259730084Y-51710000D01*
X259709764Y-51361130D01*
X259649083Y-51016985D01*
X259548853Y-50682200D01*
X259410439Y-50361318D01*
X259235711Y-50058679D01*
X259027027Y-49778369D01*
X259018850Y-49769701D01*
X259018850Y-49769700D01*
X257078553Y-51710000D01*
X256371447Y-51710000D01*
X254431148Y-49769701D01*
X254431146Y-49769701D01*
X254422974Y-49778365D01*
X254214288Y-50058679D01*
X254039560Y-50361318D01*
X253901146Y-50682200D01*
X253800916Y-51016985D01*
X253740235Y-51361130D01*
X253719915Y-51710000D01*
X248224599Y-51710000D01*
X248137102Y-51522362D01*
X248011598Y-51343123D01*
X247856877Y-51188402D01*
X247677639Y-51062898D01*
X247579178Y-51016985D01*
X247479331Y-50970425D01*
X247267974Y-50913792D01*
X247050000Y-50894722D01*
X246832025Y-50913792D01*
X246620668Y-50970425D01*
X246422361Y-51062898D01*
X246243122Y-51188402D01*
X246088402Y-51343122D01*
X245962898Y-51522361D01*
X245870425Y-51720668D01*
X245813792Y-51932025D01*
X245794722Y-52149999D01*
X245813792Y-52367974D01*
X245870425Y-52579331D01*
X245902897Y-52648966D01*
X245962898Y-52777639D01*
X246088402Y-52956877D01*
X246243123Y-53111598D01*
X246422361Y-53237102D01*
X246620670Y-53329575D01*
X246832023Y-53386207D01*
X246977341Y-53398920D01*
X247049999Y-53405277D01*
X247049999Y-53405276D01*
X247050000Y-53405277D01*
X247052550Y-53405053D01*
X247064693Y-53403992D01*
X247131151Y-53416709D01*
X247181038Y-53462423D01*
X247199500Y-53527520D01*
X247199500Y-56414548D01*
X247190061Y-56462001D01*
X247163181Y-56502229D01*
X246239728Y-57425681D01*
X246199500Y-57452561D01*
X246152047Y-57462000D01*
X245723348Y-57462000D01*
X245662916Y-57446277D01*
X245617809Y-57403096D01*
X245542711Y-57281342D01*
X245418659Y-57157290D01*
X245418653Y-57157286D01*
X245415344Y-57155245D01*
X245372163Y-57110138D01*
X245356440Y-57049704D01*
X245372164Y-56989271D01*
X245415348Y-56944164D01*
X245418348Y-56942313D01*
X245542316Y-56818345D01*
X245634357Y-56669122D01*
X245689506Y-56502696D01*
X245700000Y-56399979D01*
X245700000Y-56262500D01*
X243250001Y-56262500D01*
X243250001Y-56399979D01*
X243260493Y-56502695D01*
X243315642Y-56669122D01*
X243407683Y-56818345D01*
X243531654Y-56942316D01*
X243534656Y-56944168D01*
X243577835Y-56989274D01*
X243593558Y-57049704D01*
X243577837Y-57110135D01*
X243534659Y-57155242D01*
X243531344Y-57157286D01*
X243407288Y-57281342D01*
X243315186Y-57430665D01*
X243273653Y-57556004D01*
X243247774Y-57600329D01*
X243206162Y-57630377D01*
X243155947Y-57641000D01*
X243053731Y-57641000D01*
X243006278Y-57631561D01*
X242966050Y-57604681D01*
X242943657Y-57582288D01*
X242794334Y-57490186D01*
X242627797Y-57435000D01*
X242525009Y-57424500D01*
X241524991Y-57424500D01*
X241422203Y-57435000D01*
X241255665Y-57490186D01*
X241106342Y-57582288D01*
X240982288Y-57706342D01*
X240890186Y-57855665D01*
X240835000Y-58022202D01*
X240824500Y-58124990D01*
X240824500Y-58875008D01*
X240835000Y-58977796D01*
X240890186Y-59144334D01*
X240982288Y-59293657D01*
X241106344Y-59417713D01*
X241109181Y-59419463D01*
X241152360Y-59464569D01*
X241168082Y-59525000D01*
X241152360Y-59585431D01*
X241109181Y-59630537D01*
X241106344Y-59632286D01*
X240982288Y-59756342D01*
X240890186Y-59905665D01*
X240835000Y-60072202D01*
X240824500Y-60174990D01*
X240824500Y-60925008D01*
X240835000Y-61027796D01*
X240890186Y-61194334D01*
X240982288Y-61343657D01*
X241106342Y-61467711D01*
X241106736Y-61467954D01*
X241255666Y-61559814D01*
X241367017Y-61596712D01*
X241422202Y-61614999D01*
X241432703Y-61616071D01*
X241524991Y-61625500D01*
X242525008Y-61625499D01*
X242627797Y-61614999D01*
X242794334Y-61559814D01*
X242943656Y-61467712D01*
X243067712Y-61343656D01*
X243067713Y-61343653D01*
X243072548Y-61338819D01*
X243112777Y-61311939D01*
X243160230Y-61302500D01*
X243196000Y-61302500D01*
X243258000Y-61319113D01*
X243303387Y-61364500D01*
X243320000Y-61426500D01*
X243320000Y-61597828D01*
X243323931Y-61634400D01*
X243323931Y-61660904D01*
X243319500Y-61702127D01*
X243319500Y-62247869D01*
X243325909Y-62307484D01*
X243346151Y-62361756D01*
X243376204Y-62442331D01*
X243462454Y-62557546D01*
X243577669Y-62643796D01*
X243712517Y-62694091D01*
X243772127Y-62700500D01*
X243772132Y-62700500D01*
X243778735Y-62701210D01*
X243778522Y-62703185D01*
X243830500Y-62717113D01*
X243875887Y-62762500D01*
X243892500Y-62824500D01*
X243892500Y-63019520D01*
X243876777Y-63079952D01*
X243833598Y-63125057D01*
X243781344Y-63157287D01*
X243781344Y-63157288D01*
X243657288Y-63281343D01*
X243597535Y-63378219D01*
X243552428Y-63421399D01*
X243491996Y-63437122D01*
X243431564Y-63421399D01*
X243386457Y-63378218D01*
X243342316Y-63306654D01*
X243218345Y-63182683D01*
X243069122Y-63090642D01*
X242902696Y-63035493D01*
X242799979Y-63025000D01*
X242662500Y-63025000D01*
X242662500Y-64376000D01*
X242645887Y-64438000D01*
X242600500Y-64483387D01*
X242538500Y-64500000D01*
X242286500Y-64500000D01*
X242224500Y-64483387D01*
X242179113Y-64438000D01*
X242162500Y-64376000D01*
X242162500Y-63025001D01*
X242025021Y-63025001D01*
X241922304Y-63035493D01*
X241755877Y-63090642D01*
X241606654Y-63182683D01*
X241482683Y-63306654D01*
X241480830Y-63309659D01*
X241435721Y-63352838D01*
X241375289Y-63368559D01*
X241314857Y-63352834D01*
X241269752Y-63309652D01*
X241267903Y-63306654D01*
X241267712Y-63306344D01*
X241267710Y-63306342D01*
X241267709Y-63306340D01*
X241143657Y-63182288D01*
X240994334Y-63090186D01*
X240827797Y-63035000D01*
X240725009Y-63024500D01*
X240404584Y-63024500D01*
X240348289Y-63010985D01*
X240304266Y-62973385D01*
X240282111Y-62919897D01*
X240286652Y-62862185D01*
X240310674Y-62788256D01*
X240330460Y-62600000D01*
X240310674Y-62411744D01*
X240257429Y-62247873D01*
X240252179Y-62231715D01*
X240157533Y-62067783D01*
X240030870Y-61927110D01*
X239877730Y-61815848D01*
X239704802Y-61738855D01*
X239519648Y-61699500D01*
X239519646Y-61699500D01*
X239330354Y-61699500D01*
X239330352Y-61699500D01*
X239145197Y-61738855D01*
X238972269Y-61815848D01*
X238819128Y-61927111D01*
X238790890Y-61958473D01*
X238749176Y-61988780D01*
X238698741Y-61999500D01*
X236859181Y-61999500D01*
X236796402Y-61982434D01*
X236750904Y-61935932D01*
X236735210Y-61872796D01*
X236753642Y-61810404D01*
X236764435Y-61792906D01*
X236809814Y-61719334D01*
X236864999Y-61552797D01*
X236875500Y-61450009D01*
X236875499Y-60449992D01*
X236869784Y-60394050D01*
X236864999Y-60347203D01*
X236855039Y-60317145D01*
X236809814Y-60180666D01*
X236740301Y-60067967D01*
X236717711Y-60031342D01*
X236593657Y-59907288D01*
X236444336Y-59815187D01*
X236444335Y-59815186D01*
X236444334Y-59815186D01*
X236440741Y-59813995D01*
X236390448Y-59782323D01*
X236360670Y-59730884D01*
X236353618Y-59706610D01*
X236345346Y-59692624D01*
X236343417Y-59689361D01*
X236334860Y-59671895D01*
X236327486Y-59653268D01*
X236301813Y-59617932D01*
X236295402Y-59608171D01*
X236268660Y-59562952D01*
X236251781Y-59509648D01*
X236260035Y-59454348D01*
X236291743Y-59408296D01*
X236340458Y-59380855D01*
X236443298Y-59350659D01*
X236451084Y-59347103D01*
X236574216Y-59290871D01*
X236695170Y-59213139D01*
X236752927Y-59169903D01*
X236803943Y-59118887D01*
X236898097Y-59010226D01*
X236975904Y-58889155D01*
X237028037Y-58775000D01*
X237519540Y-58775000D01*
X237539326Y-58963257D01*
X237597820Y-59143284D01*
X237692466Y-59307216D01*
X237819129Y-59447889D01*
X237972269Y-59559151D01*
X238145197Y-59636144D01*
X238330352Y-59675500D01*
X238330354Y-59675500D01*
X238519646Y-59675500D01*
X238519648Y-59675500D01*
X238643084Y-59649262D01*
X238704803Y-59636144D01*
X238877730Y-59559151D01*
X238924735Y-59525000D01*
X239030870Y-59447889D01*
X239058043Y-59417711D01*
X239157533Y-59307216D01*
X239252179Y-59143284D01*
X239310674Y-58963256D01*
X239330460Y-58775000D01*
X239310674Y-58586744D01*
X239275328Y-58477960D01*
X239252179Y-58406715D01*
X239157535Y-58242786D01*
X239122370Y-58203732D01*
X239082347Y-58159282D01*
X239058736Y-58120751D01*
X239050500Y-58076313D01*
X239050500Y-56835452D01*
X239059939Y-56787999D01*
X239086819Y-56747771D01*
X239913922Y-55920668D01*
X240072090Y-55762500D01*
X243250000Y-55762500D01*
X244225000Y-55762500D01*
X244225000Y-54925001D01*
X243950021Y-54925001D01*
X243847304Y-54935493D01*
X243680877Y-54990642D01*
X243531654Y-55082683D01*
X243407683Y-55206654D01*
X243315642Y-55355877D01*
X243260493Y-55522303D01*
X243250000Y-55625021D01*
X243250000Y-55762500D01*
X240072090Y-55762500D01*
X240909589Y-54925000D01*
X244725000Y-54925000D01*
X244725000Y-55762500D01*
X245699999Y-55762500D01*
X245699999Y-55625021D01*
X245689506Y-55522304D01*
X245634357Y-55355877D01*
X245542316Y-55206654D01*
X245418345Y-55082683D01*
X245269122Y-54990642D01*
X245102696Y-54935493D01*
X244999979Y-54925000D01*
X244725000Y-54925000D01*
X240909589Y-54925000D01*
X240947731Y-54886858D01*
X240986188Y-54860729D01*
X241031565Y-54850602D01*
X241032945Y-54850558D01*
X241036765Y-54850500D01*
X241064349Y-54850500D01*
X241064350Y-54850500D01*
X241068319Y-54849998D01*
X241079965Y-54849080D01*
X241123627Y-54847709D01*
X241142859Y-54842120D01*
X241161918Y-54838174D01*
X241168196Y-54837381D01*
X241181792Y-54835664D01*
X241222407Y-54819582D01*
X241233444Y-54815803D01*
X241275390Y-54803618D01*
X241292629Y-54793422D01*
X241310102Y-54784862D01*
X241328732Y-54777486D01*
X241364064Y-54751814D01*
X241373830Y-54745400D01*
X241411418Y-54723171D01*
X241411417Y-54723171D01*
X241411420Y-54723170D01*
X241425585Y-54709004D01*
X241440373Y-54696373D01*
X241456587Y-54684594D01*
X241484438Y-54650926D01*
X241492279Y-54642309D01*
X243558192Y-52576396D01*
X243603461Y-52547557D01*
X243656677Y-52540551D01*
X243825000Y-52555277D01*
X244042977Y-52536207D01*
X244254330Y-52479575D01*
X244452639Y-52387102D01*
X244631877Y-52261598D01*
X244786598Y-52106877D01*
X244912102Y-51927639D01*
X245004575Y-51729330D01*
X245061207Y-51517977D01*
X245080277Y-51300000D01*
X245061207Y-51082023D01*
X245004575Y-50870670D01*
X244912102Y-50672362D01*
X244874124Y-50618124D01*
X249085426Y-50618124D01*
X249085427Y-50618125D01*
X249147610Y-50661666D01*
X249345840Y-50754102D01*
X249557113Y-50810712D01*
X249775000Y-50829775D01*
X249992886Y-50810712D01*
X250204159Y-50754102D01*
X250402385Y-50661667D01*
X250464572Y-50618124D01*
X249775001Y-49928553D01*
X249775000Y-49928553D01*
X249085426Y-50618124D01*
X244874124Y-50618124D01*
X244786598Y-50493123D01*
X244631877Y-50338402D01*
X244452639Y-50212898D01*
X244361205Y-50170261D01*
X244254331Y-50120425D01*
X244042974Y-50063792D01*
X243825000Y-50044722D01*
X243607025Y-50063792D01*
X243395668Y-50120425D01*
X243197361Y-50212898D01*
X243018122Y-50338402D01*
X242863402Y-50493122D01*
X242737898Y-50672361D01*
X242645425Y-50870668D01*
X242588792Y-51082025D01*
X242569722Y-51300000D01*
X242588792Y-51517976D01*
X242624920Y-51652808D01*
X242624920Y-51716995D01*
X242592826Y-51772582D01*
X240802269Y-53563138D01*
X240763873Y-53589242D01*
X240718568Y-53599393D01*
X240717229Y-53599436D01*
X240713249Y-53599500D01*
X240685648Y-53599500D01*
X240681653Y-53600004D01*
X240670029Y-53600918D01*
X240626368Y-53602290D01*
X240607128Y-53607880D01*
X240588081Y-53611825D01*
X240568209Y-53614335D01*
X240527599Y-53630413D01*
X240516554Y-53634194D01*
X240474611Y-53646380D01*
X240457369Y-53656578D01*
X240439897Y-53665138D01*
X240421266Y-53672514D01*
X240385938Y-53698181D01*
X240376180Y-53704591D01*
X240338579Y-53726829D01*
X240324410Y-53740998D01*
X240309622Y-53753628D01*
X240293413Y-53765405D01*
X240265572Y-53799058D01*
X240257711Y-53807696D01*
X238041208Y-56024199D01*
X238025110Y-56037096D01*
X237977096Y-56088225D01*
X237974391Y-56091017D01*
X237954874Y-56110534D01*
X237952415Y-56113705D01*
X237944842Y-56122572D01*
X237914935Y-56154420D01*
X237905285Y-56171974D01*
X237894609Y-56188228D01*
X237882326Y-56204063D01*
X237864975Y-56244158D01*
X237859838Y-56254644D01*
X237838802Y-56292907D01*
X237833821Y-56312309D01*
X237827520Y-56330711D01*
X237819561Y-56349102D01*
X237812728Y-56392242D01*
X237810360Y-56403674D01*
X237799500Y-56445978D01*
X237799500Y-56466016D01*
X237797973Y-56485415D01*
X237794840Y-56505194D01*
X237798950Y-56548675D01*
X237799500Y-56560344D01*
X237799500Y-58076313D01*
X237791264Y-58120751D01*
X237767652Y-58159282D01*
X237760132Y-58167635D01*
X237692464Y-58242786D01*
X237597820Y-58406715D01*
X237539326Y-58586742D01*
X237519540Y-58775000D01*
X237028037Y-58775000D01*
X237035632Y-58758370D01*
X237060844Y-58690773D01*
X237076180Y-58620277D01*
X237096642Y-58477962D01*
X237101789Y-58406000D01*
X237096962Y-58338525D01*
X237096647Y-58329680D01*
X237096647Y-57982320D01*
X237096963Y-57973473D01*
X237101789Y-57905999D01*
X237096642Y-57834039D01*
X237077992Y-57704330D01*
X237076180Y-57691723D01*
X237060844Y-57621227D01*
X237035632Y-57553630D01*
X236975904Y-57422845D01*
X236898097Y-57301774D01*
X236832270Y-57225805D01*
X236803944Y-57193114D01*
X236752927Y-57142097D01*
X236695176Y-57098865D01*
X236695170Y-57098861D01*
X236574216Y-57021129D01*
X236504463Y-56989274D01*
X236443299Y-56961341D01*
X236305346Y-56920835D01*
X236226077Y-56909438D01*
X236162889Y-56900353D01*
X235541000Y-56900353D01*
X235515685Y-56903685D01*
X235447096Y-56893130D01*
X235394920Y-56847373D01*
X235375500Y-56780747D01*
X235375500Y-53628149D01*
X235389511Y-53570892D01*
X235428375Y-53526576D01*
X235556877Y-53436598D01*
X235711598Y-53281877D01*
X235837102Y-53102639D01*
X235929575Y-52904330D01*
X235986207Y-52692977D01*
X236005277Y-52475000D01*
X235986207Y-52257023D01*
X235929575Y-52045670D01*
X235837102Y-51847362D01*
X235711598Y-51668123D01*
X235556877Y-51513402D01*
X235377639Y-51387898D01*
X235281617Y-51343122D01*
X235179331Y-51295425D01*
X234967974Y-51238792D01*
X234750000Y-51219722D01*
X234532025Y-51238792D01*
X234320668Y-51295425D01*
X234122361Y-51387898D01*
X233943122Y-51513402D01*
X233788402Y-51668122D01*
X233662898Y-51847361D01*
X233570425Y-52045668D01*
X233513792Y-52257025D01*
X233494722Y-52474999D01*
X233513792Y-52692974D01*
X233570425Y-52904331D01*
X233594928Y-52956877D01*
X233662898Y-53102639D01*
X233788402Y-53281877D01*
X233943123Y-53436598D01*
X234071624Y-53526576D01*
X234110489Y-53570892D01*
X234124500Y-53628149D01*
X234124500Y-56776353D01*
X234107887Y-56838353D01*
X234062500Y-56883740D01*
X234000500Y-56900353D01*
X233419111Y-56900353D01*
X233371625Y-56907180D01*
X233276653Y-56920835D01*
X233138700Y-56961341D01*
X233007786Y-57021128D01*
X232886823Y-57098865D01*
X232829072Y-57142097D01*
X232778055Y-57193114D01*
X232683905Y-57301770D01*
X232606095Y-57422846D01*
X232546368Y-57553628D01*
X232521156Y-57621226D01*
X232505819Y-57691724D01*
X232485357Y-57834039D01*
X232480210Y-57905999D01*
X232485037Y-57973473D01*
X232485353Y-57982320D01*
X232485353Y-58329680D01*
X232485037Y-58338527D01*
X232480210Y-58406000D01*
X232485357Y-58477960D01*
X232505819Y-58620275D01*
X232521156Y-58690773D01*
X232546368Y-58758371D01*
X232579025Y-58829879D01*
X232606096Y-58889155D01*
X232653718Y-58963257D01*
X232683905Y-59010229D01*
X232770195Y-59109814D01*
X232778057Y-59118887D01*
X232829073Y-59169903D01*
X232886830Y-59213139D01*
X233007784Y-59290871D01*
X233138700Y-59350658D01*
X233276655Y-59391165D01*
X233419111Y-59411647D01*
X234040999Y-59411647D01*
X234041000Y-59411647D01*
X234138685Y-59398785D01*
X234168122Y-59398436D01*
X234190875Y-59400882D01*
X234243127Y-59406500D01*
X234288547Y-59406499D01*
X234335999Y-59415937D01*
X234376228Y-59442818D01*
X234529426Y-59596016D01*
X234561885Y-59652999D01*
X234560741Y-59718569D01*
X234526313Y-59774385D01*
X234468231Y-59804835D01*
X234402741Y-59801403D01*
X234277797Y-59760000D01*
X234175009Y-59749500D01*
X233374991Y-59749500D01*
X233272203Y-59760000D01*
X233105665Y-59815186D01*
X232956342Y-59907288D01*
X232832288Y-60031342D01*
X232740186Y-60180665D01*
X232685000Y-60347202D01*
X232674500Y-60449990D01*
X232674500Y-61450008D01*
X232685000Y-61552796D01*
X232740186Y-61719334D01*
X232832288Y-61868657D01*
X232956342Y-61992711D01*
X232965332Y-61998256D01*
X233105666Y-62084814D01*
X233219189Y-62122431D01*
X233267865Y-62152455D01*
X233290991Y-62175581D01*
X233303627Y-62190375D01*
X233315406Y-62206587D01*
X233349058Y-62234426D01*
X233357699Y-62242289D01*
X233676229Y-62560819D01*
X233706479Y-62610182D01*
X233711021Y-62667898D01*
X233688866Y-62721385D01*
X233644843Y-62758985D01*
X233588548Y-62772500D01*
X230324500Y-62772500D01*
X230262500Y-62755887D01*
X230217113Y-62710500D01*
X230200500Y-62648500D01*
X230200500Y-60407741D01*
X230202763Y-60387237D01*
X230200561Y-60317145D01*
X230200500Y-60313251D01*
X230200500Y-60285657D01*
X230200500Y-60285650D01*
X230199995Y-60281653D01*
X230199080Y-60270023D01*
X230197709Y-60226373D01*
X230192120Y-60207140D01*
X230188174Y-60188082D01*
X230185664Y-60168208D01*
X230180698Y-60155666D01*
X230169585Y-60127597D01*
X230165804Y-60116552D01*
X230153619Y-60074612D01*
X230143419Y-60057366D01*
X230134862Y-60039900D01*
X230127486Y-60021268D01*
X230127483Y-60021263D01*
X230123285Y-60010660D01*
X230114784Y-59972151D01*
X230118805Y-59932921D01*
X230136207Y-59867977D01*
X230155277Y-59650000D01*
X230147329Y-59559151D01*
X230136207Y-59432023D01*
X230079575Y-59220670D01*
X229987102Y-59022362D01*
X229861598Y-58843123D01*
X229706877Y-58688402D01*
X229527639Y-58562898D01*
X229403043Y-58504798D01*
X229329331Y-58470425D01*
X229117974Y-58413792D01*
X228900000Y-58394722D01*
X228682025Y-58413792D01*
X228470668Y-58470425D01*
X228272361Y-58562898D01*
X228093122Y-58688402D01*
X227938402Y-58843122D01*
X227812898Y-59022361D01*
X227720425Y-59220668D01*
X227663792Y-59432025D01*
X227644722Y-59650000D01*
X227663792Y-59867974D01*
X227720425Y-60079331D01*
X227761869Y-60168208D01*
X227812898Y-60277639D01*
X227938402Y-60456877D01*
X228093123Y-60611598D01*
X228272361Y-60737102D01*
X228470670Y-60829575D01*
X228682023Y-60886207D01*
X228743444Y-60891580D01*
X228836307Y-60899705D01*
X228893639Y-60919632D01*
X228934645Y-60964382D01*
X228949500Y-61023233D01*
X228949500Y-62701313D01*
X228941264Y-62745751D01*
X228917652Y-62784282D01*
X228887553Y-62817711D01*
X228842464Y-62867786D01*
X228747820Y-63031715D01*
X228689326Y-63211742D01*
X228669540Y-63400000D01*
X228689326Y-63588257D01*
X228747820Y-63768284D01*
X228842466Y-63932216D01*
X228969129Y-64072889D01*
X229122269Y-64184151D01*
X229295197Y-64261144D01*
X229480352Y-64300500D01*
X229480354Y-64300500D01*
X229669646Y-64300500D01*
X229669648Y-64300500D01*
X229793083Y-64274262D01*
X229854803Y-64261144D01*
X230027730Y-64184151D01*
X230027729Y-64184151D01*
X230180870Y-64072889D01*
X230184797Y-64068528D01*
X230226511Y-64038220D01*
X230276947Y-64027500D01*
X235688719Y-64027500D01*
X235736172Y-64036939D01*
X235776400Y-64063819D01*
X236204113Y-64491532D01*
X236206891Y-64494998D01*
X236214211Y-64501873D01*
X236214214Y-64501877D01*
X236216839Y-64504342D01*
X236219602Y-64507021D01*
X236284204Y-64571623D01*
X236288558Y-64575000D01*
X236304189Y-64587125D01*
X236313068Y-64594708D01*
X236320195Y-64601401D01*
X236329418Y-64610062D01*
X236335770Y-64613554D01*
X236352029Y-64624233D01*
X236378038Y-64644408D01*
X236378039Y-64644408D01*
X236378040Y-64644409D01*
X236437772Y-64670258D01*
X236448260Y-64675395D01*
X236467908Y-64686197D01*
X236474924Y-64687998D01*
X236493336Y-64694302D01*
X236523538Y-64707372D01*
X236523539Y-64707372D01*
X236523541Y-64707373D01*
X236587833Y-64717554D01*
X236599251Y-64719920D01*
X236620981Y-64725500D01*
X236628238Y-64725500D01*
X236647633Y-64727026D01*
X236680133Y-64732174D01*
X236744919Y-64726049D01*
X236756587Y-64725500D01*
X236874782Y-64725500D01*
X236935214Y-64741223D01*
X236980321Y-64784404D01*
X237032288Y-64868657D01*
X237156344Y-64992713D01*
X237159181Y-64994463D01*
X237202360Y-65039569D01*
X237218082Y-65100000D01*
X237202360Y-65160431D01*
X237159181Y-65205537D01*
X237156344Y-65207286D01*
X237032288Y-65331342D01*
X236940186Y-65480665D01*
X236885000Y-65647202D01*
X236874500Y-65749991D01*
X236874500Y-65862719D01*
X236860985Y-65919014D01*
X236823385Y-65963037D01*
X236769898Y-65985192D01*
X236712182Y-65980650D01*
X236662819Y-65950400D01*
X236113375Y-65400956D01*
X236100439Y-65384809D01*
X236049153Y-65336648D01*
X236046354Y-65333935D01*
X236026795Y-65314375D01*
X236023606Y-65311902D01*
X236014716Y-65304310D01*
X236002011Y-65292379D01*
X235982767Y-65274307D01*
X235976339Y-65270773D01*
X235965120Y-65264605D01*
X235948858Y-65253922D01*
X235932963Y-65241592D01*
X235892736Y-65224184D01*
X235882248Y-65219046D01*
X235843831Y-65197926D01*
X235824337Y-65192921D01*
X235805933Y-65186620D01*
X235787458Y-65178625D01*
X235744171Y-65171769D01*
X235732736Y-65169401D01*
X235690274Y-65158500D01*
X235690272Y-65158500D01*
X235670142Y-65158500D01*
X235650743Y-65156973D01*
X235630868Y-65153825D01*
X235630867Y-65153825D01*
X235610261Y-65155772D01*
X235587230Y-65157950D01*
X235575561Y-65158500D01*
X234386405Y-65158500D01*
X234325973Y-65142777D01*
X234280866Y-65099597D01*
X234215126Y-64993015D01*
X234214712Y-64992344D01*
X234214711Y-64992343D01*
X234214710Y-64992341D01*
X234090657Y-64868288D01*
X233941334Y-64776186D01*
X233774797Y-64721000D01*
X233672009Y-64710500D01*
X232671991Y-64710500D01*
X232569203Y-64721000D01*
X232402665Y-64776186D01*
X232253344Y-64868287D01*
X232135077Y-64986554D01*
X232079489Y-65018647D01*
X232015302Y-65018647D01*
X231959715Y-64986553D01*
X231829345Y-64856183D01*
X231680122Y-64764142D01*
X231513696Y-64708993D01*
X231410979Y-64698500D01*
X231136000Y-64698500D01*
X231136000Y-65912000D01*
X231119387Y-65974000D01*
X231074000Y-66019387D01*
X231012000Y-66036000D01*
X230760000Y-66036000D01*
X230698000Y-66019387D01*
X230652613Y-65974000D01*
X230636000Y-65912000D01*
X230636000Y-64698501D01*
X230361021Y-64698501D01*
X230258304Y-64708993D01*
X230091877Y-64764142D01*
X229942654Y-64856183D01*
X229818684Y-64980153D01*
X229721539Y-65137652D01*
X229676432Y-65180832D01*
X229616000Y-65196555D01*
X229555568Y-65180832D01*
X229510461Y-65137652D01*
X229413315Y-64980153D01*
X229289345Y-64856183D01*
X229140122Y-64764142D01*
X228973696Y-64708993D01*
X228870979Y-64698500D01*
X228596000Y-64698500D01*
X228596000Y-65912000D01*
X228579387Y-65974000D01*
X228534000Y-66019387D01*
X228472000Y-66036000D01*
X227175362Y-66036000D01*
X227127909Y-66026561D01*
X227087681Y-65999681D01*
X227081000Y-65993000D01*
X225651500Y-65993000D01*
X225589500Y-65976387D01*
X225544113Y-65931000D01*
X225527500Y-65869000D01*
X225527500Y-65617000D01*
X225544113Y-65555000D01*
X225589500Y-65509613D01*
X225651500Y-65493000D01*
X225810000Y-65493000D01*
X225810000Y-64655501D01*
X225651500Y-64655501D01*
X225651496Y-64655500D01*
X226310000Y-64655500D01*
X226310000Y-65493000D01*
X227230638Y-65493000D01*
X227278091Y-65502439D01*
X227318319Y-65529319D01*
X227325000Y-65536000D01*
X228096000Y-65536000D01*
X228096000Y-64698501D01*
X227821021Y-64698501D01*
X227718304Y-64708993D01*
X227551877Y-64764142D01*
X227402654Y-64856183D01*
X227312181Y-64946657D01*
X227256594Y-64978751D01*
X227192406Y-64978751D01*
X227136819Y-64946657D01*
X227003345Y-64813183D01*
X226854122Y-64721142D01*
X226687696Y-64665993D01*
X226584979Y-64655500D01*
X226310000Y-64655500D01*
X225651496Y-64655500D01*
X225589500Y-64638888D01*
X225544113Y-64593501D01*
X225527500Y-64531501D01*
X225527500Y-62730524D01*
X225526478Y-62722435D01*
X225525500Y-62706892D01*
X225525500Y-59757741D01*
X225527763Y-59737237D01*
X225527563Y-59730884D01*
X225525561Y-59667145D01*
X225525500Y-59663251D01*
X225525500Y-59635657D01*
X225525500Y-59635650D01*
X225524995Y-59631653D01*
X225524080Y-59620023D01*
X225522709Y-59576373D01*
X225517120Y-59557140D01*
X225513174Y-59538082D01*
X225510664Y-59518206D01*
X225494588Y-59477604D01*
X225490804Y-59466553D01*
X225480772Y-59432025D01*
X225478618Y-59424610D01*
X225468414Y-59407355D01*
X225459861Y-59389895D01*
X225456282Y-59380855D01*
X225452486Y-59371268D01*
X225426808Y-59335925D01*
X225420401Y-59326171D01*
X225408418Y-59305909D01*
X225398170Y-59288580D01*
X225384006Y-59274416D01*
X225371368Y-59259619D01*
X225359593Y-59243412D01*
X225325942Y-59215573D01*
X225317302Y-59207711D01*
X225025806Y-58916216D01*
X225012905Y-58900113D01*
X224961775Y-58852098D01*
X224958978Y-58849387D01*
X224939470Y-58829879D01*
X224936290Y-58827412D01*
X224927424Y-58819839D01*
X224895582Y-58789938D01*
X224878024Y-58780285D01*
X224861764Y-58769604D01*
X224845936Y-58757327D01*
X224805851Y-58739980D01*
X224795361Y-58734841D01*
X224757091Y-58713802D01*
X224737691Y-58708821D01*
X224719284Y-58702519D01*
X224687548Y-58688786D01*
X224637526Y-58649294D01*
X224630557Y-58639985D01*
X224574128Y-58564605D01*
X224557547Y-58542455D01*
X224442331Y-58456204D01*
X224307483Y-58405909D01*
X224247873Y-58399500D01*
X224247869Y-58399500D01*
X223252130Y-58399500D01*
X223192513Y-58405909D01*
X223092616Y-58443168D01*
X223049283Y-58450986D01*
X223005951Y-58443168D01*
X222907377Y-58406402D01*
X222847824Y-58400000D01*
X222600000Y-58400000D01*
X222600000Y-59375500D01*
X222583387Y-59437500D01*
X222538000Y-59482887D01*
X222476000Y-59499500D01*
X221852130Y-59499500D01*
X221792515Y-59505909D01*
X221695264Y-59542182D01*
X221651931Y-59550000D01*
X221400000Y-59550000D01*
X221400000Y-59747824D01*
X221406806Y-59811139D01*
X221413688Y-59849284D01*
X221405937Y-59892250D01*
X221401836Y-59930397D01*
X221399783Y-59949501D01*
X221399500Y-59952130D01*
X221399500Y-60847869D01*
X221405909Y-60907484D01*
X221420973Y-60947872D01*
X221456204Y-61042331D01*
X221475567Y-61068196D01*
X221542454Y-61157546D01*
X221671942Y-61254481D01*
X221671049Y-61255673D01*
X221686068Y-61265074D01*
X221714488Y-61306004D01*
X221724500Y-61354818D01*
X221724500Y-63317256D01*
X221722235Y-63337762D01*
X221724439Y-63407873D01*
X221724500Y-63411768D01*
X221724500Y-63439349D01*
X221725003Y-63443334D01*
X221725918Y-63454967D01*
X221727290Y-63498626D01*
X221732879Y-63517860D01*
X221736825Y-63536916D01*
X221739335Y-63556792D01*
X221755414Y-63597404D01*
X221759197Y-63608451D01*
X221771382Y-63650391D01*
X221781580Y-63667635D01*
X221790136Y-63685100D01*
X221797514Y-63703732D01*
X221797515Y-63703733D01*
X221823180Y-63739059D01*
X221829593Y-63748822D01*
X221851826Y-63786416D01*
X221851829Y-63786419D01*
X221851830Y-63786420D01*
X221865995Y-63800585D01*
X221878627Y-63815375D01*
X221890406Y-63831587D01*
X221924058Y-63859426D01*
X221932699Y-63867289D01*
X221963181Y-63897771D01*
X221990061Y-63937999D01*
X221999500Y-63985452D01*
X221999500Y-64047273D01*
X221997500Y-64063104D01*
X221997500Y-66217034D01*
X221994514Y-66244084D01*
X221991903Y-66255765D01*
X221989234Y-66255168D01*
X221979984Y-66294043D01*
X221935084Y-66340955D01*
X221872630Y-66358741D01*
X221809751Y-66342524D01*
X221763691Y-66296750D01*
X221732536Y-66242788D01*
X221732534Y-66242785D01*
X221732533Y-66242784D01*
X221659348Y-66161503D01*
X221635736Y-66122972D01*
X221627500Y-66078534D01*
X221627500Y-65207966D01*
X221629770Y-65187403D01*
X221629510Y-65179132D01*
X221627561Y-65117095D01*
X221627500Y-65113200D01*
X221627500Y-65085525D01*
X221626993Y-65081513D01*
X221626076Y-65069861D01*
X221625663Y-65056715D01*
X221624700Y-65026057D01*
X221619082Y-65006723D01*
X221615139Y-64987682D01*
X221612616Y-64967707D01*
X221596480Y-64926953D01*
X221592697Y-64915904D01*
X221580468Y-64873809D01*
X221570222Y-64856485D01*
X221561661Y-64839009D01*
X221554253Y-64820297D01*
X221536173Y-64795413D01*
X221528485Y-64784832D01*
X221522074Y-64775070D01*
X221499763Y-64737344D01*
X221485530Y-64723111D01*
X221472893Y-64708316D01*
X221472208Y-64707373D01*
X221461063Y-64692033D01*
X221461060Y-64692031D01*
X221461060Y-64692030D01*
X221427287Y-64664090D01*
X221418647Y-64656228D01*
X217202375Y-60439956D01*
X217189439Y-60423809D01*
X217138153Y-60375648D01*
X217135354Y-60372935D01*
X217115795Y-60353375D01*
X217112606Y-60350902D01*
X217103716Y-60343310D01*
X217094867Y-60335000D01*
X217071767Y-60313307D01*
X217069465Y-60312041D01*
X217054120Y-60303605D01*
X217037858Y-60292922D01*
X217021963Y-60280592D01*
X216981736Y-60263184D01*
X216971248Y-60258046D01*
X216932831Y-60236926D01*
X216913337Y-60231921D01*
X216894933Y-60225620D01*
X216862083Y-60211405D01*
X216862793Y-60209762D01*
X216837994Y-60200073D01*
X216801203Y-60161972D01*
X216797314Y-60155667D01*
X216797314Y-60155666D01*
X216717367Y-60026050D01*
X216705211Y-60006342D01*
X216581157Y-59882288D01*
X216431834Y-59790186D01*
X216372996Y-59770689D01*
X216328671Y-59744810D01*
X216298623Y-59703198D01*
X216288000Y-59652983D01*
X216288000Y-59050000D01*
X221400000Y-59050000D01*
X222100000Y-59050000D01*
X222100000Y-58400000D01*
X221852176Y-58400000D01*
X221792624Y-58406402D01*
X221657910Y-58456647D01*
X221542811Y-58542811D01*
X221456647Y-58657910D01*
X221406402Y-58792624D01*
X221400000Y-58852176D01*
X221400000Y-59050000D01*
X216288000Y-59050000D01*
X216288000Y-54920244D01*
X216290264Y-54899737D01*
X216289859Y-54886861D01*
X216288061Y-54829627D01*
X216288000Y-54825732D01*
X216288000Y-54798153D01*
X216287497Y-54794172D01*
X216286580Y-54782519D01*
X216286422Y-54777485D01*
X216285209Y-54738873D01*
X216279620Y-54719640D01*
X216275674Y-54700582D01*
X216273164Y-54680706D01*
X216257088Y-54640104D01*
X216253304Y-54629053D01*
X216247381Y-54608668D01*
X216241118Y-54587110D01*
X216230914Y-54569855D01*
X216222361Y-54552395D01*
X216214986Y-54533769D01*
X216214986Y-54533768D01*
X216189308Y-54498425D01*
X216182901Y-54488671D01*
X216160670Y-54451080D01*
X216146505Y-54436915D01*
X216133867Y-54422117D01*
X216122095Y-54405913D01*
X216088441Y-54378073D01*
X216079799Y-54370209D01*
X215408588Y-53698998D01*
X215376494Y-53643409D01*
X215376495Y-53579221D01*
X215386207Y-53542976D01*
X215405277Y-53324999D01*
X215386207Y-53107025D01*
X215386207Y-53107023D01*
X215329575Y-52895670D01*
X215237102Y-52697362D01*
X215111598Y-52518123D01*
X214956877Y-52363402D01*
X214777639Y-52237898D01*
X214686205Y-52195261D01*
X214579331Y-52145425D01*
X214367974Y-52088792D01*
X214150000Y-52069722D01*
X213932025Y-52088792D01*
X213720668Y-52145425D01*
X213522361Y-52237898D01*
X213343122Y-52363402D01*
X213188402Y-52518122D01*
X213062898Y-52697361D01*
X212970425Y-52895668D01*
X212913792Y-53107025D01*
X212894722Y-53324999D01*
X212913792Y-53542974D01*
X212970425Y-53754331D01*
X212991282Y-53799058D01*
X213062898Y-53952639D01*
X213188402Y-54131877D01*
X213343123Y-54286598D01*
X213522361Y-54412102D01*
X213720670Y-54504575D01*
X213932023Y-54561207D01*
X214150000Y-54580277D01*
X214367977Y-54561207D01*
X214404221Y-54551494D01*
X214468409Y-54551494D01*
X214523997Y-54583587D01*
X214766141Y-54825732D01*
X215000681Y-55060272D01*
X215027561Y-55100500D01*
X215037000Y-55147953D01*
X215037000Y-59652983D01*
X215026377Y-59703198D01*
X214996329Y-59744810D01*
X214952004Y-59770689D01*
X214893165Y-59790186D01*
X214743842Y-59882288D01*
X214619788Y-60006342D01*
X214536981Y-60140596D01*
X214491874Y-60183777D01*
X214431442Y-60199500D01*
X214403015Y-60199500D01*
X214339894Y-60182232D01*
X214337244Y-60180665D01*
X214294973Y-60155666D01*
X214197897Y-60098255D01*
X214040072Y-60052402D01*
X214017944Y-60050660D01*
X214003194Y-60049500D01*
X212696806Y-60049500D01*
X212684514Y-60050467D01*
X212659927Y-60052402D01*
X212502102Y-60098255D01*
X212360634Y-60181919D01*
X212244419Y-60298134D01*
X212160755Y-60439602D01*
X212114902Y-60597427D01*
X212112000Y-60634308D01*
X212112000Y-60875500D01*
X212095387Y-60937500D01*
X212050000Y-60982887D01*
X211988000Y-60999500D01*
X210821806Y-60999500D01*
X210809514Y-61000467D01*
X210784927Y-61002402D01*
X210627100Y-61048255D01*
X210558293Y-61088948D01*
X210506051Y-61105738D01*
X210451678Y-61098338D01*
X210405823Y-61068196D01*
X210377468Y-61021221D01*
X210372314Y-61005666D01*
X210298632Y-60886207D01*
X210280211Y-60856342D01*
X210156157Y-60732288D01*
X210047850Y-60665485D01*
X210006834Y-60640186D01*
X210006833Y-60640185D01*
X210006832Y-60640185D01*
X209985494Y-60633114D01*
X209941170Y-60607235D01*
X209911122Y-60565624D01*
X209900500Y-60515409D01*
X209900500Y-58428149D01*
X209914511Y-58370892D01*
X209953375Y-58326576D01*
X210081877Y-58236598D01*
X210236598Y-58081877D01*
X210362102Y-57902639D01*
X210454575Y-57704330D01*
X210511207Y-57492977D01*
X210530277Y-57275000D01*
X210511207Y-57057023D01*
X210454575Y-56845670D01*
X210362102Y-56647362D01*
X210236598Y-56468123D01*
X210081877Y-56313402D01*
X209902639Y-56187898D01*
X209762547Y-56122572D01*
X209704331Y-56095425D01*
X209492974Y-56038792D01*
X209275000Y-56019722D01*
X209057025Y-56038792D01*
X208845668Y-56095425D01*
X208647361Y-56187898D01*
X208468122Y-56313402D01*
X208313402Y-56468122D01*
X208187898Y-56647361D01*
X208095425Y-56845668D01*
X208038792Y-57057025D01*
X208019722Y-57275000D01*
X208038792Y-57492974D01*
X208078455Y-57641000D01*
X208095425Y-57704330D01*
X208187898Y-57902639D01*
X208313402Y-58081877D01*
X208468123Y-58236598D01*
X208596624Y-58326576D01*
X208635489Y-58370892D01*
X208649500Y-58428149D01*
X208649500Y-60582492D01*
X208633777Y-60642924D01*
X208590596Y-60688031D01*
X208518842Y-60732288D01*
X208425181Y-60825950D01*
X208369594Y-60858044D01*
X208305406Y-60858044D01*
X208249819Y-60825950D01*
X208156157Y-60732288D01*
X208006834Y-60640186D01*
X207840297Y-60585000D01*
X207737509Y-60574500D01*
X206937491Y-60574500D01*
X206834703Y-60585000D01*
X206668165Y-60640186D01*
X206518842Y-60732288D01*
X206394788Y-60856342D01*
X206302686Y-61005665D01*
X206275568Y-61087504D01*
X206249689Y-61131829D01*
X206208077Y-61161877D01*
X206157862Y-61172500D01*
X205262966Y-61172500D01*
X205242398Y-61170229D01*
X205172082Y-61172439D01*
X205168188Y-61172500D01*
X205140524Y-61172500D01*
X205136515Y-61173006D01*
X205124884Y-61173921D01*
X205081057Y-61175298D01*
X205061720Y-61180916D01*
X205042680Y-61184859D01*
X205022709Y-61187383D01*
X204981951Y-61203519D01*
X204970905Y-61207301D01*
X204928806Y-61219532D01*
X204911480Y-61229779D01*
X204894012Y-61238336D01*
X204875295Y-61245746D01*
X204839825Y-61271516D01*
X204830067Y-61277927D01*
X204792344Y-61300237D01*
X204792342Y-61300238D01*
X204792343Y-61300238D01*
X204778107Y-61314473D01*
X204763319Y-61327103D01*
X204747033Y-61338936D01*
X204719091Y-61372711D01*
X204711230Y-61381349D01*
X203414954Y-62677625D01*
X203398806Y-62690563D01*
X203350646Y-62741847D01*
X203347940Y-62744640D01*
X203328374Y-62764207D01*
X203325899Y-62767398D01*
X203318317Y-62776275D01*
X203288306Y-62808234D01*
X203278606Y-62825877D01*
X203267928Y-62842133D01*
X203255592Y-62858036D01*
X203238185Y-62898262D01*
X203233047Y-62908750D01*
X203211927Y-62947166D01*
X203206919Y-62966670D01*
X203200619Y-62985069D01*
X203192625Y-63003542D01*
X203185769Y-63046831D01*
X203183401Y-63058267D01*
X203172500Y-63100728D01*
X203172500Y-63120859D01*
X203170973Y-63140258D01*
X203168276Y-63157288D01*
X203167825Y-63160133D01*
X201475000Y-63160133D01*
X201475000Y-50693124D01*
X204335426Y-50693124D01*
X204335427Y-50693125D01*
X204397610Y-50736666D01*
X204595840Y-50829102D01*
X204807113Y-50885712D01*
X205025000Y-50904775D01*
X205242886Y-50885712D01*
X205454159Y-50829102D01*
X205652385Y-50736667D01*
X205714572Y-50693124D01*
X205025001Y-50003553D01*
X205025000Y-50003553D01*
X204335426Y-50693124D01*
X201475000Y-50693124D01*
X201475000Y-49650000D01*
X203770224Y-49650000D01*
X203789287Y-49867886D01*
X203845898Y-50079161D01*
X203938331Y-50277386D01*
X203981873Y-50339571D01*
X203981875Y-50339572D01*
X204671447Y-49650001D01*
X204671447Y-49650000D01*
X205378553Y-49650000D01*
X206068124Y-50339572D01*
X206111667Y-50277385D01*
X206204102Y-50079159D01*
X206260712Y-49867886D01*
X206279775Y-49650000D01*
X206273213Y-49575000D01*
X248520224Y-49575000D01*
X248539287Y-49792886D01*
X248595898Y-50004161D01*
X248688331Y-50202386D01*
X248731873Y-50264571D01*
X248731875Y-50264572D01*
X249421447Y-49575001D01*
X249421447Y-49575000D01*
X250128553Y-49575000D01*
X250818124Y-50264572D01*
X250861667Y-50202385D01*
X250954102Y-50004159D01*
X251010712Y-49792886D01*
X251029775Y-49575000D01*
X251016150Y-49419264D01*
X254787817Y-49419264D01*
X256725000Y-51356447D01*
X256725001Y-51356447D01*
X258662180Y-49419265D01*
X258519510Y-49299551D01*
X258227535Y-49107517D01*
X257915255Y-48950683D01*
X257586871Y-48831162D01*
X257246828Y-48750570D01*
X256899726Y-48710000D01*
X256550274Y-48710000D01*
X256203171Y-48750570D01*
X255863128Y-48831162D01*
X255534744Y-48950683D01*
X255222464Y-49107517D01*
X254930484Y-49299554D01*
X254787817Y-49419264D01*
X251016150Y-49419264D01*
X251010712Y-49357113D01*
X250954102Y-49145840D01*
X250861667Y-48947615D01*
X250818123Y-48885428D01*
X250128553Y-49575000D01*
X249421447Y-49575000D01*
X248731875Y-48885427D01*
X248731874Y-48885428D01*
X248688333Y-48947611D01*
X248595897Y-49145840D01*
X248539287Y-49357113D01*
X248520224Y-49575000D01*
X206273213Y-49575000D01*
X206260712Y-49432113D01*
X206204102Y-49220840D01*
X206111667Y-49022615D01*
X206068123Y-48960428D01*
X205378553Y-49650000D01*
X204671447Y-49650000D01*
X203981875Y-48960427D01*
X203981874Y-48960428D01*
X203938333Y-49022611D01*
X203845897Y-49220840D01*
X203789287Y-49432113D01*
X203770224Y-49650000D01*
X201475000Y-49650000D01*
X201475000Y-48606875D01*
X204335427Y-48606875D01*
X205025000Y-49296447D01*
X205025001Y-49296447D01*
X205714572Y-48606875D01*
X205714571Y-48606873D01*
X205652386Y-48563331D01*
X205584928Y-48531875D01*
X249085427Y-48531875D01*
X249775000Y-49221447D01*
X249775001Y-49221447D01*
X250464572Y-48531875D01*
X250464571Y-48531873D01*
X250402386Y-48488331D01*
X250204161Y-48395898D01*
X249992886Y-48339287D01*
X249775000Y-48320224D01*
X249557113Y-48339287D01*
X249345840Y-48395897D01*
X249147611Y-48488333D01*
X249085428Y-48531874D01*
X249085427Y-48531875D01*
X205584928Y-48531875D01*
X205454161Y-48470898D01*
X205242886Y-48414287D01*
X205025000Y-48395224D01*
X204807113Y-48414287D01*
X204595840Y-48470897D01*
X204397611Y-48563333D01*
X204335428Y-48606874D01*
X204335427Y-48606875D01*
X201475000Y-48606875D01*
X201475000Y-47052500D01*
X201491613Y-46990500D01*
X201537000Y-46945113D01*
X201599000Y-46928500D01*
X209689516Y-46928500D01*
X260021553Y-46949945D01*
G37*
%TD.AperFunction*%
%TD*%
M02*
